<?xml version="1.0" encoding="UTF-8"?>
<svg id="Layer_1" data-name="Layer 1" xmlns="http://www.w3.org/2000/svg" version="1.1" viewBox="0 0 80 80">
  <defs>
    <style>
      .cls-1 {
        fill: #086cd9;
        stroke-width: 0px;
      }
    </style>
  </defs>
  <path class="cls-1" d="M0,40c0,22.1,17.9,40,40,40,10.7,0,20.7-4.2,28.3-11.7s11.7-17.6,11.7-28.3c0-11-4.5-21-11.7-28.3S51,0,40,0c-10.7,0-20.7,4.2-28.3,11.7C4.2,19.3,0,29.3,0,40ZM24.4,37h21s-6.2-6.2-6.2-6.2c-1.2-1.2-1.2-3.1,0-4.2s3.1-1.2,4.2,0l11.3,11.3c.3.3.5.6.6.9,0,0,0,0,0,0,.3.7.3,1.6,0,2.3,0,0,0,0,0,0-.1.3-.3.7-.6.9l-11.3,11.3c-1.2,1.2-3.1,1.2-4.2,0s-1.2-3.1,0-4.2l6.2-6.2h-21c-1.7,0-3-1.3-3-3,0-1.7,1.3-3,3-3Z"/>
</svg>