<?xml version="1.0" encoding="UTF-8"?>
<svg xmlns="http://www.w3.org/2000/svg" version="1.1" viewBox="0 0 1610.7 2029.2">
  <defs>
    <style>
      .cls-1 {
        fill: #adc4cb;
      }

      .cls-1, .cls-2, .cls-3, .cls-4 {
        stroke-width: 0px;
      }

      .cls-2 {
        fill: #000;
      }

      .cls-3 {
        fill: #1d88fe;
        mix-blend-mode: multiply;
        opacity: .6;
      }

      .cls-5 {
        isolation: isolate;
      }

      .cls-4 {
        fill: #fff;
      }
    </style>
  </defs>
  <g class="cls-5">
    <g id="Layer_1" data-name="Layer 1">
      <g>
        <path class="cls-2" d="M199.6,1417.2l-116.1-67.8,136.5-79.4,116.6,68.3-137,79Z"/>
        <path class="cls-2" d="M199.6,1418.4c-.2,0-.4,0-.6-.2l-116.1-67.8c-.6-.3-.8-1.1-.4-1.6.1-.2.3-.3.4-.4l136.5-79.4c.4-.2.8-.2,1.2,0l116.6,68.3c.6.3.8,1.1.4,1.6-.1.2-.3.3-.4.4l-137,79c-.2.1-.4.2-.6.2ZM85.9,1349.4l113.7,66.4,134.6-77.6-114.2-66.9-134.1,78.1h0Z"/>
        <path class="cls-3" d="M290.7,1586.6L0,1416.9v-150.5l290.7,166.3v153.9Z"/>
        <path class="cls-2" d="M378.1,1671c-.2,0-.4,0-.6-.2l-290.7-169.7c-.4-.2-.6-.6-.6-1v-150.5c0-.7.5-1.2,1.2-1.2.2,0,.4,0,.6.2l290.7,166.3c.4.2.6.6.6,1v153.9c0,.7-.5,1.2-1.2,1.2h0ZM88.5,1499.4l288.3,168.3v-151.1l-288.3-164.9v147.8Z"/>
        <path class="cls-4" d="M370.8,1497.8l-260.2-150.3,108.7-63.2c-1-4.1-1.9-8.2-2.7-12.3l-131.2,76.3,289.2,165.5c-1.3-5.3-2.5-10.7-3.8-16h0Z"/>
        <path class="cls-2" d="M374.5,1515c-.2,0-.4,0-.6-.2l-289.2-165.5c-.6-.3-.8-1.1-.4-1.6.1-.2.3-.3.4-.4l131.2-76.3c.6-.3,1.3-.1,1.6.4,0,.1.1.2.1.4.9,4.1,1.8,8.2,2.7,12.3.1.5-.1,1-.6,1.3l-106.9,62.2,258.4,149.2c.3.2.5.4.6.8.6,2.6,1.2,5.2,1.8,7.8.6,2.7,1.3,5.5,1.9,8.2.2.6-.2,1.3-.9,1.4,0,0-.2,0-.3,0h0ZM87.7,1348.3l285,163.1c-.4-1.8-.9-3.7-1.3-5.5-.6-2.4-1.1-4.9-1.7-7.3l-259.8-150c-.6-.3-.8-1.1-.4-1.6.1-.2.3-.3.4-.4l107.9-62.8c-.8-3.3-1.5-6.6-2.2-9.8l-127.9,74.4h0Z"/>
        <path class="cls-4" d="M83.1,1505.6c-2.3,0-4.2-1.9-4.2-4.2v-330.6c0-2.3,1.9-4.2,4.2-4.2s4.2,1.9,4.2,4.2h0v330.6c0,2.3-1.9,4.2-4.2,4.2Z"/>
        <path class="cls-2" d="M83.1,1506.8c-3,0-5.4-2.4-5.4-5.4v-330.6c0-3,2.4-5.4,5.4-5.4s5.4,2.4,5.4,5.4v330.6c0,3-2.4,5.4-5.4,5.4ZM83.1,1167.8c-1.7,0-3,1.3-3,3v330.6c0,1.7,1.3,3,3,3s3-1.3,3-3v-330.6c0-1.7-1.3-3-3-3Z"/>
        <path class="cls-4" d="M424,1305.2c-2.3,0-4.2-1.9-4.2-4.2v-330.6c0-2.3,1.9-4.2,4.2-4.2s4.2,1.9,4.2,4.2v330.6c0,2.3-1.9,4.2-4.2,4.2Z"/>
        <path class="cls-2" d="M424,1306.4c-3,0-5.4-2.4-5.4-5.4v-330.6c0-3,2.4-5.4,5.4-5.4s5.4,2.4,5.4,5.4v330.6c0,3-2.4,5.4-5.4,5.4ZM424,967.4c-1.7,0-3,1.3-3,3v330.6c0,1.7,1.3,3,3,3s3-1.3,3-3v-330.6c0-1.7-1.3-3-3-3Z"/>
        <path class="cls-4" d="M714.8,1139.2l-290.7-169.7v-12.5l290.7,28.3v153.9Z"/>
        <path class="cls-2" d="M714.8,1140.4c-.2,0-.4,0-.6-.2l-290.7-169.7c-.4-.2-.6-.6-.6-1v-12.5c0-.7.5-1.2,1.2-1.2,0,0,0,0,.1,0l290.7,28.3c.6,0,1.1.6,1.1,1.2v153.9c0,.7-.5,1.2-1.2,1.2h0ZM425.2,968.8l288.3,168.3v-150.7l-288.3-28v10.5h0Z"/>
        <path class="cls-2" d="M714.8,1139.2l-351.7,204.4v-153.9l351.7-204.4v153.9Z"/>
        <path class="cls-2" d="M363,1344.8c-.7,0-1.2-.5-1.2-1.2v-153.9c0-.4.2-.8.6-1l351.7-204.4c.6-.3,1.3-.1,1.6.4.1.2.2.4.2.6v153.9c0,.4-.2.8-.6,1l-351.7,204.4c-.2.1-.4.2-.6.2h0ZM364.2,1190.3v151.1l349.3-203v-151.1l-349.3,203ZM714.8,1139.2h0,0Z"/>
        <path class="cls-1" d="M363,1337.9l-28.4-16.4v33.3c-1.1,25.6,15.6,37.3,22.6,41.6h0c2.5,1.6,5.7-.4,5.7-3.3v-55.1h0Z"/>
        <path class="cls-2" d="M359.2,1398.1c-.9,0-1.7-.2-2.5-.7-16.2-10-24-24.3-23.2-42.7v-33.2c0-.7.5-1.2,1.2-1.2.2,0,.4,0,.6.2l28.4,16.4c.4.2.6.6.6,1v55.1c0,1.8-1,3.5-2.6,4.4-.7.4-1.6.6-2.4.6h0ZM335.9,1323.6v31.2c-.7,17.4,6.6,31.1,22,40.5.8.5,1.8.5,2.6,0,.9-.5,1.4-1.4,1.4-2.3v-54.4l-26-15Z"/>
        <path class="cls-4" d="M94.9,1243.5c-6.9-4.3-23.7-15.9-22.6-41.6v-33.3l43.7,25.2v39.9c0,9.8-12.1,15.3-21.1,9.7Z"/>
        <path class="cls-2" d="M102.7,1246.9c-2.9,0-5.9-.8-8.5-2.4-16.1-10-23.9-24.3-23.1-42.6v-33.2c0-.7.5-1.2,1.2-1.2.2,0,.4,0,.6.2l43.7,25.2c.4.2.6.6.6,1v39.9c0,4.6-2.5,8.8-6.8,11.2-2.4,1.3-5,2-7.7,2h0ZM95.5,1242.5c4.2,2.6,9.5,2.7,13.7.4,3.5-2,5.6-5.3,5.6-9.1v-39.2l-41.3-23.8v31.2c-.7,17.4,6.6,31.1,22,40.5h0Z"/>
        <path class="cls-4" d="M138.6,1268.8c-6.9-4.3-23.7-15.9-22.6-41.6v-33.3l43.7,25.2v39.9c0,9.8-12.1,15.3-21.1,9.7Z"/>
        <path class="cls-2" d="M146.4,1272.2c-2.9,0-5.9-.8-8.5-2.4-16.1-10-23.9-24.3-23.1-42.6v-33.2c0-.7.5-1.2,1.2-1.2.2,0,.4,0,.6.2l43.7,25.2c.4.2.6.6.6,1v39.9c0,4.6-2.5,8.8-6.8,11.2-2.4,1.3-5,2-7.7,2ZM117.2,1196.1v31.2c-.7,17.4,6.6,31.1,22,40.5,4.2,2.6,9.5,2.7,13.7.4,3.5-2,5.6-5.3,5.6-9.1v-39.2l-41.3-23.8h0Z"/>
        <path class="cls-4" d="M182.3,1294.8c-6.9-4.3-23.7-15.9-22.6-41.6v-33.3l43.7,25.2v39.9c0,9.8-12.1,15.3-21.1,9.7h0Z"/>
        <path class="cls-2" d="M190.1,1298.2c-2.9,0-5.9-.8-8.5-2.4-16.1-10-23.9-24.3-23.1-42.6v-33.2c0-.7.5-1.2,1.2-1.2.2,0,.4,0,.6.2l43.7,25.2c.4.2.6.6.6,1v39.9c0,4.6-2.5,8.8-6.8,11.2-2.4,1.3-5,2-7.7,2h0ZM183,1293.8c4.2,2.6,9.5,2.7,13.7.4,3.5-2,5.6-5.3,5.6-9.1v-39.2l-41.3-23.8v31.2c-.7,17.4,6.6,31.1,22,40.5h0Z"/>
        <path class="cls-4" d="M226.1,1320.5c-6.9-4.3-23.7-15.9-22.6-41.6v-33.3l43.7,25.2v39.9c0,9.8-12.1,15.3-21.1,9.7Z"/>
        <path class="cls-2" d="M233.9,1323.9c-2.9,0-5.9-.8-8.5-2.4-16.1-10-23.9-24.3-23.1-42.6v-33.2c0-.7.5-1.2,1.2-1.2.2,0,.4,0,.6.2l43.7,25.2c.4.2.6.6.6,1v39.9c0,4.6-2.5,8.8-6.8,11.2-2.4,1.3-5,2-7.7,2ZM204.7,1247.8v31.2c-.7,17.4,6.6,31.1,22,40.5,4.2,2.6,9.5,2.7,13.7.4,3.5-2,5.6-5.3,5.6-9.1v-39.2l-41.3-23.8h0Z"/>
        <path class="cls-4" d="M269.8,1345.4c-6.9-4.3-23.7-15.9-22.6-41.6v-33.3l43.7,25.2v39.9c0,9.8-12.1,15.3-21.1,9.7Z"/>
        <path class="cls-2" d="M277.6,1348.8c-2.9,0-5.9-.8-8.5-2.4-16.1-10-23.9-24.3-23.1-42.6v-33.2c0-.7.5-1.2,1.2-1.2.2,0,.4,0,.6.2l43.7,25.2c.4.2.6.6.6,1v39.9c0,4.6-2.5,8.8-6.8,11.2-2.4,1.3-5,2-7.7,2h0ZM270.4,1344.3c4.2,2.6,9.5,2.7,13.7.4,3.5-2,5.6-5.3,5.6-9.1v-39.2l-41.3-23.8v31.2c-.7,17.4,6.6,31.1,22,40.5h0Z"/>
        <path class="cls-4" d="M313.5,1370.8c-6.9-4.3-23.7-15.9-22.6-41.6v-33.3l43.7,25.2v39.9c0,9.8-12.1,15.3-21.1,9.7Z"/>
        <path class="cls-2" d="M321.3,1374.3c-2.9,0-5.9-.8-8.5-2.4-16.1-10-23.9-24.3-23.1-42.6v-33.2c0-.7.5-1.2,1.2-1.2.2,0,.4,0,.6.2l43.7,25.2c.4.2.6.6.6,1v39.9c0,4.6-2.5,8.8-6.8,11.2-2.4,1.3-5,2-7.7,2h0ZM314.1,1369.8c4.2,2.6,9.5,2.7,13.7.4,3.5-2,5.6-5.3,5.6-9.1v-39.2l-41.3-23.8v31.2c-.7,17.4,6.6,31.1,22,40.5h0Z"/>
        <path class="cls-2" d="M363,1344.8c-.2,0-.4,0-.6-.2l-290.7-169.7c-.4-.2-.6-.6-.6-1v-12.5c0-.7.5-1.2,1.2-1.2,0,0,0,0,.1,0l290.7,28.3c.6,0,1.1.6,1.1,1.2v153.9c0,.7-.5,1.2-1.2,1.2h0ZM73.5,1173.2l288.3,168.3v-150.7l-288.3-28v10.5Z"/>
        <path class="cls-4" d="M363,1189.6l351.7-204.4-290.7-28.3-351.6,204.3,290.6,28.3Z"/>
        <path class="cls-2" d="M363,1190.8s0,0-.1,0l-290.6-28.3c-.7,0-1.1-.7-1.1-1.3,0-.4.3-.7.6-.9l351.6-204.3c.2-.1.5-.2.7-.2l290.7,28.3c.7,0,1.1.7,1.1,1.3,0,.4-.3.7-.6.9l-351.7,204.4c-.2.1-.4.2-.6.2h0ZM76.3,1160.5l286.5,27.9,348.2-202.3-286.6-27.9-348,202.2Z"/>
        <path class="cls-3" d="M718.3,1858.3l-419.3-244.7V313.4l419.3,242.3v1302.7Z"/>
        <path class="cls-2" d="M782.4,1915.7c-.2,0-.4,0-.6-.2l-419.3-244.7c-.4-.2-.6-.6-.6-1V369.5c0-.7.5-1.2,1.2-1.2.2,0,.4,0,.6.2l419.3,242.3c.4.2.6.6.6,1v1302.7c0,.7-.5,1.2-1.2,1.2h0,0ZM364.2,1669.1l416.9,243.3V612.5l-416.9-240.9v1297.5h0Z"/>
        <path class="cls-4" d="M1330.9,1595.9l-548.5,318.6V611.8l548.5-315v1299.1Z"/>
        <path class="cls-2" d="M782.4,1915.7c-.7,0-1.2-.5-1.2-1.2h0V611.8c0-.4.2-.8.6-1l548.5-315c.6-.3,1.3-.1,1.6.4.1.2.2.4.2.6v1299.1c0,.4-.2.8-.6,1l-548.5,318.6c-.2.1-.4.2-.6.2h0ZM783.6,612.5v1299.9l546.1-317.2V298.9l-546.1,313.7ZM1330.9,1595.9h0,0Z"/>
        <path class="cls-1" d="M1259.5,256.1L906.7,55.2v-26.3c0,0,375.9,214,375.9,214l-23.1,13.2Z"/>
        <path class="cls-2" d="M1259.5,257.3c-.2,0-.4,0-.6-.2L906.1,56.2c-.4-.2-.6-.6-.6-1v-26.3c0-.7.6-1.2,1.3-1.2.2,0,.4,0,.6.2l375.8,214c.6.3.8,1.1.4,1.6-.1.2-.3.3-.4.4l-23.1,13.2c-.2.1-.4.2-.6.2h0ZM907.9,54.5l351.6,200.3,20.6-11.9L907.9,30.9v23.6c0,0,0,0,0,0Z"/>
        <path class="cls-4" d="M1330.9,242.8v54l-548.5,315-419.3-242.3v-54l419.3,242.3,548.5-315Z"/>
        <path class="cls-2" d="M782.4,613c-.2,0-.4,0-.6-.2l-419.3-242.3c-.4-.2-.6-.6-.6-1v-54c0-.7.5-1.2,1.2-1.2.2,0,.4,0,.6.2l418.7,242,547.9-314.7c.6-.3,1.3-.1,1.6.4.1.2.2.4.2.6v54c0,.4-.2.8-.6,1l-548.5,315c-.2.1-.4.2-.6.2h0ZM364.2,368.8l418.1,241.6,547.3-314.3v-51.2l-546.7,314c-.4.2-.8.2-1.2,0l-417.5-241.3v51.2h0Z"/>
        <path class="cls-4" d="M409.7,342.5L906.7,55.2l377,214.7-501.3,287.9-372.6-215.3Z"/>
        <path class="cls-2" d="M782.4,559c-.2,0-.4,0-.6-.2l-372.6-215.3c-.6-.3-.8-1.1-.4-1.6.1-.2.3-.3.4-.4L906.1,54.1c.4-.2.8-.2,1.2,0l377,214.7c.6.3.8,1.1.4,1.6-.1.2-.3.3-.4.4l-501.3,287.9c-.2.1-.4.2-.6.2h0ZM412.1,342.5l370.2,213.9,498.9-286.5L906.7,56.6l-494.5,286h0Z"/>
        <path class="cls-1" d="M906.7,55.2l-495.7,288v-27.7L906.8,28.9v26.3Z"/>
        <path class="cls-2" d="M411,344.4c-.7,0-1.2-.5-1.2-1.2v-27.7c0-.4.2-.8.6-1L906.2,27.8c.6-.3,1.3-.1,1.6.4.1.2.2.4.2.6v26.3c0,.4-.3.8-.7,1l-495.7,288c-.2.1-.4.2-.6.2h0ZM412.2,316.2v24.9L905.5,54.5v-23.5c0,0-493.3,285.3-493.3,285.3ZM906.7,55.2h0,0Z"/>
        <path class="cls-4" d="M906.8,28.9l375.8,214-500.2,287.3-371.4-214.6L906.8,28.9ZM906.7,1.2L363,315.5l419.3,242.3,548.5-315L906.7,1.2Z"/>
        <path class="cls-2" d="M782.4,559c-.2,0-.4,0-.6-.2l-419.3-242.3c-.6-.3-.8-1.1-.4-1.6.1-.2.3-.3.4-.4L906.1.2c.4-.2.8-.2,1.2,0l424.2,241.6c.6.3.8,1.1.5,1.6-.1.2-.3.3-.4.5l-548.5,315c-.2.1-.4.2-.6.2h0ZM365.4,315.5l416.9,240.9,546.1-313.6L906.7,2.6,365.4,315.5ZM782.4,531.4c-.2,0-.4,0-.6-.2l-371.4-214.6c-.6-.3-.8-1.1-.4-1.6.1-.2.3-.3.4-.4L906.2,27.8c.4-.2.8-.2,1.2,0l375.8,214c.6.3.8,1.1.4,1.6-.1.2-.3.3-.4.4l-500.2,287.3c-.2.1-.4.2-.6.2h0ZM413.4,315.5l369,213.3,497.7-285.9L906.8,30.2l-493.4,285.3h0Z"/>
        <path class="cls-2" d="M782.4,615.7c-.7,0-1.2-.5-1.2-1.2v-56.7c0-.7.5-1.2,1.2-1.2s1.2.5,1.2,1.2v56.7c0,.7-.5,1.2-1.2,1.2Z"/>
        <path class="cls-4" d="M1246.9,456.5l-380.7,219.8-8.4-5.9,380.7-218.6,8.4,4.7Z"/>
        <path class="cls-2" d="M866.2,677.5c-.2,0-.5,0-.7-.2l-8.4-5.9c-.5-.4-.7-1.1-.3-1.7.1-.1.2-.3.4-.4l380.7-218.6c.4-.2.8-.2,1.2,0l8.4,4.7c.6.3.8,1.1.5,1.6-.1.2-.3.3-.5.5l-380.7,219.8c-.2.1-.4.2-.6.2ZM860.1,670.5l6.2,4.4,378.2-218.4-6-3.3-378.4,217.3Z"/>
        <path class="cls-2" d="M866.2,1222.2l-8.4-4.8v-547l8.4,5.9v545.9Z"/>
        <path class="cls-2" d="M866.2,1223.4c-.2,0-.4,0-.6-.2l-8.4-4.8c-.4-.2-.6-.6-.6-1v-547c0-.7.5-1.2,1.2-1.2.2,0,.5,0,.7.2l8.4,5.9c.3.2.5.6.5,1v545.9c0,.7-.5,1.2-1.2,1.2ZM859,1216.8l6,3.4v-543.2l-6-4.2v544h0Z"/>
        <path class="cls-4" d="M1246.9,1003.6l-380.7,218.6v-545.9l380.7-219.8v547.1Z"/>
        <path class="cls-2" d="M866.2,1223.4c-.7,0-1.2-.5-1.2-1.2v-545.9c0-.4.2-.8.6-1l380.7-219.8c.6-.3,1.3-.1,1.6.4.1.2.2.4.2.6v547.1c0,.4-.2.8-.6,1l-380.7,218.6c-.2.1-.4.2-.6.2ZM867.4,677v543.2l378.3-217.2V458.6l-378.3,218.4h0ZM1246.9,1003.6h0,0Z"/>
        <path class="cls-2" d="M1246.7,1003.5l-380.5,212.8v6l23.4,13.5,381.4-218.7v-6l-24.3-7.6Z"/>
        <path class="cls-2" d="M889.6,1237c-.2,0-.4,0-.6-.2l-23.4-13.5c-.4-.2-.6-.6-.6-1v-6c0-.4.2-.8.6-1l380.5-212.8c.3-.2.6-.2.9,0l24.3,7.6c.5.2.8.6.8,1.1v6c0,.4-.2.8-.6,1l-381.4,218.7c-.2.1-.4.2-.6.2h0ZM867.4,1221.6l22.2,12.9,380.2-218v-4.4l-22.9-7.2-379.4,212.2v4.6h0Z"/>
        <path class="cls-4" d="M1246.7,997.5l-380.5,218.8,23.4,13.5,381.4-218.7-24.3-13.6Z"/>
        <path class="cls-2" d="M889.6,1231c-.2,0-.4,0-.6-.2l-23.4-13.5c-.6-.3-.8-1.1-.4-1.6.1-.2.3-.3.4-.4l380.5-218.8c.4-.2.8-.2,1.2,0l24.3,13.6c.6.3.8,1.1.5,1.6-.1.2-.3.3-.4.5l-381.4,218.7c-.2.1-.4.2-.6.2h0ZM868.6,1216.3l21,12.2,379-217.3-21.8-12.2-378.1,217.4Z"/>
        <path class="cls-4" d="M737,1813.2l-229.1-133-.5-254.5,229.6,134.1v253.3Z"/>
        <path class="cls-4" d="M498.3,1686.6v-266.2l238.7,139.4v266.1l-238.7-139.3Z"/>
        <path class="cls-2" d="M737,1827.2c-.2,0-.4,0-.6-.2l-238.7-139.3c-.4-.2-.6-.6-.6-1v-266.2c0-.7.5-1.2,1.2-1.2.2,0,.4,0,.6.2l238.7,139.4c.4.2.6.6.6,1v266.1c0,.7-.5,1.2-1.2,1.2h0,0ZM499.4,1686l236.3,137.9v-263.4l-236.3-138v263.4Z"/>
        <path class="cls-2" d="M507.3,1425.7l229.6,134.1v253.3l-229.1-133-.5-254.5ZM498.3,1420.5v266.2l238.7,139.3v-266.1l-238.7-139.4h0Z"/>
        <path class="cls-2" d="M737,1827.2c-.2,0-.4,0-.6-.2l-238.7-139.3c-.4-.2-.6-.6-.6-1v-266.2c0-.7.5-1.2,1.2-1.2.2,0,.4,0,.6.2l8.9,5.2c0,0,.1,0,.2,0l229.6,134.1c.4.2.6.6.6,1v266.2c0,.7-.5,1.2-1.2,1.2h0ZM499.4,1686l236.3,137.9v-10l-228.5-132.6c-.4-.2-.6-.6-.6-1l-.5-253.8-6.7-3.9v263.4ZM509.1,1679.5l226.7,131.6v-250.6l-227.2-132.7.5,251.7h0Z"/>
        <path class="cls-4" d="M737,1826l-238.7-139.3,9.6-6.4,229.1,133v12.8Z"/>
        <path class="cls-2" d="M737,1827.2c-.2,0-.4,0-.6-.2l-238.7-139.3c-.6-.3-.8-1.1-.4-1.6,0-.2.2-.3.4-.4l9.6-6.4c.4-.3.9-.3,1.3,0l229.1,133c.4.2.6.6.6,1v12.8c0,.7-.5,1.2-1.2,1.2h0,0ZM500.5,1686.6l235.3,137.3v-10l-227.9-132.2-7.4,5h0Z"/>
        <path class="cls-4" d="M388.8,1684.6v-328.1l77.7,45.6v328l-77.7-45.5Z"/>
        <path class="cls-2" d="M466.6,1731.3c-.2,0-.4,0-.6-.2l-77.7-45.5c-.4-.2-.6-.6-.6-1v-328.1c0-.4.2-.8.6-1s.8-.2,1.2,0l77.7,45.6c.4.2.6.6.6,1v328c0,.7-.5,1.2-1.2,1.2h0ZM390,1683.9l75.3,44.1v-325.3l-75.3-44.2v325.3h0Z"/>
        <path class="cls-2" d="M397.9,1361.8l68.6,40.3v315.2l-68.1-38.9-.5-316.6ZM388.8,1356.5v328.3l77.7,45.3v-328l-77.7-45.6h0Z"/>
        <path class="cls-2" d="M466.6,1731.3c-.2,0-.4,0-.6-.2l-77.7-45.3c-.4-.2-.6-.6-.6-1v-328.3c0-.4.2-.8.6-1s.8-.2,1.2,0l8.8,5.2c0,0,.2,0,.3.1l68.6,40.3c0,0,.1,0,.2.1s0,0,0,0h0s0,0,0,0h0s0,0,0,0h0s0,0,0,0h0c.2.2.4.5.4.8s0,0,0,0v328.1c0,.7-.5,1.2-1.2,1.2h0ZM390,1684.1l75.3,43.9v-10l-67.5-38.6c-.4-.2-.6-.6-.6-1l-.5-315.8-6.7-3.9v325.5h0ZM399.7,1677.7l65.7,37.6v-312.5l-66.2-38.8.5,313.7h0Z"/>
        <path class="cls-1" d="M466.6,1730.1l-77.7-45.3,9.6-6.4,68.1,38.9v12.8Z"/>
        <path class="cls-2" d="M466.6,1731.3c-.2,0-.4,0-.6-.2l-77.7-45.3c-.6-.3-.8-1.1-.4-1.6,0-.2.2-.3.4-.4l9.6-6.4c.4-.3.9-.3,1.3,0l68.1,38.9c.4.2.6.6.6,1v12.8c0,.7-.5,1.2-1.2,1.2h0ZM391.1,1684.7l74.3,43.3v-10l-66.9-38.2-7.4,5Z"/>
        <path class="cls-1" d="M466.6,1497.8l-77.7-44.6v-13c0,0,77.7,44.9,77.7,44.9v12.6Z"/>
        <path class="cls-2" d="M466.6,1499c-.2,0-.4,0-.6-.2l-77.7-44.6c-.4-.2-.6-.6-.6-1v-13c0-.7.5-1.2,1.1-1.2.2,0,.4,0,.6.2l77.7,44.9c.4.2.6.6.6,1v12.6c0,.7-.5,1.2-1.1,1.2h0ZM390,1452.5l75.3,43.2v-9.9s-75.4-43.5-75.4-43.5v10.2s0,0,0,0Z"/>
        <path class="cls-4" d="M466.5,1485.2l-77.7-44.9,10.1-6.2,67.6,39.4v11.7Z"/>
        <path class="cls-2" d="M466.5,1486.4c-.2,0-.4,0-.6-.2l-77.7-44.9c-.6-.3-.8-1.1-.4-1.6.1-.2.2-.3.4-.4l10.1-6.2c.4-.2.8-.2,1.2,0l67.6,39.4c.4.2.6.6.6,1v11.7c0,.7-.5,1.2-1.2,1.2h0ZM391.1,1440.2l74.2,42.9v-8.9l-66.4-38.7-7.8,4.7h0ZM454.2,1606l-6.8-3.6v-32.3l6.8,3.6v32.3Z"/>
        <path class="cls-2" d="M454.2,1607.2c-.2,0-.4,0-.6-.1l-6.8-3.6c-.4-.2-.6-.6-.6-1.1v-32.3c0-.7.5-1.2,1.2-1.2.2,0,.4,0,.6.1l6.8,3.6c.4.2.6.6.6,1.1v32.3c0,.7-.5,1.2-1.2,1.2h0,0ZM448.6,1601.6l4.4,2.3v-29.6l-4.4-2.3v29.6ZM363,1136l-6.1,4.5,6.1,154.9,413.3,249.3,6.1-4.5v-159.3l-419.3-245Z"/>
        <path class="cls-2" d="M776.3,1546c-.2,0-.4,0-.6-.2l-413.3-249.3c-.3-.2-.6-.6-.6-1l-6.1-154.9c0-.4.2-.8.5-1l6.1-4.5c.4-.3.9-.3,1.3,0l419.3,245c.4.2.6.6.6,1v159.3c0,.4-.2.7-.5,1l-6.1,4.5c-.2.2-.5.2-.7.2h0ZM364.2,1294.7l412,248.6,4.9-3.7v-158l-418-244.3-4.9,3.7,6,153.6Z"/>
        <path class="cls-4" d="M357,1140.5v159.5l419.3,244.8v-159.3l-419.3-245Z"/>
        <path class="cls-2" d="M776.3,1546c-.2,0-.4,0-.6-.2l-419.3-244.8c-.4-.2-.6-.6-.6-1v-159.5c0-.7.5-1.2,1.2-1.2.2,0,.4,0,.6.2l419.3,245c.4.2.6.6.6,1v159.3c0,.7-.5,1.2-1.2,1.2h0,0ZM358.2,1299.3l416.9,243.4v-156.5l-416.9-243.6v156.7h0Z"/>
        <path class="cls-2" d="M782.4,1540.2l-6.1,4.5v-159.3l6.1-4.5v159.3Z"/>
        <path class="cls-2" d="M776.3,1546c-.7,0-1.2-.5-1.2-1.2v-159.3c0-.4.2-.7.5-1l6.1-4.5c.5-.4,1.3-.3,1.7.2.2.2.2.5.2.7v159.3c0,.4-.2.7-.5,1l-6.1,4.5c-.2.2-.5.2-.7.2ZM777.5,1386.1v156.3l3.7-2.7v-156.3l-3.7,2.7ZM782.4,1540.2h0,0Z"/>
        <path class="cls-3" d="M1079.7,1971.8l-277.5-161.8v-479.8l277.5,162v479.6Z"/>
        <path class="cls-2" d="M1143.7,2029.2c-.2,0-.4,0-.6-.2l-277.5-161.8c-.4-.2-.6-.6-.6-1v-479.8c0-.7.5-1.2,1.2-1.2.2,0,.4,0,.6.2l277.5,162c.4.2.6.6.6,1v479.6c0,.7-.5,1.2-1.2,1.2h0ZM867.4,1865.5l275.1,160.4v-476.8l-275.1-160.6v477Z"/>
        <path class="cls-4" d="M1609.5,1757.3l-465.7,270.7v-479.6l465.7-269.7v478.6Z"/>
        <path class="cls-2" d="M1143.7,2029.2c-.7,0-1.2-.5-1.2-1.2v-479.6c0-.4.2-.8.6-1l465.7-269.7c.6-.3,1.3-.1,1.6.4.1.2.2.4.2.6v478.6c0,.4-.2.8-.6,1l-465.7,270.7c-.2.1-.4.2-.6.2h0ZM1144.9,1549.1v476.8l463.3-269.3v-475.8l-463.3,268.3h0ZM1609.5,1757.3h0,0Z"/>
        <path class="cls-4" d="M1609.5,1278.7l-278.3-162.4-464.9,270.1,277.5,162,465.7-269.6Z"/>
        <path class="cls-2" d="M1143.8,1549.6c-.2,0-.4,0-.6-.2l-277.5-162c-.6-.3-.8-1.1-.4-1.6.1-.2.3-.3.4-.4l464.9-270.1c.4-.2.8-.2,1.2,0l278.3,162.4c.6.3.8,1.1.4,1.6-.1.2-.3.3-.4.4l-465.7,269.6c-.2.1-.4.2-.6.2h0ZM868.6,1386.4l275.2,160.6,463.3-268.3-275.9-161-462.6,268.7h0Z"/>
        <path class="cls-4" d="M1496,1759.9v-266.2l-238.7,139.4v266.1l238.7-139.3Z"/>
        <path class="cls-2" d="M1257.2,1900.5c-.7,0-1.2-.5-1.2-1.2h0v-266.1c0-.4.2-.8.6-1l238.7-139.4c.6-.3,1.3-.1,1.6.4.1.2.2.4.2.6v266.2c0,.4-.2.8-.6,1l-238.7,139.3c-.2.1-.4.2-.6.2h0ZM1258.4,1633.8v263.4l236.3-137.9v-263.4l-236.3,138h0ZM1496,1759.9h0,0Z"/>
        <path class="cls-2" d="M1486.3,1753.5l-229.1,133v-253.3l229.6-134.1-.5,254.5ZM1496,1493.8l-238.7,139.4v266.1l238.7-139.3v-266.2h0Z"/>
        <path class="cls-2" d="M1257.2,1900.5c-.7,0-1.2-.5-1.2-1.2h0v-266.2s0,0,0-.1h0s0,0,0,0h0s0,0,0,0h0s0,0,0,0c0-.3.3-.6.6-.8l229.6-134.1c0,0,.1,0,.2,0l8.9-5.2c.6-.3,1.3-.1,1.6.4.1.2.2.4.2.6v266.2c0,.4-.2.8-.6,1l-238.7,139.3c-.2.1-.4.2-.6.2h0ZM1258.4,1887.2v10l236.3-137.9v-263.4l-6.7,3.9-.5,253.8c0,.4-.2.8-.6,1l-228.5,132.6h0ZM1258.4,1633.8v250.6l226.7-131.6.5-251.7-227.2,132.7h0ZM1486.3,1753.5h0,0Z"/>
        <path class="cls-4" d="M1257.2,1899.3l238.7-139.3-9.6-6.4-229.1,133v12.8Z"/>
        <path class="cls-2" d="M1257.2,1900.5c-.7,0-1.2-.5-1.2-1.2h0v-12.8c0-.4.2-.8.6-1l229.1-133c.4-.2.9-.2,1.3,0l9.6,6.4c.6.4.7,1.1.3,1.7-.1.2-.2.3-.4.4l-238.7,139.3c-.2.1-.4.2-.6.2h0ZM1258.4,1887.2v10l235.3-137.3-7.4-5-227.9,132.2Z"/>
        <path class="cls-4" d="M535.9,791.8l-97.3-54.3v-210.3l97.5,56.2v208.4Z"/>
        <path class="cls-2" d="M535.9,793c-.2,0-.4,0-.6-.2l-97.3-54.3c-.4-.2-.6-.6-.6-1v-210.3c0-.7.5-1.2,1.2-1.2.2,0,.4,0,.6.2l97.5,56.2c.4.2.6.6.6,1v208.4c-.1.7-.7,1.2-1.3,1.2ZM439.8,736.8l94.9,52.9v-205.6c.1,0-94.9-54.8-94.9-54.8v207.5Z"/>
        <path class="cls-2" d="M440.8,528.6l95.3,54.8v205l-94.2-53.7-1.1-206.2h0ZM433,524v215.9l103.1,59.6v-216l-103.1-59.4Z"/>
        <path class="cls-2" d="M536.1,800.6c-.2,0-.4,0-.6-.2l-103.1-59.6c-.4-.2-.6-.6-.6-1v-215.9c0-.7.5-1.2,1.2-1.2.2,0,.4,0,.6.2l103.1,59.4c0,0,.1,0,.2.2s0,0,0,0h0s0,0,0,0h0s0,0,0,0h0s0,0,0,0c0,0,0,0,0,0h0c.2.2.3.5.3.8v216.1c0,.7-.5,1.2-1.2,1.2h0,0ZM434.2,739.2l100.7,58.2v-8.2l-93.6-53.4c-.4-.2-.6-.6-.6-1l-1.1-205.5-5.4-3.1v213.1h0ZM443.1,734l91.8,52.4v-202.3l-92.9-53.5,1.1,203.4h0Z"/>
        <path class="cls-4" d="M536.1,799.4l-103.1-59.6,8.9-5.1,94.2,53.7v11Z"/>
        <path class="cls-2" d="M536.1,800.6c-.2,0-.4,0-.6-.2l-103.1-59.6c-.6-.3-.8-1.1-.4-1.6.1-.2.3-.3.4-.4l8.9-5.1c.4-.2.8-.2,1.2,0l94.2,53.7c.4.2.6.6.6,1v11c0,.7-.5,1.2-1.2,1.2h0ZM435.4,739.9l99.5,57.5v-8.2l-93-53.1-6.5,3.8ZM536.1,710.2v-14.8s-103.1-59.4-103.1-59.4v15.1s103.1,59.1,103.1,59.1Z"/>
        <path class="cls-2" d="M536.1,711.4c-.2,0-.4,0-.6-.2l-103-59.1c-.4-.2-.6-.6-.6-1v-15.1c0-.7.5-1.2,1.1-1.2.2,0,.4,0,.6.2l103,59.4c.4.2.6.6.6,1v14.8c0,.7-.5,1.2-1.2,1.2h0ZM434.2,650.4l100.6,57.8v-12s-100.7-58.1-100.7-58.1v12.3Z"/>
        <path class="cls-4" d="M712.4,893.8l-97.5-54.4v-210.3l97.5,56.2v208.5Z"/>
        <path class="cls-2" d="M712.4,895c-.2,0-.4,0-.6-.2l-97.5-54.4c-.4-.2-.6-.6-.6-1v-210.3c0-.7.5-1.2,1.2-1.2s.4,0,.6.2l97.5,56.2c.4.2.6.6.6,1v208.5c0,.7-.5,1.2-1.2,1.2h0ZM616.1,838.8l95.1,53v-205.7l-95.1-54.8v207.5Z"/>
        <path class="cls-2" d="M617.2,630.5l95.3,54.8v205l-94.2-53.7-1.1-206.2h0ZM609.3,625.9v215.9l103.1,59.6v-216l-103.1-59.4Z"/>
        <path class="cls-2" d="M712.4,902.6c-.2,0-.4,0-.6-.2l-103.1-59.6c-.4-.2-.6-.6-.6-1v-215.9c0-.7.5-1.2,1.2-1.2s.4,0,.6.2l103.1,59.4c0,0,.2.1.2.2s0,0,0,0h0s0,0,0,0h0s0,0,0,0h0s0,0,0,0h0s0,0,0,0h0s0,0,0,0h0s0,0,0,0h0s0,0,0,0h0s0,0,0,0h0c.2.2.3.5.3.7v216.1c0,.7-.5,1.2-1.2,1.2h0,0ZM610.5,841.1l100.7,58.2v-8.2l-93.6-53.4c-.4-.2-.6-.6-.6-1l-1.1-205.5-5.4-3.1v213.1h0ZM619.4,836l91.8,52.4v-202.3l-92.9-53.5,1.1,203.4h0Z"/>
        <path class="cls-4" d="M712.4,901.4l-103.1-59.6,8.9-5.1,94.2,53.7v11Z"/>
        <path class="cls-2" d="M712.4,902.6c-.2,0-.4,0-.6-.2l-103.1-59.6c-.6-.3-.8-1.1-.4-1.6.1-.2.3-.3.4-.4l8.9-5.1c.4-.2.8-.2,1.2,0l94.2,53.7c.4.2.6.6.6,1v11c0,.7-.5,1.2-1.2,1.2h0,0ZM611.7,841.8l99.5,57.5v-8.2l-93-53.1-6.5,3.8ZM712.4,812.2v-14.8s-103.1-59.4-103.1-59.4v15.1s103.1,59.1,103.1,59.1Z"/>
        <path class="cls-2" d="M712.4,813.4c-.2,0-.4,0-.6-.2l-103-59.1c-.4-.2-.6-.6-.6-1v-15.1c0-.7.5-1.2,1.1-1.2.2,0,.4,0,.6.2l103,59.4c.4.2.6.6.6,1v14.8c0,.7-.5,1.2-1.2,1.2h0ZM610.6,752.3l100.6,57.8v-12s-100.7-58.1-100.7-58.1v12.3Z"/>
        <path class="cls-4" d="M536.1,1117.9l-97.5-54.4v-210.3l97.5,56.2v208.5Z"/>
        <path class="cls-2" d="M536.1,1119.1c-.2,0-.4,0-.6-.2l-97.5-54.4c-.4-.2-.6-.6-.6-1v-210.3c0-.7.5-1.2,1.2-1.2s.4,0,.6.2l97.5,56.2c.4.2.6.6.6,1v208.5c0,.7-.5,1.2-1.2,1.2ZM439.8,1062.7l95.1,53.1v-205.8l-95.1-54.8v207.5h0Z"/>
        <path class="cls-2" d="M440.8,854.5l95.3,54.8v205l-94.2-53.7-1.1-206.2h0ZM433,849.9v215.9l103.1,59.6v-216l-103.1-59.4Z"/>
        <path class="cls-2" d="M536.1,1126.6c-.2,0-.4,0-.6-.2l-103.1-59.6c-.4-.2-.6-.6-.6-1v-215.9c0-.7.5-1.2,1.2-1.2s.4,0,.6.2l103.1,59.4c0,0,.2.1.2.2s0,0,0,0h0s0,0,0,0h0s0,0,0,0h0s0,0,0,0h0s0,0,0,0h0s0,0,0,0h0s0,0,0,0h0s0,0,0,0c0,0,0,0,0,0,0,0,0,0,0,0s0,0,0,0c.2.2.3.5.3.7v216.1c0,.7-.5,1.2-1.2,1.2h0,0ZM434.2,1065.1l100.7,58.2v-8.2l-93.6-53.4c-.4-.2-.6-.6-.6-1l-1.1-205.5-5.4-3.1v213.1h0ZM443.1,1060l91.8,52.4v-202.3l-92.9-53.5,1.1,203.4Z"/>
        <path class="cls-4" d="M536.1,1125.4l-103.1-59.6,8.9-5.1,94.2,53.7v11Z"/>
        <path class="cls-2" d="M536.1,1126.6c-.2,0-.4,0-.6-.2l-103.1-59.6c-.6-.3-.8-1.1-.4-1.6.1-.2.3-.3.4-.4l8.9-5.1c.4-.2.8-.2,1.2,0l94.2,53.7c.4.2.6.6.6,1v11c0,.7-.5,1.2-1.2,1.2h0ZM435.4,1065.8l99.5,57.5v-8.2l-93-53.1-6.5,3.8ZM536.1,1036.2v-14.8s-94.7-54.6-94.7-54.6l.3,14.5,94.3,54.9Z"/>
        <path class="cls-2" d="M536.1,1037.4c-.2,0-.4,0-.6-.2l-94.3-54.9c-.4-.2-.6-.6-.6-1l-.3-14.5c0-.7.5-1.2,1.2-1.2.2,0,.4,0,.6.2l94.6,54.6c.4.2.6.6.6,1v14.8c0,.7-.5,1.2-1.2,1.2h0,0ZM442.9,980.6l92,53.5v-12s-92.2-53.2-92.2-53.2l.3,11.7h0Z"/>
        <path class="cls-4" d="M712.4,1219.8l-97.5-54.4v-210.3l97.5,56.2v208.5Z"/>
        <path class="cls-2" d="M712.4,1221c-.2,0-.4,0-.6-.2l-97.5-54.4c-.4-.2-.6-.6-.6-1v-210.3c0-.7.5-1.2,1.2-1.2s.4,0,.6.2l97.5,56.2c.4.2.6.6.6,1v208.5c0,.7-.5,1.2-1.2,1.2h0ZM616.1,1164.7l95.1,53v-205.7l-95.1-54.8v207.5Z"/>
        <path class="cls-2" d="M617.2,956.4l95.3,54.8v205l-94.2-53.7-1.1-206.2h0ZM609.3,951.9v215.9l103.1,59.6v-216l-103.1-59.4h0Z"/>
        <path class="cls-2" d="M712.4,1228.5c-.2,0-.4,0-.6-.2l-103.1-59.6c-.4-.2-.6-.6-.6-1v-215.9c0-.7.5-1.2,1.2-1.2s.4,0,.6.2l103.1,59.4c0,0,.2.1.2.2s0,0,0,0,0,0,0,0h0s0,0,0,0c0,0,0,0,0,0h0s0,0,0,0h0s0,0,0,0h0s0,0,0,0h0s0,0,0,0h0s0,0,0,0c0,0,0,0,0,0,0,0,0,0,0,0h0c.2.2.3.5.3.7v216.1c0,.7-.5,1.2-1.2,1.2h0,0ZM610.5,1167l100.7,58.2v-8.2l-93.6-53.4c-.4-.2-.6-.6-.6-1l-1.1-205.5-5.4-3.1v213.1h0ZM619.4,1161.9l91.8,52.4v-202.3l-92.9-53.5,1.1,203.4h0Z"/>
        <path class="cls-4" d="M712.4,1227.3l-103.1-59.6,8.9-5.1,94.2,53.7v11Z"/>
        <path class="cls-2" d="M712.4,1228.5c-.2,0-.4,0-.6-.2l-103.1-59.6c-.6-.3-.8-1.1-.4-1.6.1-.2.3-.3.4-.4l8.9-5.1c.4-.2.8-.2,1.2,0l94.2,53.7c.4.2.6.6.6,1v11c0,.7-.5,1.2-1.2,1.2h0,0ZM611.7,1167.7l99.5,57.5v-8.2l-93-53.1-6.5,3.8ZM712.4,1138.1v-14.8s-103.1-59.4-103.1-59.4v15.1s103.1,59.1,103.1,59.1Z"/>
        <path class="cls-2" d="M712.4,1139.3c-.2,0-.4,0-.6-.2l-103-59.1c-.4-.2-.6-.6-.6-1v-15.1c0-.7.5-1.2,1.1-1.2.2,0,.4,0,.6.2l103,59.4c.4.2.6.6.6,1v14.8c0,.7-.5,1.2-1.2,1.2h0ZM610.6,1078.3l100.6,57.8v-12s-100.7-58.1-100.7-58.1v12.3Z"/>
        <path class="cls-3" d="M337.2,1286.1l-290.7-169.7v-12.5l290.7,28.3v153.9Z"/>
      </g>
    </g>
  </g>
</svg>