<?xml version="1.0" encoding="UTF-8"?>
<svg xmlns="http://www.w3.org/2000/svg" version="1.1" viewBox="0 0 1785.7 1841.4">
  <defs>
    <style>
      .cls-1 {
        fill: #dbf301;
      }

      .cls-1, .cls-2, .cls-3, .cls-4 {
        stroke-width: 0px;
      }

      .cls-2 {
        fill: #000;
      }

      .cls-3 {
        fill: #1d88fe;
        mix-blend-mode: multiply;
        opacity: .6;
      }

      .cls-5 {
        isolation: isolate;
      }

      .cls-4 {
        fill: #fff;
      }
    </style>
  </defs>
  <g class="cls-5">
    <g id="Layer_1" data-name="Layer 1">
      <g>
        <g>
          <path class="cls-4" d="M1133.7,1749.3l-646.3-376.2-2-946.9,316.8-58.3,331.2,432.9.3,948.5Z"/>
          <path class="cls-2" d="M1133.7,1750.5c-.2,0-.4,0-.6-.2l-646.3-376.2c-.4-.2-.6-.6-.6-1l-2-946.9c0-.6.4-1.1,1-1.2l316.8-58.3c.4,0,.9,0,1.2.5l331.2,432.9c.2.2.2.5.2.7l.3,948.5c0,.7-.5,1.2-1.2,1.2h0ZM488.6,1372.4l643.9,374.8-.3-946-330.6-432-315.1,58,2,945.2h0Z"/>
          <path class="cls-4" d="M1565.3,1497.9l-431.6,251.4-.3-948.5,433.9-250.1-2.1,947.2Z"/>
          <path class="cls-2" d="M1133.7,1750.5c-.7,0-1.2-.5-1.2-1.2h0s-.3-948.5-.3-948.5c0-.4.2-.8.6-1l433.9-250.1c.6-.3,1.3-.1,1.6.4.1.2.2.4.2.6l-2.1,947.2c0,.4-.2.8-.6,1l-431.6,251.4c-.2.1-.4.2-.6.2h0ZM1134.6,801.5l.3,945.7,429.2-250,2.1-944.4-431.5,248.7h0ZM1565.3,1497.9h0,0Z"/>
          <path class="cls-4" d="M1237.1,118.7l-318.4,58.6-433.3,248.8,316.8-58.3,331.2,432.9,433.9-250.1-330.3-432Z"/>
          <path class="cls-2" d="M1133.4,802c-.4,0-.7-.2-1-.5l-330.8-432.4-316,58.2c-.7.1-1.3-.3-1.4-1,0-.5.1-1,.6-1.2l433.3-248.8c.1,0,.2-.1.4-.1l318.4-58.6c.4,0,.9,0,1.2.5l330.3,432c.4.5.3,1.3-.2,1.7,0,0,0,0-.1,0l-433.9,250.1c-.2.1-.4.2-.6.2h0ZM802.2,366.6c.4,0,.7.2,1,.5l330.6,432.1,431.8-248.9-329-430.3-317.4,58.5-427,245.3,309.9-57c0,0,.1,0,.2,0h0Z"/>
          <path class="cls-4" d="M1326.6,903.2l-130.9,76.2v-188.3c0,0,131.5-75.8,131.5-75.8l-.6,187.9Z"/>
          <path class="cls-2" d="M1195.8,980.6c-.7,0-1.2-.5-1.2-1.2h0s0-188.3,0-188.3c0-.4.2-.8.6-1l131.6-75.8c.6-.3,1.3-.1,1.6.4.1.2.2.4.2.6l-.6,187.9c0,.4-.2.8-.6,1l-130.9,76.2c-.2.1-.4.2-.6.2h0ZM1196.9,791.8v185.5c0,0,128.6-74.8,128.6-74.8l.6-185.1-129.2,74.5h0ZM1326.6,903.2h0,0Z"/>
          <path class="cls-4" d="M1505.5,798.8l-130.9,76.2v-188.3c0,0,131.5-75.8,131.5-75.8l-.6,187.9Z"/>
          <path class="cls-2" d="M1374.6,876.2c-.7,0-1.2-.5-1.2-1.2h0s0-188.3,0-188.3c0-.4.2-.8.6-1l131.6-75.8c.6-.3,1.3-.1,1.6.4.1.2.2.4.2.6l-.6,187.9c0,.4-.2.8-.6,1l-130.9,76.2c-.2.1-.4.2-.6.2h0ZM1375.7,687.5v185.5c0,0,128.6-74.8,128.6-74.8l.6-185.1-129.2,74.5h0ZM1505.5,798.8h0,0ZM1318.7,896.4l-114.9,66.9v-165.2c0,0,115.4-66.6,115.4-66.6l-.6,164.9Z"/>
          <path class="cls-2" d="M1203.8,964.5c-.7,0-1.2-.5-1.2-1.2h0s0-165.3,0-165.3c0-.4.2-.8.6-1l115.5-66.6c.6-.3,1.3-.1,1.6.4.1.2.2.4.2.6l-.6,164.9c0,.4-.2.8-.6,1l-114.9,66.9c-.2.1-.4.2-.6.2h0ZM1204.9,798.7v162.5c0,0,112.5-65.5,112.5-65.5l.5-162.1-113.1,65.2h0ZM1318.7,896.4h0,0ZM1497.5,792l-114.9,66.9v-165.2c0,0,115.4-66.6,115.4-66.6l-.6,164.9Z"/>
          <path class="cls-2" d="M1382.6,860.1c-.7,0-1.2-.5-1.2-1.2h0s0-165.3,0-165.3c0-.4.2-.8.6-1l115.5-66.6c.6-.3,1.3-.1,1.6.4.1.2.2.4.2.6l-.6,164.9c0,.4-.2.8-.6,1l-114.9,66.9c-.2.1-.4.2-.6.2h0ZM1383.8,694.3v162.5c0,0,112.5-65.5,112.5-65.5l.5-162.1-113.1,65.2h0ZM1497.5,792h0,0Z"/>
          <path class="cls-4" d="M1297.4,84.6l-362.2,66.7-493,263.8v19.3l351.9-65.2,385.4,512.1,493.7-293v-31.5l-375.8-472.2Z"/>
          <path class="cls-2" d="M1179.5,882.6c-.4,0-.7-.2-1-.5l-384.9-511.5-351.2,65c-.7.1-1.3-.3-1.4-1,0,0,0-.1,0-.2v-19.3c0-.4.2-.8.6-1.1l493-263.8c.1,0,.2,0,.3-.1l362.2-66.7c.4,0,.9,0,1.2.4l375.8,472.2c.2.2.3.5.3.7v31.5c0,.4-.2.8-.6,1l-493.7,293c-.2.1-.4.2-.6.2h0ZM794.1,368.1c.4,0,.7.2,1,.5l384.7,511.2,492.2-292.1v-30.4l-375.1-471.4-361.3,66.6-492.2,263.4v17.1l350.5-64.9c0,0,.1,0,.2,0h0Z"/>
          <path class="cls-3" d="M1785.7,549.5l-493.7,284.6-376.9-492.6L1409.9,58l375.8,491.5Z"/>
          <path class="cls-2" d="M1179.5,842.7c-.4,0-.7-.2-1-.5l-376.9-492.6c-.4-.5-.3-1.3.2-1.7,0,0,0,0,.1,0l494.8-283.5c.5-.3,1.2-.2,1.5.3l375.8,491.5c.4.5.3,1.3-.2,1.7,0,0,0,0-.1,0l-493.7,284.6c-.2.1-.4.2-.6.2h0ZM804.4,349.2l375.4,490.7,491.6-283.4-374.3-489.6-492.7,282.3h0Z"/>
          <path class="cls-3" d="M1318,0l-494.8,283.5-360.4,66.3L955.8,66.7,1318,0Z"/>
          <path class="cls-3" d="M442.2,416.4c-.7,0-1.2-.5-1.2-1.2,0-.4.2-.8.6-1l493-283.1c.1,0,.2-.1.4-.1l362.2-66.7c.6-.1,1.1.2,1.3.8.2.5,0,1.2-.5,1.5l-494.8,283.5c-.1,0-.2.1-.4.1l-360.4,66.3c0,0-.1,0-.2,0h0ZM935.6,133.2l-486.7,279.5,353.3-65,488.5-279.9-355.1,65.4ZM1673.2,588.8l-493.7,292.6v-39.9l493.7-284.6v31.9Z"/>
          <path class="cls-2" d="M1179.5,882.6c-.7,0-1.2-.5-1.2-1.2v-39.9c0-.4.2-.8.6-1l493.7-284.6c.6-.3,1.3-.1,1.6.4.1.2.2.4.2.6v31.9c0,.4-.2.8-.6,1l-493.7,292.6c-.2.1-.4.2-.6.2h0ZM1180.7,842.2v37.1l491.3-291.2v-29.1l-491.3,283.2ZM1673.2,588.8h0,0Z"/>
          <path class="cls-4" d="M1282.6,1661.6l199.2-115.9.8-379.6-199.9,115.3v380.2Z"/>
          <path class="cls-2" d="M1282.6,1662.8c-.7,0-1.2-.5-1.2-1.2h0s.1-380.2.1-380.2c0-.4.2-.8.6-1l199.9-115.3c.6-.3,1.3-.1,1.6.4.1.2.2.4.2.6l-.8,379.6c0,.4-.2.8-.6,1l-199.2,115.9c-.2.1-.4.2-.6.2h0ZM1283.9,1282.1v377.4c-.1,0,196.7-114.5,196.7-114.5l.8-376.8-197.5,113.9h0Z"/>
          <path class="cls-2" d="M1293.6,1656.2l179-105.1.5-369.3-179.4,105.6v368.7Z"/>
          <path class="cls-2" d="M1293.6,1657.4c-.7,0-1.2-.5-1.2-1.2v-368.7c.1-.4.3-.8.7-1l179.4-105.6c.6-.3,1.3-.1,1.6.4.1.2.2.4.2.6l-.5,369.3c0,.4-.2.8-.6,1l-179,105.1c-.2.1-.4.2-.6.2h0ZM1294.9,1288.1v366c-.1,0,176.5-103.7,176.5-103.7l.5-366.5-177,104.2Z"/>
          <ellipse class="cls-1" cx="1445.4" cy="1397.2" rx="15.9" ry="9.1" transform="translate(-487.2 1950.6) rotate(-60)"/>
          <path class="cls-4" d="M1440.3,1412.9c-1.3,0-2.4-.3-3.5-.9-5-2.9-5.2-11.7-.4-20l1,.6-1-.6c2.2-3.9,5.2-7,8.4-8.8,3.4-2,6.6-2.2,9.1-.8,5,2.9,5.2,11.7.4,20-3.8,6.5-9.3,10.5-14,10.5h0ZM1438.5,1393.2c-4,6.9-4.2,14.5-.5,16.7,3.7,2.1,10.2-1.9,14.2-8.8,4-6.9,4.2-14.5.5-16.7-1.7-1-4.1-.7-6.7.8-2.8,1.6-5.5,4.5-7.5,8h0Z"/>
          <path class="cls-4" d="M695,670.9l130.9,76.2v-188.3c0,0-131.5-75.8-131.5-75.8l.6,187.9Z"/>
          <path class="cls-2" d="M825.9,748.3c-.2,0-.4,0-.6-.2l-130.9-76.2c-.4-.2-.6-.6-.6-1l-.6-187.9c0-.7.5-1.2,1.2-1.2.2,0,.4,0,.6.2l131.6,75.8c.4.2.6.6.6,1v188.3c0,.7-.6,1.2-1.3,1.2h0ZM696.2,670.2l128.5,74.8v-185.5c0,0-129.1-74.5-129.1-74.5l.6,185.1h0Z"/>
          <path class="cls-2" d="M703,664.1l114.9,66.9v-165.2c0,0-115.4-66.6-115.4-66.6l.6,164.9Z"/>
          <path class="cls-2" d="M817.9,732.2c-.2,0-.4,0-.6-.2l-114.9-66.9c-.4-.2-.6-.6-.6-1l-.6-164.9c0-.7.5-1.2,1.2-1.2.2,0,.4,0,.6.2l115.5,66.6c.4.2.6.6.6,1v165.2c0,.7-.6,1.2-1.3,1.2h0ZM704.2,663.4l112.5,65.5v-162.5c0,0-113-65.2-113-65.2l.5,162.1h0Z"/>
          <path class="cls-4" d="M608.1,1840.2l-509.6-296.6-1.6-488.3,249.8-46,261.2,341.4.2,489.6Z"/>
          <path class="cls-2" d="M608.1,1841.4c-.2,0-.4,0-.6-.2l-509.6-296.6c-.4-.2-.6-.6-.6-1l-1.6-488.3c0-.6.4-1.1,1-1.2l249.8-46c.4,0,.9,0,1.2.5l261.2,341.4c.2.2.2.5.2.7l.2,489.6c0,.7-.5,1.2-1.2,1.2h0ZM99.7,1542.9l507.2,295.2-.2-487.1-260.5-340.5-248.1,45.7,1.6,486.7h0Z"/>
          <path class="cls-4" d="M948.4,1642l-340.3,198.2-.2-489.6,342.2-197.2-1.6,488.6Z"/>
          <path class="cls-2" d="M608.1,1841.4c-.7,0-1.2-.5-1.2-1.2h0s-.2-489.6-.2-489.6c0-.4.2-.8.6-1l342.2-197.2c.6-.3,1.3-.1,1.6.4.1.2.2.4.2.6l-1.6,488.6c0,.4-.2.8-.6,1l-340.3,198.2c-.2.1-.4.2-.6.2h0ZM609,1351.3l.2,486.8,337.9-196.8,1.6-485.8-339.8,195.8ZM948.4,1642h0,0Z"/>
          <path class="cls-4" d="M689.6,812.8l-251,46.2-341.6,196.2,249.8-46,261.2,341.4,342.2-197.2-260.4-340.6Z"/>
          <path class="cls-2" d="M607.8,1351.8c-.4,0-.7-.2-1-.5l-260.7-340.8-249,45.8c-.7.1-1.3-.3-1.4-1,0-.5.1-1,.6-1.2l341.6-196.2c.1,0,.2-.1.4-.1l251-46.2c.4,0,.9,0,1.2.5l260.4,340.6c.4.5.3,1.3-.2,1.7,0,0,0,0-.1,0l-342.2,197.2c-.2.1-.4.2-.6.2h0ZM346.7,1008c.4,0,.7.2,1,.5l260.5,340.5,340.1-196-259.2-339-250.1,46.1-335.4,192.6,242.9-44.7c0,0,.1,0,.2,0h0Z"/>
          <path class="cls-4" d="M367.1,1522.1l130.9,76.2v-188.3c0,0-131.5-75.8-131.5-75.8l.6,187.9Z"/>
          <path class="cls-2" d="M498,1599.6c-.2,0-.4,0-.6-.2l-130.9-76.2c-.4-.2-.6-.6-.6-1l-.6-187.9c0-.7.5-1.2,1.2-1.2.2,0,.4,0,.6.2l131.6,75.8c.4.2.6.6.6,1v188.3c0,.7-.6,1.2-1.3,1.2h0ZM368.3,1521.5l128.5,74.8v-185.5c0,0-129.1-74.5-129.1-74.5l.6,185.1Z"/>
          <path class="cls-4" d="M188.3,1417.8l130.9,76.2v-188.3c0,0-131.5-75.8-131.5-75.8l.6,187.9Z"/>
          <path class="cls-2" d="M319.2,1495.2c-.2,0-.4,0-.6-.2l-130.9-76.2c-.4-.2-.6-.6-.6-1l-.6-187.9c0-.7.5-1.2,1.2-1.2.2,0,.4,0,.6.2l131.6,75.8c.4.2.6.6.6,1v188.3c0,.7-.6,1.2-1.3,1.2h0ZM189.5,1417.1l128.5,74.8v-185.5c0,0-129.1-74.5-129.1-74.5l.6,185.1ZM375.1,1515.3l114.9,66.9v-165.2c0,0-115.4-66.6-115.4-66.6l.6,164.9Z"/>
          <path class="cls-2" d="M490,1583.4c-.2,0-.4,0-.6-.2l-114.9-66.9c-.4-.2-.6-.6-.6-1l-.6-164.9c0-.7.5-1.2,1.2-1.2.2,0,.4,0,.6.2l115.5,66.6c.4.2.6.6.6,1v165.2c0,.7-.6,1.2-1.3,1.2h0ZM376.3,1514.6l112.5,65.5v-162.5c0,0-113-65.2-113-65.2l.5,162.1h0ZM196.3,1410.9l114.9,66.9v-165.2c0,0-115.4-66.6-115.4-66.6l.6,164.9Z"/>
          <path class="cls-2" d="M311.1,1479c-.2,0-.4,0-.6-.2l-114.9-66.9c-.4-.2-.6-.6-.6-1l-.6-164.9c0-.7.5-1.2,1.2-1.2.2,0,.4,0,.6.2l115.5,66.6c.4.2.6.6.6,1v165.2c0,.7-.6,1.2-1.3,1.2h0ZM197.5,1410.3l112.5,65.5v-162.5c0,0-113-65.2-113-65.2l.5,162.1h0Z"/>
          <path class="cls-4" d="M737.1,785.9l-285.6,52.6-388.7,208v15.2l277.5-51.4,303.8,397.1,389.3-224.4v-24.9l-296.3-372.4Z"/>
          <path class="cls-2" d="M644.2,1408.7c-.4,0-.7-.2-1-.5l-303.4-396.6-276.8,51.2c-.7.1-1.3-.3-1.4-1,0,0,0-.1,0-.2v-15.2c0-.4.2-.8.6-1.1l388.7-208c.1,0,.2,0,.3-.1l285.6-52.6c.4,0,.9,0,1.2.4l296.3,372.4c.2.2.3.5.3.7v24.9c0,.4-.2.8-.6,1l-389.3,224.4c-.2.1-.4.2-.6.2h0ZM340.3,1009.2c.4,0,.7.2,1,.5l303.2,396.3,387.8-223.5v-23.8l-295.6-371.5-284.7,52.4-387.9,207.6v13l276.1-51.1c0,0,.1,0,.2,0h0Z"/>
          <path class="cls-3" d="M1122.2,1140.1l-389.3,224.4-297.2-388.4,390.1-223.5,296.3,387.6Z"/>
          <path class="cls-2" d="M644.2,1383.9c-.4,0-.7-.2-1-.5l-297.2-388.4c-.4-.5-.3-1.3.2-1.7,0,0,0,0,.1,0l390.1-223.5c.5-.3,1.2-.2,1.5.3l296.3,387.6c.4.5.3,1.3-.2,1.7,0,0,0,0-.1,0l-389.3,224.4c-.2.1-.4.2-.6.2h0ZM348.8,994.6l295.7,386.5,387.2-223.2-294.9-385.6-388,222.3h0Z"/>
          <path class="cls-3" d="M732.4,735l-390.1,223.5-284.2,52.3,388.7-223.2,285.6-52.6Z"/>
          <path class="cls-3" d="M62.8,1047.8c-.7,0-1.2-.5-1.2-1.2,0-.4.2-.8.6-1l388.7-223.2c.1,0,.2-.1.4-.1l285.6-52.6c.6-.1,1.1.2,1.3.8s0,1.2-.5,1.5l-390.1,223.5c-.1,0-.2.1-.4.1l-284.2,52.3c0,0-.1,0-.2,0h0ZM451.9,824.5l-382.5,219.7,277.1-51,383.9-219.9-278.5,51.3ZM1033.5,1183.2l-389.3,224.4v-24.9l389.3-224.4v24.9Z"/>
          <path class="cls-2" d="M644.2,1408.7c-.7,0-1.2-.5-1.2-1.2v-24.9c0-.4.2-.8.6-1l389.3-224.4c.6-.3,1.3-.1,1.6.4.1.2.2.4.2.6v24.9c0,.4-.2.8-.6,1l-389.3,224.4c-.2.1-.4.2-.6.2h0ZM645.4,1383.4v22.1l386.9-223v-22.1l-386.9,223h0ZM1033.5,1183.2h0,0Z"/>
          <path class="cls-4" d="M844.1,1542.2l-130.9,76.2v-188.3c0,0,131.5-75.8,131.5-75.8l-.6,187.9Z"/>
          <path class="cls-2" d="M713.2,1619.6c-.7,0-1.2-.5-1.2-1.2h0s0-188.3,0-188.3c0-.4.2-.8.6-1l131.6-75.8c.6-.3,1.3-.1,1.6.4.1.2.2.4.2.6l-.6,187.9c0,.4-.2.8-.6,1l-130.9,76.2c-.2.1-.4.2-.6.2h0ZM714.3,1430.8v185.5c0,0,128.6-74.8,128.6-74.8l.6-185.1-129.2,74.5ZM844.1,1542.2h0,0Z"/>
          <path class="cls-2" d="M836.1,1535.4l-114.9,66.9v-165.2c0,0,115.4-66.6,115.4-66.6l-.6,164.9Z"/>
          <path class="cls-2" d="M721.3,1603.5c-.7,0-1.2-.5-1.2-1.2h0s0-165.3,0-165.3c0-.4.2-.8.6-1l115.5-66.6c.6-.3,1.3-.1,1.6.4.1.2.2.4.2.6l-.6,164.9c0,.4-.2.8-.6,1l-114.9,66.9c-.2.1-.4.2-.6.2h0ZM722.4,1437.7v162.5c0,0,112.5-65.5,112.5-65.5l.5-162.1-113.1,65.2h0ZM836.1,1535.4h0,0Z"/>
          <path class="cls-4" d="M1327.3,1056.4l-130.9,76.2v-188.3c0,0,131.5-75.8,131.5-75.8l-.6,187.9Z"/>
          <path class="cls-2" d="M1196.5,1133.9c-.7,0-1.2-.5-1.2-1.2h0s0-188.3,0-188.3c0-.4.2-.8.6-1l131.6-75.8c.6-.3,1.3-.1,1.6.4.1.2.2.4.2.6l-.6,187.9c0,.4-.2.8-.6,1l-130.9,76.2c-.2.1-.4.2-.6.2h0ZM1197.6,945.1v185.5c0,0,128.6-74.8,128.6-74.8l.6-185.1-129.2,74.5ZM1327.3,1056.4h0,0Z"/>
          <path class="cls-4" d="M1506.2,952.1l-130.9,76.2v-188.3c0,0,131.5-75.8,131.5-75.8l-.6,187.9Z"/>
          <path class="cls-2" d="M1375.3,1029.5c-.7,0-1.2-.5-1.2-1.2h0s0-188.3,0-188.3c0-.4.2-.8.6-1l131.6-75.8c.6-.3,1.3-.1,1.6.4.1.2.2.4.2.6l-.6,187.9c0,.4-.2.8-.6,1l-130.9,76.2c-.2.1-.4.2-.6.2h0ZM1376.4,840.7v185.5c0,0,128.6-74.8,128.6-74.8l.6-185.1-129.2,74.5ZM1506.2,952.1h0,0ZM1319.4,1049.6l-114.9,66.9v-165.2c0,0,115.4-66.6,115.4-66.6l-.6,164.9Z"/>
          <path class="cls-2" d="M1204.5,1117.7c-.7,0-1.2-.5-1.2-1.2h0s0-165.3,0-165.3c0-.4.2-.8.6-1l115.5-66.6c.6-.3,1.3-.1,1.6.4.1.2.2.4.2.6l-.6,164.9c0,.4-.2.8-.6,1l-114.9,66.9c-.2.1-.4.2-.6.2h0ZM1205.6,952v162.5c0,0,112.5-65.5,112.5-65.5l.5-162.1-113.1,65.2h0ZM1319.4,1049.6h0,0ZM1498.2,945.2l-114.9,66.9v-165.2c0,0,115.4-66.6,115.4-66.6l-.6,164.9Z"/>
          <path class="cls-2" d="M1383.4,1013.3c-.7,0-1.2-.5-1.2-1.2h0s0-165.3,0-165.3c0-.4.2-.8.6-1l115.5-66.6c.6-.3,1.3-.1,1.6.4.1.2.2.4.2.6l-.6,164.9c0,.4-.2.8-.6,1l-114.9,66.9c-.2.1-.4.2-.6.2h0ZM1384.5,847.6v162.5c0,0,112.5-65.5,112.5-65.5l.5-162.1-113.1,65.2h0ZM1498.2,945.2h0,0Z"/>
        </g>
        <g>
          <path class="cls-3" d="M1.5,301.8l36.8-21.5,176.9,9.7,177.8,195.1-.6,157.4s-2.8,98.7-65.2,135c-7.8,4.5-41.4,24.6-48.8,27.4,90.7-73.3,69-297.1,69-297.1l-171.8-189.2L1.5,301.8Z"/>
          <path class="cls-2" d="M278.5,805.7c-.4,0-.8-.4-.8-.8,0-.2.1-.5.3-.6,46.7-37.7,62.8-116.2,68.2-175.5,5.6-62,.9-116.4.5-120.7l-171.4-188.8L1.4,302.6c-.4,0-.8-.4-.7-.9,0-.3.2-.5.4-.6l36.8-21.5c.1,0,.3-.1.5-.1l176.9,9.7c.2,0,.4.1.6.3l177.8,195.1c.1.1.2.3.2.5l-.6,157.4c0,.3-.8,25.1-9.2,54.1-7.8,26.8-23.9,62.7-56.4,81.6-1.2.7-3,1.8-5.2,3.1-12.1,7.1-37.3,22-43.7,24.4,0,0-.2,0-.3,0h0ZM4,301.2l171.7,16.5c.2,0,.4.1.5.3l171.8,189.2c.1.1.2.3.2.5,0,.6,5.4,56.8-.5,121.2-3.4,37.9-10,71.1-19.5,98.9-11,32.1-26,56.9-44.7,73.8,9.9-5.1,28.2-16,38-21.7,2.2-1.3,4-2.4,5.2-3.1,32-18.6,47.9-54.1,55.6-80.6,8.4-28.8,9.2-53.5,9.2-53.7l.6-157-177.4-194.6-176.4-9.7-34.5,20.1Z"/>
          <path class="cls-2" d="M393,485.1l-.6,157.4s-2.8,98.7-65.2,135c-7.8,4.5-41.4,24.6-48.8,27.4,90.7-73.3,69.2-294.4,69.2-294.4l45.3-25.4Z"/>
          <path class="cls-2" d="M278.5,805.7c-.4,0-.8-.4-.8-.8,0-.2.1-.5.3-.6,46.7-37.7,62.9-115.5,68.3-174.1,5.9-63.6.6-119,.6-119.6,0-.3.1-.6.4-.8l45.3-25.4c.4-.2.9,0,1.1.3,0,.1.1.3.1.4l-.6,157.4c0,.3-.8,25.1-9.2,54.1-7.8,26.8-23.9,62.7-56.4,81.6-1.2.7-3,1.8-5.2,3.1-12.1,7.1-37.3,22-43.7,24.4,0,0-.2,0-.3,0h0ZM348.6,511c.5,5.8,5,58.9-.6,119.3-3.5,37.5-10.1,70.4-19.6,98-11,31.9-26.1,56.5-44.7,73.3,9.9-5.2,28.2-16,38-21.7,2.2-1.3,4-2.4,5.2-3.1,32-18.6,47.9-54.2,55.6-80.7,8.4-28.8,9.2-53.4,9.2-53.7l.6-156-43.7,24.5h0Z"/>
          <path class="cls-4" d="M177.7,311.5L.8,301.8l.6,153.1s2.2,90.7,52.6,190.1c58.3,114.9,121.5,166,121.5,166,0,0,53,23.7,114.2-12,62.4-36.4,65.2-135,65.2-135l.5-157.4-177.8-195.1Z"/>
          <path class="cls-2" d="M218.8,819.4c-3.3,0-6.3-.1-9.2-.3-20.8-1.5-34.3-7.4-34.4-7.5,0,0-.1,0-.2-.1-.6-.5-64-52.5-121.7-166.2C3.4,546.9.6,455.8.6,454.9L0,301.8c0-.4.4-.8.8-.8,0,0,0,0,0,0l176.9,9.7c.2,0,.4.1.6.3l177.8,195.1c.1.1.2.3.2.5l-.6,157.4c0,.3-.8,25.1-9.2,54.1-7.8,26.8-23.9,62.7-56.4,81.6-27.1,15.8-52.6,19.8-71.4,19.8h0ZM175.9,810.2c1.2.5,14.2,5.9,33.9,7.3,18.9,1.3,48.1-.9,79.6-19.3,32-18.6,47.9-54.1,55.6-80.6,8.4-28.8,9.2-53.5,9.2-53.7l.5-157-177.4-194.6L1.6,302.6l.6,152.2c0,.9,2.8,91.6,52.5,189.7,56.6,111.5,118.5,163.5,121.2,165.6Z"/>
          <path class="cls-3" d="M178.2,791s48.5,18,102.3-13.4c54.8-31.9,55.4-128.7,55.4-128.7v-131.2l-159.3-179.1,1.6,452.4h0Z"/>
          <path class="cls-2" d="M213,797c-1.3,0-2.6,0-3.9,0-18.8-.6-31.1-5.1-31.2-5.1-.3-.1-.5-.4-.5-.8l-1.6-452.4c0-.4.4-.8.8-.8.2,0,.5,0,.6.3l159.3,179.1c.1.1.2.3.2.5v131.2c0,.2-.2,24.6-7.2,52.6-6.4,25.9-20.1,60.2-48.6,76.8-25.9,15.1-50.6,18.6-67.9,18.6ZM179,790.5c5.4,1.8,51.2,15.6,101.1-13.5,28-16.3,41.5-50.2,47.9-75.8,6.9-27.8,7.2-52,7.2-52.2v-130.9l-157.7-177.3,1.6,449.7Z"/>
          <path class="cls-2" d="M178.2,791.8c-.2,0-.4,0-.6-.3-.6-.6-57.4-65.2-105.5-160.1-41.7-82.2-48.7-170.3-48.7-171.2l-.5-131.8c0-.2,0-.4.3-.6.2-.2.4-.2.6-.2l153,10.2c.4,0,.8.4.8.8l1.6,452.4c0,.4-.4.8-.8.8h0ZM24.4,329.3l.5,130.9c0,.8,7,88.7,48.6,170.5,43.8,86.3,94.8,147.5,103.9,158.1l-1.6-449.4-151.4-10.1Z"/>
        </g>
      </g>
    </g>
  </g>
</svg>