<?xml version="1.0" encoding="UTF-8"?>
<svg xmlns="http://www.w3.org/2000/svg" version="1.1" viewBox="0 0 2427.6 2072.4">
  <defs>
    <style>
      .cls-1, .cls-2 {
        fill: #fff;
      }

      .cls-1, .cls-3 {
        stroke: #000;
        stroke-linecap: round;
        stroke-linejoin: round;
        stroke-width: 2.7px;
      }

      .cls-4, .cls-5, .cls-6, .cls-7, .cls-2 {
        stroke-width: 0px;
      }

      .cls-4, .cls-7 {
        fill: #1d88fe;
      }

      .cls-5 {
        fill: #d2eaff;
      }

      .cls-6, .cls-3 {
        fill: #000;
      }

      .cls-7 {
        mix-blend-mode: multiply;
        opacity: .6;
      }

      .cls-8 {
        isolation: isolate;
      }
    </style>
  </defs>
  <g class="cls-8">
    <g id="Layer_1" data-name="Layer 1">
      <g>
        <g>
          <path class="cls-2" d="M1780.8,199.5l260.2,155.9,23.8,88.3,343.8,186.7,17.9-11.2-342.8-200.7-18.8-79-261.3-153.5-22.7,13.5Z"/>
          <path class="cls-6" d="M2408.5,631.6c-.2,0-.4,0-.6-.1l-343.8-186.7c-.3-.2-.5-.4-.6-.7l-23.7-87.8-259.7-155.7c-.6-.3-.8-1.1-.4-1.7.1-.2.2-.3.4-.4l22.7-13.5c.4-.2.8-.2,1.2,0l261.3,153.5c.3.2.5.4.6.8l18.7,78.5,342.4,200.5c.6.3.8,1.1.4,1.6,0,.2-.2.3-.4.4l-17.9,11.2c-.2.1-.4.2-.6.2h0ZM2065.8,442.9l342.7,186.1,15.6-9.7-341.1-199.7c-.3-.2-.5-.4-.6-.8l-18.7-78.5-260.3-152.8-20.3,12.1,258.4,154.9c.3.2.5.4.5.7l23.7,87.8h0Z"/>
          <path class="cls-4" d="M1780.8,199.5l2.6,581.8,622.8,359.7,2.3-510.5-344-200.6-19-78.9-264.6-151.4Z"/>
          <path class="cls-6" d="M2406.2,1142.1c-.2,0-.4,0-.6-.2l-622.8-359.7c-.4-.2-.6-.6-.6-1l-2.6-581.8c0-.7.5-1.2,1.2-1.2.2,0,.4,0,.6.2l264.6,151.4c.3.2.5.4.6.8l18.9,78.4,343.6,200.4c.4.2.6.6.6,1l-2.3,510.5c0,.7-.5,1.2-1.2,1.2h0ZM1784.6,780.6l620.4,358.3,2.3-507.8-343.4-200.3c-.3-.2-.5-.4-.6-.8l-18.9-78.4-262.4-150.1,2.6,579h0Z"/>
          <path class="cls-2" d="M2361.6,1018.4l-548.3-313.7.6-434c0-7.7,8.4-12.6,15.1-8.7l526.8,301.5c6.5,3.7,10.5,10.7,10.4,18.2l-4.6,436.7h0Z"/>
          <path class="cls-6" d="M2361.6,1019.6c-.2,0-.4,0-.6-.2l-548.3-313.7c-.4-.2-.6-.6-.6-1l.6-434c0-4.1,2.1-7.7,5.6-9.7,3.5-2,7.7-2,11.2,0l526.8,301.5c6.9,3.9,11.1,11.3,11,19.2l-4.6,436.7c0,.7-.5,1.2-1.2,1.2h0ZM1814.6,704l545.9,312.3,4.6-434.7c0-7.1-3.7-13.6-9.8-17.1l-526.8-301.5c-2.7-1.6-6.1-1.6-8.9,0-2.7,1.6-4.4,4.5-4.4,7.7l-.6,433.3h0Z"/>
          <path class="cls-5" d="M2406.2,1141.2l-622.8-359.9-1.9-408.3,229.3,131.2,15.5-49.7,382,218-2.1,468.7Z"/>
          <path class="cls-6" d="M2406.2,1142.4c-.2,0-.4,0-.6-.2l-622.8-359.9c-.4-.2-.6-.6-.6-1l-1.9-408.2c0-.7.5-1.2,1.2-1.2.2,0,.4,0,.6.2l228,130.4,15.1-48.3c.2-.6.9-1,1.5-.8,0,0,.2,0,.2.1l382,218c.4.2.6.6.6,1l-2.1,468.7c0,.7-.5,1.2-1.2,1.2h0ZM1784.6,780.6l620.4,358.6,2.1-465.9-380.1-216.9-15.1,48.3c-.2.6-.9,1-1.5.8,0,0-.2,0-.2-.1l-227.5-130.2,1.9,405.5h0Z"/>
          <path class="cls-6" d="M2406.2,1140.9l2.3-510.5,17.9-11.2-2.6,511.2-17.5,10.5Z"/>
          <path class="cls-6" d="M2406.2,1142.1c-.7,0-1.2-.5-1.2-1.2h0s2.3-510.5,2.3-510.5c0-.4.2-.8.6-1l17.9-11.2c.6-.3,1.3-.2,1.7.4.1.2.2.4.2.6l-2.6,511.2c0,.4-.2.8-.6,1l-17.5,10.5c-.2.1-.4.2-.6.2h0ZM2409.7,631.1l-2.3,507.7,15.1-9.1,2.6-508.3-15.5,9.7Z"/>
        </g>
        <g>
          <path class="cls-3" d="M2104.6,686.5c0-12.5-6.8-24-17.7-30L904.5,3.2c-4.7-2.6-10.5-2.5-15.1.4l-57.6,34.5,45.5,862.5,1123.5,644.2L824.3,934.6,110.6,1302.2v62.4c0,5.3,2.8,10.1,7.3,12.8l1153.7,688.7c10.7,6.4,24,6.5,34.7.2l780.7-451.9c10.6-6.1,17.1-17.4,17.1-29.7l.4-898.4Z"/>
          <path class="cls-1" d="M824.3,870.7L117.9,1287.8c-9.8,5.8-9.8,19.9,0,25.7l1153.7,688.7c10.7,6.4,24,6.5,34.7.2l745.3-431.4L824.3,870.7Z"/>
          <path class="cls-5" d="M1835.8,1557.9l-256.5,148.9c-12.1,7-27,7-39.1,0l-942.3-545c-12.7-7.3-12.7-25.7,0-33l256.5-147.3c12-6.9,26.8-6.9,38.9,0l942.4,543.3c12.7,7.3,12.8,25.7,0,33.1h0ZM958.6,1732.7l-358.1-207.1c-12.7-7.3-12.7-25.7,0-33l210.6-120.9c12-6.9,26.8-6.9,38.9,0l357.4,206c12.7,7.3,12.8,25.7,0,33.1l-209.8,121.8c-12.1,7-27,7-39.1,0h0Z"/>
          <path class="cls-4" d="M824.7,50.8l-.4,819.9,1227.3,700.4v-847.6c0-12.5-6.8-24-17.7-30L846.9,37.7c-9.9-5.5-22.1,1.7-22.2,13.1h0Z"/>
          <path class="cls-1" d="M824.3,819.6v51s1227.3,700.4,1227.3,700.4v-59.3L824.3,819.6Z"/>
          <path class="cls-1" d="M2044.9,703s-6.6-7.1-10.9-9.6L846.9,37.7c-4.9-2.7-10.4-2.3-14.7.1l57.2-34.2c4.6-2.9,10.4-3,15.1-.4l1182.4,653.2c5.5,3,12.9,12.6,12.9,12.6l-55,34Z"/>
          <path class="cls-3" d="M1286.1,2070.9s-10-2-14.5-4.7L117.9,1377.4c-4.5-2.7-7.3-7.6-7.3-12.8v-62.4h0c.4,4.4,2.8,8.7,7.2,11.3l1153.7,688.8c4.7,2.8,15.1,4.7,15.1,4.7l-.6,63.9Z"/>
        </g>
        <g>
          <path class="cls-2" d="M1139.8,110l54.8-32,263.1,14.4,264.4,290.1-.8,234s-4.2,146.7-97,200.7c-11.5,6.7-61.5,36.6-72.5,40.8,134.9-109,102.6-441.7,102.6-441.7l-255.5-281.4-258.9-24.9Z"/>
          <path class="cls-6" d="M1551.7,859.2c-.7,0-1.2-.5-1.2-1.2,0-.4.2-.7.4-.9,69.4-56,93.4-172.8,101.4-260.9,8.4-92.2,1.3-173.1.7-179.4l-254.9-280.7-258.5-24.9c-.7,0-1.1-.6-1.1-1.3,0-.4.3-.7.6-.9l54.8-32c.2-.1.4-.2.7-.2l263.1,14.4c.3,0,.6.2.8.4l264.4,290.1c.2.2.3.5.3.8l-.8,234c0,.4-1.2,37.4-13.7,80.4-11.6,39.8-35.6,93.2-83.8,121.3-1.8,1-4.5,2.6-7.8,4.6-18,10.6-55.5,32.7-64.9,36.3-.1,0-.3,0-.4,0h0ZM1143.6,109.1l255.3,24.6c.3,0,.6.2.8.4l255.5,281.4c.2.2.3.4.3.7,0,.8,8,84.4-.7,180.2-5.1,56.3-14.9,105.8-29,147-16.4,47.8-38.7,84.6-66.5,109.7,14.8-7.7,42-23.7,56.5-32.3,3.3-2,6-3.5,7.8-4.6,47.6-27.7,71.2-80.5,82.7-119.9,12.5-42.8,13.6-79.5,13.7-79.9l.8-233.5-263.7-289.4-262.2-14.4-51.3,29.9Z"/>
          <path class="cls-6" d="M1722,382.5l-.8,234s-4.2,146.7-97,200.7c-11.5,6.7-61.5,36.6-72.5,40.8,134.9-109,102.9-437.7,102.9-437.7l67.4-37.7Z"/>
          <path class="cls-6" d="M1551.7,859.2c-.7,0-1.2-.5-1.2-1.2,0-.4.2-.7.4-.9,69.4-56,93.5-171.7,101.6-258.9,8.7-94.6.9-176.9.9-177.8,0-.5.2-.9.6-1.2l67.4-37.7c.6-.3,1.3-.1,1.6.5.1.2.2.4.2.6l-.8,234c0,.4-1.2,37.4-13.7,80.4-11.6,39.8-35.6,93.2-83.8,121.3-1.8,1-4.5,2.6-7.8,4.6-18,10.6-55.5,32.7-64.9,36.3-.1,0-.3,0-.4,0h0ZM1655.9,420.9c.8,8.7,7.4,87.5-.9,177.4-5.2,55.7-14.9,104.7-29.1,145.6-16.4,47.4-38.8,84-66.5,109.1,14.8-7.7,42-23.7,56.5-32.3,3.3-2,6-3.5,7.8-4.6,47.6-27.7,71.3-80.5,82.7-119.9,12.5-42.8,13.6-79.4,13.6-79.8l.8-231.9-64.9,36.4h0Z"/>
          <path class="cls-2" d="M1401.9,124.3l-263.1-14.4.9,227.6s3.2,134.8,78.2,282.6c86.7,170.8,180.6,246.8,180.6,246.8,0,0,78.8,35.3,169.9-17.8,92.8-54.1,97-200.7,97-200.7l.8-234-264.4-290.1Z"/>
          <path class="cls-6" d="M1462.9,879.6c-4.9,0-9.4-.2-13.6-.5-30.9-2.2-51-11-51.2-11.1,0,0-.2,0-.3-.2-.9-.8-95.1-78.1-180.9-247.2-74.3-146.4-78.3-281.8-78.4-283.1l-.9-227.6c0-.7.5-1.2,1.2-1.2,0,0,0,0,0,0l263.1,14.4c.3,0,.6.2.8.4l264.4,290.1c.2.2.3.5.3.8l-.8,234c0,.4-1.2,37.4-13.7,80.4-11.6,39.8-35.6,93.2-83.8,121.3-40.3,23.5-78.2,29.4-106.1,29.4h0ZM1399.2,865.9c1.8.8,21.2,8.8,50.3,10.8,28.2,2,71.6-1.4,118.3-28.6,47.6-27.7,71.2-80.5,82.7-119.9,12.5-42.8,13.6-79.5,13.7-79.9l.8-233.5-263.7-289.4-261.3-14.3.9,226.3c0,1.3,4.1,136.2,78.1,282.1,84.1,165.8,176.2,243,180.1,246.3Z"/>
          <path class="cls-7" d="M1454.9,798.6s72.1,26.7,152-19.9c81.5-47.4,82.4-191.4,82.4-191.4v-195l-236.9-266.3,2.4,672.6h0Z"/>
          <path class="cls-6" d="M1454.3,846.2c-2,0-3.9,0-5.7,0-27.9-.9-46.2-7.5-46.4-7.6-.5-.2-.8-.6-.8-1.1l-2.4-672.6c0-.7.5-1.2,1.2-1.2.3,0,.7.1.9.4l236.9,266.3c.2.2.3.5.3.8v195c0,.4-.4,36.6-10.7,78.2-9.6,38.5-29.9,89.5-72.3,114.2-38.6,22.5-75.3,27.6-100.9,27.6ZM1403.7,836.5c8,2.7,76.2,23.1,150.3-20,41.7-24.3,61.7-74.7,71.2-112.7,10.3-41.3,10.6-77.3,10.7-77.7v-194.6l-234.5-263.6,2.4,668.6Z"/>
          <path class="cls-6" d="M1402.5,838.5c-.3,0-.7-.1-.9-.4-.8-1-85.4-97-156.9-238.1-62-122.2-72.3-253.2-72.4-254.5l-.8-196c0-.3.1-.7.4-.9.2-.2.6-.3.9-.3l227.5,15.2c.6,0,1.1.6,1.1,1.2l2.4,672.6c0,.7-.5,1.2-1.2,1.2h0ZM1173.9,150.8l.8,194.6c0,1.2,10.4,131.8,72.2,253.5,65.1,128.4,140.9,219.3,154.5,235.1l-2.4-668.2-225.1-15.1Z"/>
        </g>
        <g>
          <path class="cls-2" d="M1021.2,698.4l.6,173.3,783.5,453.1.7-173.8-784.8-452.6Z"/>
          <path class="cls-6" d="M1805.3,1326c-.2,0-.4,0-.6-.2l-783.5-453.1c-.4-.2-.6-.6-.6-1l-.6-173.3c0-.7.5-1.2,1.2-1.2.2,0,.4,0,.6.2l784.8,452.6c.4.2.6.6.6,1l-.7,173.8c0,.7-.5,1.2-1.2,1.2h0,0ZM1023,871l781.1,451.7.6-171-782.4-451.2.6,170.5Z"/>
          <path class="cls-6" d="M1146.6,896.3c-.9,0-1.8-.4-2.4-1.2l-100.8-130.2c-1-1.3-.8-3.2.5-4.2,1.3-1,3.2-.8,4.2.5h0l100.8,130.2c1,1.3.8,3.2-.5,4.2-.5.4-1.2.6-1.8.6h0Z"/>
          <path class="cls-6" d="M1046.3,839c-1.7,0-3-1.4-3-3,0-1.5,1.1-2.7,2.5-2.9l100-15c1.6-.2,3.2.9,3.4,2.5,0,0,0,0,0,0,.2,1.6-.9,3.2-2.5,3.4l-100,15c-.1,0-.3,0-.4,0Z"/>
          <path class="cls-6" d="M1096.3,887.6c-1.7,0-3-1.3-3-3v-112.8c0-1.7,1.2-3,2.9-3.1,1.7,0,3,1.3,3.1,2.9,0,0,0,0,0,.1v112.8c0,1.7-1.3,3-2.9,3h0ZM1304.1,986.9c-.9,0-1.8-.4-2.4-1.2l-100.8-130.2c-1-1.3-.8-3.2.5-4.2,1.3-1,3.2-.8,4.2.5l100.8,130.2c1,1.3.8,3.2-.5,4.2-.5.4-1.2.6-1.8.6h0Z"/>
          <path class="cls-6" d="M1203.8,929.7c-1.7,0-3-1.4-3-3,0-1.5,1.1-2.7,2.5-2.9l100-15c1.7-.2,3.2.9,3.4,2.5s-.9,3.2-2.5,3.4l-100,15c-.1,0-.3,0-.4,0h0Z"/>
          <path class="cls-6" d="M1253.8,978.2c-1.7,0-3-1.3-3-3v-112.8c0-1.7,1.3-3,3-2.9,1.6,0,2.9,1.3,2.9,2.9v112.8c0,1.7-1.3,3-2.9,3h0ZM1462.6,1078.8c-.9,0-1.8-.4-2.4-1.2l-100.8-130.2c-1-1.3-.8-3.2.5-4.2s3.2-.8,4.2.5h0l100.8,130.2c1,1.3.8,3.2-.5,4.2-.5.4-1.2.6-1.8.6Z"/>
          <path class="cls-6" d="M1362.3,1021.5c-1.7,0-3-1.4-3-3,0-1.5,1.1-2.7,2.5-2.9l100-15c1.6-.2,3.2.9,3.4,2.5.2,1.6-.9,3.2-2.5,3.4l-100,15c-.1,0-.3,0-.4,0Z"/>
          <path class="cls-6" d="M1412.3,1070.1c-1.7,0-3-1.3-3-3v-112.8c0-1.7,1.2-3,2.9-3.1,1.7,0,3,1.3,3.1,2.9,0,0,0,0,0,.1v112.8c0,1.7-1.3,3-2.9,3h0ZM1621.4,1170.5c-.9,0-1.8-.4-2.4-1.2l-100.8-130.2c-1-1.3-.8-3.2.5-4.2s3.2-.8,4.2.5h0l100.8,130.2c1,1.3.8,3.2-.5,4.2-.5.4-1.2.6-1.8.6Z"/>
          <path class="cls-6" d="M1521.1,1113.2c-1.7,0-3-1.4-3-3,0-1.5,1.1-2.7,2.5-2.9l100-15c1.7-.2,3.2.9,3.4,2.5s-.9,3.2-2.5,3.4l-100,15c-.1,0-.3,0-.4,0h0Z"/>
          <path class="cls-6" d="M1571.1,1161.8c-1.7,0-3-1.3-3-3v-112.8c0-1.7,1.3-3,3-2.9,1.6,0,2.9,1.3,2.9,2.9v112.8c0,1.7-1.3,3-2.9,3h0ZM1777.8,1260.7c-.9,0-1.8-.4-2.4-1.2l-100.8-130.2c-1-1.3-.8-3.2.5-4.2,1.3-1,3.2-.8,4.2.5l100.8,130.2c1,1.3.8,3.2-.5,4.2-.5.4-1.2.6-1.8.6Z"/>
          <path class="cls-6" d="M1677.5,1203.4c-1.7,0-3-1.4-3-3,0-1.5,1.1-2.7,2.5-2.9l100-15c1.7-.2,3.2.9,3.4,2.5s-.9,3.2-2.5,3.4l-100,15c-.1,0-.3,0-.4,0h0Z"/>
          <path class="cls-6" d="M1727.5,1251.9c-1.7,0-3-1.3-3-3v-112.8c0-1.7,1.3-3,3-2.9,1.6,0,2.9,1.3,2.9,2.9v112.8c0,1.7-1.3,3-2.9,3h0Z"/>
        </g>
        <g>
          <path class="cls-6" d="M572.4,858.1l563.5-318.1,18.5,11-561.6,764.1-18.6-11-1.8-446.1Z"/>
          <path class="cls-6" d="M592.8,1316.4c-.2,0-.4,0-.6-.2l-18.6-11c-.4-.2-.6-.6-.6-1l-1.8-446.1c0-.4.2-.8.6-1.1l563.5-318.1c.4-.2.8-.2,1.2,0l18.5,11c.6.3.8,1.1.4,1.7,0,0,0,0,0,0l-561.6,764.1c-.2.3-.6.5-1,.5h0ZM575.4,1303.5l17.1,10.1,560.1-762.2-16.8-10-562.3,317.4,1.8,444.7Z"/>
          <path class="cls-2" d="M591,869.1l1.8,446.1,552.7-322.5,8.9-441.7-284.3,384.3-279.1-66.2Z"/>
          <path class="cls-6" d="M592.8,1316.4c-.7,0-1.2-.5-1.2-1.2l-1.8-446.1c0-.7.5-1.2,1.2-1.2,0,0,.2,0,.3,0l278.4,66,283.8-383.6c.4-.5,1.1-.6,1.7-.3.3.2.5.6.5,1l-8.9,441.7c0,.4-.2.8-.6,1l-552.7,322.5c-.2.1-.4.2-.6.2h0ZM592.2,870.7l1.8,442.4,550.3-321.1,8.8-437.2-282,381.2c-.3.4-.8.6-1.2.5l-277.6-65.8h0Z"/>
          <path class="cls-2" d="M592.8,1315.2l277.3-379.9,275.3,57.4-552.7,322.5Z"/>
          <path class="cls-6" d="M592.8,1316.4c-.7,0-1.2-.5-1.2-1.2,0-.3,0-.5.2-.7l277.3-379.9c.3-.4.8-.6,1.2-.5l275.3,57.4c.6.1,1.1.8.9,1.4,0,.3-.3.6-.6.8l-552.7,322.5c-.2.1-.4.2-.6.2h0ZM870.6,936.6l-273.5,374.6,545-318-271.5-56.6Z"/>
          <path class="cls-2" d="M1154.4,551.4l-284.3,384.3-279.1-66.2,563.4-318.1Z"/>
          <path class="cls-6" d="M870.1,936.5c0,0-.2,0-.3,0l-279.1-66.2c-.6-.2-1-.8-.9-1.4,0-.3.3-.6.6-.8l563.4-318.1c.6-.3,1.3-.1,1.6.5.2.4.2.9,0,1.3l-284.3,384.3c-.2.3-.6.5-1,.5h0ZM594.3,868.7l275.4,65.3,280.4-379.1-555.8,313.8Z"/>
          <ellipse class="cls-5" cx="882.7" cy="935.3" rx="129.9" ry="75.3" transform="translate(-362.4 1257.3) rotate(-61.2)"/>
          <path class="cls-6" d="M843,1056c-8.6,0-16.6-2-23.7-5.9-36.9-20.4-38.5-88.5-3.6-151.8,34.9-63.3,93.3-98.3,130.2-77.9,36.9,20.4,38.5,88.5,3.6,151.8-16.9,30.6-39.6,55.5-64.1,70.3-14.9,9-29.4,13.5-42.5,13.5h0ZM922.3,817c-34.2,0-76.8,32.2-104.5,82.5-34.3,62.2-33.1,128.8,2.7,148.5,17.2,9.5,39.8,6.8,63.8-7.6,24.1-14.5,46.6-39.1,63.2-69.4,34.3-62.2,33.1-128.8-2.7-148.5-6.8-3.8-14.4-5.6-22.5-5.6h0Z"/>
        </g>
        <g>
          <path class="cls-2" d="M1.2,1019.7l464.7-262.4,15.3,9.1L18,1396.8l-15.3-9.1-1.5-368Z"/>
          <path class="cls-6" d="M18,1398c-.2,0-.4,0-.6-.2l-15.3-9.1c-.4-.2-.6-.6-.6-1L0,1019.7c0-.4.2-.8.6-1.1l464.7-262.4c.4-.2.8-.2,1.2,0l15.3,9.1c.6.3.8,1.1.4,1.7,0,0,0,0,0,0L19,1397.5c-.2.3-.6.5-1,.5h0Z"/>
          <path class="cls-2" d="M16.5,1028.8l1.5,368,455.8-266,7.4-364.4-234.4,317-230.2-54.6Z"/>
          <path class="cls-6" d="M18,1398c-.7,0-1.2-.5-1.2-1.2l-1.5-368c0-.7.5-1.2,1.2-1.2,0,0,.2,0,.3,0l229.4,54.4,234-316.4c.4-.5,1.1-.6,1.7-.3.3.2.5.6.5,1l-7.4,364.4c0,.4-.2.8-.6,1L18.7,1397.8c-.2.1-.4.2-.6.2h0ZM17.8,1030.3l1.5,364.4,453.4-264.7,7.3-360-232.2,314c-.3.4-.8.6-1.2.5l-228.7-54.2Z"/>
          <path class="cls-2" d="M18,1396.8l228.7-313.4,227.1,47.4L18,1396.8Z"/>
          <path class="cls-6" d="M18,1398c-.7,0-1.2-.5-1.2-1.2,0-.3,0-.5.2-.7l228.7-313.4c.3-.4.8-.6,1.2-.5l227.1,47.4c.7.1,1.1.8.9,1.4,0,.3-.3.6-.6.8L18.7,1397.8c-.2.1-.4.2-.6.2h0ZM247.3,1084.7L22.4,1392.9l448.1-261.6-223.3-46.6h0Z"/>
          <path class="cls-2" d="M481.2,766.3l-234.4,317-230.2-54.6,464.7-262.4Z"/>
          <path class="cls-6" d="M246.8,1084.6c0,0-.2,0-.3,0l-230.2-54.6c-.6-.2-1-.8-.9-1.4,0-.3.3-.6.6-.8l464.7-262.4c.6-.3,1.3-.1,1.6.4.2.4.2.9,0,1.3l-234.4,317c-.2.3-.6.5-1,.5ZM19.8,1028.3l226.4,53.7,230.6-311.9L19.8,1028.3Z"/>
          <ellipse class="cls-4" cx="257.1" cy="1083.4" rx="107.2" ry="62.1" transform="translate(-816 786.3) rotate(-61.2)"/>
          <path class="cls-6" d="M224.2,1183.1c-7,0-13.5-1.6-19.5-4.8-14.9-8.2-23.4-25.9-23.9-49.7-.5-23.6,6.9-50.5,20.8-75.8,28.8-52.3,77.2-81.2,107.7-64.4,30.5,16.9,31.9,73.2,3.1,125.5-23.3,42.2-59.2,69.2-88.2,69.2h0ZM289.8,986c-28.1,0-63.1,26.5-86,68-13.7,24.9-21,51.4-20.5,74.6.5,23,8.5,39.9,22.6,47.7,29.4,16.2,76.2-12.2,104.4-63.4l1.1.6-1.1-.6c28.2-51.2,27.2-106-2.1-122.3-5.6-3.1-11.8-4.6-18.4-4.6h0Z"/>
        </g>
      </g>
    </g>
  </g>
</svg>