<?xml version="1.0" encoding="UTF-8"?>
<svg id="Layer_1" data-name="Layer 1" xmlns="http://www.w3.org/2000/svg" version="1.1" viewBox="0 0 2552.4 2550">
  <defs>
    <style>
      .cls-1 {
        fill: #dbf301;
      }

      .cls-1, .cls-2, .cls-3, .cls-4, .cls-5, .cls-6, .cls-7 {
        stroke-width: 0px;
      }

      .cls-2 {
        fill: #adc4cb;
      }

      .cls-3 {
        fill: #1d88fe;
      }

      .cls-4 {
        fill: #87c159;
      }

      .cls-5 {
        fill: #000;
      }

      .cls-6 {
        fill: #aed9ff;
      }

      .cls-7 {
        fill: #fff;
      }
    </style>
  </defs>
  <g>
    <path class="cls-7" d="M1719.3,1061.6l-16.8,12.1-366.2-213.7,1.1-17,9.5-154.3c3.6-44.7,37.1-61.5,82.8-35.1l197.4,114.2c45.7,26.5,82.8,85,82.8,130.9l9.4,162.9Z"/>
    <path class="cls-5" d="M1702.5,1075.2c-.3,0-.5,0-.7-.2l-366.3-213.7c-.5-.3-.8-.8-.7-1.4l10.6-171.3c1.7-21.3,10.4-37.1,24.3-44.4,15.8-8.3,37.3-5.4,60.8,8.2l197.4,114.2c46.1,26.6,83.6,85.9,83.6,132.1l9.4,162.8c0,.5-.2,1-.6,1.3l-16.8,12.1c-.3.2-.6.3-.9.3ZM1337.8,859.2l364.6,212.7,15.4-11.1-9.3-162.1c0-45.4-36.8-103.5-82.1-129.7l-197.4-114.2c-22.5-13-43.1-15.9-57.9-8.1-13,6.8-21.1,21.7-22.7,42l-10.5,170.4Z"/>
    <path class="cls-3" d="M1702.5,1073.7l-382.2-221,9.6-155.2c3.1-47.9,37.1-61.5,82.8-35.1l197.4,114.2c45.7,26.5,82.8,85,82.8,130.9l9.6,166.3Z"/>
    <path class="cls-5" d="M1702.5,1075.2c-.3,0-.5,0-.7-.2l-382.2-221c-.5-.3-.8-.8-.7-1.4l9.6-155.2c1.4-22.2,9.5-37.9,23.2-45.2,15.5-8.3,37.5-5.1,61.9,8.9l197.4,114.2c46.1,26.6,83.6,85.9,83.6,132.1l9.6,166.2c0,.8-.6,1.5-1.4,1.6,0,0,0,0,0,0h0ZM1321.8,851.9l379.1,219.2-9.4-163.5c0-45.4-36.8-103.5-82.1-129.7l-197.4-114.2c-23.4-13.6-44.4-16.7-59-8.9-12.8,6.8-20.2,21.6-21.6,42.8l-9.5,154.3Z"/>
    <path class="cls-5" d="M1688.7,831c13.2,22.3,21.2,46.4,21.2,67.7l9.4,162.9-16.8,12.1-9.6-166.3c0-21-7.8-44.8-20.7-66.9l16.5-9.5Z"/>
    <path class="cls-5" d="M1702.5,1075.2c-.8,0-1.4-.6-1.5-1.4l-9.6-166.3c0-20.1-7.3-43.6-20.5-66.2-.4-.7-.2-1.6.5-2,0,0,0,0,0,0l16.5-9.5c.7-.4,1.6-.2,2,.5,13.8,23.4,21.4,47.7,21.4,68.4l9.4,162.8c0,.5-.2,1-.6,1.3l-16.8,12.1c-.3.2-.6.3-.9.3h0ZM1674.2,841.1c13,22.7,20.2,46.2,20.2,66.3l9.4,163.5,13.9-10.1-9.3-162.1c0-20-7.2-43.2-20.3-65.7l-14,8.1Z"/>
    <path class="cls-7" d="M1688,829.7c-15.1-25.2-36.8-48-60.9-61.9l-197.4-114.2c-27.6-15.9-50.7-16.2-65.5-4.1,13.4-2.1,30,2.1,48.5,12.8l197.4,114.2c24.3,14.1,46.2,37.2,61.4,62.7l16.5-9.6Z"/>
    <path class="cls-5" d="M1671.5,840.8c-.5,0-1-.3-1.3-.7-15.6-26.2-37.7-48.8-60.8-62.2l-197.4-114.2c-17.8-10.3-34.3-14.7-47.5-12.6-.8.1-1.6-.4-1.7-1.2,0-.5.1-1,.5-1.4,15.9-13,40.4-11.6,67.2,3.9l197.4,114.2c23.2,13.4,45.6,36.2,61.4,62.4.4.7.2,1.6-.5,2,0,0,0,0,0,0l-16.5,9.6c-.2.1-.5.2-.7.2h0ZM1371,647.7c12.5,0,27,4.6,42.4,13.5l197.4,114.2c23.2,13.4,45.4,35.9,61.1,62l13.9-8.1c-15.5-25.2-37.1-47.1-59.5-60.1l-197.4-114.2c-23.6-13.6-44.4-16.1-59.4-7.3.5,0,1,0,1.4,0Z"/>
  </g>
  <g>
    <path class="cls-7" d="M1100.5,1067.2L2.3,1705.5l-.9-954c-.1-111.6,59.6-214.8,156.5-270.4L975,12.1c57-33,128.2,16.4,128.2,74l-2.6,981Z"/>
    <path class="cls-5" d="M2.3,1706.9c-.8,0-1.4-.6-1.4-1.4L0,751.4c-.1-111.9,60.2-216,157.2-271.7L974.2,10.9c25.9-15,56.6-14.5,84.3,1.5,28,16.1,46,45.1,46,73.8l-2.6,981c0,.5-.3,1-.7,1.2L3,1706.7c-.2.1-.5.2-.7.2ZM1014.3,2.9c-13.4,0-26.6,3.5-38.6,10.5L158.7,482.3C62.5,537.5,2.8,640.6,2.9,751.4l.9,951.5,1095.3-636.6,2.6-980.2c0-27.7-17.5-55.7-44.6-71.3-13.8-8-28.4-11.9-42.7-11.9h0ZM1100.5,1067.2h0,0Z"/>
    <path class="cls-6" d="M1120.4,1081.1L22.2,1719.4l-.9-954c-.1-111.6,59.6-214.8,156.5-270.4L994.8,26c57-33,126.6,7.5,128.2,74l-2.6,981Z"/>
    <path class="cls-5" d="M22.2,1720.8c-.8,0-1.4-.6-1.4-1.4l-.9-954c-.1-111.9,60.2-216,157.2-271.7L994.1,24.8c26.8-15.5,58.6-15.8,85.2-.9,27.5,15.4,44.3,43.9,45.1,76.1l-2.6,981.1c0,.5-.3,1-.7,1.2L22.9,1720.6c-.2.1-.5.2-.7.2h0ZM1037.7,15.8c-14.4,0-28.9,3.8-42.1,11.5L178.5,496.2c-96.2,55.2-155.9,158.3-155.8,269.2l.9,951.5,1095.3-636.6,2.6-980.2c-.7-31.2-17-58.8-43.6-73.7-12.6-7.1-26.4-10.6-40.2-10.6ZM1120.4,1081.1h0,0Z"/>
    <path class="cls-7" d="M974.9,12.1L158,481c-53.5,30.7-95.7,75.9-122.7,129h0s-.4.7-.4.7v.3c-.1,0-.1,0-.1,0l-.7,1.3C12.6,655.6,1.4,703.2,1.4,751.4l.9,954,19.9,13.9-.9-954c0-48.9,11.4-97.2,33.5-140.8l.9-1.8c27-52.6,69-97.3,122-127.8L994.8,26c27-15.6,57.2-14.6,81.5-2.2-30-20.8-66.3-31.9-101.3-11.7h0Z"/>
    <path class="cls-5" d="M22.2,1720.8c-.3,0-.6,0-.8-.3l-19.9-13.9c-.4-.3-.6-.7-.6-1.2L0,751.4c0-48.2,11.3-96.5,32.8-139.7l.6-1.3s0,0,0,0l.5-1s0,0,0-.1c27.7-54.4,70.3-99.1,123.2-129.5L974.2,10.9c38.7-22.4,77.3-6,102.9,11.8.7.5.8,1.4.4,2-.4.6-1.2.8-1.8.5-25.8-13.1-55-12.3-80.1,2.2L178.5,496.2c-52,29.9-94,73.8-121.5,127.2l-.9,1.8c-21.9,43.2-33.4,91.7-33.4,140.2l.9,954c0,.8-.6,1.4-1.4,1.4ZM3.8,1704.7l17,11.9-.9-951.2c0-48.9,11.6-97.8,33.7-141.5l.9-1.8c27.7-53.8,70.1-98.2,122.6-128.4L994.1,24.8c20.8-12,45.2-14.8,67.7-8.3-23.9-13.1-55-21.1-86.1-3.1h0S158.7,482.3,158.7,482.3c-52.5,30.1-94.7,74.5-122.1,128.4,0,0,0,0,0,.1l-.4.7h0s0,0,0,.1l-.7,1.3c-21.3,42.8-32.5,90.6-32.5,138.4l.9,953.3ZM974.9,12.1h0,0Z"/>
  </g>
  <g>
    <path class="cls-7" d="M857,1237.3l-607.7,353.9-.6-675.4,608.3-350.3v671.8Z"/>
    <path class="cls-5" d="M249.2,1592.6c-.8,0-1.4-.6-1.4-1.4l-.6-675.4c0-.5.3-1,.7-1.3l608.3-350.3c.7-.4,1.6-.2,2,.5.1.2.2.5.2.7v671.8c0,.5-.3,1-.7,1.3l-607.7,353.9c-.2.1-.5.2-.7.2ZM250.1,916.6l.6,672,604.8-352.2v-668.5S250.1,916.6,250.1,916.6ZM857,1237.3h0,0Z"/>
    <path class="cls-5" d="M867.9,1241.9l-610,355-.6-675.4,609.5-350.4,1,670.8Z"/>
    <path class="cls-5" d="M257.9,1598.4c-.8,0-1.4-.6-1.4-1.4l-.6-675.4c0-.5.3-1,.7-1.3l609.5-350.4c.7-.4,1.6-.2,2,.5.1.2.2.5.2.7l1,670.8c0,.5-.3,1-.7,1.3l-610,355c-.2.1-.5.2-.7.2ZM258.8,922.4l.6,672,607.1-353.3-1-667.4-606.6,348.7Z"/>
    <path class="cls-5" d="M866.9,571.2l-609.5,350.4.6,675.4-8.7-5.8-.6-675.4,608.3-350.3,9.9,5.7Z"/>
    <path class="cls-5" d="M257.9,1598.4c-.3,0-.6,0-.8-.2l-8.7-5.8c-.4-.3-.6-.7-.6-1.2l-.6-675.4c0-.5.3-1,.7-1.3l608.3-350.3c.4-.3,1-.3,1.4,0l9.9,5.7c.7.4.9,1.3.5,2-.1.2-.3.4-.5.5l-608.8,350,.6,674.5c0,.8-.6,1.5-1.4,1.5h0ZM250.7,1590.4l5.8,3.9-.6-672.7c0-.5.3-1,.7-1.3l607.3-349.1-7-4L250.1,916.6l.6,673.8Z"/>
    <path class="cls-7" d="M1889.6,1832.5l-607.7,353.9-.6-675.4,608.3-350.3v671.8Z"/>
    <path class="cls-5" d="M1281.9,2187.8c-.8,0-1.4-.6-1.4-1.4l-.6-675.4c0-.5.3-1,.7-1.3l608.3-350.3c.7-.4,1.6-.2,2,.5.1.2.2.5.2.7v671.8c0,.5-.3,1-.7,1.3l-607.7,353.9c-.2.1-.5.2-.7.2h0ZM1282.7,1511.8l.6,672,604.8-352.2v-668.5s-605.4,348.7-605.4,348.7ZM1889.6,1832.5h0,0Z"/>
    <path class="cls-7" d="M1900.6,1837.1l-610,355-.6-675.4,609.6-350.4,1,670.7Z"/>
    <path class="cls-5" d="M1290.6,2193.6c-.8,0-1.4-.6-1.4-1.4l-.6-675.4c0-.5.3-1,.7-1.3l609.6-350.4c.7-.4,1.6-.2,2,.5.1.2.2.5.2.7l1,670.7c0,.5-.3,1-.7,1.3l-610,355c-.2.1-.5.2-.7.2ZM1291.4,1517.6l.6,672,607.1-353.3-1-667.4-606.7,348.7Z"/>
    <path class="cls-5" d="M1899.6,1166.4l-609.6,350.4.6,675.4-8.7-5.8-.6-675.4,608.4-350.3,9.9,5.7Z"/>
    <path class="cls-5" d="M1290.6,2193.6c-.3,0-.6,0-.8-.2l-8.7-5.8c-.4-.3-.6-.7-.6-1.2l-.6-675.4c0-.5.3-1,.7-1.3l608.4-350.3c.4-.3,1-.3,1.4,0l9.9,5.7c.7.4.9,1.3.5,2-.1.2-.3.4-.5.5l-608.9,350,.6,674.5c0,.8-.6,1.5-1.4,1.5h0ZM1283.3,2185.6l5.8,3.9-.6-672.7c0-.5.3-1,.7-1.3l607.4-349.1-7-4-606.9,349.5.6,673.8Z"/>
    <path class="cls-7" d="M857,577.3L248.7,926.9v-11.8s608.2-349.6,608.2-349.6v11.8Z"/>
    <path class="cls-5" d="M248.7,928.3c-.8,0-1.4-.6-1.4-1.4v-11.8c0-.5.2-1,.7-1.3l608.3-349.6c.7-.4,1.6-.2,2,.5.1.2.2.5.2.7v11.8c0,.5-.3,1-.7,1.3L249.5,928.1c-.2.1-.5.2-.7.2ZM250.1,915.9v8.5s605.4-347.9,605.4-347.9v-8.5S250.1,915.9,250.1,915.9Z"/>
    <path class="cls-7" d="M1899.6,1178.3L857,577.3v-11.8s1042.6,600.9,1042.6,600.9v11.9Z"/>
    <path class="cls-5" d="M1899.6,1179.7c-.3,0-.5,0-.7-.2L856.3,578.5c-.4-.3-.7-.7-.7-1.3v-11.8c0-.8.6-1.5,1.4-1.5.3,0,.5,0,.7.2l1042.6,600.9c.4.3.7.7.7,1.3v11.9c0,.8-.6,1.4-1.4,1.4h0ZM858.4,576.4l1039.7,599.3v-8.5L858.4,568v8.4Z"/>
    <path class="cls-7" d="M1899.6,1178.3l-609.6,351.4L248.7,926.9l608.3-349.7,1042.5,601Z"/>
    <path class="cls-5" d="M1290,1531.1c-.3,0-.5,0-.7-.2L248,928.1c-.7-.4-.9-1.3-.5-2,.1-.2.3-.4.5-.5l608.3-349.7c.4-.3,1-.3,1.4,0l1042.5,601c.7.4.9,1.3.5,2-.1.2-.3.4-.5.5l-609.6,351.4c-.2.1-.5.2-.7.2ZM251.6,926.9l1038.4,601.1,606.7-349.7L857,578.9,251.6,926.9Z"/>
    <path class="cls-7" d="M1290,1518l609.6-351.6L857,565.5,248.7,915l1041.3,602.9Z"/>
    <path class="cls-5" d="M1290,1519.4c-.3,0-.5,0-.7-.2L248,916.3c-.7-.4-.9-1.3-.5-2,.1-.2.3-.4.5-.5l608.3-349.5c.4-.3,1-.3,1.4,0l1042.5,600.9c.7.4.9,1.3.5,2-.1.2-.3.4-.5.5l-609.6,351.6c-.2.1-.5.2-.7.2ZM251.6,915l1038.4,601.2,606.7-349.9L857,567.2,251.6,915Z"/>
    <path class="cls-5" d="M1899.6,1178.3v-11.9l-609.6,351.6v11.7s609.6-351.4,609.6-351.4Z"/>
    <path class="cls-5" d="M1290,1531.1c-.8,0-1.4-.6-1.4-1.4h0s0-11.7,0-11.7c0-.5.3-1,.7-1.3l609.6-351.6c.7-.4,1.6-.2,2,.5.1.2.2.5.2.7v11.9c0,.5-.3,1-.7,1.3l-609.6,351.4c-.2.1-.5.2-.7.2ZM1291.5,1518.8v8.3s606.7-349.7,606.7-349.7v-8.5l-606.7,349.9ZM1899.6,1178.3h0,0Z"/>
    <path class="cls-5" d="M248.7,926.9l1041.3,602.8v-11.7S248.7,915,248.7,915v11.8Z"/>
    <path class="cls-5" d="M1290,1531.1c-.3,0-.5,0-.7-.2L248,928.1c-.4-.3-.7-.7-.7-1.3v-11.8c0-.8.6-1.5,1.4-1.5.3,0,.5,0,.7.2l1041.3,602.9c.4.3.7.7.7,1.3v11.7c0,.8-.7,1.4-1.5,1.4ZM250.2,926.1l1038.4,601.1v-8.3S250.2,917.6,250.2,917.6v8.5Z"/>
  </g>
  <g>
    <ellipse class="cls-7" cx="965.4" cy="204.6" rx="150.8" ry="85.2" transform="translate(223.8 855.6) rotate(-53.2)"/>
    <path class="cls-5" d="M908.8,337.2c-11.1,0-21.1-2.5-29.7-7.4-18.3-10.6-28.3-31.7-28.3-59.6,0-63.1,51.1-144,113.9-180.4,33.3-19.3,65-23.1,87-10.3,18.3,10.6,28.3,31.7,28.3,59.6,0,63.1-51.1,144-113.9,180.4-20.3,11.8-40,17.8-57.3,17.8ZM1022,74.9c-16.8,0-36,5.9-55.8,17.4-62,35.9-112.4,115.7-112.4,177.9s9.5,47,26.9,57.1c21.1,12.2,51.7,8.4,84.1-10.3,62-35.9,112.4-115.7,112.4-177.9s-9.5-47-26.9-57.1c-8.1-4.7-17.7-7.1-28.3-7.1h0Z"/>
    <path class="cls-5" d="M951,258.6c-1-2.3-1.4-5.2-1.4-9.5,0-13.5,3.4-25.4,13.7-46.1,11.8-23.7,15.2-36.8,15.2-53s-4.8-13.9-13.2-9-13.2,12.3-13.2,24.3v18.4l-25,14.5v-16.7c0-27,13.2-50.2,39-65.1s39-7.1,39,19.9-4.8,33.9-17.8,58.9c-10.3,20-13.5,30-13.5,40.9s.2,6.1,1,8.9l-23.6,13.7ZM975.3,256.3v25.6l-25.5,14.8v-25.6l25.5-14.8Z"/>
    <path class="cls-5" d="M949.8,298.2c-.8,0-1.4-.7-1.4-1.5v-25.6c0-.5.3-1,.7-1.3l25.5-14.8c.7-.4,1.6-.2,2,.5.1.2.2.5.2.7v25.6c0,.5-.3,1-.7,1.3l-25.5,14.8c-.2.1-.5.2-.7.2ZM951.2,271.9v22.2l22.6-13.1v-22.2l-22.6,13.1ZM951,260c-.6,0-1.1-.4-1.3-.9-1.1-2.6-1.6-5.7-1.6-10.1,0-14,3.6-26.2,13.9-46.7,11.2-22.6,15-35.8,15-52.3s-1-8.6-2.8-9.6c-1.7-1-4.4-.3-8.3,1.9-8.5,4.9-12.5,12.3-12.5,23.1v18.4c0,.5-.3,1-.7,1.3l-25,14.5c-.7.4-1.6.2-2-.5-.1-.2-.2-.5-.2-.7v-16.7c0-27.9,14.1-51.5,39.7-66.3,13.5-7.8,23.9-9.7,31-5.5,6.7,3.9,10.1,12.9,10.1,26.7s-4.9,34.4-18,59.5c-9.9,19.2-13.3,29.4-13.3,40.2s.3,6.2.9,8.5c.2.6-.1,1.3-.7,1.6l-23.6,13.7c-.2.1-.5.2-.7.2h0ZM972.4,137c1.2,0,2.3.3,3.2.8,2.9,1.7,4.2,5.6,4.2,12.1,0,17-3.9,30.6-15.3,53.6-10,20.1-13.6,32-13.6,45.5s.2,5.5.8,7.4l21.1-12.2c-.5-2.3-.7-5-.7-8.1,0-11.4,3.4-21.8,13.6-41.6,12.9-24.7,17.6-40.4,17.6-58.2s-2.9-20.9-8.7-24.2c-6.2-3.6-15.6-1.7-28.1,5.5-24.7,14.3-38.2,37-38.2,63.8v14.1l22.1-12.8v-17.5c0-11.9,4.4-20.1,14-25.6,3.1-1.8,5.8-2.7,7.9-2.7h0Z"/>
  </g>
  <g>
    <path class="cls-5" d="M1580.1,2432.1l608.1-351.4v-29.4l-608.1,350.3v30.5Z"/>
    <path class="cls-5" d="M1580.1,2433.6c-.8,0-1.5-.6-1.5-1.4v-30.5c0-.5.3-1,.7-1.3l608.1-350.3c.7-.4,1.6-.2,2,.5.1.2.2.5.2.7v29.4c0,.5-.3,1-.7,1.3l-608.1,351.4c-.2.1-.5.2-.7.2ZM1581.6,2402.5v27.1l605.2-349.8v-26l-605.2,348.7Z"/>
    <path class="cls-7" d="M1545.5,2380.9v31.4l34.6,19.8v-30.5l-34.6-20.8Z"/>
    <path class="cls-5" d="M1580.1,2433.6c-.2,0-.5,0-.7-.2l-34.6-19.8c-.5-.3-.7-.7-.7-1.3v-31.4c0-.8.7-1.4,1.5-1.4.3,0,.5,0,.7.2l34.6,20.8c.4.3.7.7.7,1.2v30.5c0,.8-.6,1.4-1.4,1.4h0ZM1547,2411.5l31.7,18.2v-27.1l-31.7-19v28ZM1281.1,2260.7l609.8-352.5v-29.4l-609.8,351.4v30.5Z"/>
    <path class="cls-5" d="M1281.1,2262.2c-.8,0-1.5-.6-1.5-1.4v-30.5c0-.5.3-1,.7-1.3l609.8-351.4c.7-.4,1.6-.2,2,.5.1.2.2.5.2.7v29.4c0,.5-.3,1-.7,1.3l-609.8,352.5c-.2.1-.5.2-.7.2ZM1282.5,2231.1v27.1l606.9-350.9v-26l-606.9,349.8Z"/>
    <path class="cls-7" d="M1246.5,2209.5v31.4l34.6,19.8v-30.5l-34.6-20.8Z"/>
    <path class="cls-5" d="M1281.1,2262.2c-.2,0-.5,0-.7-.2l-34.6-19.8c-.5-.3-.7-.7-.7-1.3v-31.4c0-.8.7-1.4,1.5-1.4.3,0,.5,0,.7.2l34.6,20.8c.4.3.7.7.7,1.2v30.5c0,.8-.6,1.4-1.4,1.4h0ZM1247.9,2240.1l31.7,18.2v-27.1l-31.7-19v28Z"/>
    <path class="cls-7" d="M1232.7,1398.1l614.1-355,.6,810.9-614.8,354v-809.9Z"/>
    <path class="cls-5" d="M1232.7,2209.5c-.8,0-1.5-.6-1.5-1.4v-809.9c0-.5.3-1,.7-1.3l614.1-355c.7-.4,1.6-.2,2,.5.1.2.2.5.2.7l.6,810.9c0,.5-.3,1-.7,1.3l-614.8,354c-.2.1-.5.2-.7.2h0ZM1234.1,1399v806.6l611.9-352.4-.6-807.5-611.2,353.3Z"/>
    <path class="cls-7" d="M1232.7,1398.1l360.3,208.8v809.9l-360.3-208.6v-810.2Z"/>
    <path class="cls-5" d="M1593,2418.3c-.3,0-.5,0-.7-.2l-360.3-208.6c-.4-.3-.7-.7-.7-1.3v-810.2c0-.8.7-1.5,1.5-1.4.3,0,.5,0,.7.2l360.3,208.8c.4.3.7.7.7,1.3v809.9c0,.8-.6,1.5-1.4,1.5h0ZM1234.1,2207.4l357.4,206.9v-806.5l-357.4-207.2v806.8Z"/>
    <path class="cls-7" d="M1846.8,1043.1l360.3,208.8.6,810.9-361-209.6v-810.2Z"/>
    <path class="cls-5" d="M2207.8,2064.2c-.3,0-.5,0-.7-.2l-361-209.6c-.4-.3-.7-.7-.7-1.3v-810.2c0-.8.6-1.4,1.4-1.5.3,0,.5,0,.7.2l360.3,208.8c.4.3.7.7.7,1.3l.6,810.9c0,.5-.3,1-.7,1.3-.2.1-.5.2-.7.2h0ZM1848.2,1852.4l358.1,207.9-.6-807.5-357.4-207.2v806.8Z"/>
    <path class="cls-7" d="M1593,1606.9l614.1-355,.6,810.9-614.8,354v-809.9Z"/>
    <path class="cls-5" d="M1593,2418.3c-.8,0-1.5-.6-1.5-1.4v-809.9c0-.5.3-1,.7-1.3l614.1-355c.7-.4,1.6-.2,2,.5.1.2.2.5.2.7l.6,810.9c0,.5-.3,1-.7,1.3l-614.8,354c-.2.1-.5.2-.7.2h0ZM1594.4,1607.7v806.6l611.9-352.4-.6-807.5-611.2,353.3Z"/>
    <path class="cls-7" d="M2207.1,1251.9l-360,208.1-.3.2-253.8,146.7-360.3-208.8,614.1-355h0c0,0,360.3,208.8,360.3,208.8Z"/>
    <path class="cls-5" d="M1593,1608.4c-.3,0-.5,0-.7-.2l-360.3-208.8c-.7-.4-.9-1.3-.5-2,.1-.2.3-.4.5-.5l613.9-354.9c0,0,.1-.1.2-.2.4-.3,1-.3,1.5,0l360.3,208.8c.7.4.9,1.3.5,2-.1.2-.3.4-.5.5l-360,208.1-.3.2-253.8,146.7c-.2.1-.5.2-.7.2ZM1235.6,1398.1l357.4,207.1,253.1-146.3.3-.2,357.8-206.9-357.4-207.1-611.3,353.3Z"/>
    <path class="cls-7" d="M1232.7,1818.4l359.7,208.7"/>
    <path class="cls-5" d="M1592.4,2028.5c-.3,0-.5,0-.7-.2l-359.7-208.7c-.7-.4-.9-1.3-.5-2s1.3-.9,2-.5h0l359.7,208.7c.7.4.9,1.3.5,2-.3.4-.7.7-1.3.7Z"/>
    <path class="cls-7" d="M1233.4,1618.4l359.7,208.7"/>
    <path class="cls-5" d="M1593.2,1828.6c-.3,0-.5,0-.7-.2l-359.7-208.7c-.7-.4-.9-1.3-.5-2,.4-.7,1.3-.9,2-.5h0l359.7,208.7c.7.4.9,1.3.5,2-.3.4-.7.7-1.3.7Z"/>
  </g>
  <g>
    <path class="cls-7" d="M2528.5,1895.9l-1098.2,638.7-.9-954.7c-.1-111.7,59.6-215,156.5-270.6l817-469.2c57-33,128.2,16.4,128.2,74.1l-2.6,981.7Z"/>
    <path class="cls-5" d="M1430.3,2536.1c-.8,0-1.4-.6-1.4-1.4l-.9-954.7c-.1-111.9,60.2-216.1,157.2-271.9l817-469.2c25.9-15,56.6-14.5,84.3,1.5,28,16.1,46,45.1,46,73.9l-2.6,981.7c0,.5-.3,1-.7,1.2l-1098.2,638.7c-.2.1-.5.2-.7.2ZM2442.3,830.9c-13.4,0-26.6,3.5-38.6,10.5l-817,469.2c-96.2,55.2-155.9,158.5-155.8,269.4l.9,952.2,1095.3-637,2.6-980.9c0-27.7-17.5-55.7-44.6-71.3-13.8-8-28.4-11.9-42.7-11.9h0ZM2528.5,1895.9h0,0Z"/>
    <path class="cls-6" d="M2548.4,1909.8l-1098.2,638.7-.9-954.7c-.1-111.7,59.6-215,156.5-270.6l817-469.2c57-33,126.6,7.5,128.2,74.1l-2.6,981.7Z"/>
    <path class="cls-5" d="M1450.2,2550c-.8,0-1.4-.6-1.4-1.4l-.9-954.7c-.1-111.9,60.2-216.1,157.2-271.9l817-469.2c26.8-15.5,58.6-15.8,85.2-.9,27.5,15.4,44.3,43.9,45.1,76.2l-2.6,981.8c0,.5-.3,1-.7,1.2l-1098.2,638.7c-.2.1-.5.2-.7.2h0ZM2465.7,843.8c-14.4,0-28.9,3.8-42.1,11.5l-817,469.2c-96.2,55.2-155.9,158.5-155.8,269.4l.9,952.2,1095.3-637,2.6-980.9c-.7-31.2-17-58.8-43.6-73.7-12.6-7.1-26.4-10.6-40.2-10.6ZM2548.4,1909.8h0,0Z"/>
    <path class="cls-7" d="M2402.9,840.1l-817,469.2c-53.5,30.7-95.7,76-122.7,129.1h0s-.4.7-.4.7v.3c-.1,0-.1,0-.1,0l-.7,1.3c-21.5,43.2-32.7,90.9-32.7,139.2l.9,954.7,19.9,13.9-.9-954.7c0-49,11.4-97.2,33.5-140.9l.9-1.8c27-52.6,69-97.4,122-127.9l817-469.2c27-15.6,57.2-14.6,81.5-2.2-30-20.8-66.3-32-101.3-11.7h0Z"/>
    <path class="cls-5" d="M1450.2,2550c-.3,0-.6,0-.8-.3l-19.9-13.9c-.4-.3-.6-.7-.6-1.2l-.9-954.7c0-48.3,11.3-96.6,32.8-139.8l.6-1.3s0,0,0,0l.5-1s0,0,0-.1c27.7-54.4,70.3-99.2,123.2-129.6l817-469.2c38.7-22.4,77.3-6,102.9,11.8.7.5.8,1.4.4,2-.4.6-1.2.8-1.8.5-25.8-13.1-55-12.4-80.1,2.2l-817,469.2c-52,29.9-94,73.9-121.5,127.3l-.9,1.8c-21.9,43.3-33.4,91.8-33.4,140.3l.9,954.7c0,.8-.6,1.4-1.4,1.5ZM1431.8,2533.9l17,11.9-.9-951.9c0-48.9,11.6-97.9,33.7-141.6l.9-1.8c27.7-53.9,70.1-98.3,122.6-128.5l817-469.2c20.8-12,45.2-14.8,67.7-8.3-23.9-13.1-55-21.1-86.1-3.1h0s-817,469.2-817,469.2c-52.5,30.1-94.7,74.6-122.1,128.5,0,0,0,0,0,.1l-.4.7h0s0,0,0,.1l-.7,1.3c-21.3,42.8-32.5,90.7-32.5,138.5l.9,953.9ZM2402.9,840.1h0,0Z"/>
  </g>
  <g>
    <path class="cls-7" d="M1047.2,871.7l-124.6-71.9v87.7c0,11.6-6.2,22.4-16.3,28.2l-51.9,32.1,124.6,71.9,51.9-32.1c10.1-5.8,16.3-11.7,16.3-28.2v-87.7Z"/>
    <path class="cls-5" d="M979,1021.2c-.2,0-.5,0-.7-.2l-124.6-71.9c-.7-.4-.9-1.3-.5-2,.1-.2.3-.4.5-.5l51.9-32.1c9.6-5.6,15.6-15.9,15.6-27v-87.7c0-.8.6-1.4,1.4-1.5.3,0,.5,0,.7.2l124.6,71.9c.4.3.7.7.7,1.3v87.7c0,16.5-6,23.1-17,29.5l-51.8,32.1c-.2.1-.5.2-.8.2ZM857.3,947.8l121.8,70.3,51.1-31.6c10.4-6,15.6-11.8,15.6-27v-86.9s-121.7-70.2-121.7-70.2v85.2c0,12.1-6.5,23.4-17,29.5l-49.8,30.8Z"/>
    <path class="cls-5" d="M1047.2,871.7v87.7c0,16.5-6.2,22.4-16.3,28.2l-51.9,32.1h0s0-25.4,0-25.4l42.6-24.6c7.3-4.2,11.8-12,11.8-20.4v-69.9l-110.8-63.9-13.8-8,13.8-7.7,124.6,71.9Z"/>
    <path class="cls-5" d="M979,1021.2c-.2,0-.4,0-.6-.2-.5-.2-.9-.8-.9-1.3v-25.4c0-.5.4-1,.8-1.3l42.6-24.6c6.8-3.9,11.1-11.3,11.1-19.2v-69l-123.9-71.5c-.7-.4-.9-1.3-.5-2,.1-.2.3-.4.5-.5l13.8-7.7c.4-.2,1-.2,1.4,0l124.6,71.9c.4.3.7.7.7,1.3v87.7c0,16.5-6,23.1-17,29.5l-51.8,32.1c-.2.1-.5.2-.8.2ZM980.5,995.2v22c0,0,49.7-30.8,49.7-30.8,10.4-6,15.6-11.8,15.6-27v-86.9l-123.2-71.1-10.9,6.1,122.4,70.6c.4.3.7.7.7,1.3v69.9c0,8.9-4.8,17.2-12.5,21.7l-41.9,24.2Z"/>
    <path class="cls-7" d="M1033.4,879.4l-124.6-71.9v69.8c0,8.4-4.5,16.3-11.8,20.5l-42.5,24.6,124.6,71.9,42.6-24.6c7.3-4.2,11.8-12,11.8-20.4v-69.9Z"/>
    <path class="cls-5" d="M979,995.8c-.3,0-.5,0-.7-.2l-124.6-71.9c-.7-.4-.9-1.3-.5-2,.1-.2.3-.4.5-.5l42.5-24.6c6.9-4,11.1-11.3,11.1-19.2v-69.8c0-.8.6-1.4,1.4-1.5.3,0,.5,0,.7.2l124.6,71.9c.4.3.7.7.7,1.3v69.9c0,8.9-4.8,17.2-12.5,21.7l-42.6,24.6c-.2.1-.5.2-.7.2h0ZM857.3,922.4l121.7,70.2,41.8-24.2c6.8-4,11-11.3,11.1-19.2v-69l-121.7-70.2v67.3c0,9-4.8,17.2-12.5,21.7l-40.4,23.3Z"/>
    <path class="cls-7" d="M979,1019.7l-124.5-71.9v-25.4l124.5,71.9v25.4Z"/>
    <path class="cls-5" d="M979,1021.2c-.3,0-.5,0-.7-.2l-124.5-71.9c-.4-.3-.7-.7-.7-1.3v-25.4c0-.8.6-1.4,1.4-1.5.3,0,.5,0,.7.2l124.5,71.9c.4.3.7.7.7,1.3v25.4c0,.8-.6,1.4-1.4,1.5h0ZM855.9,947l121.6,70.2v-22l-121.6-70.2v22Z"/>
    <path class="cls-7" d="M1230.5,1009.8l-498.7-288.9c-2.8-1.6-4.5-4.6-4.5-7.8l-1.7-424.1c0-7,7.5-11.4,13.6-7.9l497.8,286.4c4.4,2.5,7.1,7.2,7.1,12.3v422.1c0,7-7.6,11.3-13.6,7.8h0Z"/>
    <path class="cls-5" d="M1235.1,1012.5c-1.9,0-3.7-.5-5.3-1.4l-498.7-288.9c-3.2-1.9-5.2-5.3-5.2-9.1l-1.7-424.1c0-3.8,2-7.3,5.2-9.1,3.2-1.9,7.3-1.9,10.5,0l497.8,286.4c4.8,2.8,7.8,8,7.8,13.6v422.1c0,3.8-2,7.3-5.3,9.1-1.6.9-3.4,1.4-5.3,1.4h0ZM1231.3,1008.5c2.4,1.4,5.3,1.4,7.6,0,2.4-1.3,3.8-3.9,3.8-6.6v-422.1c0-4.6-2.4-8.8-6.4-11l-497.8-286.4c-2.4-1.4-5.2-1.4-7.6,0s-3.8,3.9-3.8,6.6l1.7,424.1c0,2.7,1.5,5.2,3.8,6.6l498.7,288.9Z"/>
    <path class="cls-5" d="M1229,581.5l13.5-8.2c1.1,2,1.6,4.3,1.6,6.6v422.1c0,4.3-2.6,6.7-5.7,8.9-1.6,1.1-11.7,7.2-11.7,7.2l3.6-8.4v-422.7c0-1.9-.5-3.8-1.3-5.5"/>
    <path class="cls-5" d="M1226.7,1019.6c-.8,0-1.5-.6-1.5-1.4,0-.2,0-.4.1-.6l3.5-8.1v-422.4c0-1.7-.4-3.3-1.2-4.8-.3-.7-.1-1.5.5-1.9l13.5-8.2c.7-.4,1.6-.2,2,.5,0,0,0,0,0,0,1.2,2.2,1.8,4.7,1.8,7.3v422.1c0,5.1-3,7.8-6.3,10.1-1.7,1.1-11.3,7-11.8,7.3-.2.1-.5.2-.8.2h0ZM1230.9,582c.6,1.6.9,3.2.9,4.9v422.7c0,.2,0,.4-.1.6l-1.8,4.2c3-1.8,6.8-4.2,7.7-4.8,3.1-2.1,5.1-4.2,5.1-7.7v-422.1c0-1.5-.3-3.1-.8-4.5l-11,6.7ZM1230.3,1009.7h0,0Z"/>
    <path class="cls-7" d="M1228.7,580.9l.3.5,13.4-8.5c-1.3-2.3-3.1-4.2-5.4-5.5l-497.8-286.5c-2.3-1.4-5.1-1.6-7.6-.7-3.4,1.2-13.8,8-13.8,8l7.8,1.2,498.7,286.9c1.8,1.1,3.4,2.6,4.4,4.4"/>
    <path class="cls-5" d="M1229,582.9c-.5,0-1-.3-1.3-.8l-.3-.5c-.9-1.6-2.3-2.9-3.9-3.9l-498.4-286.8-7.5-1.2c-.8-.1-1.3-.9-1.2-1.7,0-.4.3-.8.6-1,.4-.3,10.6-6.8,14-8.1,2.9-1.1,6.2-.8,8.9.8l497.8,286.5c2.5,1.4,4.5,3.5,5.9,6,.4.7.2,1.5-.5,1.9l-13.4,8.5c-.2.1-.5.2-.8.2h0ZM721.9,287.5l4,.6c.2,0,.3,0,.5.2l498.7,286.9c1.8,1,3.3,2.4,4.5,4.1l10.9-6.9c-1.1-1.5-2.5-2.8-4.1-3.8l-497.8-286.5c-2-1.1-4.3-1.3-6.4-.6-1.9.7-6.7,3.6-10.2,5.8Z"/>
    <path class="cls-3" d="M1217.4,1018.6l-494.3-286.4c-5.9-3.4-9.5-9.7-9.5-16.4l-1.7-419.1c0-6.7,7.2-10.9,13-7.5l499.5,287.4c3.7,2.1,6,6.1,6,10.4v424.1c0,6.7-7.2,10.8-13,7.5h0Z"/>
    <path class="cls-5" d="M1221.7,1021.2c-1.7,0-3.5-.5-5.1-1.4l-494.3-286.4c-6.3-3.7-10.2-10.4-10.2-17.7l-1.7-419.1c0-3.7,1.9-6.9,5-8.8,3.2-1.8,6.9-1.8,10.1,0l499.5,287.4c4.2,2.4,6.7,6.9,6.7,11.7v424.1c0,3.6-1.9,7-5.1,8.8-1.5.9-3.3,1.4-5,1.4h0ZM720.5,289.4c-1.3,0-2.5.3-3.6,1-2.2,1.3-3.6,3.7-3.6,6.3l1.7,419.1c0,6.2,3.4,12.1,8.8,15.2l494.3,286.4c2.2,1.3,5,1.3,7.2,0,2.2-1.3,3.6-3.7,3.6-6.2v-424.1c0-3.8-2-7.3-5.3-9.1l-499.5-287.4c-1.1-.6-2.3-1-3.6-1Z"/>
    <path class="cls-7" d="M1197.4,989.1l-454.4-263.3c-5.4-3.1-8.7-8.9-8.7-15.1l-1.5-385.2c0-6.1,6.6-10,11.9-6.9l459.1,264.2c3.4,2,5.5,5.6,5.5,9.6v389.8c0,6.1-6.6,9.9-11.9,6.9Z"/>
    <path class="cls-5" d="M1201.4,991.6c-1.7,0-3.3-.4-4.7-1.3l-454.4-263.3c-5.8-3.4-9.4-9.6-9.5-16.4l-1.5-385.2c0-3.4,1.8-6.5,4.7-8.2,2.9-1.7,6.5-1.7,9.4,0l459.1,264.2c3.9,2.2,6.3,6.4,6.3,10.8v389.8c0,3.4-1.8,6.5-4.7,8.1-1.4.8-3,1.3-4.7,1.3h0ZM740.8,319c-1.1,0-2.3.3-3.3.9-2,1.2-3.3,3.3-3.2,5.6l1.5,385.2c0,5.7,3.1,11,8,13.9l454.4,263.3c2,1.2,4.5,1.2,6.5,0,2-1.1,3.3-3.3,3.3-5.6v-389.8c0-3.4-1.8-6.6-4.8-8.3l-459.1-264.2c-1-.6-2.1-.9-3.2-.9Z"/>
  </g>
  <g>
    <path class="cls-7" d="M1157.4,1336.6l-185.2-106.4,237.9-136.7,185.2,106.4-237.9,136.7Z"/>
    <path class="cls-5" d="M1157.4,1338c-.3,0-.5,0-.7-.2l-185.2-106.4c-.7-.4-.9-1.3-.5-2,.1-.2.3-.4.5-.5l237.9-136.7c.5-.3,1-.3,1.5,0l185.2,106.4c.7.4.9,1.3.5,2-.1.2-.3.4-.5.5l-237.9,136.7c-.2.1-.5.2-.7.2h0ZM975.2,1230.1l182.3,104.7,235-135-182.3-104.7-235,135Z"/>
    <path class="cls-7" d="M1119.2,1177.9l129.1,74.2"/>
    <path class="cls-5" d="M1248.4,1253.5c-.3,0-.5,0-.7-.2l-129.1-74.2c-.7-.4-.9-1.3-.5-2,.4-.7,1.3-.9,2-.5l129.1,74.2c.7.4.9,1.3.5,2-.3.4-.7.7-1.3.7Z"/>
    <path class="cls-7" d="M1081.6,1199.5l129.1,74.2"/>
    <path class="cls-5" d="M1210.7,1275.2c-.3,0-.5,0-.7-.2l-129.1-74.2c-.7-.4-.9-1.3-.5-2,.4-.7,1.3-.9,2-.5l129.1,74.2c.7.4.9,1.3.5,2-.3.5-.7.7-1.3.7h0Z"/>
    <path class="cls-7" d="M1043.9,1221.2l129.1,74.2"/>
    <path class="cls-5" d="M1173,1296.8c-.3,0-.5,0-.7-.2l-129.1-74.2c-.7-.4-.9-1.3-.5-2,.4-.7,1.3-.9,2-.5l129.1,74.2c.7.4.9,1.3.5,2-.3.4-.7.7-1.3.7h0Z"/>
  </g>
  <g>
    <path class="cls-4" d="M1073.6,1349.3c1.9.3,3.9.3,5.8,0l220.7-34.2c4.1-.7,7.4-4,8-8.1.9-6.3-4.5-11.6-10.8-10.5l-220,37.1c-2.2.4-4.3,1.1-6.2,2.2l-4.4,2.5,1.7,10.1,5.2.9Z"/>
    <path class="cls-5" d="M1066.3,1338s0,0,0,0l4.4-2.5c2-1.1,4.2-1.9,6.4-2.2l220-37.1c3.1-.5,6.2.5,8.5,2.7s3.3,5.3,2.9,8.4c-.6,4.3-4,7.8-8.4,8.5l-220.7,34.2c-2,.3-4,.3-6,0l-5.2-.9c-.2,0-.4-.2-.4-.4l-1.7-10.1c0-.2,0-.3.2-.5h0ZM1304.5,1312.5c1.6-1.4,2.7-3.4,3.1-5.6.4-2.8-.5-5.6-2.6-7.6-2-2-4.8-2.9-7.7-2.4l-220,37.1c-2.1.4-4.2,1.1-6.1,2.1l-4.1,2.4,1.6,9.4,4.9.8c1.9.3,3.8.3,5.7,0l220.7-34.2c1.7-.3,3.2-1,4.5-2.1Z"/>
    <ellipse class="cls-5" cx="1068" cy="1343.3" rx="2.7" ry="5.2" transform="translate(-227.2 217.4) rotate(-10.5)"/>
    <path class="cls-5" d="M1066,1338.2c.3-.2.6-.4,1-.5,1.8-.4,3.6,1.8,4.2,5,.3,1.4.2,2.9-.1,4-.4,1.3-1.1,2-2,2.2s-1.9-.3-2.7-1.3c-.7-.9-1.3-2.2-1.6-3.7s-.2-2.9.1-4c.2-.8.6-1.4,1-1.7h0ZM1069.4,1347.7c.3-.3.6-.7.7-1.3.3-1,.3-2.3,0-3.6-.5-2.7-2-4.4-3.1-4.2-.5.1-1,.7-1.2,1.5-.3,1-.3,2.3,0,3.6.2,1.3.7,2.5,1.4,3.3.6.7,1.2,1.1,1.7,1,.2,0,.3-.1.5-.3h0ZM1070.7,1342.8h0s0,0,0,0Z"/>
    <path class="cls-1" d="M1058.6,1342.5c-2.5.8-1.6,4.6.5,4.6l9.3-.9s1-1,.5-3.4c-.5-2.3-1.9-2.4-1.9-2.4l-8.4,2.2h0Z"/>
    <path class="cls-5" d="M1057.4,1342.6c.3-.3.6-.4,1-.6l8.4-2.2c0,0,.1,0,.2,0,0,0,1.9.3,2.4,2.8.5,2.6-.6,3.8-.7,3.8,0,0-.2.1-.3.1l-9.3.9c-1.4,0-2.3-1.2-2.5-2.4-.2-1,.2-2,.9-2.6h0ZM1058.7,1342.9c-1,.3-1.3,1.3-1.1,2,.1.8.7,1.6,1.5,1.6l9.1-.9c.2-.3.6-1.2.3-2.8-.3-1.6-1.2-2-1.5-2l-8.3,2.1ZM1232,1304.2c-.5,1.3-.3,2.7.6,3.8l1.1,1.3h0s2.8-6,2.8-6h0s-.5-1.6-.5-1.6l-3.3.8-.7,1.6h0Z"/>
    <path class="cls-5" d="M1232.4,1302.2c0,0,.1,0,.2-.1l3.3-.8c.3,0,.5,0,.6.3l.5,1.6c0,.1,0,.2,0,.3l-2.8,6c-.1.2-.4.4-.7.2,0,0-.1,0-.2-.1l-1.1-1.3c-1-1.2-1.3-2.8-.7-4.3s.7-1.6.7-1.6c0,0,0-.1.1-.2h0ZM1235.7,1302.3l-2.6.7-.6,1.4c-.5,1.1-.3,2.4.5,3.3l.6.7,2.4-5.1-.3-1h0ZM1232,1304.2h0s0,0,0,0Z"/>
    <path class="cls-5" d="M1248.3,1299.3l-11.8,4h0s0,0,0,0l-2.8,6h0c3.3,3.8,7.8,5.4,12.8,4.4l56.7-11.6c1.2-.3,1.9-1,2.4-1.8.2-.5.7-1.8,1.2-3.2.7-1.9-3.4-6.1-3.4-6.1l-55.1,8.4h0Z"/>
    <path class="cls-5" d="M1236.2,1302.9s0,0,.1,0l11.8-4s0,0,0,0l55.1-8.4c.2,0,.3,0,.4.1.4.5,4.2,4.5,3.5,6.6-.6,1.8-1,2.9-1.2,3.3-.5,1-1.5,1.8-2.7,2.1l-56.8,11.6c-5.1,1-9.8-.5-13.2-4.5-.1-.1-.2-.4,0-.5l2.8-6c0,0,.1-.2.2-.2ZM1248.5,1299.7l-11.6,3.9-2.6,5.6c3.1,3.5,7.4,4.9,12.1,3.9l56.7-11.6c.9-.2,1.6-.8,2-1.6.1-.3.4-1,1.2-3.2.4-1.1-1.6-3.8-3.1-5.4l-54.8,8.3h0Z"/>
    <path class="cls-1" d="M1234.4,1306.4l-1.3-1.5c-1.1-1.2-.4-3.2,1.2-3.5l63.6-12.5c2.2-.4,4.5.3,6,2.1l1.9,2.2c1.2,1.2,1.4,3,.8,4.3-.4.8-1.2,1.5-2.4,1.8l-56.9,11.5c-1.3.3-2.7.4-4.1.2,0,0-.1,0-.2,0,0,0-.1,0-.2,0h-.3c0,0-.2,0-.3,0-2.7-.5-5.2-1.8-7.2-3.9,0,0,0,0,0,0-.2-.2-.4-.4-.6-.6Z"/>
    <path class="cls-5" d="M1233,1301.5c.4-.3.8-.5,1.2-.6l63.6-12.5c2.4-.5,4.9.4,6.5,2.2l1.9,2.2c1.3,1.3,1.6,3.3.8,4.8-.5,1-1.5,1.8-2.7,2.1l-57,11.5c-1.4.3-2.8.4-4.2.2h-1c-2.8-.6-5.4-2-7.5-4.2h0c-.2-.2-.4-.4-.6-.7l-1.3-1.5c-.6-.7-.8-1.7-.5-2.6.2-.4.4-.8.8-1.1h0ZM1305.5,1298.1c.3-.2.5-.5.7-.9.6-1.2.3-2.7-.7-3.7l-1.9-2.2c-1.4-1.6-3.5-2.3-5.6-1.9l-63.6,12.5c-.6.1-1.1.5-1.3,1.1-.2.6,0,1.2.3,1.6l1.3,1.5h0c.2.2.4.4.5.6,2,2,4.4,3.3,7,3.8h.9c1.3.2,2.6.2,3.9-.1l56.9-11.5c.5-.1,1-.4,1.4-.7h0Z"/>
  </g>
  <g>
    <path class="cls-5" d="M556.6,2152.7c-9.1-15.9-24.1-24.4-33.3-19-2.2,1.2-23.8,16-23.8,16h0c-7.8,6.3-7.4,22.4,1.2,37.4,8.9,15.4,23.2,23.8,32.6,19.4h0s21.2-12.6,25.4-16.6c7.1-6.7,6.4-22.5-2-37.2h0Z"/>
    <path class="cls-5" d="M527.8,2209.2c-9.4,0-20.9-8.2-28.4-21.3-8.9-15.5-9.4-32.2-1-39.1,0,0,.2-.2.2-.2.9-.6,21.8-14.8,23.9-16.1,9.9-5.7,25.8,3,35.3,19.5,0,0,0,0,0,0,8.8,15.3,9.6,31.7,1.8,39-4.3,4-24.8,16.3-25.7,16.8-.1,0-.3.1-.5.2-1.8.8-3.7,1.2-5.7,1.2h0ZM500.4,2150.9s0,0,0,0c-7.2,5.8-6.6,21.4,1.6,35.5,8.3,14.5,22.1,22.9,30.7,18.8,0,0,.1,0,.2,0,2.5-1.5,21.1-12.7,24.9-16.3,6.7-6.3,5.7-21.5-2.3-35.3,0,0,0,0,0,0-8.7-15.1-22.8-23.4-31.4-18.5-1.7,1-16.1,10.7-23.6,15.9h0ZM954.9,1918c-9.1-15.9-24.1-24.4-33.3-19-2.2,1.2-23.8,16-23.8,16h0c-7.8,6.3-7.4,22.4,1.2,37.4,8.9,15.4,23.2,23.8,32.6,19.4h0s21.2-12.6,25.4-16.6c7.1-6.7,6.4-22.5-2-37.2h0Z"/>
    <path class="cls-5" d="M926.1,1974.5c-9.4,0-20.9-8.2-28.4-21.3-8.9-15.5-9.4-32.2-1-39.1,0,0,.2-.2.2-.2.9-.6,21.8-14.8,23.9-16.1,9.9-5.7,25.8,3,35.3,19.5h0c8.8,15.4,9.6,31.8,1.8,39.1-4.3,4-24.8,16.3-25.7,16.8-.1,0-.3.1-.5.2-1.8.8-3.7,1.2-5.7,1.2h0ZM898.7,1916.2s0,0,0,0c-7.2,5.8-6.6,21.4,1.6,35.5,8.3,14.5,22.1,22.9,30.7,18.8,0,0,.1,0,.2,0,2.5-1.5,21.1-12.7,24.9-16.3,6.7-6.3,5.7-21.5-2.3-35.3h0c-8.7-15.2-22.8-23.5-31.4-18.5-1.7,1-16.1,10.7-23.6,15.9h0ZM899.1,2152.7c9.1-15.9,24.1-24.4,33.3-19,2.2,1.2,23.8,16,23.8,16h0c7.8,6.3,7.4,22.4-1.2,37.4-8.9,15.4-23.2,23.8-32.6,19.4h0s-21.2-12.6-25.4-16.6c-7.1-6.7-6.4-22.5,2-37.2h0Z"/>
    <path class="cls-5" d="M928,2209.2c-2,0-4-.4-5.7-1.2-.2,0-.3,0-.5-.2-.9-.5-21.4-12.8-25.7-16.8-7.8-7.3-7-23.7,1.8-39,0,0,0,0,0,0,9.5-16.5,25.4-25.2,35.3-19.5,2.2,1.3,23.1,15.5,23.9,16.1,0,0,.2.1.2.2,8.3,6.9,7.9,23.7-1,39.1-7.5,13.1-19,21.3-28.4,21.3ZM923,2205.2c0,0,.1,0,.2,0,8.6,4.1,22.3-4.3,30.7-18.8,8.1-14.1,8.8-29.7,1.6-35.5,0,0,0,0,0,0-7.5-5.1-21.9-14.9-23.6-15.9-8.6-4.9-22.6,3.3-31.4,18.5,0,0,0,0,0,0-8,13.9-8.9,29-2.3,35.3,3.8,3.6,22.4,14.8,24.9,16.3h0ZM500.8,1918c9.1-15.9,24.1-24.4,33.3-19,2.2,1.2,23.8,16,23.8,16h0c7.8,6.3,7.4,22.4-1.2,37.4-8.9,15.4-23.2,23.8-32.6,19.4h0s-21.2-12.6-25.4-16.6c-7.1-6.7-6.4-22.5,2-37.2h0Z"/>
    <path class="cls-5" d="M529.7,1974.5c-2,0-4-.4-5.7-1.2-.2,0-.3,0-.5-.2-.9-.5-21.4-12.8-25.7-16.8-7.8-7.3-7-23.7,1.8-39,0,0,0,0,0,0,9.5-16.5,25.4-25.2,35.3-19.5,2.2,1.3,23.1,15.5,23.9,16.1,0,0,.2.1.2.2,8.3,6.9,7.9,23.7-1,39.1-7.5,13.1-19,21.3-28.4,21.3ZM524.7,1970.5c0,0,.1,0,.2,0,8.6,4.1,22.3-4.3,30.7-18.8,8.1-14.1,8.8-29.7,1.6-35.5,0,0,0,0,0,0-7.5-5.1-21.9-14.9-23.6-15.9-8.6-4.9-22.6,3.3-31.4,18.5,0,0,0,0,0,0-8,13.9-8.9,29-2.3,35.3,3.8,3.6,22.4,14.8,24.9,16.3h0Z"/>
    <path class="cls-7" d="M918.1,2040.1l-142-82.4,126.7-73.5v24.8c.2,13.1,10.9,23.7,24,23.7h.1c13.2,0,23.8-10.8,23.7-24l-.3-51.3c0-11.5-6.3-22.2-16.3-27.9-10-5.7-22.4-5.7-32.3,0l-173.1,100.5-173.1-100.5c-10-5.8-22.3-5.8-32.3,0-10,5.7-16.2,16.4-16.3,27.9l-.3,51.3c0,13.2,10.6,23.9,23.7,24h.1c13.1,0,23.8-10.6,23.9-23.7v-24.8c.1,0,126.8,73.5,126.8,73.5l-142,82.4c-20,11.6-32.5,33.3-32.5,56.5v41.9c0,13.2,10.7,23.9,23.9,23.9s23.9-10.7,23.9-23.9v-41.9c0-6.2,3.3-12.1,8.7-15.2l165.6-96.1,165.6,96.1c5.4,3.1,8.7,8.9,8.7,15.2v41.9c0,13.2,10.7,23.9,23.9,23.9s23.9-10.7,23.9-23.9v-41.9c0-23.2-12.5-44.8-32.5-56.5h0s0,0,0,0Z"/>
    <path class="cls-5" d="M926.7,2163.9c-14,0-25.3-11.4-25.3-25.3v-41.9c0-5.7-3.1-11-8-13.9l-164.8-95.7-164.8,95.7c-5,2.9-8,8.2-8,13.9v41.9c0,14-11.4,25.3-25.3,25.3s-25.3-11.4-25.3-25.3v-41.9c0-23.7,12.7-45.8,33.2-57.7l139.8-81.2-122.3-71v22.3c-.2,13.9-11.5,25.2-25.4,25.2-6.9,0-13.2-2.7-18-7.5-4.7-4.8-7.4-11.2-7.3-17.9l.3-51.3c0-12,6.6-23.2,17-29.2,10.4-6,23.4-5.9,33.8,0l172.4,100.1,172.4-100.1c10.4-6,23.4-6.1,33.8-.1,10.4,6,17,17.2,17,29.2l.3,51.3c0,6.8-2.6,13.1-7.3,17.9s-11.1,7.5-17.9,7.5c-14,0-25.4-11.3-25.4-25.2v-22.3c-.1,0-122.4,71-122.4,71l139.8,81.2c20.5,11.9,33.2,34,33.2,57.7v41.9c0,14-11.4,25.3-25.3,25.3h0ZM728.6,1983.8c.3,0,.5,0,.7.2l165.6,96.1c5.9,3.4,9.5,9.7,9.5,16.4v41.9c0,12.4,10,22.4,22.4,22.4s22.4-10,22.4-22.4v-41.9c0-22.7-12.2-43.8-31.8-55.2l.7-1.3-.7,1.3-142-82.4c-.7-.4-.9-1.3-.5-2,.1-.2.3-.4.5-.5l126.7-73.5c.7-.4,1.6-.2,2,.5.1.2.2.5.2.7v24.8c.2,12.3,10.2,22.3,22.5,22.3,6.1,0,11.7-2.4,15.9-6.6s6.5-9.9,6.5-15.9l-.3-51.3c0-11-6-21.2-15.6-26.7-9.5-5.5-21.4-5.4-30.9,0l-173.1,100.5c-.5.3-1,.3-1.5,0l-173.1-100.5c-9.5-5.5-21.3-5.5-30.9,0-9.5,5.5-15.5,15.7-15.6,26.7l-.3,51.3c0,5.9,2.3,11.7,6.5,15.9,4.2,4.2,9.9,6.6,15.8,6.6,12.4,0,22.4-10,22.5-22.3v-24.8c.1-.8.8-1.5,1.6-1.5.3,0,.5,0,.7.2l126.7,73.5c.7.4.9,1.3.5,2-.1.2-.3.4-.5.5l-142,82.4c-19.6,11.4-31.8,32.5-31.8,55.2v41.9c0,12.4,10,22.4,22.4,22.4s22.4-10,22.4-22.4v-41.9c0-6.8,3.6-13.1,9.5-16.4l165.6-96.1c.2-.1.5-.2.7-.2h0Z"/>
    <path class="cls-7" d="M695.6,1540.6v402.9c0,9.1,15,16.4,33.6,16.4s33.6-7.4,33.6-16.4v-402.9h-67.2Z"/>
    <path class="cls-5" d="M729.2,1961.3c-19.7,0-35-7.9-35-17.9v-402.9c0-.8.7-1.5,1.5-1.5h67.2c.8,0,1.5.7,1.5,1.5v402.9c0,10-15.4,17.9-35,17.9ZM697,1542v401.4c0,8.1,14.7,15,32.1,15s32.1-6.9,32.1-15v-401.4h-64.2Z"/>
    <ellipse class="cls-7" cx="729.2" cy="1540.6" rx="33.6" ry="16.4"/>
    <path class="cls-5" d="M729.2,1558.5c-19.6,0-35-7.9-35-17.9s15.4-17.9,35-17.9,35,7.9,35,17.9-15.4,17.9-35,17.9ZM729.2,1525.6c-17.4,0-32.1,6.9-32.1,15s14.7,15,32.1,15,32.1-6.9,32.1-15-14.7-15-32.1-15Z"/>
    <path class="cls-7" d="M646.8,1376.7c-9.5,5.5-17.2,2.2-17.2-7.3v-79.9c0-13-10.6-17.5-23.7-10l-162.4,93.8c-16.4,11-23.7,24.3-23.7,37.3v79.9c0,9.5-7.7,21.6-17.2,27.1s-17.2,2.2-17.2-7.3v-79.9c0-43.8,26-73.1,58-91.6l162.4-93.8c32-18.5,58-7.5,58,24.5v79.9c0,9.5-7.7,21.6-17.2,27.1h0Z"/>
    <path class="cls-5" d="M394.2,1521.8c-1.9,0-3.6-.4-5.1-1.3-3.2-1.8-4.9-5.4-4.9-10.1v-79.9c0-48.7,32-77.4,58.8-92.8l162.4-93.8c17.3-10,33.8-11.9,45.3-5.2,9.6,5.5,14.9,16.6,14.9,31v79.9c0,9.9-8,22.7-17.9,28.4-5.5,3.1-10.7,3.7-14.5,1.6-3.2-1.8-4.9-5.4-4.9-10.1v-79.9c0-5.1-1.8-9-5-10.9-4-2.3-10-1.6-16.4,2.1l-162.4,93.8c-15,10-22.9,22.5-22.9,36.1v79.9c0,9.9-8,22.7-17.9,28.4-3.3,1.9-6.5,2.9-9.3,2.9ZM635,1237.6c-8.5,0-18.2,3-28.2,8.8l-162.4,93.8c-26.1,15.1-57.3,43-57.3,90.3v79.9c0,3.6,1.2,6.3,3.5,7.6,2.8,1.6,7,1.1,11.5-1.6,9.1-5.2,16.5-16.8,16.5-25.9v-79.9c0-10.1,4.2-25.1,24.3-38.5l162.5-93.8c7.3-4.2,14.4-5,19.3-2.1,4.2,2.4,6.5,7.2,6.5,13.4v79.9c0,3.6,1.2,6.3,3.5,7.6,2.8,1.6,7,1.1,11.5-1.6,9.1-5.2,16.5-16.8,16.5-25.9v-79.9c0-13.4-4.8-23.5-13.4-28.5-4.1-2.4-8.9-3.5-14.2-3.5h0Z"/>
    <path class="cls-7" d="M422.2,1413.7l-30.5-17.7c9.5-25.3,29.2-43.9,52-57l162.4-93.8c18.2-10.5,34.4-11.5,45-4.5,4.2,2.8,20.1,12.9,29.3,18.7.8.5-17.3-3.6-18.4-3.9-7.8.6-16.6,3.5-25.9,8.9l-20.4,11.8-142,82c-22.3,12.9-41.7,31-51.4,55.7"/>
    <path class="cls-5" d="M422.2,1415.1c-.3,0-.5,0-.7-.2l-30.5-17.7c-.6-.4-.9-1.1-.6-1.8,8.7-23.2,26.4-42.7,52.6-57.8l162.4-93.8c18-10.4,35-12,46.6-4.5,4.6,3,20.3,13.1,29.3,18.6.6.4.9,1.2.6,1.8-.5,1.3-.7,1.6-19.9-3-7.8.6-16.2,3.5-25.1,8.6l-162.4,93.8c-25.1,14.5-42.2,33-50.8,54.9-.2.6-.8.9-1.4.9ZM393.5,1395.3l28,16.3c9.1-21.9,26.4-40.3,51.4-54.8l162.4-93.8c9.3-5.4,18.2-8.4,26.5-9,.2,0,.3,0,.4,0,1,.2,6.1,1.4,10.7,2.4-7.6-4.8-15.2-9.6-22.7-14.5-10.6-6.9-26.5-5.3-43.5,4.6l-162.4,93.8c-25.1,14.5-42.2,33.1-50.9,55.1h0Z"/>
    <path class="cls-2" d="M421.7,1414.9l-30.6-17.5c-3.6,10-5.6,21-5.6,33.1v81.4c0,5.2,2.8,7.3,5.9,9.6,2.9,2.2,25.1,15.6,28.4,17-2.1-5-4.2-13.2-4.2-18v-70.8c0-10.7,1.6-20.5,4.4-29.6.5-1.7,1.1-3.4,1.8-5.1"/>
    <path class="cls-5" d="M419.8,1539.8c-.2,0-.4,0-.6-.1-3.6-1.5-25.8-15-28.7-17.1-3-2.2-6.5-4.7-6.5-10.7v-81.4c0-11.8,1.9-23.1,5.6-33.6.3-.8,1.1-1.2,1.9-.9,0,0,.2,0,.2.1l30.6,17.5c.6.4.9,1.1.6,1.8-.6,1.7-1.2,3.4-1.7,5.1-2.9,9.2-4.3,19-4.3,29.1v70.8c0,4.7,2.1,12.7,4.1,17.5.3.7,0,1.6-.8,1.9-.2,0-.4.1-.6.1h0ZM391.9,1399.5c-3.3,9.7-4.9,20.1-4.9,31v81.4c0,4.5,2.4,6.3,5.3,8.4,2.5,1.9,17.7,11.1,24.8,15.1-1.6-4.9-3-10.9-3-15v-70.8c0-10.5,1.5-20.6,4.4-30,.4-1.4.9-2.7,1.4-4.1l-28-16Z"/>
    <path class="cls-5" d="M676.9,1395.8c-9.5,5.5-17.2,2.2-17.2-7.3v-79.9c0-13-10.6-17.5-23.7-10l-162.4,93.8c-16.4,11-23.7,24.3-23.7,37.3v79.9c0,9.5-7.7,21.6-17.2,27.1s-17.2,2.2-17.2-7.3v-79.9c0-43.8,26-73.1,58-91.6l162.4-93.8c32-18.5,58-7.5,58,24.5v79.9c0,9.5-7.7,21.6-17.2,27.1h0Z"/>
    <path class="cls-5" d="M424.2,1540.9c-1.9,0-3.6-.4-5.1-1.3-3.2-1.8-4.9-5.4-4.9-10.1v-79.9c0-48.7,32-77.4,58.8-92.8l162.4-93.8c17.3-10,33.8-11.9,45.3-5.2,9.6,5.5,14.9,16.6,14.9,31v79.9c0,9.9-8,22.7-17.9,28.4-5.5,3.2-10.7,3.7-14.5,1.6-3.2-1.8-4.9-5.4-4.9-10.1v-79.9c0-5.1-1.8-9-5-10.9-4-2.3-10-1.6-16.4,2.1l-162.4,93.8c-15,10-22.9,22.5-22.9,36.1v79.9c0,9.9-8,22.7-17.9,28.4-3.3,1.9-6.5,2.9-9.3,2.9h0ZM665,1256.7c-8.5,0-18.2,3-28.2,8.8l-162.4,93.8c-26.1,15.1-57.3,43-57.3,90.3v79.9c0,3.6,1.2,6.3,3.5,7.6,2.8,1.6,7,1.1,11.5-1.6,9.1-5.2,16.5-16.8,16.5-25.9v-79.9c0-10.1,4.2-25.1,24.3-38.5l162.5-93.8c7.3-4.2,14.4-5,19.3-2.1,4.2,2.4,6.5,7.2,6.5,13.4v79.9c0,3.6,1.2,6.3,3.5,7.6,2.8,1.6,7,1.1,11.5-1.6,9.1-5.2,16.5-16.8,16.5-25.9v-79.9c0-13.4-4.8-23.5-13.4-28.5-4.1-2.4-8.9-3.5-14.2-3.5h0Z"/>
    <path class="cls-2" d="M659.7,1308.6v54.9c0,25-.8,30.4,2.4,32.4-4.4-2.3-24.1-14.2-26.6-16-3.4-2.5-5.9-5.1-5.9-10.5v-67.2l6.3-3.7c13.1-7.5,23.7-3.1,23.7,10h0Z"/>
    <path class="cls-5" d="M662.1,1397.4c-.2,0-.5,0-.7-.2-4.5-2.3-24.2-14.2-26.8-16.1-3.9-2.8-6.5-5.9-6.5-11.7v-67.2c0-.5.3-1,.7-1.3l6.3-3.7c7.3-4.2,14.4-5,19.3-2.2,4.2,2.4,6.5,7.2,6.5,13.4v54.9c0,4.9,0,9,0,12.5,0,13-.1,17.4,1.8,18.6.7.4.9,1.3.5,2-.3.4-.7.7-1.2.7h0ZM631.1,1303.1v66.3c0,4.6,1.9,6.9,5.3,9.3,1.9,1.4,14.8,9.2,22.1,13.5-.5-3.1-.5-8-.4-16.2,0-3.5,0-7.6,0-12.5v-54.9c0-5.1-1.8-9-5-10.9-4-2.3-10-1.5-16.4,2.2l-5.6,3.2Z"/>
    <path class="cls-7" d="M753.7,1397.6l310,179.1c32.6,18.8,32.6,49.4,0,68.2l-236,136.3c-32.6,18.8-85.5,18.8-118.1,0l-310-179.1c-32.6-18.8-32.6-49.4,0-68.2l236-136.3c32.6-18.8,85.5-18.8,118.1,0h0Z"/>
    <path class="cls-5" d="M768.7,1796.7c-21.7,0-43.3-4.8-59.8-14.3l-310-179.1c-16.2-9.4-25.2-21.9-25.2-35.4s8.9-26,25.2-35.4l236-136.3c33-19,86.6-19,119.6,0l310,179.1c16.2,9.4,25.2,21.9,25.2,35.4s-8.9,26-25.2,35.4l-236,136.3c-16.5,9.5-38.1,14.3-59.8,14.3h0ZM694.6,1384.9c-21.1,0-42.2,4.6-58.3,13.9l-236,136.3c-15.3,8.8-23.7,20.5-23.7,32.8s8.4,24,23.7,32.8l310,179.1c32.2,18.6,84.5,18.6,116.6,0l236-136.3c15.3-8.8,23.7-20.5,23.7-32.8s-8.4-24-23.7-32.8l-310.1-179.1c-16.1-9.3-37.2-13.9-58.3-13.9Z"/>
    <path class="cls-5" d="M827.7,1753.8v27.4l236-136.3c16.3-9.4,24.5-21.8,24.5-34.1,0-2.2.5-27,0-29.2.2,3.1-1.8,12.5-3.4,15.5-3.8,7.5-10.8,14.5-21,20.4l-236,136.3Z"/>
    <path class="cls-5" d="M827.7,1782.6c-.8,0-1.5-.7-1.5-1.5v-27.4c0-.5.3-1,.7-1.3l236-136.3c9.6-5.5,16.7-12.4,20.5-19.8,1.5-2.8,3.4-11.9,3.3-14.7,0-.8.6-1.5,1.4-1.6.7,0,1.4.4,1.5,1.1.4,1.6.3,11.5,0,26,0,1.2,0,2.4,0,3.5,0,13.4-8.9,26-25.2,35.4l-236,136.3c-.2.1-.5.2-.7.2h0ZM829.2,1754.6v24l233.8-135c15.3-8.8,23.7-20.5,23.7-32.8,0-.4,0-1.7,0-3.6,0-2.4.1-6.9.1-11.4-.2.7-.5,1.4-.9,2-4,7.9-11.5,15.2-21.6,21l-235.3,135.9Z"/>
    <path class="cls-5" d="M826.8,1754.3c-32.7,18.3-84.9,18.2-117.2-.5l-310-179.1c-10.2-5.9-17.2-12.9-21.1-20.4-1.9-2.7-2.9-6.9-3.4-14.3-.3,3.1.1,24.4,0,26.8-.5,12.7,7.6,25.5,24.4,35.2l310,179.1c32.3,18.7,84.5,18.8,117.2.5v-27.4Z"/>
    <path class="cls-5" d="M768.7,1796.6c-21.7,0-43.4-4.7-59.8-14.2l-310-179.1c-16.8-9.7-25.7-22.7-25.2-36.6,0-.9,0-4.8,0-9.2,0-7.4-.1-15.7,0-17.7,0-.8.7-1.3,1.5-1.3h0c.8,0,1.4.6,1.4,1.4.5,7.1,1.4,11.1,3.1,13.5,0,0,0,.1.1.2,3.8,7.4,10.9,14.3,20.5,19.8l310,179.1c31.7,18.3,83.6,18.5,115.8.5.7-.4,1.6-.1,2,.6.1.2.2.5.2.7v27.4c0,.5-.3,1-.8,1.3-16.3,9.1-37.6,13.7-58.8,13.7ZM376.5,1553.8v3.7c0,4.7.1,8.4,0,9.3-.5,12.7,7.9,24.8,23.7,33.9l310,179.1c31.4,18.2,82.8,18.5,115,.9v-24.1c-33,17.3-84.7,16.7-116.4-1.7l-310-179.1c-10.1-5.8-17.5-13-21.6-20.9-.3-.4-.5-.8-.7-1.2h0Z"/>
    <path class="cls-7" d="M753.7,1370.2l310,179.1c32.6,18.8,32.6,49.4,0,68.2l-236,136.3c-32.6,18.8-85.5,18.8-118.1,0l-310-179.1c-32.6-18.8-32.6-49.4,0-68.2l236-136.3c32.6-18.8,85.5-18.8,118.1,0h0Z"/>
    <path class="cls-5" d="M768.7,1769.3c-21.7,0-43.3-4.8-59.8-14.3l-310-179.1c-16.2-9.4-25.2-21.9-25.2-35.4s8.9-26,25.2-35.4l236-136.3c33-19,86.6-19,119.6,0l310,179.1c16.2,9.4,25.2,21.9,25.2,35.4s-8.9,26-25.2,35.4l-236,136.3c-16.5,9.5-38.1,14.3-59.8,14.3h0ZM694.6,1357.5c-21.1,0-42.2,4.6-58.3,13.9l-236,136.3c-15.3,8.8-23.7,20.5-23.7,32.8s8.4,24,23.7,32.8l310,179.1c32.2,18.6,84.5,18.6,116.6,0l236-136.3c15.3-8.8,23.7-20.5,23.7-32.8s-8.4-24-23.7-32.8l-310.1-179.1c-16.1-9.3-37.2-13.9-58.3-13.9Z"/>
    <path class="cls-7" d="M753.6,1371.9l310,179.1c32.6,18.8,32.6,49.4,0,68.2l-236,136.3c-32.6,18.8-85.5,18.8-118.1,0l-310.1-179.1c-32.6-18.8-32.6-49.4,0-68.2l236-136.3c32.6-18.8,85.5-18.8,118.1,0h0Z"/>
    <path class="cls-5" d="M768.6,1771.1c-21.7,0-43.3-4.8-59.8-14.3l-310.1-179.1c-16.2-9.4-25.2-21.9-25.2-35.4s8.9-26,25.2-35.4l236-136.3c33-19,86.6-19,119.6,0l310,179.1c16.2,9.4,25.2,21.9,25.2,35.4s-8.9,26-25.2,35.4l-236,136.3c-16.5,9.5-38.1,14.3-59.8,14.3h0ZM694.5,1359.3c-21.1,0-42.2,4.6-58.3,13.9l-236,136.3c-15.3,8.8-23.7,20.5-23.7,32.8s8.4,24,23.7,32.8l310,179.1c32.2,18.6,84.5,18.6,116.6,0l236-136.3c15.3-8.8,23.7-20.5,23.7-32.8s-8.4-24-23.7-32.8l-310-179.1c-16.1-9.3-37.2-13.9-58.3-13.9h0Z"/>
    <path class="cls-6" d="M827.7,1711.1v44.4c0,0,235.9-136.3,235.9-136.3,16.3-9.4,24.5-21.8,24.5-34.1,0-2.2.7-45.1.2-47.2.2,3.1-1.8,12.5-3.4,15.5-3.8,7.5-10.8,14.5-21,20.4l-236,136.3"/>
    <path class="cls-5" d="M827.7,1757c-.8,0-1.5-.7-1.5-1.5h0s0-44.4,0-44.4c0-.2,0-.5.2-.7-.2-.6.1-1.3.7-1.6l236-136.3c9.6-5.5,16.7-12.4,20.5-19.8,1.5-2.8,3.4-11.9,3.3-14.7,0-.8.6-1.5,1.4-1.5.7,0,1.3.4,1.5,1.1.3,1.4.3,13.7,0,42.5,0,2.8,0,4.6,0,5,0,13.4-8.9,26-25.2,35.4l-236,136.3c-.2.1-.5.2-.7.2h0ZM829.2,1711s0,0,0,.1v41.8c0,0,233.7-135,233.7-135,15.3-8.8,23.7-20.5,23.7-32.8,0-.4,0-2.3,0-5.1,0-5.7.2-18.1.3-27.9-.2.7-.5,1.3-.8,2-4,7.9-11.5,15.2-21.6,21l-235.4,135.9Z"/>
    <path class="cls-5" d="M827.7,1711.1c-32.7,18.3-84.9,18.2-117.2-.5l-310-179.1c-10.2-5.9-17.2-12.9-21.1-20.4-1.9-2.7-2.9-6.9-3.4-14.3-.3,3.1-.8,41.9-.9,44.3-.5,12.7,7.6,25.5,24.4,35.2l310,179.1c32.3,18.7,84.5,18.8,117.2.5l1-44.9Z"/>
    <path class="cls-5" d="M768.6,1771c-21.7,0-43.4-4.7-59.8-14.2l-310-179.1c-16.8-9.7-25.7-22.7-25.2-36.6,0-.8.1-5.8.2-12.2.2-12.7.5-30.2.7-32.2,0-.8.7-1.3,1.5-1.3h0c.8,0,1.4.6,1.4,1.4.5,7.1,1.4,11.1,3.1,13.5,0,0,0,.1.1.2,3.8,7.4,10.9,14.3,20.5,19.8l310,179.1c31.7,18.3,83.6,18.5,115.8.5.7-.4,1.6-.1,2,.6.1.2.2.5.2.7l-1,44.9c0,.5-.3,1-.7,1.2-16.3,9.1-37.6,13.7-58.8,13.7h0ZM377.1,1510.1c-.1,6.1-.3,13.2-.4,18.9-.1,6.4-.2,11.4-.2,12.2-.5,12.7,7.9,24.8,23.7,33.9l310,179.1c31.4,18.2,82.8,18.5,115,.9l.9-41.5c-33.1,17.3-84.7,16.6-116.4-1.7l-310-179.1c-10.1-5.8-17.5-13-21.6-20.9-.4-.6-.7-1.2-1-1.8Z"/>
    <path class="cls-3" d="M753.7,1327.6l310,179.1c32.6,18.8,32.6,49.4,0,68.2l-236,136.3c-32.6,18.8-85.5,18.8-118.1,0l-310-179.1c-32.6-18.8-32.6-49.4,0-68.2l236-136.3c32.6-18.8,85.5-18.8,118.1,0h0Z"/>
    <path class="cls-5" d="M768.7,1726.7c-21.7,0-43.3-4.8-59.8-14.3l-310-179.1c-16.2-9.4-25.2-21.9-25.2-35.4s8.9-26,25.2-35.4l236-136.3c33-19,86.6-19,119.6,0l310,179.1c16.2,9.4,25.2,21.9,25.2,35.4s-8.9,26-25.2,35.4l-236,136.3c-16.5,9.5-38.1,14.3-59.8,14.3h0ZM694.6,1314.9c-21.1,0-42.2,4.6-58.3,13.9l-236,136.3c-15.3,8.8-23.7,20.5-23.7,32.8s8.4,24,23.7,32.8l310,179.1c32.2,18.6,84.5,18.6,116.6,0l236-136.3c15.3-8.8,23.7-20.5,23.7-32.8s-8.4-24-23.7-32.8l-310.1-179.1c-16.1-9.3-37.2-13.9-58.3-13.9h0Z"/>
    <path class="cls-7" d="M764.9,1725.9c-19.8-.6-39.2-6.6-54.4-15.3l-310-179.1c-10.2-5.9-18.2-12.7-22-20.2-1.3-3.2-3.4-7.1-3.4-14.5-.3,3.1,0,41.9,0,44.3,0,.1,0,.2,0,.3-.1,5.8.2,23.1,0,25.3-.5,12.7,7.6,25.5,24.4,35.2l310,179.1c15.3,8.9,35.1,13.5,55.2,14.1v-69.3Z"/>
    <path class="cls-5" d="M764.9,1796.7h0c-21.1-.6-40.9-5.6-55.9-14.3l-310-179.1c-16.8-9.7-25.7-22.7-25.2-36.6,0-.9,0-4.8,0-9.2,0-6-.1-12.7,0-16,0-.2,0-.3,0-.4,0-.9,0-7.3,0-14.7,0-12.3,0-27.7,0-29.7,0-.8.8-1.4,1.6-1.3.8,0,1.4.7,1.3,1.5,0,6.4,1.6,10.1,2.9,13l.4.9c3.4,6.7,10.6,13.3,21.4,19.5l310,179.1c15.6,9,35.1,14.5,53.7,15.1.8,0,1.4.7,1.4,1.5v69.3c0,.8-.7,1.5-1.5,1.5ZM376.5,1510.4c0,5.1,0,11,0,16,0,7.8,0,13.9,0,14.9v.3c0,3.2,0,10.3,0,15.9,0,4.7,0,8.4,0,9.4-.5,12.7,7.9,24.8,23.7,33.9l310,179.1c14.2,8.2,33,13.1,53,13.8v-66.4c-18.6-.8-38-6.4-53.6-15.4l-310-179.1c-11.2-6.5-18.8-13.5-22.5-20.8l-.4-.9c0-.2-.2-.4-.3-.7h0Z"/>
    <path class="cls-7" d="M1060.1,1624.3c-9.5,5.5-17.2,2.2-17.2-7.3v-79.9c0-13-10.6-17.5-23.7-10l-162.4,93.8c-16.4,11-23.7,24.3-23.7,37.3v79.9c0,9.5-7.7,21.6-17.2,27.1s-17.2,2.2-17.2-7.3v-79.9c0-43.8,26-73.1,58-91.6l162.4-93.8c32-18.5,58-7.5,58,24.5v79.9c0,9.5-7.7,21.6-17.2,27.1h0Z"/>
    <path class="cls-5" d="M807.5,1769.4c-1.9,0-3.6-.4-5.1-1.3-3.2-1.8-4.9-5.4-4.9-10.1v-79.9c0-48.7,32-77.4,58.8-92.8l162.4-93.8c17.3-10,33.8-11.9,45.3-5.2,9.6,5.5,14.9,16.6,14.9,31v79.9c0,9.9-8,22.7-17.9,28.4-5.5,3.1-10.7,3.7-14.5,1.6-3.2-1.8-4.9-5.4-4.9-10.1v-79.9c0-5.1-1.8-9-5-10.9-4-2.3-10-1.6-16.4,2.1l-162.4,93.8c-15,10-22.9,22.5-22.9,36.1v79.9c0,9.9-8,22.7-17.9,28.4-3.3,1.9-6.5,2.9-9.3,2.9h0ZM1048.3,1485.2c-8.5,0-18.2,3-28.2,8.8l-162.4,93.8c-26.1,15.1-57.3,43-57.3,90.3v79.9c0,3.6,1.2,6.3,3.5,7.6,2.8,1.6,7,1.1,11.5-1.6,9.1-5.2,16.5-16.8,16.5-25.9v-79.9c0-10.1,4.2-25.1,24.3-38.5l162.5-93.8c7.3-4.2,14.4-5,19.3-2.1,4.2,2.4,6.5,7.2,6.5,13.4v79.9c0,3.6,1.2,6.3,3.5,7.6,2.8,1.6,7,1.1,11.5-1.6,9.1-5.2,16.5-16.8,16.5-25.9v-79.9c0-13.4-4.8-23.5-13.4-28.5-4.1-2.4-8.9-3.5-14.2-3.5h0Z"/>
    <path class="cls-7" d="M835.5,1661.2l-1,2.8-30.5-17.6,1-2.9c9.5-25.3,29.2-43.9,52-57l162.4-93.8c18.2-10.5,34.4-11.5,45-4.5,4.2,2.8,20.1,12.9,29.3,18.7.8.5-17.3-3.6-18.4-3.9-7.8.6-16.6,3.5-25.9,8.9l-20.4,11.8-142,82c-22.3,12.9-41.7,31-51.4,55.7"/>
    <path class="cls-5" d="M834.5,1665.4c-.3,0-.5,0-.7-.2l-30.5-17.6c-.6-.4-.9-1.1-.6-1.8l1-2.9c8.7-23.2,26.4-42.7,52.6-57.8l162.4-93.8c18-10.4,35-12,46.6-4.5,4.5,3,20.3,13.1,29.3,18.6.6.4.9,1.2.6,1.8-.5,1.3-.7,1.6-19.9-3-7.8.6-16.2,3.5-25.1,8.6l-20.4,11.8-142,82c-25.1,14.5-42.1,33-50.8,54.9l-1,2.7c-.2.6-.8.9-1.4.9h0ZM805.7,1645.7l28,16.1.4-1.1h0c8.9-22.6,26.4-41.6,52.1-56.4l162.4-93.8c9.3-5.4,18.2-8.4,26.5-9,.2,0,.3,0,.4,0,1,.2,6.1,1.4,10.7,2.4-8.7-5.5-19.1-12.2-22.7-14.5-10.6-6.9-26.5-5.3-43.5,4.6l-162.4,93.8c-25.6,14.8-42.8,33.7-51.3,56.3l-.6,1.8Z"/>
    <path class="cls-6" d="M835,1662.4l-30.6-17.5c-3.6,10-5.6,21-5.6,33.1v81.4c0,5.2,2.8,7.3,5.9,9.6,2.9,2.2,25.1,15.6,28.4,17-2.1-5-4.2-13.2-4.2-18v-70.8c0-10.7,1.6-20.5,4.4-29.6.5-1.7,1.1-3.4,1.8-5.1"/>
    <path class="cls-5" d="M833.1,1787.4c-.2,0-.4,0-.6-.1-3.6-1.5-25.8-15-28.7-17.1-3-2.2-6.5-4.7-6.5-10.7v-81.4c0-11.8,1.9-23.1,5.6-33.6.3-.8,1.1-1.2,1.9-.9,0,0,.2,0,.2.1l30.6,17.5c.6.4.9,1.1.6,1.8-.6,1.7-1.2,3.4-1.7,5.1-2.9,9.2-4.3,19-4.3,29.1v70.8c0,4.7,2.1,12.7,4.1,17.5.3.7,0,1.6-.8,1.9-.2,0-.4.1-.6.1h0ZM805.2,1647c-3.3,9.7-4.9,20.1-4.9,31v81.4c0,4.5,2.4,6.3,5.3,8.4,2.5,1.9,17.7,11.1,24.8,15.1-1.6-4.9-3-10.9-3-15v-70.8c0-10.5,1.5-20.6,4.4-30,.4-1.4.9-2.7,1.4-4.1l-28-16Z"/>
    <path class="cls-5" d="M1090.2,1643.4c-9.5,5.5-17.2,2.2-17.2-7.3v-79.9c0-13-10.6-17.5-23.7-10l-162.4,93.8c-16.4,11-23.7,24.3-23.7,37.3v79.9c0,9.5-7.7,21.6-17.2,27.1s-17.2,2.2-17.2-7.3v-79.9c0-43.8,26-73.1,58-91.6l162.4-93.8c32-18.5,58-7.5,58,24.5v79.9c0,9.5-7.7,21.6-17.2,27.1Z"/>
    <path class="cls-5" d="M837.5,1788.5c-1.9,0-3.6-.4-5.1-1.3-3.2-1.8-4.9-5.4-4.9-10.1v-79.9c0-48.7,32-77.4,58.8-92.8l162.4-93.8c17.3-10,33.8-11.9,45.3-5.2,9.6,5.5,14.9,16.6,14.9,31v79.9c0,9.9-8,22.7-17.9,28.4-5.5,3.1-10.7,3.7-14.5,1.6-3.2-1.8-4.9-5.4-4.9-10.1v-79.9c0-5.1-1.8-9-5-10.9-4-2.3-10-1.6-16.4,2.1l-162.4,93.8c-15,10-22.9,22.5-22.9,36.1v79.9c0,9.9-8,22.7-17.9,28.4-3.3,1.9-6.5,2.9-9.3,2.9h0ZM1078.3,1504.3c-8.5,0-18.2,3-28.2,8.8l-162.4,93.8c-26.1,15.1-57.3,43-57.3,90.3v79.9c0,3.6,1.2,6.3,3.5,7.6,2.8,1.6,7,1.1,11.5-1.6,9.1-5.2,16.5-16.8,16.5-25.9v-79.9c0-10.1,4.2-25.1,24.3-38.5l162.5-93.8c7.3-4.2,14.4-5,19.3-2.1,4.2,2.4,6.5,7.2,6.5,13.4v79.9c0,3.6,1.2,6.3,3.5,7.6,2.8,1.6,7,1.1,11.5-1.6,9.1-5.2,16.5-16.8,16.5-25.9v-79.9c0-13.4-4.8-23.5-13.4-28.5-4.1-2.4-8.9-3.5-14.2-3.5h0Z"/>
    <path class="cls-6" d="M1073,1556.2v54.9c0,25-.8,30.4,2.4,32.4-4.4-2.3-24.1-14.2-26.6-16-3.4-2.5-5.9-5.1-5.9-10.5v-67.2l6.3-3.7c13.1-7.5,23.7-3.1,23.7,10Z"/>
    <path class="cls-5" d="M1075.4,1645c-.2,0-.5,0-.7-.2-4.5-2.3-24.2-14.2-26.8-16.1-3.9-2.8-6.5-5.9-6.5-11.7v-67.2c0-.5.3-1,.7-1.3l6.3-3.7c7.3-4.2,14.4-5,19.3-2.2,4.2,2.4,6.5,7.2,6.5,13.4v54.9c0,4.9,0,9,0,12.5,0,13-.1,17.4,1.8,18.6.7.4.9,1.3.5,2-.3.4-.7.7-1.3.7h0ZM1044.4,1550.7v66.3c0,4.6,1.9,6.9,5.3,9.3,1.9,1.4,14.8,9.2,22.1,13.5-.5-3.1-.5-8-.4-16.2,0-3.5,0-7.6,0-12.5v-54.9c0-5.1-1.8-9-5-10.9-4-2.3-10-1.5-16.4,2.2l-5.6,3.2Z"/>
    <path class="cls-1" d="M732.5,1567.3l-292.7-162.5c-37.4-21.6-67.7-69.5-67.7-106.9v-270.8c0-37.4,30.3-50.3,67.7-28.6l292.7,162.5c37.4,21.6,67.7,69.5,67.7,106.9v270.8c0,37.4-30.3,50.3-67.7,28.6Z"/>
    <path class="cls-5" d="M766.3,1579.2c-10.4,0-22.3-3.6-34.6-10.7l-292.7-162.5c-37.8-21.8-68.5-70.3-68.5-108.2v-270.8c0-16.8,6.1-29.6,17.2-36.1,13.4-7.7,32.6-5.5,52.7,6.2l292.7,162.5c37.8,21.8,68.5,70.3,68.5,108.2v270.8c0,16.8-6.1,29.6-17.2,36.1-5.2,3-11.4,4.5-18.1,4.5h0ZM405.9,989.4c-6.2,0-11.9,1.4-16.6,4.1-10.2,5.9-15.8,17.8-15.8,33.5v270.8c0,36.9,30.1,84.3,67,105.6l292.7,162.5h0c19.2,11.1,37.3,13.4,49.8,6.2,10.2-5.9,15.8-17.8,15.8-33.5v-270.8c0-36.9-30.1-84.3-67-105.6l-292.7-162.5c-11.8-6.8-23.2-10.3-33.2-10.3Z"/>
    <path class="cls-7" d="M731.1,1567.1l-292.7-162.5c-37.4-21.6-67.7-69.5-67.7-106.9v-270.8c0-37.4,30.3-50.3,67.7-28.6l292.7,162.5c37.4,21.6,67.7,69.5,67.7,106.9v270.8c0,37.4-30.3,50.3-67.7,28.6h0Z"/>
    <path class="cls-5" d="M765,1579.1c-10.4,0-22.3-3.6-34.6-10.7l-292.7-162.5c-37.8-21.8-68.5-70.3-68.5-108.2v-270.8c0-16.8,6.1-29.7,17.2-36.1,13.4-7.7,32.6-5.5,52.7,6.2l292.7,162.5c37.8,21.8,68.5,70.3,68.5,108.2v270.8c0,16.8-6.1,29.7-17.2,36.1-5.2,3-11.4,4.5-18.1,4.5h0ZM404.5,989.2c-6.2,0-11.9,1.4-16.6,4.1-10.2,5.9-15.8,17.8-15.8,33.5v270.8c0,36.9,30.1,84.3,67,105.6l292.7,162.5h0c19.2,11.1,37.3,13.4,49.8,6.2,10.2-5.9,15.8-17.8,15.8-33.5v-270.8c0-36.9-30.1-84.3-67-105.6l-292.7-162.5c-11.8-6.8-23.2-10.3-33.2-10.3Z"/>
    <path class="cls-6" d="M703.9,1585.8l-292.7-162.5c-37.4-21.6-67.7-69.5-67.7-106.9v-270.8c0-37.4,30.3-50.3,67.7-28.6l292.7,162.5c37.4,21.6,67.7,69.5,67.7,106.9v270.8c0,37.4-30.3,50.3-67.7,28.6Z"/>
    <path class="cls-5" d="M737.8,1597.7c-10.4,0-22.3-3.6-34.6-10.7l-292.7-162.5c-37.8-21.8-68.5-70.3-68.5-108.2v-270.8c0-16.8,6.1-29.6,17.2-36.1,13.4-7.7,32.6-5.5,52.7,6.2l292.7,162.5c37.8,21.8,68.5,70.3,68.5,108.2v270.8c0,16.8-6.1,29.6-17.2,36.1-5.2,3-11.4,4.5-18.1,4.5ZM377.3,1007.9c-6.2,0-11.9,1.4-16.6,4.1-10.2,5.9-15.8,17.8-15.8,33.5v270.8c0,36.9,30.1,84.3,67,105.6l292.7,162.5h0c19.2,11.1,37.3,13.4,49.8,6.2,10.2-5.9,15.8-17.8,15.8-33.5v-270.8c0-36.9-30.1-84.3-67-105.6l-292.7-162.5c-11.8-6.8-23.2-10.3-33.2-10.3Z"/>
    <path class="cls-7" d="M812,1181.4c-12.1-18.4-26.6-32.1-44.6-42.5l-292.7-162.5c-20.3-11.7-45.6-8.7-60.6-.5-2.4,1.3-17.7,10.6-25.5,15.4-.3.2-.7.3-1,.5h-.2c-1.4.8-2.6,1.6-3.5,2.3h0c-6.1,4.1-17.7,12.1-23.4,16.1,3.3-1.9,7.8-3.5,14.1-3.8,10.6-.7,23.2,2.6,36.7,10.4l292.7,162.5c18.3,10.6,34.8,27.4,47,46.2l61.1-44.2Z"/>
    <path class="cls-5" d="M751,1227c-.5,0-1-.2-1.2-.7-12.6-19.4-29.1-35.6-46.5-45.7l-292.7-162.5c-12.9-7.4-25.3-11-35.9-10.2-5.4.3-9.7,1.4-13.4,3.6-.7.4-1.6.2-2-.5-.4-.7-.2-1.5.4-1.9,6.1-4.3,17.3-12,23.4-16,1-.8,2.2-1.6,3.7-2.4.4-.2.6-.3.8-.4l.4-.2c8.4-5.2,23.1-14.1,25.5-15.4,15.1-8.3,40.9-11.7,62,.5l292.7,162.5c18.3,10.6,33,24.6,45.1,43,.4.7.3,1.5-.4,2l-61.1,44.2c-.2.2-.5.3-.9.3ZM377.5,1005c10.5,0,22.3,3.7,34.5,10.7l292.7,162.5c17.5,10.1,34,26.2,46.7,45.4l58.7-42.4c-11.7-17.4-25.9-30.8-43.3-40.9l-292.7-162.5c-20.1-11.6-44.8-8.4-59.2-.5-2.4,1.3-18.6,11.2-25.5,15.4l-.5.3c-.2,0-.4.2-.6.3h-.2c-1.3.8-2.3,1.5-3.2,2.2,0,0-.1,0-.2.1-3.7,2.5-9.5,6.4-14.8,10.1,1.5-.2,3-.4,4.5-.5,1,0,2-.1,3-.1Z"/>
    <path class="cls-5" d="M812,1181.4c12.8,19.7,22.6,44.4,22.6,63.5v270.8c0,16.8-5.6,28.2-15.3,34.7-3.5,2.3-28.9,18.9-31.3,20,5.3-4.5,6.6-8,8.4-11.4,2.5-5.6,3.9-12.5,3.9-20.4v-270.8c0-18.7-9.4-42.8-21.6-62.1l33.4-24.3Z"/>
    <path class="cls-5" d="M788,1571.9c-.8,0-1.5-.7-1.5-1.5,0-.4.2-.8.5-1.1,4.4-3.8,5.9-6.7,7.4-9.8.2-.4.4-.8.6-1.2,2.4-5.5,3.7-12.2,3.7-19.7v-270.8c0-17-8.2-40.5-21.4-61.3-.4-.7-.2-1.5.4-2l33.4-24.3c.7-.5,1.6-.3,2,.3,0,0,0,0,0,0,14.1,21.7,22.8,46.3,22.8,64.3v270.8c0,16.7-5.4,28.8-16,35.9-2.9,2-29,18.9-31.5,20.1-.2,0-.4.1-.6.1ZM780.6,1206.1c13.1,21,21.1,44.5,21.1,61.8v270.8c0,7.9-1.3,15-4,21-.2.5-.4.8-.6,1.2-.5,1.1-1.1,2.2-1.8,3.4,8.4-5.4,20.8-13.4,23.2-15.1,9.7-6.5,14.7-17.8,14.7-33.5v-270.8c0-17.1-8.2-40.5-21.5-61.4l-31.1,22.6Z"/>
    <path class="cls-5" d="M778.2,1206.9c12.8,19.7,20.7,41.6,20.7,60.7v270.8c0,16.8-5.6,28.2-15.3,34.7-3.5,2.3-21.8,14.7-24.1,15.8,5.3-4.5,6.6-8,8.4-11.4,2.5-5.6,3.9-12.5,3.9-20.4v-270.8c0-18.7-7.6-40-19.8-59.4l26.3-20Z"/>
    <path class="cls-5" d="M759.5,1590.4c-.8,0-1.5-.7-1.5-1.5,0-.4.2-.8.5-1.1,4.5-3.8,5.9-6.7,7.4-9.8.2-.4.4-.8.6-1.2,2.4-5.5,3.7-12.2,3.7-19.7v-270.8c0-17.8-7-38.6-19.6-58.6-.4-.6-.3-1.5.4-1.9l26.3-20c.6-.5,1.6-.4,2,.3,0,0,0,0,0,0,13.5,20.8,20.9,42.7,20.9,61.5v270.8c0,16.7-5.4,28.8-16,35.9l-1.6,1.1c-9.5,6.4-20.7,13.8-22.7,14.8-.2,0-.4.1-.6.1h0ZM753.8,1227.3c12.5,20.1,19.3,41,19.3,59v270.8c0,7.9-1.3,15-4,21-.2.5-.4.8-.6,1.2-.5,1-1,2.1-1.7,3.2,5.2-3.4,11.4-7.6,14.3-9.5l1.7-1.1c9.7-6.5,14.7-17.8,14.7-33.5v-270.8c0-17.9-7-38.6-19.6-58.6l-24,18.2Z"/>
    <path class="cls-2" d="M582.2,1694.4l-43.2-24.9c-4.8-2.8-8.7-9-8.7-13.8v-371.5c0-4.8,3.9-6.5,8.7-3.7l43.2,24.9c4.8,2.8,8.7,9,8.7,13.8v371.5c0,4.8-3.9,6.5-8.7,3.7Z"/>
    <path class="cls-5" d="M586.6,1697.2c-1.6,0-3.3-.5-5.1-1.5l-43.2-24.9c-5.3-3.1-9.5-9.7-9.5-15.1v-371.5c0-2.6,1-4.7,2.9-5.8,2.1-1.2,5.1-.9,8.1.8l43.2,24.9c5.3,3.1,9.5,9.7,9.5,15.1v371.5c0,2.6-1,4.7-2.9,5.8-.9.5-1.9.7-3,.7h0ZM534.7,1280.6c-.6,0-1.1.1-1.5.4-1.2.7-1.4,2.1-1.4,3.2v371.5c0,4.3,3.7,10,8,12.5l43.2,24.9c2,1.2,4,1.5,5.2.8,1.2-.7,1.4-2.1,1.4-3.2v-371.5c0-4.3-3.7-10-8-12.5l-43.2-24.9c-1.3-.8-2.6-1.2-3.6-1.2h0Z"/>
    <path class="cls-5" d="M560.9,1328.2l27.1-17.2c1.8,2.7,3,5.7,3,8.3v371.5c0,2.8-1.5,4.2-3.2,5.5-1.6,1.3-23,13.6-26.7,15.3l2.1-28.1v-347.9c0-2.3-.9-5-2.4-7.4"/>
    <path class="cls-5" d="M561.2,1713c-.8,0-1.5-.6-1.5-1.5,0,0,0,0,0-.1l2.1-28.1v-347.8c0-2-.8-4.4-2.2-6.7-.4-.7-.2-1.6.5-2l27.1-17.2c.7-.4,1.5-.2,2,.4,2.1,3,3.2,6.3,3.2,9.1v371.5c0,3.5-1.9,5.3-3.7,6.7-1.8,1.4-23.4,13.8-26.9,15.5-.2,0-.4.1-.6.1h0ZM562.8,1328.7c1.2,2.4,1.9,4.8,1.9,6.9v347.9l-1.9,25.6c6.7-3.6,22.9-13,24.1-14,1.7-1.3,2.6-2.4,2.6-4.4v-371.5c0-1.9-.7-4.1-2-6.3l-24.7,15.7Z"/>
    <path class="cls-7" d="M560.7,1327.9l27.2-17.2c-1.5-2.2-3.5-4.1-5.7-5.3l-43.2-24.9c-3.1-1.8-5.6-1.6-8.1-.5-1.1.5-21.6,13.3-26,15.9,2.8,0,25.3,11.9,25.3,11.9l24.2,14c2.4,1.4,4.6,3.6,6.2,6.1"/>
    <path class="cls-5" d="M560.7,1329.4c-.5,0-1-.3-1.2-.7-1.5-2.4-3.5-4.4-5.7-5.6l-24.2-14c-10.7-5.6-22.8-11.5-24.6-11.7-.6,0-1.2-.5-1.4-1.1-.2-.6,0-1.3.6-1.6,1.4-.8,4.3-2.6,7.7-4.8,11.9-7.4,17.7-10.9,18.4-11.2,3.2-1.5,6.2-1.3,9.4.5l43.2,24.9c2.3,1.3,4.4,3.4,6.1,5.8.5.7.3,1.6-.4,2,0,0,0,0,0,0l-27.2,17.2c-.2.1-.5.2-.8.2h0ZM508.5,1295.5c6.2,2.5,18.3,8.8,22.5,11l24.3,14c2.2,1.3,4.2,3.1,5.9,5.4l24.6-15.5c-1.3-1.5-2.7-2.8-4.3-3.7l-43.2-24.9c-2.4-1.4-4.4-1.5-6.7-.4-.8.4-11.2,6.8-18.1,11.1-1.9,1.2-3.6,2.2-5,3.1h0Z"/>
    <path class="cls-6" d="M554.6,1710.8l-43.2-24.9c-4.8-2.8-8.7-9-8.7-13.8v-371.5c0-4.8,3.9-6.5,8.7-3.7l43.2,24.9c4.8,2.8,8.7,9,8.7,13.8v371.5c0,4.8-3.9,6.5-8.7,3.7h0Z"/>
    <path class="cls-5" d="M558.9,1713.6c-1.6,0-3.3-.5-5.1-1.5l-43.2-24.9c-5.3-3.1-9.5-9.7-9.5-15.1v-371.5c0-2.6,1-4.7,2.9-5.8,2.1-1.2,5.1-.9,8.1.8l43.2,24.9c5.3,3.1,9.5,9.7,9.5,15.1v371.5c0,2.6-1,4.7-2.9,5.8-.9.5-1.9.8-3,.8h0ZM555.3,1709.5c2,1.2,4,1.5,5.2.8,1.2-.7,1.4-2.1,1.4-3.2v-371.5c0-4.3-3.7-10-8-12.5l-43.2-24.9c-2-1.2-4-1.5-5.2-.8-1.2.7-1.4,2.1-1.4,3.2v371.5c0,4.3,3.7,10,8,12.5l43.2,24.9Z"/>
  </g>
  <g>
    <path class="cls-7" d="M737.2,933.1l271.7,156.8c4.9,2.8,4.9,7.4,0,10.2l-116.9,67.6c-4.9,2.8-12.7,2.8-17.6,0l-271.7-156.8c-4.9-2.8-4.9-7.4,0-10.2l116.9-67.6c4.9-2.8,12.7-2.8,17.6,0Z"/>
    <path class="cls-5" d="M883.2,1171.2c-3.4,0-6.8-.8-9.5-2.3l-271.7-156.8c-2.8-1.6-4.4-3.9-4.4-6.3s1.5-4.7,4.4-6.3l116.9-67.6c5.3-3.1,13.7-3.1,19,0l271.7,156.8c2.8,1.6,4.4,3.9,4.4,6.3s-1.5,4.7-4.4,6.3l-116.9,67.6c-2.7,1.5-6.1,2.3-9.5,2.3h0ZM728.4,932.5c-2.9,0-5.9.6-8.1,1.9l-116.9,67.6c-1.9,1.1-2.9,2.4-2.9,3.8s1,2.7,2.9,3.8l271.7,156.8c4.4,2.5,11.8,2.5,16.1,0l116.9-67.6c1.9-1.1,2.9-2.4,2.9-3.8s-1-2.7-2.9-3.8l-271.7-156.8h0c-2.2-1.3-5.1-1.9-8.1-1.9Z"/>
    <path class="cls-5" d="M877.4,1153.7v15.2c4.8,1.4,10.6.9,14.5-1.3l116.9-67.6c2.6-1.5,3.6-3.6,3.6-5.6,0-1.7.1-14.3.1-14.3l-8,7.2-112.5,65.1c-3.9,2.3-9.9,2.7-14.6,1.3"/>
    <path class="cls-5" d="M883.1,1171.2c-2,0-4.1-.3-6-.8-.6-.2-1-.7-1-1.4v-15.2c-.1-.8.5-1.5,1.3-1.5.1,0,.3,0,.4,0,4.4,1.4,10,.9,13.5-1.1l112.4-65,7.9-7.1c.6-.5,1.5-.5,2,.1.2.3.4.6.4,1,0,0,0,12.6-.1,14.3,0,2-.8,4.8-4.3,6.8l-116.9,67.6c-2.6,1.5-6,2.3-9.5,2.3h0ZM879,1167.9c4.2.9,9.1.4,12.2-1.5l116.9-67.6c1.9-1.1,2.9-2.5,2.9-4.3,0-1.1,0-7.1,0-11l-5.6,5c0,0-.2.1-.2.2l-112.5,65.1c-3.7,2.1-9.1,2.8-13.9,1.9v12.2Z"/>
    <path class="cls-7" d="M876.8,1153.5l.2,15.3c-.9-.3-1.7-.7-2.6-1.1l-271.7-156.8c-2.3-1.4-3.6-3.1-3.6-4.9,0-1.9.1-14.9.1-14.9l7.9,7.1,267.4,154.3c.7.4,1.5.8,2.3,1"/>
    <path class="cls-5" d="M876.9,1170.2c-.2,0-.3,0-.5,0-1-.3-1.9-.7-2.8-1.3l-271.7-156.8c-2.7-1.6-4.3-3.7-4.4-6.1,0-1.9.1-14.5.1-15,0-.8.7-1.4,1.5-1.4.3,0,.7.1.9.4l7.8,7,267.3,154.2c.6.4,1.3.7,2,.9.6.2,1,.7,1,1.3l.2,15.3c0,.8-.6,1.5-1.4,1.5,0,0,0,0,0,0h0ZM600.6,994.3c0,4-.1,10.4,0,11.6,0,1.3,1.1,2.6,2.9,3.7l271.7,156.8c.1,0,.2.1.4.2v-12.1c-.7-.2-1.2-.5-1.7-.8l-267.4-154.3c0,0-.2-.1-.2-.2l-5.5-5Z"/>
    <path class="cls-7" d="M737.2,918l271.7,156.8c4.9,2.8,4.9,7.4,0,10.2l-116.9,67.6c-4.9,2.8-12.7,2.8-17.6,0l-271.7-156.8c-4.9-2.8-4.9-7.4,0-10.2l116.9-67.6c4.9-2.8,12.7-2.8,17.6,0Z"/>
    <path class="cls-5" d="M883.2,1156c-3.4,0-6.8-.8-9.5-2.3l-271.7-156.8c-2.8-1.6-4.4-3.9-4.4-6.3s1.5-4.7,4.4-6.3l116.9-67.6c5.3-3.1,13.7-3.1,19,0l271.7,156.8c2.8,1.6,4.4,3.9,4.4,6.3s-1.5,4.7-4.4,6.3l-116.9,67.6c-2.7,1.5-6.1,2.3-9.5,2.3h0ZM728.5,917.3c-2.9,0-5.9.6-8.1,1.9l-116.9,67.6c-1.9,1.1-2.9,2.4-2.9,3.8s1,2.7,2.9,3.8l271.7,156.8c4.4,2.5,11.8,2.5,16.1,0l116.9-67.6c1.9-1.1,2.9-2.4,2.9-3.8s-1-2.7-2.9-3.8l-271.7-156.8h0c-2.2-1.3-5.1-1.9-8.1-1.9h0Z"/>
    <path class="cls-7" d="M729.3,923.8l269.9,155-116.9,67.6-269.9-155,116.9-67.6Z"/>
    <path class="cls-5" d="M882.3,1147.9c-.3,0-.5,0-.7-.2l-269.9-155c-.7-.4-.9-1.3-.5-2,.1-.2.3-.4.5-.5l116.9-67.6c.4-.3,1-.3,1.4,0l269.9,155c.7.4.9,1.3.5,2-.1.2-.3.4-.5.5l-116.9,67.6c-.2.1-.5.2-.7.2ZM615.3,991.4l267,153.3,114-65.9-267-153.3-114,65.9Z"/>
    <path class="cls-5" d="M921.4,1125.2c-.3,0-.5,0-.7-.2l-268.9-155.5c-.7-.4-.9-1.3-.5-2,.4-.7,1.3-.9,2-.5l268.9,155.5c.7.4.9,1.3.5,2-.3.4-.7.7-1.3.7ZM958.9,1103.6c-.3,0-.5,0-.7-.2l-268.9-155.5c-.7-.4-.9-1.3-.5-2,.4-.7,1.3-.9,2-.5l268.9,155.5c.7.4.9,1.3.5,2-.3.4-.7.7-1.3.7h0Z"/>
    <path class="cls-5" d="M652.4,1014.6c-.8,0-1.4-.6-1.4-1.4,0-.5.3-1,.7-1.3l114.9-66.4c.7-.4,1.6-.2,2,.5.4.7.2,1.6-.5,2l-114.9,66.4c-.2.1-.5.2-.7.2h0ZM729.3,1014.1c-.8,0-1.4-.6-1.4-1.4,0-.5.3-1,.7-1.3l76.9-44.5c.7-.4,1.6-.2,2,.5.4.7.2,1.6-.5,2,0,0,0,0,0,0l-76.9,44.5c-.2.1-.5.2-.7.2h0ZM767.3,1036.1c-.8,0-1.4-.6-1.4-1.4,0-.5.3-1,.7-1.3l76.9-44.5c.7-.4,1.6-.2,2,.5.4.7.2,1.6-.5,2l-76.9,44.5c-.2.1-.5.2-.7.2h0ZM805.3,1058.1c-.8,0-1.4-.6-1.4-1.4,0-.5.3-1,.7-1.3l77-44.5c.7-.4,1.6-.2,2,.5.4.7.2,1.6-.5,2,0,0,0,0,0,0l-77,44.5c-.2.1-.5.2-.7.2h0ZM803.9,1102.8c-.8,0-1.4-.6-1.4-1.4,0-.5.3-1,.7-1.3l116.1-67.2c.7-.4,1.6-.2,2,.5.4.7.2,1.6-.5,2l-116.1,67.2c-.2.1-.5.2-.7.2ZM842.2,1124.6c-.8,0-1.4-.6-1.4-1.4,0-.5.3-1,.7-1.3l115.7-66.9c.7-.4,1.6-.2,2,.5.4.7.2,1.6-.5,2l-115.7,66.9c-.2.1-.5.2-.7.2Z"/>
  </g>
  <g>
    <path class="cls-6" d="M1523.1,1148l-217.2-124.7,76.3-43.8,217.2,124.7-76.3,43.8Z"/>
    <path class="cls-5" d="M1523.1,1149.4c-.3,0-.5,0-.7-.2l-217.2-124.7c-.7-.4-.9-1.3-.5-2,.1-.2.3-.4.5-.5l76.3-43.8c.5-.3,1-.3,1.5,0l217.2,124.7c.7.4.9,1.3.5,2-.1.2-.3.4-.5.5l-76.3,43.8c-.2.1-.5.2-.7.2h0ZM1308.8,1023.2l214.3,123.1,73.3-42.1-214.3-123.1-73.3,42.1Z"/>
    <ellipse class="cls-7" cx="1402" cy="1034.6" rx="37.9" ry="21.8"/>
    <path class="cls-5" d="M1402,1057.8c-10,0-19.9-2.2-27.5-6.5-7.6-4.4-11.8-10.3-11.8-16.7s4.2-12.3,11.8-16.7c15.2-8.7,39.9-8.7,55.1,0,7.6,4.4,11.8,10.3,11.8,16.7s-4.2,12.3-11.8,16.7c-7.6,4.4-17.6,6.5-27.5,6.5ZM1402,1014.3c-9.4,0-18.9,2.1-26.1,6.2-6.7,3.8-10.4,8.9-10.4,14.1s3.7,10.3,10.4,14.1c14.4,8.3,37.8,8.3,52.2,0,6.7-3.8,10.4-8.9,10.4-14.1s-3.7-10.3-10.4-14.1c-7.2-4.1-16.6-6.2-26.1-6.2Z"/>
    <path class="cls-5" d="M1418.1,1045.4l-34.7-20c-.6-.3-.6-.9,0-1.2s1.5-.3,2.1,0l34.7,20c.6.3.6.9,0,1.2s-1.5.3-2.1,0Z"/>
    <ellipse class="cls-7" cx="1502.9" cy="1092.9" rx="37.9" ry="21.8"/>
    <path class="cls-5" d="M1502.9,1116.1c-10,0-19.9-2.2-27.5-6.5-7.6-4.4-11.8-10.3-11.8-16.7s4.2-12.3,11.8-16.7c15.2-8.7,39.9-8.7,55.1,0,7.6,4.4,11.8,10.3,11.8,16.7s-4.2,12.3-11.8,16.7c-7.6,4.4-17.6,6.5-27.5,6.5ZM1502.9,1072.6c-9.4,0-18.9,2.1-26.1,6.2-6.7,3.8-10.4,8.9-10.4,14.1s3.7,10.3,10.4,14.1c14.4,8.3,37.8,8.3,52.2,0,6.7-3.8,10.4-8.9,10.4-14.1s-3.7-10.3-10.4-14.1c-7.2-4.1-16.6-6.2-26.1-6.2Z"/>
    <path class="cls-5" d="M1521.3,1102.3l-16.3-9.4,17.4-10c.6-.3.6-.9,0-1.2s-1.5-.3-2.1,0l-17.4,10-16.3-9.4c-.6-.3-1.5-.3-2.1,0s-.6.9,0,1.2l16.3,9.4-17.4,10c-.6.3-.6.9,0,1.2s1.5.3,2.1,0l17.4-10,16.3,9.4c.6.3,1.5.3,2.1,0s.6-.9,0-1.2ZM1599.3,1126l-76.3,43.8v-21.8l76.3-43.8v21.8Z"/>
    <path class="cls-5" d="M1523.1,1171.2c-.8,0-1.5-.6-1.5-1.4v-21.8c0-.5.3-1,.7-1.3l76.3-43.8c.7-.4,1.6-.2,2,.5.1.2.2.5.2.7v21.8c0,.5-.3,1-.7,1.3l-76.3,43.8c-.2.1-.5.2-.7.2h0ZM1524.5,1148.8v18.4l73.3-42.1v-18.4l-73.3,42.1ZM1599.3,1126h0,0Z"/>
    <path class="cls-6" d="M1523.1,1169.8l-217.2-126v-20.6l217.2,124.7v21.8Z"/>
    <path class="cls-5" d="M1523.1,1171.2c-.3,0-.5,0-.7-.2l-217.2-126c-.4-.3-.7-.7-.7-1.3v-20.6c0-.8.7-1.4,1.5-1.4.3,0,.5,0,.7.2l217.2,124.7c.5.3.7.7.7,1.3v21.8c0,.8-.7,1.4-1.5,1.4h0ZM1307.3,1043l214.3,124.3v-18.4l-214.3-123v17.2Z"/>
  </g>
  <g>
    <ellipse class="cls-3" cx="1992" cy="1644.6" rx="259.1" ry="150" transform="translate(-427.4 2549.7) rotate(-60.1)"/>
    <path class="cls-5" d="M1910.2,1882.7c-17.4,0-33.8-4-48.3-12.4-72.3-41.8-72.7-177-.9-301.5,71.8-124.5,189-191.7,261.3-150,72.3,41.8,72.7,177,.9,301.5-57.3,99.4-143.7,162.4-212.9,162.4h0ZM2073.7,1409.3c-68.1,0-153.4,62.4-210.2,161-71,123.1-71.1,256.6-.2,297.5,14.2,8.2,30.1,12.1,47.1,12.1,68.1,0,153.4-62.4,210.2-161,71-123.1,71.1-256.6.2-297.5-14.1-8.2-30.1-12.1-47.1-12.1h0Z"/>
    <ellipse class="cls-7" cx="1992" cy="1644.6" rx="208.1" ry="120.4" transform="translate(-427.4 2549.7) rotate(-60.1)"/>
    <path class="cls-5" d="M1926.3,1836.1c-14.1,0-27.2-3.2-38.9-10-58.2-33.6-58.6-142.4-.8-242.5,57.7-100.1,152-154.1,210.2-120.5,28.3,16.4,43.9,50.7,44,96.7,0,45.7-15.3,97.5-43.2,145.8-46.1,79.9-115.5,130.5-171.2,130.5h0ZM2057.5,1456c-54.6,0-123,50.1-168.5,129.1-56.9,98.7-57,205.7-.2,238.5,56.8,32.8,149.3-20.8,206.2-119.5l1.3.7-1.3-.7c27.6-47.9,42.8-99.2,42.8-144.4,0-44.9-15.2-78.3-42.5-94.1-11.3-6.5-24.1-9.7-37.7-9.7h0Z"/>
    <path class="cls-5" d="M1967,1602.1l13.9-7.7v74.5l7.3-3.8v14.5l-7,3.8v20.8s-12.9,7.5-12.9,7.5l-.3-20.5-28.7,17.1v-16.5l27.7-89.7ZM1951.6,1686.6l15.9-9.6v-45.8l-15.9,55.3ZM1888.6,1684.1l12-7.1s.4-13,1.1-16.4c1.1-5.1,5.2-11.2,10.2-12.2s6.3,3.4,6.3,8.4-2.5,14.9-4.8,21.6c-5.7,16.5-23,39-24.6,58.2-.7,8.6-.4,21.4-.4,21.4l41.7-24.2v-15.7l-28.1,17.2c.5-3.6.7-12.7,10.5-30.1,12-21.8,15.5-29.7,18.1-43.1,1.7-9,1.5-19.6-.4-24.2-2.3-5.6-5.7-7.7-11.5-6.6-8.9,1.6-22.9,9.9-28,27.7-2,7-2.2,17-2.2,25.1h0ZM2027.6,1568.4l-35.6,129.6,12-6.9,36-130.5-12.4,7.9ZM2048,1556.7v14.5l28.3-16.4-20.8,106.3,13.5-7.9,21.5-106v-14.8l-42.5,24.3Z"/>
  </g>
  <g>
    <g>
      <path class="cls-3" d="M1073.2,1349c1.9.3,3.8.3,5.7,0l219.5-32.8c4.1-.6,7.4-3.8,8.2-7.8,1.1-6-4-11-10.2-10.1l-218.9,35.6c-2.2.4-4.3,1.1-6.3,2.1l-4.5,2.4,1.3,9.7s5.1.9,5.1.9Z"/>
      <path class="cls-5" d="M1075.6,1350.6c-.9,0-1.8,0-2.6-.2l-5.1-.9c-.6-.1-1.1-.6-1.2-1.2l-1.3-9.7c0-.6.2-1.1.7-1.4l4.5-2.4c2.1-1.1,4.4-1.9,6.7-2.2l218.9-35.6c3.5-.5,6.8.5,9.2,2.9,2.3,2.3,3.3,5.6,2.7,8.9-.9,4.6-4.6,8.2-9.4,8.9l-219.5,32.8c-1.2.2-2.4.3-3.6.2ZM1073.4,1347.6c1.7.2,3.5.2,5.3,0l219.5-32.8c3.5-.5,6.4-3.3,7-6.6.4-2.4-.3-4.7-1.9-6.4-1.7-1.7-4.1-2.4-6.6-2l-218.9,35.6c-2,.3-4,1-5.8,1.9l-3.6,2,1,7.7s4,.7,4,.7Z"/>
    </g>
    <g>
      <ellipse class="cls-5" cx="1067.9" cy="1343.2" rx="2.7" ry="5" transform="translate(-172.4 157.3) rotate(-7.8)"/>
      <path class="cls-5" d="M1068.4,1349.6c-.6,0-1.3-.2-1.8-.6-1.3-.9-2.3-2.8-2.7-5-.5-3.6.8-6.6,3.1-7,.8-.2,1.7,0,2.5.6,1.3.9,2.3,2.8,2.7,5,.5,3.6-.8,6.6-3.1,7-.2,0-.4,0-.6,0ZM1067.5,1339.7h0c-.3,0-1.1,1.5-.8,3.8.2,1.6.9,2.7,1.5,3.1.1,0,.2.1.2.1.3,0,1.1-1.5.8-3.8-.2-1.6-.9-2.7-1.5-3.1-.1,0-.2-.1-.2-.1Z"/>
    </g>
    <g>
      <path class="cls-1" d="M1058.6,1342.4c-2.5.8-1.8,4.4.3,4.4l9.3-.9s1-1,.7-3.2c-.4-2.2-1.8-2.3-1.8-2.3l-8.4,2.1Z"/>
      <path class="cls-5" d="M1058.9,1348.2c-1.7,0-3-1.2-3.3-3-.3-1.9.7-3.6,2.6-4.2h0s8.4-2.1,8.4-2.1c.2,0,.4,0,.5,0,.9.1,2.7,1,3.1,3.5.5,2.9-.9,4.3-1.1,4.5-.2.2-.5.4-.9.4l-9.3.9s-.1,0-.1,0ZM1059,1343.8c-.6.2-.6.7-.5,1,0,.3.2.6.4.6l8.4-.8c.1-.3.2-.9,0-1.7-.1-.7-.3-.9-.5-1.1,0,0-7.9,2-7.9,2Z"/>
    </g>
    <g>
      <g>
        <path class="cls-5" d="M1231.6,1305.8c-.6,1.2-.4,2.6.4,3.6l1,1.2h0s3-5.7,3-5.7h0s-.4-1.5-.4-1.5l-3.3.8-.7,1.6h0Z"/>
        <path class="cls-5" d="M1233.1,1312.1c-.4,0-.8-.2-1.1-.5l-1.1-1.3c-1.2-1.4-1.4-3.4-.6-5.1l.7-1.6c.2-.4.5-.7,1-.8l3.3-.8c.8-.2,1.5.3,1.8,1l.4,1.5c0,.3,0,.6,0,.9l-3.1,5.8c-.3.5-.8.8-1.3.8ZM1232.9,1306.4c-.3.5-.3,1.1,0,1.6l1.5-2.8-.9.2-.5,1Z"/>
      </g>
      <g>
        <path class="cls-5" d="M1247.9,1301l-11.8,3.8h0s0,0,0,0l-3,5.7h0c3.1,3.7,7.5,5.1,12.4,4.2l56.5-11.1c1.2-.3,2-.9,2.4-1.7.3-.4.8-1.7,1.3-3.1.7-1.8-3.1-5.8-3.1-5.8l-54.8,8h0Z"/>
        <path class="cls-5" d="M1242.3,1316.5c-4.1,0-7.7-1.8-10.4-4.9-.4-.4-.4-1.1-.2-1.6l3-5.7c.2-.3.5-.6.9-.7l11.8-3.8c0,0,.2,0,.2,0l54.8-8c.5,0,1,0,1.3.4,1.3,1.4,4.3,4.9,3.4,7.3-.9,2.4-1.3,3-1.4,3.3-.7,1.2-1.9,2.1-3.3,2.4l-56.6,11.1c-1.2.2-2.4.3-3.5.3h0ZM1234.8,1310.4c2.7,2.7,6.3,3.8,10.4,3l56.5-11.1c.6-.2,1.1-.5,1.4-1,0-.1.4-.7,1.2-2.9,0-.5-1-2.3-2.3-3.8l-53.9,7.9-11.2,3.6-2.3,4.4h0Z"/>
      </g>
      <g>
        <path class="cls-6" d="M1233.8,1307.9l-1.2-1.5c-1-1.2-.3-3.1,1.4-3.4l63.4-12c2.2-.4,4.5.3,5.9,2l1.8,2.1c1.1,1.2,1.3,2.8.6,4.1-.5.8-1.3,1.5-2.4,1.8l-56.7,11.1c-1.3.3-2.7.3-4,.2,0,0-.1,0-.2,0h-.2s-.3,0-.3,0c0,0-.2,0-.3,0-2.7-.4-5.1-1.7-7-3.7-.2-.2-.4-.4-.6-.6h0Z"/>
        <path class="cls-5" d="M1243.3,1313.8c-.2,0-.4,0-.6,0-.1,0-.3,0-.4,0h-.6c0,0-.2,0-.2,0h-.2c-3-.5-5.7-2-7.9-4.2-.2-.2-.4-.4-.6-.7l-1.2-1.4c-.8-.9-1-2.2-.6-3.3.4-1.2,1.5-2.1,2.8-2.3l63.4-12c2.7-.5,5.5.4,7.3,2.4l1.8,2.1c1.5,1.6,1.8,3.8.7,5.7-.7,1.2-1.9,2.1-3.4,2.5l-56.8,11.1c-1.1.2-2.3.3-3.4.3h0ZM1298.6,1292.4c-.3,0-.7,0-1,0l-63.4,12c-.3,0-.5.2-.6.5,0,.1,0,.4,0,.6l1.2,1.5c.2.2.3.4.5.5,1.7,1.8,3.8,2.9,6.2,3.3h.2s0,1.5,0,1.5l.2-1.4h.2s.2,0,.2,0h.3c1.1,0,2.2,0,3.3-.2l56.7-11.1c.6-.2,1.1-.5,1.4-1,.4-.8.3-1.8-.4-2.5l-1.8-2.1c-.8-1-2.1-1.5-3.5-1.6Z"/>
      </g>
    </g>
  </g>
</svg>