<?xml version="1.0" encoding="UTF-8"?>
<svg id="Layer_1" data-name="Layer 1" xmlns="http://www.w3.org/2000/svg" version="1.1" viewBox="0 0 1969.2 2121.6">
  <defs>
    <style>
      .cls-1 {
        fill: #adc4cb;
      }

      .cls-1, .cls-2, .cls-3, .cls-4, .cls-5, .cls-6 {
        stroke-width: 0px;
      }

      .cls-7, .cls-6, .cls-8 {
        fill: #fff;
      }

      .cls-7, .cls-8, .cls-9, .cls-10 {
        stroke: #000;
        stroke-linecap: round;
        stroke-linejoin: round;
      }

      .cls-7, .cls-9 {
        stroke-width: 2.7px;
      }

      .cls-2 {
        fill: #1d88fe;
      }

      .cls-3 {
        fill: #87c159;
      }

      .cls-4, .cls-9, .cls-10 {
        fill: #000;
      }

      .cls-5 {
        fill: #aed9ff;
      }

      .cls-8, .cls-10 {
        stroke-width: 2.4px;
      }
    </style>
  </defs>
  <g>
    <path class="cls-5" d="M1.7,1471l-.3-38.8,723.7-382.6,1112.6,639.9c5.7,3.3,1.2,11.8,1.2,11.8l-708.8,413.4c-12.9,7.5-28.9,7.5-41.8,0L13.2,1490.9c-7.1-4.1-11.5-11.7-11.5-19.9Z"/>
    <path class="cls-7" d="M9.7,1416.6l678.3-389.9,1126.5,648.3-683,395.2c-13.8,8-30.8,8-44.6,0L9.6,1445.3c-11-6.4-11-22.3,0-28.7Z"/>
    <path class="cls-9" d="M1814.2,1669c-.3,5.7-9.9,11.3-13.4,13.3l-672.3,389.7s-4.9,2.4-9.5,3.4c-5.1,1.1-9.7.9-9.7.9v44s8-.5,13.8-2.4c6.5-2.1,13-5.9,13-5.9l695.3-404.1c7.2-4.2,13.1-10.3,17.1-17.6l-34.2-21.3Z"/>
    <path class="cls-5" d="M1655.1,1678.4l-256.9,149.1c-12.1,7-27,7-39.1,0l-944-545.9c-12.7-7.3-12.7-25.7,0-33l257-147.6c12.1-6.9,26.9-6.9,38.9,0l944,544.1c12.7,7.3,12.8,25.7,0,33.1Z"/>
    <g>
      <path class="cls-7" d="M772.3,1846.8l-358.7-207.4c-12.7-7.3-12.7-25.7,0-33l210.9-121c12.1-6.9,26.9-6.9,38.9,0l358,206.3c12.7,7.3,12.8,25.7,0,33.1l-210.1,122c-12.1,7-27,7-39.1,0h0ZM1967.4,829.2l-114,845.7-40.6.3-47-28.9L733.1,1011.1l69-838.8.5-.2,4-1.9,22.2-10.2c12.8-5.7,23.3-5.2,35.4,1.7l1079.4,619.1c17,9.8,26.4,28.9,23.8,48.3h0Z"/>
      <path class="cls-7" d="M1963.4,802.5c-4.2-9.1-11.1-16.7-19.8-21.6L864.1,161.8c-12.1-7-22.6-7.4-35.4-1.7l-22.2,10.2,5,2.8,1087.1,623.4c8.6,4.9,15.5,12.4,19.7,21.3l45.1-15.3Z"/>
    </g>
    <path class="cls-2" d="M688,1026.7l106.7-845.2c1-8,9.9-12.5,16.9-8.4l1086.8,623.3c17.1,9.8,26.5,28.9,24,48.4l-108.5,831-1126-649.1Z"/>
    <path class="cls-9" d="M1848.4,1690.3c2.6-4.8,4.3-10,5-15.4l114-845.7c1.2-9.1-.2-18.3-4-26.6l-45.1,15.3c3.9,8.3,5.4,17.6,4.2,26.7l-106.1,816.6c-.7,5.1-2.6,9.9-5.7,14l37.8,15.1Z"/>
  </g>
  <g>
    <path class="cls-8" d="M699.3,2.3c-4.5-2.5-9.8-.5-14.4,3-3.7,2.8-7.5,5.6-11.2,8.4l-104,809.5c-1.5,11.1,3.8,22,13.5,27.6l726.6,435.1s11.6-9.2,15-12.1c1.8-1.6,3.1-3.8,3.5-6.6l116.2-814.8c1.8-12.6-4.3-25-15.3-31.3L699.3,2.3Z"/>
    <path class="cls-10" d="M1441.6,434.4c2.7,5.6,3.7,11.9,2.8,18l-116.2,814.8c-.4,2.8-1.7,5.1-3.5,6.6-2.6,2.2-9.8,8-13.2,10.7,1.5-1.5,2.6-3.6,3-6.1l116.2-814.8c1-6.9-.4-14-3.9-20l14.9-9.1Z"/>
    <path class="cls-8" d="M1426.8,443.5c-2.7-4.7-6.7-8.6-11.4-11.3L685.5,13.5c-3.9-2.2-8.4-1.9-11.8.1,1-.8,9.4-7,11.1-8.3,4.6-3.5,9.9-5.5,14.4-3l729.9,418.7c5.4,3.1,9.7,7.7,12.5,13.3l-14.9,9.1Z"/>
    <path class="cls-8" d="M685.5,13.5c-7.1-4.1-16.2.3-17.3,8.5l-112.4,812.4c-1.5,11.1,3.8,22,13.5,27.6l728.4,423.8c7,4.1,15.6.6,16.7-7.5l116.2-814.8c1.8-12.6-4.3-25-15.3-31.3L685.5,13.5Z"/>
    <path class="cls-5" d="M1427,489.3l3.7-25.7c1.8-12.6-4.3-25-15.3-31.3L685.5,13.5c-7.1-4.1-16.2.3-17.3,8.5l-4.3,31.1,763.1,436.2Z"/>
    <path class="cls-8" d="M1354.3,414.9c2.9,6.1,1.8,12.8-2.6,14.9-4.4,2.1-10.3-1.2-13.2-7.4-2.9-6.1-1.7-12.8,2.6-14.9s10.2,1.2,13.2,7.4ZM1381.8,430.4c2.9,6.1,1.8,12.8-2.6,14.9-4.4,2.1-10.3-1.2-13.2-7.4-2.9-6.1-1.7-12.8,2.6-14.9s10.2,1.2,13.2,7.4ZM1408.7,446.3c2.9,6.1,1.8,12.8-2.6,14.9-4.4,2.1-10.3-1.2-13.2-7.4-2.9-6.1-1.7-12.8,2.6-14.9s10.2,1.2,13.2,7.4Z"/>
  </g>
  <g>
    <path class="cls-6" d="M1460.2,644.4l-95.8,769.8,403.7,229.8,84.7-661-74.2-158.2-318.3-180.4Z"/>
    <path class="cls-4" d="M1768.1,1645.2c-.2,0-.4,0-.6-.2l-403.7-229.8c-.4-.2-.7-.7-.6-1.2l95.8-769.8c0-.7.7-1.1,1.3-1,.2,0,.3,0,.4.1l318.3,180.4c.2.1.4.3.5.5l74.2,158.2c0,.2.1.4.1.7l-84.7,661c0,.6-.6,1-1.2,1h0ZM1365.7,1413.5l401.5,228.5,84.4-658.9-73.9-157.6-316.4-179.3-95.5,767.2Z"/>
    <path class="cls-6" d="M1460.2,644.4l-19.8,158.7,405.6,232.6,6.7-52.6-45.3-54.3-28.9-104-318.3-180.4Z"/>
    <path class="cls-4" d="M1846.1,1036.8c-.2,0-.4,0-.6-.2l-405.6-232.6c-.4-.2-.6-.7-.6-1.2l19.8-158.7c0-.7.7-1.1,1.3-1,.2,0,.3,0,.4.1l318.3,180.4c.3.2.5.4.6.7l28.9,103.7,45.2,54.1c.2.3.3.6.3.9l-6.7,52.6c0,.6-.6,1-1.2,1h0ZM1441.8,802.4l403.4,231.3,6.4-50.3-45-53.9c-.1-.1-.2-.3-.2-.4l-28.8-103.5-316.3-179.3-19.4,156.1Z"/>
    <path class="cls-4" d="M1778.6,824.8l-14.6,107.6,88.8,50.6-74.2-158.2Z"/>
    <path class="cls-4" d="M1852.8,984.2c-.2,0-.4,0-.6-.2l-88.8-50.6c-.4-.2-.7-.7-.6-1.2l14.6-107.6c0-.7.7-1.1,1.3-1,.4,0,.7.3.9.7l74.2,158.2c.3.6,0,1.3-.6,1.6-.2,0-.3.1-.5.1h0ZM1765.3,931.8l84.9,48.3-70.9-151.2-13.9,102.8h0ZM1499.3,786.4c-.5,0-.9-.3-1.1-.7l-22.6-45.9c-.3-.6,0-1.2.5-1.6l28-16.7c.6-.3,1.3-.2,1.6.4s.2,1.3-.4,1.6h0l-27,16.1,22.2,44.9c.3.6,0,1.3-.5,1.6-.2,0-.3.1-.5.1Z"/>
    <path class="cls-5" d="M1588.5,777.3c7.7,22.4,1.6,44.7-13.7,49.7-15.2,5-33.8-9.1-41.5-31.5-7.7-22.4-1.6-44.7,13.7-49.7,15.2-5,33.8,9.1,41.5,31.5Z"/>
    <path class="cls-4" d="M1568.5,829.2c-14.2,0-29.5-13.5-36.2-33.3-4.7-13.8-4.5-28.2.7-38.6,3.2-6.4,7.9-10.7,13.8-12.7,15.8-5.2,35.1,9.2,43,32.2,4.7,13.8,4.5,28.2-.7,38.6-3.2,6.4-7.9,10.7-13.8,12.7-2.2.7-4.4,1.1-6.7,1.1h0ZM1553.4,746c-2.1,0-4.1.3-6,1-5.2,1.7-9.5,5.7-12.4,11.5-4.9,9.8-5.1,23.5-.6,36.7,6.4,18.8,20.7,31.7,33.9,31.7,2.1,0,4.1-.3,6-1,5.2-1.7,9.5-5.7,12.4-11.5,4.9-9.8,5.1-23.5.6-36.7-6.4-18.8-20.7-31.7-33.9-31.7h0Z"/>
    <path class="cls-5" d="M1514,896.3l-5.7,45.5-44.9,18.6,34.3,66.2-5.7,45.4,216.8,124.1,22-176-216.9-123.8Z"/>
    <path class="cls-4" d="M1708.9,1197.3c-.2,0-.4,0-.6-.2l-216.8-124.1c-.4-.2-.7-.7-.6-1.2l5.6-45-34.1-65.9c-.3-.6,0-1.3.5-1.6,0,0,0,0,0,0l44.2-18.3,5.6-44.9c0-.7.7-1.1,1.3-1,.2,0,.3,0,.4.1l216.9,123.8c.4.2.7.7.6,1.2l-22,176c0,.6-.6,1-1.2,1h0ZM1493.4,1071.3l214.6,122.8,21.6-173.5-214.6-122.5-5.5,43.8c0,.4-.3.8-.7,1l-43.7,18.1,33.7,65c.1.2.2.5.1.7l-5.6,44.6h0Z"/>
    <path class="cls-6" d="M1547.5,1274.3l199.2,115.3,2.2-17.9,19.2-10-14.7-25.7,2.4-20-199.3-114.4-9.1,72.7h0Z"/>
    <path class="cls-4" d="M1746.7,1390.8c-.2,0-.4,0-.6-.2l-199.2-115.3c-.4-.2-.6-.7-.6-1.2l9.1-72.7c0-.7.7-1.1,1.3-1,.2,0,.3,0,.4.1l199.3,114.4c.4.2.6.7.6,1.2l-2.4,19.6,14.5,25.3c.3.6.1,1.3-.4,1.6,0,0,0,0,0,0l-18.7,9.7-2.2,17.3c0,.6-.6,1-1.2,1h0ZM1548.8,1273.7l197,114,2-16.2c0-.4.3-.7.6-.9l18.1-9.4-14.1-24.6c-.1-.2-.2-.5-.1-.7l2.3-19.2-197.1-113.1-8.8,70.1h0Z"/>
    <path class="cls-6" d="M1531.6,1402l199.2,115.3,2.2-17.9,19.2-10-14.7-25.6,2.4-20-199.3-114.4-9.1,72.7h0Z"/>
    <path class="cls-4" d="M1730.8,1518.5c-.2,0-.4,0-.6-.2l-199.2-115.3c-.4-.2-.6-.7-.6-1.2l9.1-72.7c0-.7.7-1.1,1.3-1,.2,0,.3,0,.4.1l199.3,114.4c.4.2.6.7.6,1.2l-2.4,19.6,14.5,25.3c.3.6.1,1.3-.4,1.6,0,0,0,0,0,0l-18.7,9.7-2.2,17.3c0,.6-.6,1-1.2,1h0ZM1532.9,1401.4l196.9,114,2-16.2c0-.4.3-.7.6-.9l18.1-9.4-14.1-24.6c-.1-.2-.2-.5-.1-.7l2.3-19.2-197-113.1-8.7,70.1h0Z"/>
  </g>
  <g>
    <path class="cls-6" d="M1220.8,826.8c30.5-134.6-7.7-287.7-96.2-393.4-71.7-85.6-195.2-143.5-297.5-73.2-107.2,73.7-133.5,263.8-110.1,381.5,24.6,123.9,110.6,224.6,236.6,267.5,112.1,38.2,213-31.5,253.1-136,5.8-15.1,10.4-30.6,14-46.4h0Z"/>
    <path class="cls-4" d="M1015.9,1021.1c-20.6,0-41.6-3.6-62.6-10.7-61.5-21-115.8-56.8-156.9-103.7-40.5-46.2-68.4-103.2-80.6-164.7-12.3-62.3-10.1-140,6.1-207.8,13.4-56.3,42.5-132.3,104.5-174.9,103.6-71.2,227.6-11.8,299.1,73.4,43.7,52.1,75.8,116.6,93,186.3,17.2,70.1,18.4,142.1,3.5,208.1h0c-3.8,16.4-8.5,32-14.1,46.5-20.3,53.1-55.9,96.5-100.1,122.1-29,16.8-60.1,25.3-91.9,25.3h0ZM927.1,329.9c-33.6,0-67.4,9.4-99.2,31.3-111.1,76.4-131.1,272.1-109.6,380.3,24.8,125.1,113,224.8,235.8,266.6,116,39.5,214.4-38.2,251.6-135.3,5.5-14.4,10.2-29.9,14-46.2,30.1-132.8-7.5-286.8-95.9-392.4-48.8-58.2-122.2-104.3-196.6-104.3Z"/>
    <path class="cls-4" d="M1039,696.9l-107.5-19.8,5.7-230.1s4.1-25.2,37-27.8c35.9-2.9,64.8,25.9,64.8,61.9v215.9h0Z"/>
    <path class="cls-4" d="M1039,698.1c0,0-.1,0-.2,0l-107.5-19.8c-.6-.1-1-.6-1-1.2l5.7-230.1c0,0,0-.1,0-.2,0-.3,4.6-26.1,38.1-28.9,17-1.4,33.3,4.2,45.7,15.7,12.9,11.9,20.4,29.2,20.4,47.4v215.9c0,.7-.5,1.2-1.2,1.2h0ZM932.7,676.1l105.1,19.3v-214.4c0-17.5-7.1-34.1-19.6-45.6-12-11-27.5-16.4-43.9-15.1-31,2.5-35.6,25-35.9,26.8l-5.6,229Z"/>
    <ellipse class="cls-3" cx="972.4" cy="453.9" rx="28" ry="24.4"/>
    <path class="cls-4" d="M972.4,479.5c-16.1,0-29.2-11.5-29.2-25.6s13.1-25.6,29.2-25.6,29.2,11.5,29.2,25.6-13.1,25.6-29.2,25.6ZM972.4,430.8c-14.8,0-26.8,10.4-26.8,23.2s12,23.2,26.8,23.2,26.8-10.4,26.8-23.2-12-23.2-26.8-23.2Z"/>
    <path class="cls-1" d="M1112.5,802.9c0-45.1-24-86.8-63.1-109.3l-126.4-60.8-98.7,14.8c-11.9,7.6-18.7,21.4-18.7,37.5v82.3c0,11.6,8.6,87.9,92.3,140.8,121,76.5,214.5,11.9,214.5-10.3v-95Z"/>
    <path class="cls-4" d="M1012,945.7c-31.2,0-70.4-8.5-114.7-36.5-35.5-22.5-61.8-51.5-78-86.4-11.8-25.3-14.9-47.3-14.9-55.4v-82.3c0-16.6,7-30.7,19.2-38.5.1,0,.3-.2.5-.2l98.7-14.8c.2,0,.5,0,.7.1l126.4,60.8c39.4,22.7,63.8,65,63.8,110.4v95c0,8.6-11.6,20.8-29,30.4-10.6,5.8-36.3,17.4-72.7,17.4h0ZM824.8,648.8c-11.4,7.4-17.9,20.6-17.9,36.4v82.3c0,.2.2,23.2,14.7,54.4,16,34.4,42,63.1,77.1,85.4,43.9,27.7,82.6,36.2,113.4,36.2,35.9,0,61.1-11.4,71.5-17.2,18.2-10,27.7-21.8,27.7-28.3v-95c0-44.5-23.9-86-62.5-108.3l-126-60.6-98.1,14.8h0Z"/>
    <path class="cls-6" d="M923.1,922.2s51.5,28.4,105.1,21.5c74.2-9.6,84.4-43.3,84.4-45.9v-95c0-45.1-24-86.8-63.1-109.3l-81.5-47.1-44.9,275.7h0Z"/>
    <path class="cls-4" d="M1011,946c-46.8,0-88.1-22.5-88.6-22.7-.4-.2-.7-.7-.6-1.2l44.9-275.7c.1-.7.7-1.1,1.4-1,.1,0,.3,0,.4.1l81.5,47.1c39.3,22.7,63.7,65,63.7,110.4v95c0,.4-6.4,36.9-85.4,47.1-5.8.7-11.5,1.1-17.2,1.1h0ZM924.4,921.6c6.5,3.4,54.5,27.3,103.6,21,38.3-4.9,58.9-16.4,69.3-25.2,11.3-9.5,14-18.3,14-19.5v-95c0-44.5-23.9-86-62.5-108.3l-80-46.2-44.5,273.2h0Z"/>
    <path class="cls-6" d="M968,646.5l-46.2-26.7c-11.8-6.8-25.9,15.3-37.6,13-30.9-6.2-59.8,14.8-59.8,14.8-11.9,7.6-18.7,21.4-18.7,37.5v84.5c0,10.2,3.1,28.8,13.4,51.4,8.2,18.2,28.6,43.9,28.6,43.9l38.2-204.3,82.1-14.1h0Z"/>
    <path class="cls-4" d="M847.7,866.1c-.4,0-.7-.2-.9-.5-.2-.3-20.6-26.1-28.8-44.2-12.5-27.6-13.5-46.7-13.5-51.9v-84.5c0-16.6,7-30.7,19.2-38.5.2-.2,29.6-21.2,60.6-15,4.9,1,10.6-3,16.1-6.8,7.3-5,14.8-10.2,21.9-6l46.2,26.7c.6.3.8,1.1.4,1.6-.2.3-.5.5-.8.6l-81.2,14-38,203.5c-.1.6-.6,1-1.2,1h0ZM872.5,632.8c-25.5,0-47.2,15.6-47.5,15.7-11.6,7.4-18.2,20.7-18.2,36.5v84.5c0,5.1,1,23.7,13.3,50.9,6.7,14.8,21.9,35.1,26.9,41.6l37.7-201.7c0-.5.5-.9,1-1l78.8-13.6-43.4-25.1c-5.8-3.3-12.4,1.2-19.3,5.9-6,4.1-12.1,8.3-17.9,7.2-3.7-.7-7.5-1.1-11.4-1.1h0ZM1026.2,945.2h0c-.7,0-1.2-.6-1.2-1.2h0s2-125,2-125c0-.7.6-1.2,1.2-1.2.7,0,1.2.6,1.2,1.2h0s-2,125-2,125c0,.7-.5,1.2-1.2,1.2Z"/>
    <path class="cls-6" d="M937.2,628.7s-25.1,19.7-31.3,28.3c-13.5,18.7-14.6,31.7-16.7,48.1l-21.8,180s-9.1-8.9-13.9-13.7c-5.2-5.2-12.7-15.2-12.7-15.2l.9-153.9,21.2,12.1-17.8-23.6s3.3-16.9,28.6-41.9c19.5-19.3,43.1-31.6,43.1-31.6l20.4,11.4Z"/>
    <path class="cls-4" d="M867.4,886.3c-.3,0-.6-.1-.8-.3,0,0-9.1-8.9-13.9-13.7-5.2-5.2-12.5-15-12.8-15.4-.2-.2-.2-.5-.2-.7l.9-153.9c0-.7.5-1.2,1.2-1.2.2,0,.4,0,.6.2l16.2,9.2-14.3-18.9c-.2-.3-.3-.6-.2-1,.1-.7,3.6-17.6,28.9-42.5,19.4-19.2,43.1-31.7,43.3-31.8.4-.2.8-.2,1.1,0l20.4,11.4c.6.3.8,1.1.5,1.6,0,.1-.2.3-.3.4-.2.2-25,19.7-31,28-12.7,17.7-14.3,29.9-16.2,45.4l-.3,2.1-21.8,180c0,.6-.6,1.1-1.2,1.1h0ZM842,855.8c1.3,1.8,7.8,10.3,12.4,14.8,3.5,3.5,9.3,9.2,12.2,12l21.8-179.7c1.9-15.2,3.5-28.4,16.6-46.6,5.4-7.5,24.6-23.1,30.1-27.4l-18.3-10.2c-3.7,2-24.7,13.8-42.2,31.1-22.3,22-27.3,37.8-28.1,40.7l17.4,23.1c.4.5.3,1.3-.2,1.7-.4.3-.9.3-1.3,0l-19.5-11.1-.9,151.5h0Z"/>
    <path class="cls-6" d="M979.8,661.2v-47.4s-71,37.7-71,37.7l-1.9,40.8,8.8,40.5,74.3-60.6s-10.2-6.6-10.2-11h0Z"/>
    <path class="cls-4" d="M915.8,734c-.6,0-1.1-.4-1.2-.9l-8.8-40.5c0-.1,0-.2,0-.3l1.9-40.8c0-.4.3-.8.6-1l71-37.7c.6-.3,1.3,0,1.6.5,0,.2.1.4.1.6v47.4c0,2.7,5.9,7.5,9.7,10,.6.4.7,1.1.4,1.7,0,.1-.2.2-.3.3l-74.3,60.6c-.2.2-.5.3-.8.3h0ZM908.2,692.3l8.3,38.4,71.5-58.4c-3-2.1-9.4-7.1-9.4-11.1v-45.4s-68.6,36.5-68.6,36.5l-1.8,39.9h0Z"/>
    <path class="cls-6" d="M849.3,507.2l-1.9,83.9c-.6,25.8,13.5,49.6,36.4,61.5,37.2,19.4,83.9,3.9,98.7-35.3,0,0,18.9-25.1,22.4-33.9,5.3-13.2-8.3-137.4-109.5-124.6-28,3.5-46.1,48.4-46.1,48.4h0Z"/>
    <path class="cls-4" d="M917.7,662.2c-11.9,0-23.7-2.9-34.5-8.5-23.4-12.2-37.6-36.2-37-62.6l1.9-83.9c0-.1,0-.3,0-.4.8-1.9,18.7-45.5,47.1-49.1,35.1-4.4,63.2,6.7,83.6,33.2,27,35.1,30.4,84.9,27.2,92.9-3.5,8.7-20.8,31.9-22.5,34.1-7,18.4-21,32.4-39.6,39.5-8.3,3.2-17.2,4.8-26.1,4.8h0ZM850.5,507.4l-1.9,83.7c-.6,25.5,13.1,48.7,35.7,60.5,18.3,9.5,39.7,10.8,58.7,3.6,18-6.9,31.6-20.5,38.3-38.3,0-.1,0-.2.2-.3.2-.2,18.8-25,22.3-33.7,3.1-7.6-.9-56.8-26.8-90.6-19.8-25.8-47.2-36.7-81.4-32.3-26,3.3-43.7,44.2-45.1,47.4h0Z"/>
    <path class="cls-6" d="M923.1,922.2s8.1,4.1,16.8,7.5c9.9,3.9,17.2,6.1,17.2,6.1l33.7-147-20.9-12.1,23.8.6s4-36.2,11.8-55.6c1.4-3.6,3-7.1,4.6-10.6,8.3-18,1.4-39.4-15.7-49.4l-14.4-8.4-.4,4.6c0,.3,0,.5,0,.8,1,8.1-1.3,16.3-7.3,21.9-1.5,1.4-2.8,2.6-3.5,3.4-15.9,16.7-20.2,36.6-22.2,53.1l-23.5,185.2h0Z"/>
    <path class="cls-4" d="M957,937c-.1,0-.2,0-.3,0,0,0-7.5-2.3-17.3-6.1-8.7-3.4-16.8-7.5-16.9-7.5-.5-.2-.7-.7-.6-1.2l23.5-185.2c2.1-17.1,6.5-36.9,22.5-53.8.7-.7,1.9-1.9,3.5-3.5,5.4-5.1,7.9-12.7,6.9-20.9,0-.3,0-.6,0-1l.4-4.7c0-.7.6-1.2,1.3-1.1.2,0,.4,0,.5.2l14.4,8.4c17.9,10.4,24.8,32.3,16.2,50.9-1.6,3.5-3.1,7-4.6,10.6-7.7,19.1-11.7,54.9-11.7,55.3,0,.6-.6,1.1-1.2,1.1l-19.2-.5,16.9,9.8c.5.3.7.8.6,1.3l-33.7,147c-.1.5-.6.9-1.2.9h0ZM924.4,921.5c2.2,1.1,8.9,4.3,15.9,7.1,5.2,2.1,10.5,4,15.9,5.7l33.2-144.9-20.1-11.7c-.6-.3-.8-1.1-.4-1.6.2-.4.6-.6,1.1-.6l22.8.6c.7-6.2,4.7-37.4,11.8-54.8,1.5-3.6,3-7.2,4.6-10.7,8.1-17.5,1.5-38.1-15.3-47.8l-12.8-7.4-.2,2.7c0,.1,0,.4,0,.6,1.1,9-1.7,17.3-7.7,22.9-1.6,1.5-2.8,2.7-3.4,3.4-15.6,16.4-19.8,35.7-21.9,52.4l-23.4,184.4h0ZM953.4,442.7c-2.5-.6-5-1.1-7.6-1.5-17.6-2.9-57.3-1.4-78,18.3-21.8,20.8-18.6,48.6-18.6,48.6,0,0,6.3,7.7,23.9-1.4,21.7-11.1,29.9-26.4,29.9-26.4,0,0,1.9,22.5,17.1,41,18.9,23,52.6,37.9,52.6,37.9l.6,34.1,6.4,22v8.4c0,0,22.5-2.6,36.7-41.2,4.9-13.4,8.3-39.2,8.3-65,0-33.3-26.3-65.7-71.4-74.9h0Z"/>
    <path class="cls-4" d="M979.8,625c-.7,0-1.2-.5-1.2-1.2,0,0,0,0,0,0v-8.2c0,0-6.3-21.9-6.3-21.9,0-.1,0-.2,0-.3l-.6-33.4c-5-2.3-35-16.9-52.4-38-12-14.6-15.8-31.3-16.9-38.3-3.5,5-12.3,15.6-28.6,24-18.3,9.4-25.1,1.4-25.4,1.1-.1-.2-.2-.4-.3-.6,0-.3-3-28.6,19-49.6,21.4-20.4,62.5-21.4,79-18.7,2.5.4,4.9.9,7.6,1.5,21.7,4.4,40.2,14.4,53.3,28.8,12.3,13.5,19.1,30.3,19.1,47.3,0,26-3.3,51.7-8.4,65.4-14.3,38.8-36.8,41.9-37.7,42,0,0,0,0-.1,0h0ZM974.6,593.2l6.3,21.9c0,.1,0,.2,0,.3v6.9c4.9-1.3,22.6-8.2,34.4-40.1,4.9-13.3,8.2-39.3,8.2-64.6,0-35-28.9-65.3-70.4-73.8h0c-2.5-.6-5-1.1-7.5-1.5-16.2-2.7-56.2-1.8-77,18-19.7,18.8-18.5,43.7-18.3,47.2,1.2,1.1,7.6,5.6,22.2-1.9,21-10.8,29.3-25.7,29.4-25.9.3-.6,1-.8,1.6-.5.4.2.6.6.6,1,0,.2,2,22.4,16.8,40.3,18.5,22.5,51.8,37.5,52.2,37.6.4.2.7.6.7,1.1l.6,34Z"/>
    <path class="cls-6" d="M893.5,599.5c-2,1.3-4.3,2-6.7,2-6.7,0-12.2-5.5-12.2-12.2s5.5-12.2,12.2-12.2"/>
    <path class="cls-4" d="M886.9,602.7c-7.4,0-13.4-6-13.4-13.4s6-13.4,13.4-13.4,1.2.5,1.2,1.2-.5,1.2-1.2,1.2c-6.1,0-11,4.9-11,11s4.9,11,11,11c2.1,0,4.2-.6,6-1.8.6-.4,1.3-.2,1.7.4.4.6.2,1.3-.3,1.7-2.2,1.4-4.7,2.2-7.3,2.2h0Z"/>
    <path class="cls-6" d="M872.8,615.8s12,15.7,32,9.2"/>
    <path class="cls-4" d="M895.3,627.8c-14.6,0-23.4-11.1-23.5-11.3-.4-.5-.3-1.3.2-1.7.5-.4,1.3-.3,1.7.2h0c.5.6,11.8,15,30.7,8.8.6-.2,1.3.2,1.5.8.2.6-.1,1.3-.8,1.5-3.5,1.2-6.8,1.6-9.8,1.6h0Z"/>
    <ellipse class="cls-4" cx="871.3" cy="562.8" rx="3.4" ry="9.2"/>
    <path class="cls-4" d="M871.3,573.2c-3,0-4.6-5.2-4.6-10.4s1.6-10.4,4.6-10.4,4.6,5.2,4.6,10.4-1.6,10.4-4.6,10.4ZM871.3,554.8c-.6,0-2.2,2.8-2.2,8s1.6,8,2.2,8,2.2-2.8,2.2-8-1.6-8-2.2-8Z"/>
    <ellipse class="cls-4" cx="915.8" cy="581.2" rx="3.4" ry="9.2"/>
    <path class="cls-4" d="M915.8,591.6c-3,0-4.6-5.2-4.6-10.4s1.6-10.4,4.6-10.4,4.6,5.2,4.6,10.4-1.6,10.4-4.6,10.4ZM915.8,573.2c-.6,0-2.2,2.8-2.2,8s1.6,8,2.2,8,2.2-2.8,2.2-8-1.6-8-2.2-8Z"/>
    <path class="cls-6" d="M860.8,543.2s13.2-7.4,25,7.7"/>
    <path class="cls-4" d="M885.9,552.2c-.4,0-.7-.2-.9-.5-11-14.1-23-7.7-23.5-7.4-.6.3-1.3,0-1.6-.5-.3-.6-.1-1.3.4-1.6.1,0,14.2-7.8,26.6,8,.4.5.3,1.3-.2,1.7-.2.2-.5.3-.7.3h0Z"/>
    <path class="cls-6" d="M910.3,559.8s13.2-7.4,25,7.7"/>
    <path class="cls-4" d="M935.3,568.8c-.4,0-.7-.2-.9-.5-11-14.1-23-7.7-23.5-7.4-.6.3-1.3,0-1.6-.5-.3-.6-.1-1.3.4-1.6.1,0,14.2-7.8,26.6,8,.4.5.3,1.3-.2,1.7-.2.2-.5.3-.7.3Z"/>
    <path class="cls-6" d="M1001.8,608.8c-.7,0-1.2-.5-1.2-1.2,0-.3.1-.6.3-.8,4.1-4.4,10.1-11.7,14.5-24.6,4.9-14.2,8.2-40.2,8.2-64.6,0-30.7-24.4-66.9-71.2-76.4-2.5-.6-12.5-2-15.6-2.2-.7,0-1.2-.6-1.1-1.3,0-.6.6-1.1,1.2-1.1,3.3.2,13.4,1.7,15.9,2.2,48,9.8,73.1,47,73,78.7,0,24.7-3.4,50.9-8.3,65.4-4.6,13.2-10.7,20.8-15,25.4-.2.2-.5.4-.9.4h0Z"/>
    <path class="cls-6" d="M972.8,597c2-16.8,12.4-22.3,21.8-20,9.4,2.3,14.7,13.4,11.9,24.9s-19.2,23.9-28.6,21.7"/>
    <path class="cls-4" d="M980.3,625c-.9,0-1.8,0-2.6-.3-.6-.1-1.1-.8-.9-1.4.1-.6.8-1.1,1.4-.9,0,0,0,0,0,0,8.8,2.1,24.5-9.9,27.2-20.8,2.6-10.8-2.3-21.3-11-23.5-4.3-1-8.5-.3-11.9,2.1-4.6,3.2-7.5,9-8.4,16.9,0,.7-.6,1.1-1.3,1.1-.7,0-1.1-.6-1.1-1.3,0,0,0,0,0,0,1.3-10.8,5.8-16.1,9.4-18.6,4-2.8,8.9-3.6,13.9-2.4,10,2.4,15.7,14.3,12.8,26.4-2.7,11.1-17.3,22.8-27.4,22.8h0Z"/>
    <ellipse class="cls-2" cx="1106.2" cy="969.6" rx="83.2" ry="110.6" transform="translate(-81.1 101.2) rotate(-5.1)"/>
    <path class="cls-4" d="M1110.4,1081.2c-44.1,0-83.1-45.3-88.3-104.2-5.4-61.4,27.9-114.7,74.3-118.8,46.4-4.1,88.5,42.5,94,103.9s-27.9,114.7-74.3,118.8c-1.9.2-3.8.3-5.7.3h0ZM1102.1,860.3c-1.8,0-3.7,0-5.5.2-45.1,4-77.4,56.1-72.1,116.2,5.1,57.6,43,102,85.9,102,1.8,0,3.7,0,5.5-.2,45.1-4,77.4-56.1,72.1-116.2-5.1-57.6-43-102-85.9-102Z"/>
    <path class="cls-6" d="M1147.6,915.6l-19.5-3.3c-1.9-.3-3.8.7-4.7,2.4l-11.8,23.8c-.9,1.9-.4,4.1,1.2,5.4l13.2,10.7s-2.8,10.1-11.5,22.7-17.1,18.8-17.1,18.8l-14.7-8.5c-1.8-1-4.1-.7-5.5.8l-18,19.5c-1.3,1.4-1.6,3.6-.6,5.3l10,17.1c2.5,4.3,8,5.7,12.2,3.2,10.7-6.3,30.4-20.2,48.2-46,17.8-25.8,23.8-49.3,25.8-61.5.8-4.9-2.4-9.5-7.3-10.3h0Z"/>
    <path class="cls-4" d="M1076.4,1035.8c-3.5,0-6.9-1.8-8.7-5l-10-17.1c-1.3-2.1-1-4.9.7-6.7l18-19.5c1.8-2,4.7-2.4,7-1.1l14,8.1c2.1-1.7,9.1-7.7,16.2-18.1,7.1-10.3,10.3-19,11.1-21.6l-12.5-10.2c-2.1-1.7-2.7-4.5-1.5-6.9l11.8-23.8c1.1-2.2,3.5-3.5,6-3.1l19.5,3.3c5.5.9,9.2,6.2,8.3,11.7-2,11.9-8,35.8-26,62-18,26.2-38.2,40.3-48.6,46.4-1.6.9-3.3,1.4-5.1,1.4h0ZM1080.5,988.1c-.9,0-1.7.4-2.4,1.1l-18,19.5c-1,1.1-1.1,2.6-.4,3.9l10,17.1c2.1,3.7,6.9,4.9,10.6,2.7,10.2-6,30.1-19.9,47.8-45.7,17.8-25.8,23.7-49.3,25.6-61,.7-4.2-2.1-8.2-6.3-8.9l-19.5-3.3c-1.4-.2-2.8.5-3.4,1.8l-11.8,23.8c-.7,1.4-.3,3,.9,4l13.2,10.7c.4.3.5.8.4,1.3-.1.4-3,10.4-11.7,23s-17,18.8-17.4,19.1c-.4.3-.9.3-1.3,0l-14.7-8.5c-.5-.3-1.1-.4-1.6-.4h0Z"/>
  </g>
</svg>