<?xml version="1.0" encoding="UTF-8"?>
<svg id="Layer_1" data-name="Layer 1" xmlns="http://www.w3.org/2000/svg" version="1.1" viewBox="0 0 1680.2 2524.8">
  <defs>
    <style>
      .cls-1 {
        fill: #1d88fe;
      }

      .cls-1, .cls-2, .cls-3, .cls-4 {
        stroke-width: 0px;
      }

      .cls-2 {
        fill: #000;
      }

      .cls-3 {
        fill: #aed9ff;
      }

      .cls-4 {
        fill: #fff;
      }
    </style>
  </defs>
  <g>
    <path class="cls-2" d="M1637.5,455.3c27.1,45.7,41,99,40.9,154.1l-6,1767.5c0,28.1-13.8,51.4-33.8,65.7-19.2,13.7-86.6,51.2-114.5,66.6-.2.1-.4.3-.6.4,21.5-14.1,36.5-38.2,36.5-67.5l3-1767.1c.1-57.8-16.6-114.4-48.1-162.8l122.7-56.9h0Z"/>
    <path class="cls-2" d="M1523.5,2511.4c-1,0-1.8-.8-1.8-1.8,0-.6.3-1.2.8-1.5l.3-.2.3-.2c22.3-14.9,35.1-38.7,35.1-65.6l3-1767.1c0-57.6-16.4-113.5-47.8-161.8-.6-.9-.3-2,.5-2.5,0,0,.1,0,.2-.1l122.7-56.9c.9-.4,1.9,0,2.3.7,27,45.5,41.2,99.1,41.1,155l-6,1767.5c0,27-12.6,51.5-34.5,67.1-19.1,13.7-86.5,51.2-114.7,66.7l-.2.2c-.1,0-.2.2-.4.2-.3.2-.6.3-1,.3h0ZM1517.5,513c31,48.5,47.4,104.5,47.3,162l-3,1767.1c0,21.6-7.9,41.3-22.2,56.4,32.3-18,82-46.1,97.9-57.4,20.9-14.9,33-38.3,33-64.2l6-1767.5c0-54.7-13.7-107.1-39.8-151.7l-119.3,55.3h0Z"/>
    <path class="cls-4" d="M1514.9,512.2c-26.1-40.1-61.4-73.4-103.1-96.9L816.9,79.1c-26.4-14.9-56.6-13.1-80,.3,12.3-7.3,92.7-55.3,117.5-68.1,23.7-12.2,52.9-13.6,78.1.7l591.7,338c49.6,24.9,87.5,61.6,113.4,105.2l-122.7,56.9h0Z"/>
    <path class="cls-2" d="M1514.9,514c-.6,0-1.2-.3-1.5-.8-25.8-39.7-61.2-73-102.5-96.3L816,80.7c-24.5-13.8-53.7-13.7-78.2.3-.9.5-2,.2-2.5-.7-.5-.9-.2-1.9.6-2.5,9.4-5.6,92.2-55,117.6-68.1,25.8-13.3,55.6-13,79.8.7l591.7,338c47.7,24,87.2,60.6,114,105.9.5.9.2,2-.6,2.5,0,0-.1,0-.2,0l-122.7,56.9c-.2.1-.5.2-.8.2h0ZM777.2,66.8c14,0,27.9,3.6,40.6,10.8l594.8,336.1c41.3,23.3,76.8,56.6,102.9,96.2l119.4-55.4c-26.5-43.8-65-79.4-111.6-102.8L931.6,13.6c-23.2-13.1-51.7-13.3-76.3-.6-18.7,9.6-68.8,39.1-97.4,56.1,6.3-1.6,12.9-2.3,19.4-2.3h0Z"/>
    <path class="cls-3" d="M1438.6,2511.9l-591.1-343.3c-90-52.3-145.5-148.5-145.8-252.6l-4.8-1763.2c-2.9-65.2,66.3-103.9,120-73.6l594.8,336.1c93.6,52.9,151.4,152.2,151.2,259.7l-3,1767.1c-.1,62.3-67.6,101.1-121.4,69.8h0Z"/>
    <path class="cls-2" d="M1479.2,2524.8c-14.3,0-28.5-3.8-41.5-11.3l-591.1-343.3c-90.2-52.4-146.4-149.8-146.7-254.2l-4.8-1763.2c-1.3-30.4,13.1-57.9,38.6-73.5,25.7-15.8,57.9-16.4,84.1-1.6l594.8,336.1c94,53.1,152.3,153.3,152.1,261.3l-3,1767.1c0,29.9-15.6,56.7-41.5,71.6-12.9,7.4-27,11.1-41.2,11.1h0ZM777.2,70.6c-14.7,0-29.1,4.1-41.6,11.8-24.4,15-38.2,41.3-36.9,70.3l4.8,1763.3c.3,103.1,55.8,199.3,144.9,251l591.1,343.3c24.7,14.3,54.2,14.4,79,.2,24.8-14.2,39.6-39.8,39.6-68.4l3-1767.1c.2-106.7-57.4-205.6-150.3-258.1L816,80.7c-11.8-6.7-25.2-10.2-38.8-10.2Z"/>
    <path class="cls-2" d="M1195.1,463.7l-132.2-75.1c-16.9-9.6-26.6-26-31.5-44.7-7-27,13.4-39,26.5-31.6l139.4,79.2c17.2,9.8,27.8,28.1,27.6,47.9v7.2c-.2,15.2-16.6,24.6-29.8,17.1Z"/>
    <path class="cls-2" d="M1205,468.2c-3.7,0-7.4-1-10.7-2.9l-132.2-75.1c-15.9-9-26.8-24.4-32.3-45.8-3.5-13.5-.6-25.4,7.8-31.8,6.4-4.9,14.7-5.6,21.3-1.8l139.4,79.2c17.8,10.1,28.7,29.1,28.5,49.5v7.2c-.1,7.8-4.2,14.8-11,18.7-3.3,1.9-7,2.9-10.9,2.9ZM1196,462.1c5.6,3.2,12.3,3.2,18,0s9-9,9.1-15.5v-7.2c.2-19.1-10-36.8-26.6-46.3l-139.4-79.2c-5.3-3-12.1-2.4-17.3,1.6-3.4,2.6-11,10.7-6.5,28,5.3,20.4,15.6,35.1,30.6,43.6l132.2,75.1h0Z"/>
  </g>
  <g>
    <path class="cls-4" d="M1398.4,802.5l-569.9-324.2c-21.3-12-47.5-11.5-68.3,1.3-20.7,12.7-32.5,35-31.5,59.6l.6,896.2c.2,77.8,42.2,150.4,109.5,189.4l572.2,331.1c10.6,6.1,22.1,9.2,33.7,9.2s23-3,33.5-9c21.1-12.1,33.7-33.8,33.7-58.1v-900.8c.1-80.5-43.3-155.1-113.4-194.6h0Z"/>
    <path class="cls-2" d="M1444.6,1966.5c-12,0-23.9-3.2-34.4-9.4l-572.2-331.1c-67.7-39.3-110-112.4-110.2-190.7l-.6-896.2c-1-25.1,11-47.9,32.2-60.8,21.3-13.1,48.1-13.6,69.8-1.3l569.9,324.2c70.6,39.8,114.3,114.9,114.2,195.9v900.8c0,24.8-12.9,47-34.4,59.4-10.5,6-22.3,9.2-34.2,9.2h0ZM795.5,471c-12.2,0-24.2,3.4-34.6,9.8-20.3,12.4-31.8,34.3-30.8,58.4l.6,896.3c.2,77.3,41.9,149.4,108.8,188.2l572.2,331.1c10.1,5.9,21.6,9,33,9s22.7-3.1,32.8-8.9c20.6-11.9,33-33.1,33-56.9v-900.8c.1-80-43.1-154.1-112.7-193.4h0s-569.9-324.2-569.9-324.2c-9.9-5.6-21-8.5-32.3-8.5Z"/>
  </g>
  <g>
    <path class="cls-4" d="M608.4,476.8c-5.9-38.4-39.3-54.3-39.3-54.3,0,0-449.5-258.6-456.6-262.1-7-3.4-14.2-4.6-20.7-3.7-12.6,1.7-77.8,36.5-77.8,36.5l33.3,554,561.2-270.3Z"/>
    <path class="cls-2" d="M47.2,748.5c-.8,0-1.4-.6-1.4-1.3L12.5,193.3c0-.6.3-1.1.7-1.3,2.7-1.4,65.6-35,78.3-36.6,7-.9,14.4.4,21.5,3.9,7.1,3.4,438.4,251.6,456.7,262.1.2.1,34.1,16.6,40,55.3,0,.6-.2,1.2-.8,1.5L47.8,748.4c-.2,0-.4.1-.6.1ZM15.4,194l33.1,551,558.4-269c-6.1-36.5-38-52.1-38.4-52.2-4.6-2.6-449.6-258.7-456.6-262.1-6.6-3.2-13.5-4.4-19.9-3.6-11.4,1.5-69,31.9-76.5,35.9Z"/>
    <path class="cls-2" d="M47.2,747.1l481.8,326.5s52.4-24.3,66-32c8.1-4.6,13.7-13.8,13.6-30,0,0,1.9-521.5-.1-534.9l-68.5,30.6L47.2,747.1Z"/>
    <path class="cls-2" d="M529,1075.1c-.3,0-.6,0-.8-.2L46.4,748.3c-.6-.4-.8-1.3-.4-2,.1-.2.3-.4.6-.5l492.7-239.7,68.6-30.6c.7-.3,1.6,0,1.9.7,0,.1,0,.2.1.4,2,13.3.2,513.9.1,535.2,0,15.2-4.7,25.7-14.3,31.2-13.4,7.6-65.6,31.8-66.1,32-.2,0-.4.1-.6.1h0ZM50,747.3l479.1,324.7c6.4-3,52.7-24.5,65.1-31.6,8.6-4.9,13-14.6,12.9-28.7,0-5.1,1.8-496.3,0-532.8l-66.7,29.8L50,747.3Z"/>
    <path class="cls-4" d="M540.4,510.1c-5.9-38.4-39.3-54.3-39.3-54.3,0,0-449.5-258.6-456.6-262.1-20.6-10-43.1-.9-43,23.2.2,65.7.3,532.3,1.6,545,2.7,27.8,23.9,44.2,43.9,56.7,61.3,38.4,432.7,251.3,432.7,251.3,21,12.2,61.2,18.2,60.9-24.8,0,0,1.9-521.5-.1-534.9h0Z"/>
    <path class="cls-2" d="M510.8,1080.2c-11.1,0-23.1-3.9-32-9.1-3.7-2.1-372.1-213.3-432.7-251.3-21.5-13.5-41.8-29.8-44.5-57.7-.9-9.7-1.2-278-1.4-438.3C0,273,0,232.9,0,216.9c0-10.8,4.3-19.4,12.2-24.4,9-5.7,21.3-5.7,32.8-.1,7.1,3.4,438.4,251.6,456.7,262.1.2.1,34.1,16.6,40,55.3,2,13.3.2,513.9.1,535.2,0,15.1-4.6,25.6-14.1,31.1-4.9,2.9-10.8,4.1-17,4.1ZM27.8,191.1c-5.2,0-10,1.3-14.1,3.8-7.1,4.4-10.9,12.2-10.9,22,0,16,0,56.1.1,106.9.2,160.3.5,428.5,1.4,438,2.6,26.7,22.3,42.5,43.2,55.6,60.6,37.9,428.9,249.1,432.7,251.2,13.2,7.6,33.2,12.5,46.1,5,8.5-4.9,12.8-14.6,12.7-28.6,0-5.2,1.9-521.6-.1-534.7-5.7-37.2-38.2-53.1-38.5-53.3-4.6-2.6-449.6-258.7-456.6-262.1-5.3-2.6-10.8-3.9-16-3.9Z"/>
    <g>
      <path class="cls-1" d="M445.9,630.5c-1.1,0-2.2-.7-2.6-1.8-67.5-171-222.2-273.3-305.3-244-14.7,5.2-50.1,31.5-59.9,75.8-.3,1.5-1.8,2.5-3.3,2.2-1.5-.3-2.5-1.8-2.2-3.3,0,0,0,0,0,0,10.4-47.1,47.3-74.2,63.5-80,43-15.2,104.3,2.7,164.1,47.8,64,48.4,116.7,119.2,148.4,199.4.6,1.5-.1,3.1-1.6,3.7-.3.1-.7.2-1,.2Z"/>
      <path class="cls-1" d="M427.8,680.4c-1.3,0-2.4-.9-2.7-2.1-12.1-46.6-37.7-96.3-71.9-140.2-33.9-43.5-73.3-77.2-110.9-95-33.6-15.9-64.6-18.3-89.6-6.8-16.5,7.6-44.8,38.4-50.6,88.9-.2,1.5-1.6,2.7-3.2,2.5-1.5-.2-2.6-1.6-2.5-3.1,6.1-53.2,35.5-85,53.8-93.3,26.6-12.2,59.2-9.8,94.4,6.8,38.3,18.1,78.4,52.4,112.9,96.6,34.7,44.4,60.6,94.9,72.9,142.2.4,1.5-.5,3.1-2,3.4-.2,0-.5,0-.7,0h0Z"/>
      <path class="cls-1" d="M167.4,724.3c-1.1,0-2.1-.6-2.5-1.6-.2-.5-23.4-48.4-32.5-101.6-3.9-22.8-7.2-56.3-.4-87,6.5-29.6,20.7-49.1,42.2-57.9,25.8-10.6,52.9-9.1,80.4,4.3,21.8,10.6,43.9,28.8,65.7,54,37,42.6,60.7,91.4,61,91.9.7,1.4,0,3.1-1.3,3.8s-3.1,0-3.8-1.3h0c-.2-.5-23.7-48.7-60.2-90.8-21.3-24.6-42.8-42.2-63.9-52.5-26-12.7-51.5-14.1-75.7-4.2-19.6,8.1-32.7,26.2-38.8,53.9-6.6,29.8-3.4,62.6.5,84.9,9,52.3,31.8,99.6,32,100,.7,1.4,0,3.1-1.3,3.8-.4.2-.8.3-1.2.3h0ZM187.3,813.5c-1,0-1.9-.5-2.4-1.3-.8-1.3-82.3-127-88.5-254.1,0-1.6,1.1-2.9,2.7-3s2.9,1.1,3,2.7c0,0,0,0,0,0,6.1,125.6,86.7,250.1,87.5,251.3.9,1.3.5,3.1-.8,3.9-.5.3-1,.5-1.5.5Z"/>
      <path class="cls-1" d="M339.3,920.1c-.7,0-1.4-.3-2-.8-43.3-41.4-84-94.2-114.4-148.6-35.9-64.1-56.1-127.9-58.4-184.6-1.7-41.7,15.3-55.8,16-56.4,1.2-.9,3-.7,4,.5.9,1.2.7,2.9-.4,3.9-.3.2-15.5,13.4-13.9,51.8,2.3,55.8,22.3,118.7,57.7,182,30.2,53.9,70.5,106.2,113.4,147.3,1.1,1.1,1.2,2.9,0,4-.5.6-1.3.9-2,.9h0ZM445.9,750c-.2,0-.5,0-.7,0-31.2-8.4-52.5-26.1-64.9-39.5-14.5-15.6-25.1-34.3-28.3-50-8.1-40-57.3-147.5-143.5-140.3-1.6.1-2.9-1-3.1-2.6-.1-1.6,1-2.9,2.6-3.1,49.6-4.1,85.2,27.6,106.3,54.9,23.3,30.1,38.7,67.7,43.2,89.9,5.5,26.9,36.7,71.1,89.1,85.2,1.5.4,2.4,2,2,3.5-.3,1.2-1.5,2.1-2.7,2.1h0Z"/>
      <path class="cls-1" d="M327.1,866.3c-.8,0-1.6-.4-2.2-1-59.7-69.8-138.6-213-126.2-278.8,2.7-14.1,9.4-24.2,20-29.9,13.2-7.1,30.4-5.2,48.3,5.3,15.2,8.9,29.5,23.1,38.3,37.9,14.6,24.7,20,43.7,24.8,60.5,5.7,20,10.6,37.3,29.2,59.4,1,1.2.8,3-.4,4-1.2,1-3,.8-4-.4h0c-19.3-23.1-24.6-41.7-30.3-61.5-4.7-16.4-10-35.1-24.2-59.1-8.2-13.9-22.1-27.6-36.3-35.9-16.2-9.4-31.4-11.3-42.8-5.2-9.1,4.9-14.8,13.6-17.2,26-5.4,28.5,7.5,76.6,36.1,135.3,24.6,50.4,58.6,103.5,88.8,138.8,1,1.2.9,3-.3,4-.5.4-1.2.7-1.8.7Z"/>
      <path class="cls-1" d="M409.6,809.6c-.6,0-1.1-.2-1.6-.5-66.1-45.8-84.2-81.2-97.3-107.1-11.3-22.2-14.9-36.2-18.4-49.8-1.7-6.5-3.3-12.7-5.7-19.7-5.3-15.7-15.4-27.2-27.5-31.6-6.8-2.4-13.4-2.3-17.8.4-4.2,2.6-10.3,11.1-4.2,39.3,6,28.1,22.3,67.3,48.5,116.5.7,1.4.2,3.1-1.2,3.8-1.4.7-3,.2-3.8-1.2-48.2-90.7-63.6-150.2-42.2-163.2,5.8-3.6,14.3-3.9,22.7-.8,13.8,5,25.1,17.8,31,35.1,2.5,7.3,4.1,13.8,5.8,20.1,3.4,13.3,7,27.1,18,48.7,12.9,25.3,30.5,60,95.5,105,1.3.9,1.6,2.7.7,3.9-.5.8-1.4,1.2-2.3,1.2h0Z"/>
      <path class="cls-1" d="M412.6,855.4c-.5,0-1-.1-1.5-.4-.7-.4-67.8-42.8-100.5-96.5-22.7-37.2-35.3-69.4-42-89.8-7.2-22.2-9.1-35.5-9.1-36-.2-1.5.9-3,2.4-3.2,1.5-.2,3,.9,3.2,2.4,0,.5,7.6,53.5,50.3,123.6,32,52.5,98,94.2,98.6,94.6,1.3.8,1.7,2.6.9,3.9-.5.8-1.4,1.3-2.4,1.3h0ZM405.3,898.4c-.6,0-1.2-.2-1.8-.6-.2-.2-23-18.2-47.6-41.1-33.2-31-53.8-55.7-61.2-73.5-.6-1.4,0-3.1,1.5-3.7,1.4-.6,3.1,0,3.7,1.5,0,0,0,0,0,0,16.9,40.9,106.2,111.7,107.1,112.4,1.2,1,1.4,2.7.5,4-.5.7-1.4,1.1-2.2,1.1h0Z"/>
    </g>
  </g>
  <g>
    <g>
      <path class="cls-2" d="M1280.8,1422.1l-213.1-39.2,11.3-455.9s8.1-49.9,73.4-55.2c71.1-5.8,130.8,17,130.8,88.3l-2.4,462Z"/>
      <path class="cls-2" d="M1280.8,1422.9c0,0-.1,0-.2,0l-213.1-39.2c-.4,0-.7-.4-.7-.9l11.3-455.9s0,0,0-.1c0-.5,2.2-12.8,12.4-26,9.4-12.1,27.8-27.1,61.8-29.9,47.4-3.8,84.3,5.1,106.8,25.8,16.5,15.2,24.9,36.5,24.9,63.3l-2.4,462c0,.5-.4.8-.8.8h0ZM1068.5,1382.1l211.4,38.9,2.3-460.9c0-26.3-8.2-47.2-24.3-62.1-22.1-20.4-58.6-29.2-105.5-25.4-33.4,2.7-51.4,17.4-60.6,29.2-9.6,12.4-11.9,24.3-12.1,25.2l-11.2,455.1Z"/>
      <path class="cls-1" d="M1392.5,1466.1c0-89.3-51.1-164.4-135.7-213.4l-162.4-80.2s-115.3-29-185,18.1c-23.1,15.6-60.7,40.1-60.7,93.4v154.6c0,13.4,7.4,25.7,19.2,32l305.9,172s24.9,14,53.2,29.9c34.1,19.2,70.4,28.1,108.9,18.5,29.9-7.5,56.6-32.5,56.6-57.7v-167.1h0Z"/>
      <path class="cls-2" d="M1304.3,1695.7c-25.3,0-50.9-7.5-77.7-22.5-27.9-15.7-52.9-29.7-53.2-29.9l-305.9-172c-12.1-6.5-19.6-19.1-19.6-32.8v-154.6c0-52.9,36.1-77.2,59.9-93.4l1.1-.8c20-13.5,56.8-29.1,119.1-26.9,37.2,1.4,66.2,8.6,66.5,8.6,0,0,.1,0,.2,0l162.4,80.2c42.9,24.9,76.5,55.8,99.9,91.9,24.1,37.2,36.2,78.3,36.2,122.3v167.1c0,12.2-6.2,25-17.4,36.1-10.7,10.6-25.2,18.7-39.9,22.4-10.6,2.6-21.1,4-31.8,4h0ZM1016.1,1164.5c-54.7,0-87.7,14.3-106.2,26.8l-1.1.8c-23.6,15.9-59.2,40-59.2,92v154.6c0,13.1,7.2,25.1,18.7,31.3l305.9,172c.2.1,25.3,14.2,53.2,29.9,26.5,14.9,51.9,22.3,76.9,22.3,10.5,0,20.9-1.3,31.3-3.9,30.9-7.7,56-33.2,56-56.9v-167.1c0-43.7-12.1-84.5-36-121.4-23.2-35.9-56.6-66.6-99.3-91.3l-162.3-80.1c-1.8-.4-30.1-7.3-66.1-8.6-4-.1-7.9-.2-11.9-.2h0Z"/>
      <path class="cls-2" d="M1186.8,1650.7h0c-.5,0-.8-.4-.8-.9h0s2.8-176.3,2.8-176.3c0-.5.4-.8.9-.8s.8.4.8.9l-2.8,176.3c0,.5-.4.8-.8.8Z"/>
      <path class="cls-4" d="M1190.1,1256.4l3.9-113.6-171.1,63.2v67.4c0,13.9,6.2,27.1,17,35.8,20.5,16.4,57.9,36.2,103.3,14.2,37.3-18,46.2-46.5,46.9-67h0Z"/>
      <path class="cls-2" d="M1102.7,1334c-6.9,0-13.8-.8-20.7-2.5-14.8-3.6-29.2-10.9-42.7-21.7-11-8.8-17.3-22.1-17.3-36.4v-67.4c0-.4.2-.7.6-.8l171.1-63.2c.4-.2.9,0,1.1.5,0,.1,0,.2,0,.3l-3.9,113.6h-.8s.8,0,.8,0c-.7,20.8-9.5,49.5-47.4,67.8-13.5,6.5-27.2,9.8-40.9,9.8ZM1023.7,1206.6v66.8c0,13.8,6.1,26.6,16.7,35.1,13.3,10.6,27.4,17.8,42,21.3,20.1,4.9,40.5,2.5,60.4-7.2,37.1-17.9,45.7-45.9,46.4-66.3l3.8-112.3-169.4,62.5Z"/>
      <path class="cls-4" d="M935.1,931.5l-3.7,166.3c-1.1,51,26.8,98.3,72.1,121.9,73.7,38.5,166.4,7.8,195.7-70,0,0,19.7-72.3,26.8-89.8,10.6-26.1,1.2-249.6-199.5-224.2-55.5,7-91.4,95.8-91.4,95.8h0Z"/>
      <path class="cls-2" d="M1070.9,1237.1c-23.3,0-46.5-5.6-67.8-16.7-22.3-11.6-41-29.3-53.8-51-12.8-21.7-19.3-46.5-18.8-71.7l3.7-166.3c0-.1,0-.2,0-.3,0-.2,9.2-22.6,25-45.4,14.6-21.2,38.1-47.2,67.1-50.9,36.7-4.6,69.4-1.2,97.2,10.2,24,9.9,44.6,25.8,61.1,47.3,25.8,33.5,36.7,73.4,41.3,100.9,5.6,33.5,3.8,59.2.7,66.8-7,17.3-26.6,89-26.8,89.7-13.6,36.2-41.3,63.8-77.9,77.8-16.5,6.3-33.9,9.4-51.3,9.4h0ZM936,931.7l-3.7,166.1c-.6,24.9,5.9,49.4,18.5,70.8,12.7,21.4,31.1,38.9,53.1,50.4,36.6,19.1,79.5,21.7,117.6,7.2,36.1-13.8,63.4-41.1,76.9-76.7.2-.6,19.8-72.4,26.8-89.9,2.9-7.2,4.7-33.1-.8-65.9-4.6-27.4-15.4-67-41-100.2-16.4-21.3-36.7-37-60.5-46.8-27.5-11.3-59.9-14.7-96.3-10.1-28.3,3.6-51.5,29.3-65.9,50.2-15,21.8-24,43.1-24.8,45Z"/>
      <path class="cls-2" d="M1283.1,952.2c0-66-52.1-130.2-141.6-148.5-4.8-1.1-9.8-2.1-15-3-34.9-5.8-113.6-2.7-154.6,36.3-43.2,41.2-36.9,96.3-36.9,96.3,0,0,12.5,15.2,47.5-2.8,43-22.1,57.3-38.5,57.3-38.5,0,0,5.7,30.8,35.9,67.4,37.5,45.5,95.4,72.7,95.4,72.7,0,0-.8,21.9-1,42.7-.3,35.3,10.5,30.5,10.5,30.5l13.2,40.7v16.6"/>
      <path class="cls-2" d="M1193.8,1163.4h0c-.5,0-.8-.4-.8-.9h0s.1-16.5.1-16.5l-13-39.8c-.9.1-2.2,0-3.7-.9-4.8-3.1-7.2-13.7-7-30.6.2-18.8.8-38.6,1-42.1-5.8-2.8-59.8-29.8-95.2-72.7-15.7-19-24.7-36.4-29.4-47.7-3.9-9.1-5.6-15.7-6.3-18.5-6.3,6.5-24.5,21.1-56.4,37.5-35.2,18.1-48,3.2-48.5,2.6-.1-.1-.2-.3-.2-.4,0-.1-1.5-14.1,2.3-32.9,3.5-17.4,12.4-42.6,34.9-64,22.8-21.8,56.1-31.2,80-35.2,30.5-5.1,58.9-4.1,75.3-1.3,4.8.8,9.8,1.8,15.1,3,42.8,8.7,79,28.3,104.8,56.6,24.2,26.5,37.5,59.5,37.4,92.7,0,.5-.4.8-.8.8h0c-.5,0-.8-.4-.8-.8h0c0-32.8-13.1-65.4-37-91.6-25.5-28-61.4-47.4-103.9-56-5.3-1.2-10.2-2.2-15-3-32.3-5.3-112.3-3.5-153.9,36.1-40.8,39-37,91.1-36.6,95.3,1.6,1.6,14.5,13.2,46.3-3.2,42.3-21.7,56.9-38.1,57-38.3.3-.4.8-.4,1.2,0,.1.1.2.3.3.5,0,.3,6,31,35.8,67,37,44.8,94.6,72.2,95.1,72.4.3.1.5.5.5.8,0,.2-.8,22.1-1,42.7-.2,21.6,3.8,27.5,6.2,29.1,1.7,1.1,3,.6,3.1.5.2,0,.5,0,.7,0,.2,0,.4.3.5.5l13.2,40.7c0,0,0,.2,0,.3v16.6c-.1.5-.5.8-1,.8h0Z"/>
      <path class="cls-4" d="M1022.9,1114.5c-3.9,2.6-8.5,3.9-13.2,3.9-13.4,0-24.2-10.8-24.2-24.2s10.8-24.2,24.2-24.2"/>
      <path class="cls-2" d="M1009.7,1119.2c-13.8,0-25.1-11.2-25.1-25s11.2-25,25.1-25,.8.4.8.8-.4.8-.8.8c-12.9,0-23.4,10.5-23.4,23.4s10.5,23.4,23.4,23.4c4.5,0,9-1.3,12.7-3.8.4-.3.9-.1,1.2.2.3.4.1.9-.2,1.2h0c-4.1,2.6-8.8,4.1-13.7,4.1h0Z"/>
      <ellipse class="cls-2" cx="978.7" cy="1041.6" rx="6.8" ry="18.2"/>
      <path class="cls-2" d="M978.7,1060.7c-4.3,0-7.6-8.2-7.6-19.1s3.3-19.1,7.6-19.1,7.6,8.2,7.6,19.1-3.3,19.1-7.6,19.1h0ZM978.7,1024.2c-2.8,0-5.9,7.1-5.9,17.4s3.1,17.4,5.9,17.4,5.9-7.1,5.9-17.4-3.1-17.4-5.9-17.4Z"/>
      <ellipse class="cls-2" cx="1066.9" cy="1078.1" rx="6.8" ry="18.2"/>
      <path class="cls-2" d="M1066.9,1097.2c-4.3,0-7.6-8.2-7.6-19.1s3.3-19.1,7.6-19.1,7.6,8.2,7.6,19.1-3.3,19.1-7.6,19.1ZM1066.9,1060.7c-2.8,0-5.9,7.1-5.9,17.4s3.1,17.4,5.9,17.4,5.9-7.1,5.9-17.4-3.1-17.4-5.9-17.4Z"/>
      <path class="cls-4" d="M958.1,1002.9s26.2-14.8,49.7,15.3"/>
      <path class="cls-2" d="M1007.7,1019.1c-.3,0-.5-.1-.7-.3-9.4-12.1-20.8-18.5-32.9-18.6-9.2-.1-15.6,3.5-15.7,3.5-.4.2-.9,0-1.1-.4-.2-.4,0-.9.3-1.1.3-.2,27.1-14.8,50.8,15.5.3.4.2.9-.1,1.2-.1.1-.3.2-.5.2Z"/>
      <path class="cls-4" d="M1056.1,1035.8s26.2-14.8,49.7,15.3"/>
      <path class="cls-2" d="M1105.8,1051.9c-.3,0-.5-.1-.7-.3-9.4-12.1-20.8-18.5-32.9-18.6-.1,0-.2,0-.3,0-9,0-15.3,3.5-15.3,3.5-.4.2-.9,0-1.1-.4-.2-.4,0-.9.3-1.1.3-.2,27.1-14.8,50.8,15.5.3.4.2.9-.1,1.2-.1.1-.3.2-.5.2h0Z"/>
      <path class="cls-4" d="M1180.1,1109.4c3.9-33.3,24.6-44.2,43.2-39.6,18.6,4.5,27.5,26.3,23.6,49.3-4.9,28.7-39.1,49.8-58.8,41.3"/>
      <path class="cls-2" d="M1198.1,1163.2c-3.7,0-7.2-.7-10.3-2-.4-.2-.6-.7-.4-1.1.2-.4.7-.6,1.1-.4,8,3.5,18.7,2.1,29.5-3.8,14.8-8,25.6-22.2,28.1-36.9,4-23.8-5.6-44.2-22.9-48.4-8.9-2.2-17.7-.6-24.9,4.4-9.4,6.6-15.4,18.5-17.3,34.6,0,.5-.5.8-.9.8-.5,0-.8-.5-.8-.9,0,0,0,0,0,0,2.4-20.9,11.1-31,18-35.8,7.6-5.3,16.9-6.9,26.2-4.6,18.2,4.4,28.4,25.6,24.2,50.3-2.6,15.2-13.7,29.8-29,38.1-7.1,3.9-14.3,5.8-20.7,5.8h0ZM909.5,1493.8h0c-.5,0-.8-.4-.8-.9,0,0,0,0,0,0l2.6-163.2c0-.5.4-.8.9-.8s.8.4.8.9l-2.6,163.2c0,.5-.4.8-.8.8Z"/>
      <path class="cls-4" d="M980.3,1148c8.2,11.5,29.4,26.8,54.9,20.6"/>
      <path class="cls-2" d="M1023.4,1170.9c-20.3,0-36.8-12.4-43.8-22.4-.3-.4-.2-.9.2-1.2.4-.3.9-.2,1.2.2h0c8.1,11.5,29.3,26.3,54,20.2.5-.1.9.2,1,.6.1.5-.2.9-.6,1,0,0,0,0,0,0-3.9,1-8,1.5-12,1.5h0Z"/>
    </g>
    <g>
      <path class="cls-3" d="M920.7,1241.8c-.7,0-1.5-.2-2.1-.6l-17.4-10.1c-31.7-18.4-51.5-52.5-51.6-89.1v-30.6c-.1-2.3,1.8-4.2,4.1-4.3h0c2.3,0,4.2,1.9,4.2,4.2v30.6c.2,33.6,18.3,64.9,47.4,81.8l17.4,10.1c2,1.2,2.7,3.8,1.5,5.8-.8,1.3-2.2,2.1-3.7,2.1Z"/>
      <path class="cls-2" d="M920.7,1242.6c-.9,0-1.8-.2-2.6-.7l-17.4-10.1c-32-18.5-51.9-52.9-52-89.8v-30.6c-.1-2.8,2.2-5.1,5-5.1,2.8,0,5.1,2.3,5.1,5.1v30.6c.2,33.3,18.2,64.4,47,81.1l17.4,10.1c1.2.7,2,1.8,2.4,3.1s.2,2.7-.5,3.9c-.9,1.6-2.6,2.5-4.4,2.5h0ZM853.8,1108c-1.9,0-3.4,1.5-3.4,3.4v30.6c.2,36.3,19.8,70.2,51.2,88.4l17.4,10.1c.5.3,1.1.5,1.7.5,1.2,0,2.3-.6,2.9-1.7.5-.8.6-1.7.3-2.6-.2-.9-.8-1.6-1.6-2.1l-17.4-10.1c-29.4-17-47.7-48.6-47.7-82.5v-30.6c-.1-1.9-1.6-3.4-3.5-3.4h0Z"/>
      <path class="cls-3" d="M1184.2,1391.2c-5.5,0-10.9-1.4-15.9-4.3l-37.7-21.8c-2-1.2-2.7-3.8-1.5-5.8,1.2-2,3.7-2.6,5.7-1.5l37.7,21.8c7.2,4.2,15.9,4.2,23.2,0,7.3-4.2,11.6-11.6,11.6-20v-54.1c0-2.3,2-4.2,4.3-4.2h0c2.3,0,4.2,1.9,4.2,4.2v54.1c-.1,11.4-6,21.7-16,27.3-4.9,2.8-10.4,4.3-15.8,4.3h0Z"/>
      <path class="cls-2" d="M1184.2,1392c-5.7,0-11.3-1.5-16.3-4.4l-37.7-21.8c-1.2-.7-2-1.8-2.4-3.1s-.2-2.7.5-3.9c1.4-2.4,4.5-3.3,7-1.8l37.7,21.8c7,4,15.3,4.1,22.3,0,7-4,11.2-11.2,11.2-19.3v-54.1c.1-2.8,2.4-5.1,5.2-5.1,2.8,0,5.1,2.3,5.1,5.1v54.1c-.1,11.7-6.2,22.2-16.4,28.1-5,2.9-10.6,4.4-16.2,4.4h0ZM1132.8,1358c-1.2,0-2.3.6-2.9,1.7-.5.8-.6,1.7-.3,2.6.2.9.8,1.6,1.6,2.1l37.7,21.8c4.7,2.8,10.1,4.2,15.5,4.2s10.6-1.4,15.4-4.1c9.7-5.5,15.4-15.5,15.5-26.6v-54.1c0-1.9-1.4-3.4-3.3-3.4-1.9,0-3.4,1.5-3.4,3.4v54.1c-.1,8.7-4.6,16.4-12.1,20.7-7.5,4.3-16.5,4.3-24,0l-37.7-21.8c-.5-.3-1.1-.5-1.7-.5h0Z"/>
      <path class="cls-3" d="M1212.6,965.2c-2.3,0-4.2-1.9-4.2-4.2v-25.1c0-34.8-18.8-67.1-49.1-84.2l-28.6-16.1c-2-1.2-2.8-3.7-1.6-5.8,1.2-2,3.7-2.8,5.8-1.6h0l28.6,16.1c33,18.6,53.5,53.7,53.4,91.6v25.1c0,2.3-1.9,4.2-4.2,4.2h0Z"/>
      <path class="cls-2" d="M1212.6,966c-2.8,0-5.1-2.3-5.1-5.1v-25.1c0-34.5-18.6-66.5-48.7-83.4l-28.6-16.1c-2.4-1.4-3.3-4.5-1.9-6.9,1.4-2.4,4.5-3.3,6.9-1.9l28.6,16.1c33.3,18.8,53.9,54.1,53.9,92.3v25.1c0,2.8-2.3,5.1-5.1,5.1h0ZM1132.8,828.5c-1.2,0-2.4.7-3,1.7-.9,1.6-.3,3.7,1.3,4.6l28.6,16.1c30.6,17.3,49.6,49.8,49.5,84.9v25.1c0,1.9,1.5,3.4,3.4,3.4s3.4-1.5,3.4-3.4v-25.1c0-37.6-20.2-72.4-53-90.8l-28.6-16.1c-.5-.3-1.1-.4-1.7-.4Z"/>
      <path class="cls-3" d="M852.2,774.8h0c-2.3,0-4.2-1.9-4.2-4.2h0v-50.1c-.4-11.6,5.1-22.1,14.9-28.1,9.8-6,22.2-6.3,32.2-.6l16.9,9.5c2,1.2,2.7,3.8,1.6,5.8-1.2,2-3.7,2.7-5.8,1.6l-16.9-9.5c-7.3-4.1-16.4-4-23.6.5-7.1,4.4-11.2,12-10.8,20.5,0,0,0,.1,0,.2v50.2c0,2.3-1.9,4.2-4.3,4.2h0Z"/>
      <path class="cls-2" d="M852.2,775.6h0c-1.4,0-2.6-.5-3.6-1.5-1-1-1.5-2.2-1.5-3.6v-50.1c-.5-11.9,5.2-22.6,15.3-28.8,10.1-6.2,22.8-6.4,33.1-.6l16.9,9.5c1.2.7,2,1.8,2.4,3.1s.2,2.7-.5,3.9-1.8,2-3.1,2.4c-1.3.4-2.7.2-3.9-.5l-16.9-9.5c-7.1-4-15.8-3.8-22.7.4-6.9,4.2-10.7,11.6-10.4,19.8,0,0,0,.2,0,.2v50.2c0,2.8-2.3,5.1-5.1,5.1h0ZM879.5,688.5c-5.6,0-11.2,1.5-16.2,4.6-9.5,5.8-14.9,16-14.4,27.3v50.1c0,.9.3,1.8,1,2.4s1.5,1,2.4,1v.8s0-.8,0-.8c1.9,0,3.4-1.5,3.4-3.4v-50.2s0-.1,0-.1c-.4-8.8,3.8-16.8,11.2-21.3,7.5-4.6,16.8-4.8,24.4-.5l16.9,9.5c.8.4,1.7.6,2.6.3.9-.2,1.6-.8,2-1.6.9-1.6.3-3.7-1.3-4.6l-16.9-9.5c-4.6-2.6-9.8-4-15.1-4Z"/>
    </g>
  </g>
  <g>
    <ellipse class="cls-1" cx="1059.2" cy="2052.6" rx="136.8" ry="237.9" transform="translate(-885.3 806.1) rotate(-30)"/>
    <path class="cls-2" d="M1135.1,2271.1c-63.5,0-142.8-58-195.7-149.4-66.1-114.3-66.1-238.3,0-276.4,66.1-38.1,173.6,23.9,239.6,138.2,31.9,55.3,49.6,114.4,49.7,166.4.1,52.4-17.5,91.4-49.7,110-13.2,7.6-28.1,11.2-43.9,11.2h0ZM983.6,1837c-15.4,0-29.8,3.5-42.6,10.9-64.6,37.3-64.1,159.4,1.1,272.3,65.2,112.9,170.9,174.4,235.5,137.1,31.2-18,48.3-56.1,48.2-107.4-.1-51.6-17.6-110.1-49.3-164.9-52.3-90.5-130.6-148-192.9-148Z"/>
    <path class="cls-4" d="M1053.4,2132.5c-5.6,0-10.8-3.1-13.4-8.1l-76.4-148.2c-3.8-7.4-.9-16.4,6.5-20.2,7.4-3.8,16.5-.9,20.3,6.5l68.3,132.5,80.9-59.5c6.7-4.9,16.1-3.5,21,3.2,4.9,6.7,3.5,16.1-3.2,21l-95.1,70c-2.6,1.9-5.7,2.9-8.9,2.9h0Z"/>
    <path class="cls-4" d="M1134.8,2277.3c-24.4,0-51.2-8.1-79-24.2-46-26.6-89.2-72.2-121.6-128.4-32.4-56.1-50.4-116.3-50.5-169.4-.1-54.6,18.6-95.5,52.7-115.2,34.1-19.7,78.9-15.4,126.2,12,46,26.6,89.2,72.2,121.6,128.4s50.4,116.3,50.5,169.4c.1,54.6-18.6,95.5-52.7,115.2-14.1,8.1-30,12.2-47.2,12.2h0ZM983.7,1842.9c-14.6,0-28,3.4-39.8,10.1-29.2,16.9-45.3,53.1-45.2,102.2,0,50.5,17.3,108,48.5,162,31.2,53.9,72.4,97.6,116.1,122.9,42.4,24.6,81.9,28.9,111.1,12,29.2-16.9,45.3-53.1,45.2-102.2,0-50.5-17.3-108-48.5-162s-72.4-97.6-116.1-122.9c-25.4-14.7-49.7-22.1-71.4-22.1h0Z"/>
    <path class="cls-2" d="M1134.8,2278.8c-25,0-51.8-8.2-79.7-24.4-46.2-26.8-89.6-72.6-122.2-128.9-32.6-56.4-50.6-116.8-50.7-170.2-.1-55.2,18.9-96.6,53.4-116.5,34.6-19.9,79.9-15.7,127.7,12,46.2,26.8,89.6,72.6,122.2,128.9,32.6,56.4,50.6,116.8,50.7,170.2.1,55.2-18.9,96.6-53.4,116.5-14.2,8.2-30.4,12.4-48,12.4ZM983.7,1829.4c-16.9,0-32.6,4-46.5,12-33.6,19.4-52,59.8-51.9,113.9.1,52.9,18,112.8,50.3,168.7,32.3,55.9,75.3,101.3,121.1,127.8,27.5,15.9,53.8,24,78.2,24s32.7-4,46.5-12c33.6-19.4,52-59.8,51.9-113.9-.1-52.9-18-112.8-50.3-168.7-32.3-55.9-75.3-101.3-121.1-127.8-27.5-15.9-54.1-24-78.2-24ZM1134.8,2263.7c-22,0-46.5-7.5-72.1-22.3-44-25.5-85.4-69.3-116.7-123.5-31.3-54.1-48.6-111.9-48.7-162.7,0-49.6,16.2-86.3,45.9-103.5,11.9-6.9,25.5-10.3,40.5-10.3,22.3,0,46.5,7.5,72.1,22.3,44,25.5,85.4,69.3,116.7,123.5s48.6,111.9,48.7,162.7c0,49.6-16.2,86.3-45.9,103.5-12,6.9-25.6,10.3-40.5,10.3h0ZM983.7,1844.4c-14.4,0-27.6,3.3-39,9.9-28.7,16.6-44.5,52.4-44.4,100.9,0,50.3,17.2,107.5,48.3,161.2,31,53.7,72.1,97.1,115.6,122.4,42,24.3,80.9,28.6,109.6,12,28.7-16.6,44.5-52.4,44.4-100.9,0-50.3-17.2-107.5-48.3-161.2-31-53.7-72.1-97.1-115.6-122.4-25.1-14.6-48.9-21.9-70.6-21.9h0Z"/>
  </g>
  <g>
    <path class="cls-2" d="M558.2,1712.6l-2.5,278.6c0,8.8-5.5,15.2-12.1,19.2-4.6,2.7-18.1,10.8-23.1,13.7,5.6-3.7,9.4-10.1,9.5-17.7l2.5-278.6,25.6-15.2Z"/>
    <path class="cls-2" d="M520.5,2025.5c-.8,0-1.4-.6-1.4-1.4,0-.5.2-.9.6-1.2,5.6-3.8,8.8-9.8,8.9-16.5l2.5-278.6c0-.5.3-1,.7-1.2l25.6-15.2c.7-.4,1.5-.2,1.9.5.1.2.2.5.2.7l-2.5,278.6c0,8.2-4.6,15.5-12.8,20.4-3.6,2.2-12.8,7.6-18.9,11.3l-4.2,2.5c-.2.1-.5.2-.7.2h0ZM534,1728.7l-2.5,277.8c0,4.1-1.1,8-3.1,11.4,5.5-3.3,11.7-7,14.5-8.6,4.2-2.5,11.3-8.3,11.4-18l2.5-276.1-22.8,13.5Z"/>
    <path class="cls-4" d="M532.5,1727.8c.2-21.9-11.3-42.2-30.1-53.2l-429.5-252.9c-9.8-5.7-20.8-5.3-29.6-.8,5.3-3.1,16.7-9.9,23.2-13.8,9.3-5.5,21.3-6.9,32-.6l429.5,252.9c18.8,11.1,30.3,31.4,30.1,53.2l-25.6,15.2Z"/>
    <path class="cls-2" d="M532.5,1729.3c-.8,0-1.4-.6-1.4-1.4,0,0,0,0,0,0,.2-21.3-11.1-41.2-29.4-52l-429.5-252.9c-8.7-5.1-19.3-5.4-28.2-.7-.7.4-1.5,0-1.9-.6-.3-.7-.1-1.5.5-1.9,5.3-3.1,16.7-9.9,23.2-13.8,10.8-6.4,23.3-6.6,33.5-.6l429.5,252.9c19.2,11.3,31,32.1,30.8,54.4,0,.5-.3,1-.7,1.2l-25.6,15.2c-.2.1-.5.2-.7.2h0ZM57.5,1416c5.7,0,11.3,1.5,16.2,4.4l429.5,252.9c18.4,10.9,30.1,30.6,30.7,52l22.8-13.5c0-21-11.3-40.5-29.4-51.2l-429.5-252.9c-9.3-5.5-20.7-5.2-30.6.6-3.5,2.1-8.5,5.1-13.2,7.9,1.1-.1,2.3-.2,3.4-.2Z"/>
    <path class="cls-4" d="M497.9,2024.9l-434.4-250.4c-22.7-13.1-36.7-37.3-36.7-63.6v-262.7c0-23.7,25.7-38.5,46.1-26.5l429.5,252.9c18.8,11.1,30.3,31.4,30.1,53.2l-2.5,278.6c-.1,16.5-17.9,26.7-32.1,18.5h0Z"/>
    <path class="cls-2" d="M508.6,2029.2c-3.9,0-7.8-1-11.4-3.1l-434.4-250.4c-23.1-13.3-37.4-38.1-37.4-64.8v-262.7c0-11.7,6-22.1,16.1-27.9,10.1-5.8,22.1-5.7,32.1.2l429.5,252.9c19.2,11.3,31,32.2,30.8,54.5l-2.5,278.6c0,8.2-4.4,15.6-11.5,19.7-3.6,2-7.5,3.1-11.4,3.1ZM498.6,2023.6c6.2,3.6,13.7,3.6,19.9,0s10-10,10.1-17.3l2.5-278.6c.2-21.3-11.1-41.2-29.4-52l-429.5-252.9c-9.1-5.4-20.1-5.4-29.3-.2s-14.7,14.8-14.7,25.4v262.7c0,25.7,13.8,49.6,36,62.4l434.4,250.4ZM562,1614c-.5,0-1-.1-1.5-.4l-418.6-252.3c-1.3-.8-1.7-2.6-.9-3.9.8-1.3,2.5-1.7,3.8-1l417.4,251.6,402.5-171.1c1.4-.6,3.1,0,3.7,1.5.6,1.4,0,3.1-1.5,3.7h0l-403.8,171.6c-.3.1-.7.2-1.1.2Z"/>
    <path class="cls-1" d="M452.7,1778.1c-.5,0-1-.1-1.4-.4l-355.6-209.4c-1.4-.8-1.8-2.5-1-3.9.8-1.4,2.5-1.8,3.9-1,0,0,0,0,0,0l355.6,209.4c1.3.8,1.8,2.5,1,3.9-.5.9-1.4,1.4-2.4,1.4ZM449.9,1880.1c-.5,0-1-.1-1.4-.4l-99.7-58.7c-1.4-.8-1.8-2.5-1-3.9.8-1.4,2.5-1.8,3.9-1,0,0,0,0,0,0l99.7,58.7c1.3.8,1.8,2.5,1,3.9-.5.9-1.4,1.4-2.4,1.4ZM288.4,1785c-.5,0-1-.1-1.4-.4l-194.2-114.3c-1.4-.8-1.8-2.5-1-3.9.8-1.4,2.5-1.8,3.9-1,0,0,0,0,0,0l194.2,114.3c1.3.8,1.8,2.5,1,3.9-.5.9-1.4,1.4-2.4,1.4h0Z"/>
  </g>
</svg>