tr<?xml version="1.0" encoding="UTF-8"?>
<svg xmlns="http://www.w3.org/2000/svg" version="1.1" viewBox="0 0 1693 2594.7">
  <defs>
    <style>
      .cls-1, .cls-2, .cls-3, .cls-4 {
        stroke-width: 0px;
      }

      .cls-1, .cls-3 {
        fill: #1d88fe;
        mix-blend-mode: multiply;
      }

      .cls-2 {
        fill: #000;
      }

      .cls-3 {
        opacity: .6;
      }

      .cls-5 {
        isolation: isolate;
      }

      .cls-4 {
        fill: #fff;
      }
    </style>
  </defs>
  <g class="cls-5">
    <g id="Layer_1" data-name="Layer 1">
      <g>
        <g>
          <path class="cls-2" d="M1348.6,486.5c27.1,45.7,41,99,40.9,154.1l-6,1767.5c0,28.1-13.8,51.4-33.8,65.7-19.2,13.7-86.6,51.2-114.5,66.6-.2.1-.4.3-.6.4,21.5-14.1,36.5-38.2,36.5-67.5l3-1767.1c.1-57.8-16.6-114.4-48.1-162.8l122.7-56.9h0Z"/>
          <path class="cls-2" d="M1234.5,2542.6c-1,0-1.8-.8-1.8-1.8,0-.6.3-1.2.8-1.5l.3-.2.3-.2c22.3-14.9,35.1-38.7,35.1-65.6l3-1767.1c0-57.6-16.4-113.5-47.8-161.8-.6-.9-.3-2,.5-2.5,0,0,.1,0,.2-.1l122.7-56.9c.9-.4,1.9,0,2.3.7,27,45.5,41.2,99.1,41.1,155l-6,1767.5c0,27-12.6,51.5-34.5,67.1-19.1,13.7-86.5,51.2-114.7,66.7l-.2.2c-.1,0-.2.2-.4.2-.3.2-.6.3-1,.3h0ZM1228.6,544.1c31,48.5,47.4,104.5,47.3,162l-3,1767.1c0,21.6-7.9,41.3-22.2,56.4,32.3-18,82-46.1,97.9-57.4,20.9-14.9,33-38.3,33-64.2l6-1767.5c0-54.7-13.7-107.1-39.8-151.7l-119.3,55.3h0Z"/>
          <path class="cls-4" d="M1225.9,543.3c-26.1-40.1-61.4-73.4-103.1-96.9L528,110.3c-26.4-14.9-56.6-13.1-80,.3,12.3-7.3,92.7-55.3,117.5-68.1,23.7-12.2,52.9-13.6,78.1.7l591.7,338c49.6,24.9,87.5,61.6,113.4,105.2l-122.7,56.9h0Z"/>
          <path class="cls-2" d="M1225.9,545.2c-.6,0-1.2-.3-1.5-.8-25.8-39.7-61.2-73-102.5-96.3L527.1,111.9c-24.5-13.8-53.7-13.7-78.2.3-.9.5-2,.2-2.5-.7-.5-.9-.2-1.9.6-2.5,9.4-5.6,92.2-55,117.6-68.1,25.8-13.3,55.6-13,79.8.7l591.7,338c47.7,24,87.2,60.6,114,105.9.5.9.2,2-.6,2.5,0,0-.1,0-.2,0l-122.7,56.9c-.2.1-.5.2-.8.2h0ZM488.2,97.9c14,0,27.9,3.6,40.6,10.8l594.8,336.1c41.3,23.3,76.8,56.6,102.9,96.2l119.4-55.4c-26.5-43.8-65-79.4-111.6-102.8L642.6,44.8c-23.2-13.1-51.7-13.3-76.3-.6-18.7,9.6-68.8,39.1-97.4,56.1,6.3-1.6,12.9-2.3,19.4-2.3h0Z"/>
          <path class="cls-3" d="M1078.9,2443.3l-591.1-343.3c-90-52.3-145.5-148.5-145.8-252.6l-4.8-1763.2c-2.9-65.2,66.3-103.9,120-73.6l594.8,336.1c93.6,52.9,151.4,152.2,151.2,259.7l-3,1767.1c-.1,62.3-67.6,101.1-121.4,69.8h0Z"/>
          <path class="cls-2" d="M1190.2,2555.9c-14.3,0-28.5-3.8-41.5-11.3l-591.1-343.3c-90.2-52.4-146.4-149.8-146.7-254.2l-4.8-1763.2c-1.3-30.4,13.1-57.9,38.6-73.5,25.7-15.8,57.9-16.4,84.1-1.6l594.8,336.1c94,53.1,152.3,153.3,152.1,261.3l-3,1767.1c0,29.9-15.6,56.7-41.5,71.6-12.9,7.4-27,11.1-41.2,11.1h0ZM488.3,101.7c-14.7,0-29.1,4.1-41.6,11.8-24.4,15-38.2,41.3-36.9,70.3l4.8,1763.3c.3,103.1,55.8,199.3,144.9,251l591.1,343.3c24.7,14.3,54.2,14.4,79,.2,24.8-14.2,39.6-39.8,39.6-68.4l3-1767.1c.2-106.7-57.4-205.6-150.3-258.1L527.1,111.9c-11.8-6.7-25.2-10.2-38.8-10.2Z"/>
          <path class="cls-2" d="M906.2,494.9l-132.2-75.1c-16.9-9.6-26.6-26-31.5-44.7-7-27,13.4-39,26.5-31.6l139.4,79.2c17.2,9.8,27.8,28.1,27.6,47.9v7.2c-.2,15.2-16.6,24.6-29.8,17.1Z"/>
          <path class="cls-2" d="M916,499.4c-3.7,0-7.4-1-10.7-2.9l-132.2-75.1c-15.9-9-26.8-24.4-32.3-45.8-3.5-13.5-.6-25.4,7.8-31.8,6.4-4.9,14.7-5.6,21.3-1.8l139.4,79.2c17.8,10.1,28.7,29.1,28.5,49.5v7.2c-.1,7.8-4.2,14.8-11,18.7-3.3,1.9-7,2.9-10.9,2.9ZM907.1,493.3c5.6,3.2,12.3,3.2,18,0s9-9,9.1-15.5v-7.2c.2-19.1-10-36.8-26.6-46.3l-139.4-79.2c-5.3-3-12.1-2.4-17.3,1.6-3.4,2.6-11,10.7-6.5,28,5.3,20.4,15.6,35.1,30.6,43.6l132.2,75.1h0Z"/>
        </g>
        <g>
          <path class="cls-4" d="M1109.4,833.6l-569.9-324.2c-21.3-12-47.5-11.5-68.3,1.3-20.7,12.7-32.5,35-31.5,59.6l.6,896.2c.2,77.8,42.2,150.4,109.5,189.4l572.2,331.1c10.6,6.1,22.1,9.2,33.7,9.2s23-3,33.5-9c21.1-12.1,33.7-33.8,33.7-58.1v-900.8c.1-80.5-43.3-155.1-113.4-194.6h0Z"/>
          <path class="cls-2" d="M1155.7,1997.6c-12,0-23.9-3.2-34.4-9.4l-572.2-331.1c-67.7-39.3-110-112.4-110.2-190.7l-.6-896.2c-1-25.1,11-47.9,32.2-60.8,21.3-13.1,48.1-13.6,69.8-1.3l569.9,324.2c70.6,39.8,114.3,114.9,114.2,195.9v900.8c0,24.8-12.9,47-34.4,59.4-10.5,6-22.3,9.2-34.2,9.2h0ZM506.5,502.1c-12.2,0-24.2,3.4-34.6,9.8-20.3,12.4-31.8,34.3-30.8,58.4l.6,896.3c.2,77.3,41.9,149.4,108.8,188.2l572.2,331.1c10.1,5.9,21.6,9,33,9s22.7-3.1,32.8-8.9c20.6-11.9,33-33.1,33-56.9v-900.8c.1-80-43.1-154.1-112.7-193.4h0s-569.9-324.2-569.9-324.2c-9.9-5.6-21-8.5-32.3-8.5Z"/>
        </g>
        <g>
          <path class="cls-2" d="M608.6,1307.7v-421.3c0-71.1,62.6-134.7,128.7-128.7,167.9,15.3,305.3,234.5,305.3,403v388.4l-434-241.5Z"/>
          <path class="cls-2" d="M1042.6,1550.6c-.2,0-.5,0-.7-.2l-434-241.5c-.4-.2-.7-.7-.7-1.2v-421.3c0-36.3,16.7-73.3,44.8-98.8,25.1-22.9,55.5-34,85.5-31.2,40.5,3.7,80.6,19.2,119.2,46,35.2,24.4,68.9,58.6,97.4,98.7,56.3,79.2,89.9,176.3,89.9,259.7v388.4c0,.8-.6,1.4-1.4,1.4h0ZM610,1306.9l431.2,239.9v-386c0-82.9-33.4-179.4-89.4-258.1-28.3-39.9-61.8-73.7-96.7-98-38.2-26.5-77.9-41.8-117.8-45.5-29.3-2.7-58.9,8.2-83.4,30.5-27.4,25-43.8,61.2-43.8,96.7v420.5h0Z"/>
          <path class="cls-2" d="M506.6,1491.9c-15.3-8.8-24.8-25.2-24.8-42.9,0-110.5,120.6-178.8,215.4-122.1l257.1,153.7c117.9,70.5,202.1,191.4,222.7,324.6.8,5,1.2,10.9,1.5,17.2,1,25.5-26.6,42-48.7,29.3l-623.3-359.9Z"/>
          <path class="cls-2" d="M1146.2,1857.6c-5.8,0-11.6-1.5-17-4.6l-623.3-359.9c-15.7-9.1-25.5-26-25.5-44.1,0-52.4,27.2-99.1,72.9-125,45.6-25.8,99.7-25.2,144.7,1.7l257.1,153.7c119.3,71.4,202.8,193.1,223.4,325.6.7,4.7,1.2,10.5,1.5,17.3.5,12.5-5.6,23.8-16.3,30.2-5.5,3.3-11.5,5-17.5,5ZM507.4,1490.6l623.3,359.9c10,5.7,21.8,5.6,31.6-.3,9.8-5.9,15.4-16.3,15-27.7-.3-6.7-.8-12.5-1.5-17-20.4-131.7-103.4-252.7-222-323.6l-257.1-153.7c-44.1-26.4-97.2-27-141.9-1.7-44.7,25.3-71.4,71.1-71.4,122.5s9.2,33.1,24,41.6Z"/>
          <path class="cls-4" d="M839,1523.8l-21.2-13.9c-46.4-30.6-74.4-82.4-74.4-138v-108.2h171.1v219.5c0,38.8-43.1,62-75.5,40.6Z"/>
          <path class="cls-2" d="M865.7,1533.4c-9.5,0-19-2.8-27.5-8.4l-21.2-13.9c-47-30.9-75-83-75-139.2v-108.2c0-.8.6-1.4,1.4-1.4h171.1c.8,0,1.4.6,1.4,1.4v219.5c0,18.7-9.9,35.2-26.3,44.1-7.6,4.1-15.7,6.1-23.8,6.1h0ZM839.8,1522.6c14.8,9.7,32.9,10.5,48.4,2.1,15.6-8.4,24.9-23.9,24.9-41.6v-218.1h-168.2v106.8c0,55.3,27.6,106.4,73.8,136.9l21.2,13.9Z"/>
          <path class="cls-4" d="M1059.1,1270.8c0,29.5-16,50.5-42.1,50.5s-47.3-32.1-47.3-71.7,35.4-60.9,35.4-60.9l9.8-12.3s44.3,17.5,44.3,94.4Z"/>
          <path class="cls-2" d="M1017,1322.6c-26.9,0-48.7-32.8-48.7-73.1s32.8-60,35.9-61.9l9.6-12.1c.4-.5,1-.7,1.6-.4.5.2,45.2,18.8,45.2,95.7s-17.5,51.9-43.6,51.9h0ZM1015.3,1178.1l-9.1,11.5c-.1.1-.2.2-.4.3-.3.2-34.7,21.4-34.7,59.7s20.6,70.3,45.9,70.3,40.7-19.3,40.7-49-3.8-52.2-21.7-75c-8.9-11.3-17.9-16.3-20.7-17.7Z"/>
          <path class="cls-4" d="M653.7,998.3s39.9,108.4,16.6,115.8-53.3-21-67-63.7-5.9-83.3,17.4-90.8c5.8-1.8,11.9-1.5,18.2.7,19,6.8,14.8,37.9,14.8,37.9Z"/>
          <path class="cls-2" d="M662.6,1116.7c-9.7,0-20.2-5-30.3-14.6-12.8-12.2-23.6-30.4-30.3-51.2-6.7-20.9-8.6-41.9-5.2-59.3,3.4-17.7,11.7-29.5,23.5-33.3,5.9-1.9,12.3-1.7,19.1.7,18.9,6.7,16.2,35.4,15.8,39.1,2.5,6.8,32.4,89.6,21.5,111.9-1.4,2.8-3.4,4.7-5.9,5.5-2.6.8-5.4,1.3-8.2,1.3h0ZM628.5,959.8c-2.5,0-4.9.4-7.3,1.1-10.8,3.4-18.4,14.5-21.6,31.1-3.2,16.9-1.4,37.5,5.1,57.9,6.6,20.4,17,38.2,29.5,50.1,12.3,11.7,24.9,16.2,35.7,12.7,1.8-.6,3.2-1.9,4.2-4,10.6-21.7-21.4-109.1-21.7-110,0-.2-.1-.4,0-.7,0-.3,3.8-30.1-13.9-36.4-3.4-1.2-6.8-1.8-10-1.8h0Z"/>
          <path class="cls-4" d="M1005,1188.7l-1.1,116.7c-.5,75.6-82.7,122.4-148.1,84.3l-18.2-10.6c-115.1-67.1-186.1-190.1-186.6-323.2v-75.3s79.5,7.5,104.1-1c61.5-21.2,74.4-76.8,74.4-76.8,0,0,16.7,81.3,57.9,148.6,23.6,38.5,117.6,137.3,117.6,137.3h0Z"/>
          <path class="cls-2" d="M905.4,1404.6c-17.3,0-34.6-4.6-50.3-13.8l-18.2-10.6c-56.7-33-104-80.5-136.8-137.3-32.8-56.8-50.2-121.5-50.5-187.1v-75.3c0-.8.6-1.4,1.4-1.4,0,0,0,0,.1,0,.8,0,79.5,7.4,103.5-.9,60-20.7,73.4-75.3,73.5-75.8.1-.6.7-1.1,1.4-1.1h0c.7,0,1.2.5,1.4,1.1.2.8,17.1,81.8,57.8,148.2,23.2,38,116.4,136.1,117.4,137,.3.3.4.6.4,1l-1.1,116.7c-.3,36-19.1,68.2-50.5,86-15.5,8.8-32.5,13.2-49.5,13.2ZM652.4,982.1v73.7c.2,65.1,17.6,129.3,50.1,185.7,32.5,56.4,79.5,103.5,135.8,136.3l18.2,10.6c30.3,17.6,66.5,17.8,97,.5,30.4-17.3,48.8-48.6,49-83.6l1.1-116.1c-6.7-7-94.7-100.2-117.3-137.1-34.9-57.1-52.5-124.8-56.9-143.9-5,14.5-23.3,55.3-73.7,72.7-23,7.9-91.6,2.2-103.2,1.2h0Z"/>
          <path class="cls-2" d="M1005,1191.5c-.7,0-1.4-.3-1.9-.7-.2-.2-20.3-18.7-44.8-44.9-22.6-24.1-53.7-59.9-73.3-93.1-35.1-59.3-50-111.8-55.5-135.8-4.9,15.5-18.2,40.5-54.5,58.6-39.8,19.9-121,8.2-124.5,7.7-.7,0-1.3-.4-1.7-.9-1.2-1.4-29.9-34.7-19.6-86.2.3-1.5,1.8-2.5,3.4-2.2,1.5.3,2.5,1.8,2.2,3.3-8.9,44.6,13.5,75.4,17.6,80.6,9.8,1.3,84.2,10.6,120-7.3,27.1-13.6,40.4-31.3,46.8-43.8,6.9-13.5,7.4-24,7.4-24.1,0-1.5,1.2-2.6,2.7-2.7,1.5,0,2.7,1,2.9,2.4,0,.7,10.4,67.8,57.6,147.6,19.4,32.7,50.1,68.1,72.5,92,20.2,21.6,37.4,37.9,42.8,43,1.7-1.5,4.5-4.7,7.3-10.3,4.1-8.3,9-23.7,9-50.3s1.3-2.8,2.8-2.8,2.8,1.3,2.8,2.8c0,54.5-19.9,66.3-20.8,66.8-.4.2-.9.4-1.4.4h0Z"/>
          <g>
            <path class="cls-3" d="M821.5,1326h0c-1.6,0-2.8-1.3-2.7-2.9l8.4-306.5c0-1.6,1.3-2.8,2.9-2.7,1.6,0,2.8,1.3,2.7,2.9l-8.4,306.5c0,1.5-1.3,2.7-2.8,2.7Z"/>
            <path class="cls-3" d="M991.5,1255.1c-.5,0-1-.1-1.5-.4l-310.6-190.2c-1.3-.8-1.8-2.5-1-3.9.8-1.3,2.5-1.8,3.9-1,0,0,0,0,0,0l310.6,190.2c1.3.8,1.8,2.6.9,3.9-.5.8-1.4,1.4-2.4,1.4h0ZM933.3,1353.5c-.2,0-.4,0-.7,0l-113.3-27.5c-.6-.1-1.1-.4-1.4-.9l-98-110.3c-1-1.2-.9-3,.3-4,1.2-1,2.9-.9,3.9.2l97.4,109.7,112.5,27.3c1.5.4,2.4,1.9,2.1,3.4-.3,1.3-1.4,2.2-2.7,2.2Z"/>
            <path class="cls-3" d="M933.3,1353.5c-1.6,0-2.8-1.3-2.8-2.8,0-.4.1-.9.3-1.3l49.6-99.4-151.3-243.3-147.4,54.4,40,151c.4,1.5-.5,3.1-2,3.5s-3.1-.5-3.5-2l-40.6-153.5c-.4-1.4.4-2.9,1.8-3.4l151.9-56.1c1.3-.5,2.7,0,3.4,1.2l153.3,246.6c.5.8.6,1.9.1,2.8l-50.3,100.8c-.5,1-1.5,1.6-2.5,1.6h0Z"/>
          </g>
          <ellipse class="cls-2" cx="678.3" cy="1059.4" rx="12.2" ry="23.3" transform="translate(-439.1 481.7) rotate(-30)"/>
          <path class="cls-2" d="M686.4,1081.9c-6.3,0-14.3-6-19.9-15.7-3.2-5.6-5.1-11.5-5.3-16.7-.2-5.5,1.5-9.6,4.8-11.5,6.6-3.8,17.2,2.6,24.1,14.6,6.9,12,7.2,24.4.6,28.2-1.3.7-2.7,1.1-4.3,1.1ZM670.3,1039.8c-1,0-2,.2-2.9.7-2.3,1.4-3.5,4.5-3.3,8.9.2,4.7,2,10.2,5,15.4,5.9,10.3,15.2,16.5,20.3,13.6,5.1-2.9,4.3-14.1-1.6-24.3-4.9-8.5-12.2-14.3-17.4-14.3h0Z"/>
          <ellipse class="cls-2" cx="719" cy="1212.9" rx="13.4" ry="23.5" transform="translate(-539.3 576.6) rotate(-32.5)"/>
          <path class="cls-2" d="M727,1235.4c-2.4,0-5-.7-7.7-2.2-4.7-2.5-9.3-6.9-12.8-12.4-7.5-11.8-7.9-24.5-.9-29,7-4.5,18.4,1.3,25.9,13.1,3.5,5.5,5.6,11.5,5.8,16.8.3,5.6-1.5,9.9-4.9,12.1-1.6,1-3.4,1.5-5.4,1.5h0ZM710.9,1193.2c-1.4,0-2.7.3-3.8,1-5.5,3.5-4.7,15,1.8,25.1,3.2,5.1,7.4,9.1,11.7,11.4,4,2.1,7.7,2.4,10.3.8s3.9-5.1,3.6-9.6c-.2-4.9-2.2-10.3-5.4-15.4-5.1-8.1-12.6-13.2-18.1-13.2h0Z"/>
          <ellipse class="cls-2" cx="820.8" cy="1330.4" rx="13.6" ry="22.6" transform="translate(-600 678.4) rotate(-33.7)"/>
          <path class="cls-2" d="M828.3,1352.1c-6.5,0-14.3-5-19.9-13.4-3.5-5.2-5.5-11-5.8-16.2-.3-5.5,1.5-9.8,5-12.1,7-4.7,18.3.5,25.8,11.7,7.5,11.2,7.8,23.7.8,28.3-1.7,1.2-3.8,1.7-5.9,1.7h0ZM813.3,1311.5c-1.6,0-3,.4-4.3,1.2-2.6,1.7-3.9,5.1-3.7,9.6.2,4.7,2.1,10,5.3,14.8,6.4,9.6,16.4,14.6,21.9,10.9s4.7-14.8-1.6-24.4c-5-7.4-12.1-12.1-17.6-12.1h0Z"/>
          <ellipse class="cls-2" cx="825.6" cy="1151.1" rx="12.1" ry="23.6" transform="translate(-465.3 567.7) rotate(-30)"/>
          <path class="cls-2" d="M833.9,1173.9c-6.4,0-14.4-6.2-20.1-16-3.3-5.7-5.2-11.7-5.5-16.9-.3-5.6,1.4-9.7,4.7-11.6,6.6-3.8,17.2,2.8,24.3,14.9,7,12.2,7.4,24.7.8,28.5-1.3.7-2.7,1.1-4.2,1.1ZM817.2,1131.2c-1,0-2,.2-2.8.7-2.3,1.3-3.5,4.5-3.3,9,.2,4.8,2.1,10.3,5.1,15.6,6,10.4,15.4,16.8,20.4,13.9,5-2.9,4.2-14.2-1.8-24.6-5-8.7-12.4-14.6-17.6-14.6h0Z"/>
          <ellipse class="cls-2" cx="830.3" cy="1003.3" rx="12.3" ry="22.8" transform="translate(-390.7 550.3) rotate(-30)"/>
          <path class="cls-2" d="M838,1025.4c-2.4,0-5.1-.9-7.9-2.6-4.4-2.7-8.5-7.2-11.7-12.7-3.2-5.5-5-11.3-5.1-16.4-.2-5.4,1.6-9.5,4.9-11.4,3.3-1.9,7.7-1.4,12.3,1.5,4.4,2.7,8.5,7.2,11.7,12.7,6.8,11.8,6.9,24,.3,27.8-1.3.8-2.8,1.1-4.4,1.1h0ZM822.5,984c-1.1,0-2.1.2-3,.8-2.4,1.4-3.6,4.5-3.5,8.9.1,4.7,1.8,10,4.8,15.1,2.9,5.1,6.7,9.2,10.7,11.7,3.7,2.3,7,2.8,9.4,1.4,5.1-2.9,4.5-13.9-1.3-24-2.9-5.1-6.7-9.2-10.7-11.7-2.3-1.4-4.5-2.2-6.4-2.2h0Z"/>
          <ellipse class="cls-2" cx="983.6" cy="1248.9" rx="11.7" ry="22.7" transform="translate(-505.6 692.5) rotate(-31.3)"/>
          <path class="cls-2" d="M991.9,1270.6c-6.1,0-13.9-5.7-19.5-14.9-3.3-5.4-5.3-11.1-5.6-16.1-.4-5.4,1.1-9.4,4.3-11.3,3.1-1.9,7.4-1.4,12,1.4,4.3,2.6,8.5,7,11.7,12.4,7,11.5,7.6,23.6,1.3,27.4-1.3.8-2.7,1.1-4.2,1.1ZM975.3,1230c-1,0-2,.2-2.8.7-2.2,1.3-3.2,4.5-2.9,8.7.3,4.6,2.2,9.9,5.2,14.8,6,9.9,15.1,15.7,19.8,12.9,4.8-2.9,3.7-13.6-2.3-23.5-3-5-6.9-9.1-10.8-11.5-2.3-1.4-4.4-2.1-6.3-2.1h0Z"/>
          <ellipse class="cls-2" cx="933.3" cy="1350.7" rx="11.7" ry="22.5" transform="translate(-550.7 648.4) rotate(-30)"/>
          <path class="cls-2" d="M941.1,1372.4c-2.4,0-5-.9-7.8-2.6-4.2-2.7-8.3-7.1-11.4-12.5-3.1-5.4-4.9-11.1-5.2-16.1-.2-5.3,1.4-9.3,4.6-11.1,6.4-3.7,16.6,2.5,23.3,14.1,3.1,5.4,4.9,11.1,5.2,16.1.2,5.3-1.4,9.3-4.6,11.1-1.2.7-2.6,1.1-4.1,1.1h0ZM925.5,1331.8c-1,0-1.9.2-2.7.7-2.2,1.3-3.4,4.3-3.2,8.6.2,4.6,1.9,9.8,4.8,14.8,2.9,5,6.6,9.1,10.5,11.5,3.6,2.3,6.8,2.8,9,1.5,2.2-1.3,3.4-4.3,3.2-8.6-.2-4.6-1.9-9.8-4.8-14.8-4.8-8.2-11.7-13.8-16.7-13.8h0Z"/>
        </g>
        <g>
          <ellipse class="cls-2" cx="770.3" cy="2083.7" rx="136.8" ry="237.9" transform="translate(-939.7 665.6) rotate(-30)"/>
          <path class="cls-2" d="M846.2,2302.3c-63.5,0-142.8-58-195.7-149.4-66.1-114.3-66.1-238.3,0-276.4,66.1-38.1,173.6,23.9,239.6,138.2,31.9,55.3,49.6,114.4,49.7,166.4.1,52.4-17.5,91.4-49.7,110-13.2,7.6-28.1,11.2-43.9,11.2h0ZM694.6,1868.1c-15.4,0-29.8,3.5-42.6,10.9-64.6,37.3-64.1,159.4,1.1,272.3,65.2,112.9,170.9,174.4,235.5,137.1,31.2-18,48.3-56.1,48.2-107.4-.1-51.6-17.6-110.1-49.3-164.9-52.3-90.5-130.6-148-192.9-148Z"/>
          <path class="cls-4" d="M764.5,2163.7c-5.6,0-10.8-3.1-13.4-8.1l-76.4-148.2c-3.8-7.4-.9-16.4,6.5-20.2,7.4-3.8,16.5-.9,20.3,6.5l68.3,132.5,80.9-59.5c6.7-4.9,16.1-3.5,21,3.2,4.9,6.7,3.5,16.1-3.2,21l-95.1,70c-2.6,1.9-5.7,2.9-8.9,2.9h0Z"/>
          <path class="cls-4" d="M845.9,2308.4c-24.4,0-51.2-8.1-79-24.2-46-26.6-89.2-72.2-121.6-128.4-32.4-56.1-50.4-116.3-50.5-169.4-.1-54.6,18.6-95.5,52.7-115.2,34.1-19.7,78.9-15.4,126.2,12,46,26.6,89.2,72.2,121.6,128.4s50.4,116.3,50.5,169.4c.1,54.6-18.6,95.5-52.7,115.2-14.1,8.1-30,12.2-47.2,12.2h0ZM694.7,1874.1c-14.6,0-28,3.4-39.8,10.1-29.2,16.9-45.3,53.1-45.2,102.2,0,50.5,17.3,108,48.5,162,31.2,53.9,72.4,97.6,116.1,122.9,42.4,24.6,81.9,28.9,111.1,12,29.2-16.9,45.3-53.1,45.2-102.2,0-50.5-17.3-108-48.5-162s-72.4-97.6-116.1-122.9c-25.4-14.7-49.7-22.1-71.4-22.1h0Z"/>
          <path class="cls-2" d="M845.9,2309.9c-25,0-51.8-8.2-79.7-24.4-46.2-26.8-89.6-72.6-122.2-128.9-32.6-56.4-50.6-116.8-50.7-170.2-.1-55.2,18.9-96.6,53.4-116.5,34.6-19.9,79.9-15.7,127.7,12,46.2,26.8,89.6,72.6,122.2,128.9,32.6,56.4,50.6,116.8,50.7,170.2.1,55.2-18.9,96.6-53.4,116.5-14.2,8.2-30.4,12.4-48,12.4ZM694.7,1860.5c-16.9,0-32.6,4-46.5,12-33.6,19.4-52,59.8-51.9,113.9.1,52.9,18,112.8,50.3,168.7,32.3,55.9,75.3,101.3,121.1,127.8,27.5,15.9,53.8,24,78.2,24s32.7-4,46.5-12c33.6-19.4,52-59.8,51.9-113.9-.1-52.9-18-112.8-50.3-168.7-32.3-55.9-75.3-101.3-121.1-127.8-27.5-15.9-54.1-24-78.2-24ZM845.8,2294.9c-22,0-46.5-7.5-72.1-22.3-44-25.5-85.4-69.3-116.7-123.5-31.3-54.1-48.6-111.9-48.7-162.7,0-49.6,16.2-86.3,45.9-103.5,11.9-6.9,25.5-10.3,40.5-10.3,22.3,0,46.5,7.5,72.1,22.3,44,25.5,85.4,69.3,116.7,123.5s48.6,111.9,48.7,162.7c0,49.6-16.2,86.3-45.9,103.5-12,6.9-25.6,10.3-40.5,10.3h0ZM694.7,1875.6c-14.4,0-27.6,3.3-39,9.9-28.7,16.6-44.5,52.4-44.4,100.9,0,50.3,17.2,107.5,48.3,161.2,31,53.7,72.1,97.1,115.6,122.4,42,24.3,80.9,28.6,109.6,12,28.7-16.6,44.5-52.4,44.4-100.9,0-50.3-17.2-107.5-48.3-161.2-31-53.7-72.1-97.1-115.6-122.4-25.1-14.6-48.9-21.9-70.6-21.9h0Z"/>
        </g>
        <g>
          <path class="cls-4" d="M473,372.7c-4.6-29.9-30.5-42.3-30.5-42.3,0,0-349.2-201.4-354.8-204.1-5.5-2.6-11.1-3.6-16.1-2.9-9.8,1.3-60.5,28.4-60.5,28.4l25.8,477.2,436-256.3Z"/>
          <path class="cls-2" d="M37,630.4c-.8,0-1.4-.6-1.4-1.3L9.7,151.9c0-.5.3-1.1.7-1.3,2.1-1.1,51-27.3,60.9-28.6,5.5-.7,11.3.3,16.9,3,5.5,2.7,340.6,195.9,354.9,204.1.2,0,26.6,13,31.2,43.3,0,.6-.2,1.1-.7,1.4L37.7,630.2c-.2.1-.5.2-.7.2ZM12.6,152.6l25.7,473.9,433.2-254.6c-4.8-28.2-29.4-40.2-29.6-40.3-3.6-2.1-349.3-201.4-354.8-204.1-5.1-2.5-10.4-3.4-15.3-2.8-7.4,1-41.5,18.4-59.2,27.8Z"/>
          <path class="cls-2" d="M343.6,586.7l67.7,295.3s40.7-18.9,51.3-24.9c6.3-3.6,10.7-10.8,10.6-23.3,0,0,1.5-450.6-.1-461.1l-52.9,25.9-76.5,188.1Z"/>
          <path class="cls-2" d="M411.3,883.4c-.7,0-1.2-.5-1.4-1.1l-67.7-295.3c0-.3,0-.6,0-.9l76.5-188.1c.1-.3.4-.6.7-.7l52.9-25.9c.7-.3,1.5,0,1.9.6,0,.1.1.3.1.4,1.6,10.4.2,442.9.1,461.3,0,12-3.7,20.3-11.3,24.6-10.5,5.9-49.7,24.2-51.4,24.9-.2,0-.4.1-.6.1ZM345.1,586.8l67.2,293.1c7.6-3.6,40.4-18.9,49.6-24.1,6.6-3.8,9.9-11.2,9.9-22.1,0-4.4,1.4-425,0-458.9l-50.5,24.8-76.1,187.2Z"/>
          <path class="cls-4" d="M420.2,398.6c-4.6-29.9-30.5-42.3-30.5-42.3,0,0-349.2-201.4-354.8-204.1-16-7.8-33.5-.7-33.4,18.1.2,51.2.2,460.3,1.2,470.2,2.1,21.7,18.6,34.4,34.1,44.1,47.6,29.9,336.2,194.4,336.2,194.4,16.3,9.5,47.6,14.2,47.3-19.3,0,0,1.5-450.6-.1-461.1h0Z"/>
          <path class="cls-2" d="M397.2,887.3c-8.7,0-18-3.1-25-7.1-2.9-1.6-289.1-164.8-336.2-194.4-28.5-17.9-33.5-32.9-34.7-45.2-.7-7.5-1-239.2-1.1-377.6C0,218.3,0,183,0,170.3c0-8.5,3.4-15.3,9.6-19.3,7.1-4.5,16.7-4.5,25.8-.1,5.5,2.7,340.6,195.9,354.9,204.1.2,0,26.6,13,31.2,43.3,1.6,10.4.2,442.9.1,461.3,0,11.9-3.7,20.1-11.1,24.5-3.9,2.3-8.5,3.2-13.3,3.2ZM21.9,150.5c-3.9,0-7.6,1-10.8,2.9-5.4,3.4-8.3,9.4-8.3,16.8,0,12.7,0,48,.1,92.7.1,138.4.4,370,1.1,377.4,2,20.7,17.3,32.9,33.4,43.1,47,29.5,333.3,192.7,336.1,194.4,10.2,5.9,25.6,9.7,35.5,3.9,6.5-3.8,9.8-11.2,9.7-22,0-4.5,1.5-450.7,0-460.9-4.4-28.8-29.5-41.1-29.8-41.2-3.6-2.1-349.3-201.4-354.8-204.1-4.1-2-8.3-3-12.3-3h0Z"/>
          <path class="cls-3" d="M291.8,393.7c-15.3-34.3-38.2-60-70.2-78.4-25-14.4-51.6-17-71.2-6.9-13.3,6.8-21.7,19.1-23.1,33.8-2.6,26.4-2.2,55.8-2.2,57,.1,7.8,6.5,14,14.3,14,7.8-.1,14.1-6.5,14-14.3,0-.3-.4-29,2.1-53.9.5-5.2,3.1-8.9,7.9-11.4,8.1-4.2,24.5-5,44.2,6.3,26.6,15.3,45.7,36.7,58.4,65.4,16.1,36.3,14.3,82.2,13,115.8-.2,4.9-.4,9.5-.5,13.7-.2,7.8,5.9,14.3,13.8,14.5.1,0,.3,0,.4,0,7.6,0,13.9-6.1,14.1-13.8.1-4.1.3-8.6.5-13.4,1.5-36.3,3.5-86.1-15.4-128.4h0Z"/>
          <path class="cls-2" d="M292.6,550.7h-.4c-8.6-.2-15.4-7.4-15.1-16,.1-4.3.3-8.9.5-13.7,1.3-33.4,3.2-79.1-12.8-115.1-12.6-28.4-31.6-49.6-57.9-64.7-19.1-11-35-10.3-42.8-6.3-4.4,2.3-6.7,5.5-7.1,10.2-2.4,24.4-2.1,52.5-2.1,53.7.1,8.6-6.8,15.7-15.4,15.8-8.6.1-15.7-6.8-15.8-15.4,0-1.2-.4-30.7,2.2-57.2,1.5-15.1,10.2-27.8,23.9-34.9,20-10.3,47.2-7.7,72.6,7,32.2,18.6,55.4,44.4,70.8,79,19,42.6,17,92.6,15.5,129-.2,4.8-.4,9.2-.5,13.4-.2,8.4-7.1,15.2-15.6,15.1h0ZM177,329.3c8.6,0,19.3,2.5,31.2,9.3,26.8,15.5,46.2,37.1,59,66,16.3,36.6,14.4,82.7,13.1,116.4-.2,4.9-.4,9.5-.5,13.7-.2,7,5.4,12.9,12.4,13.1h.4c6.9,0,12.6-5.5,12.7-12.4.1-4.1.3-8.6.5-13.4,1.5-36.2,3.4-85.8-15.3-127.8-15.1-34.1-37.9-59.5-69.6-77.7-24.6-14.2-50.7-16.8-69.9-6.9-12.8,6.6-21,18.5-22.4,32.6-2.6,26.3-2.2,55.6-2.2,56.9,0,7,6,12.7,12.9,12.6,7,0,12.7-5.9,12.6-12.9,0-1.2-.3-29.5,2.1-54,.6-5.7,3.4-9.8,8.7-12.5,3.5-1.8,8.4-3,14.3-3h0Z"/>
          <path class="cls-2" d="M292.3,772.1l-148.5-86.7c-23.1-13.5-37.4-38.3-37.4-65.1v-200.8l213.5,122.1v214.6c0,14.2-15.4,23-27.6,15.9h0Z"/>
          <path class="cls-2" d="M301.6,776c-3.4,0-6.9-.9-10-2.7l-148.5-86.7c-23.5-13.7-38.1-39.1-38.1-66.3v-200.8c0-.8.6-1.4,1.4-1.4.2,0,.5,0,.7.2l213.5,122.1c.4.3.7.7.7,1.2v214.6c0,7.2-3.7,13.6-9.9,17.2-3,1.7-6.4,2.7-9.9,2.7h0ZM293,770.9c5.3,3.1,11.7,3.1,17,0,5.3-3.1,8.5-8.6,8.5-14.7v-213.8l-210.7-120.5v198.3c0,26.2,14.1,50.7,36.7,63.9l148.5,86.7Z"/>
          <path class="cls-4" d="M236.6,554.5c-15-22.6-37.6-33.9-50.5-25.3-12.9,8.6-11.3,33.8,3.7,56.4.6,1,1.3,1.9,1.9,2.8v47.7c0,24,12.8,42.7,28.7,42.7s15.3-6.8,15.3-15.3v-50.5c1.6-.5,3.2-1.2,4.6-2.1,12.9-8.6,11.3-33.8-3.7-56.4h0Z"/>
        </g>
        <g>
          <path class="cls-4" d="M1690.7,1991.4c-5.9-38.4-39.3-54.3-39.3-54.3,0,0-449.5-258.6-456.6-262.1-7-3.4-14.2-4.6-20.7-3.7-12.6,1.7-77.8,36.5-77.8,36.5l33.3,554,561.2-270.3Z"/>
          <path class="cls-2" d="M1129.4,2263.1c-.8,0-1.4-.6-1.4-1.3l-33.3-554c0-.6.3-1.1.7-1.3,2.7-1.4,65.6-35,78.3-36.6,7-.9,14.4.4,21.5,3.9,7.1,3.4,438.4,251.6,456.7,262.1.2.1,34.1,16.6,40,55.3,0,.6-.2,1.2-.8,1.5l-561.2,270.3c-.2,0-.4.1-.6.1ZM1097.6,1708.5l33.1,551,558.4-269c-6.1-36.5-38-52.1-38.4-52.2-4.6-2.6-449.6-258.7-456.6-262.1-6.6-3.2-13.5-4.4-19.9-3.6-11.4,1.5-69,31.9-76.5,35.9Z"/>
          <path class="cls-2" d="M1129.4,2261.7l481.8,326.5s52.4-24.3,66-32c8.1-4.6,13.7-13.8,13.6-30,0,0,1.9-521.5-.1-534.9l-68.5,30.6-492.7,239.7Z"/>
          <path class="cls-2" d="M1611.2,2589.6c-.3,0-.6,0-.8-.2l-481.8-326.5c-.6-.4-.8-1.3-.4-2,.1-.2.3-.4.6-.5l492.7-239.7,68.6-30.6c.7-.3,1.6,0,1.9.7,0,.1,0,.2.1.4,2,13.3.2,513.9.1,535.2,0,15.2-4.7,25.7-14.3,31.2-13.4,7.6-65.6,31.8-66.1,32-.2,0-.4.1-.6.1h0ZM1132.3,2261.9l479.1,324.7c6.4-3,52.7-24.5,65.1-31.6,8.6-4.9,13-14.6,12.9-28.7,0-5.1,1.8-496.3,0-532.8l-66.7,29.8-490.4,238.6Z"/>
          <path class="cls-4" d="M1622.6,2024.7c-5.9-38.4-39.3-54.3-39.3-54.3,0,0-449.5-258.6-456.6-262.1-20.6-10-43.1-.9-43,23.2.2,65.7.3,532.3,1.6,545,2.7,27.8,23.9,44.2,43.9,56.7,61.3,38.4,432.7,251.3,432.7,251.3,21,12.2,61.2,18.2,60.9-24.8,0,0,1.9-521.5-.1-534.9h0Z"/>
          <path class="cls-2" d="M1593.1,2594.7c-11.1,0-23.1-3.9-32-9.1-3.7-2.1-372.1-213.3-432.7-251.3-21.5-13.5-41.8-29.8-44.5-57.7-.9-9.7-1.2-278-1.4-438.3,0-50.8-.1-90.9-.1-106.9,0-10.8,4.3-19.4,12.2-24.4,9-5.7,21.3-5.7,32.8-.1,7.1,3.4,438.4,251.6,456.7,262.1.2.1,34.1,16.6,40,55.3,2,13.3.2,513.9.1,535.2,0,15.1-4.6,25.6-14.1,31.1-4.9,2.9-10.8,4.1-17,4.1ZM1110,1705.7c-5.2,0-10,1.3-14.1,3.8-7.1,4.4-10.9,12.2-10.9,22,0,16,0,56.1.1,106.9.2,160.3.5,428.5,1.4,438,2.6,26.7,22.3,42.5,43.2,55.6,60.6,37.9,428.9,249.1,432.7,251.2,13.2,7.6,33.2,12.5,46.1,5,8.5-4.9,12.8-14.6,12.7-28.6,0-5.2,1.9-521.6-.1-534.7-5.7-37.2-38.2-53.1-38.5-53.3-4.6-2.6-449.6-258.7-456.6-262.1-5.3-2.6-10.8-3.9-16-3.9Z"/>
          <g>
            <path class="cls-1" d="M1528.2,2145c-1.1,0-2.2-.7-2.6-1.8-67.5-171-222.2-273.3-305.3-244-14.7,5.2-50.1,31.5-59.9,75.8-.3,1.5-1.8,2.5-3.3,2.2-1.5-.3-2.5-1.8-2.2-3.3,0,0,0,0,0,0,10.4-47.1,47.3-74.2,63.5-80,43-15.2,104.3,2.7,164.1,47.8,64,48.4,116.7,119.2,148.4,199.4.6,1.5-.1,3.1-1.6,3.7-.3.1-.7.2-1,.2Z"/>
            <path class="cls-1" d="M1510,2195c-1.3,0-2.4-.9-2.7-2.1-12.1-46.6-37.7-96.3-71.9-140.2-33.9-43.5-73.3-77.2-110.9-95-33.6-15.9-64.6-18.3-89.6-6.8-16.5,7.6-44.8,38.4-50.6,88.9-.2,1.5-1.6,2.7-3.2,2.5-1.5-.2-2.6-1.6-2.5-3.1,6.1-53.2,35.5-85,53.8-93.3,26.6-12.2,59.2-9.8,94.4,6.8,38.3,18.1,78.4,52.4,112.9,96.6,34.7,44.4,60.6,94.9,72.9,142.2.4,1.5-.5,3.1-2,3.4-.2,0-.5,0-.7,0h0Z"/>
            <path class="cls-1" d="M1249.6,2238.8c-1.1,0-2.1-.6-2.5-1.6-.2-.5-23.4-48.4-32.5-101.6-3.9-22.8-7.2-56.3-.4-87,6.5-29.6,20.7-49.1,42.2-57.9,25.8-10.6,52.9-9.1,80.4,4.3,21.8,10.6,43.9,28.8,65.7,54,37,42.6,60.7,91.4,61,91.9.7,1.4,0,3.1-1.3,3.8s-3.1,0-3.8-1.3h0c-.2-.5-23.7-48.7-60.2-90.8-21.3-24.6-42.8-42.2-63.9-52.5-26-12.7-51.5-14.1-75.7-4.2-19.6,8.1-32.7,26.2-38.8,53.9-6.6,29.8-3.4,62.6.5,84.9,9,52.3,31.8,99.6,32,100,.7,1.4,0,3.1-1.3,3.8-.4.2-.8.3-1.2.3h0ZM1269.5,2328.1c-1,0-1.9-.5-2.4-1.3-.8-1.3-82.3-127-88.5-254.1,0-1.6,1.1-2.9,2.7-3s2.9,1.1,3,2.7c0,0,0,0,0,0,6.1,125.6,86.7,250.1,87.5,251.3.9,1.3.5,3.1-.8,3.9-.5.3-1,.5-1.5.5Z"/>
            <path class="cls-1" d="M1421.5,2434.6c-.7,0-1.4-.3-2-.8-43.3-41.4-84-94.2-114.4-148.6-35.9-64.1-56.1-127.9-58.4-184.6-1.7-41.7,15.3-55.8,16-56.4,1.2-.9,3-.7,4,.5.9,1.2.7,2.9-.4,3.9-.3.2-15.5,13.4-13.9,51.8,2.3,55.8,22.3,118.7,57.7,182,30.2,53.9,70.5,106.2,113.4,147.3,1.1,1.1,1.2,2.9,0,4-.5.6-1.3.9-2,.9h0ZM1528.2,2264.5c-.2,0-.5,0-.7,0-31.2-8.4-52.5-26.1-64.9-39.5-14.5-15.6-25.1-34.3-28.3-50-8.1-40-57.3-147.5-143.5-140.3-1.6.1-2.9-1-3.1-2.6-.1-1.6,1-2.9,2.6-3.1,49.6-4.1,85.2,27.6,106.3,54.9,23.3,30.1,38.7,67.7,43.2,89.9,5.5,26.9,36.7,71.1,89.1,85.2,1.5.4,2.4,2,2,3.5-.3,1.2-1.5,2.1-2.7,2.1h0Z"/>
            <path class="cls-1" d="M1409.3,2380.8c-.8,0-1.6-.4-2.2-1-59.7-69.8-138.6-213-126.2-278.8,2.7-14.1,9.4-24.2,20-29.9,13.2-7.1,30.4-5.2,48.3,5.3,15.2,8.9,29.5,23.1,38.3,37.9,14.6,24.7,20,43.7,24.8,60.5,5.7,20,10.6,37.3,29.2,59.4,1,1.2.8,3-.4,4-1.2,1-3,.8-4-.4h0c-19.3-23.1-24.6-41.7-30.3-61.5-4.7-16.4-10-35.1-24.2-59.1-8.2-13.9-22.1-27.6-36.3-35.9-16.2-9.4-31.4-11.3-42.8-5.2-9.1,4.9-14.8,13.6-17.2,26-5.4,28.5,7.5,76.6,36.1,135.3,24.6,50.4,58.6,103.5,88.8,138.8,1,1.2.9,3-.3,4-.5.4-1.2.7-1.8.7Z"/>
            <path class="cls-1" d="M1491.8,2324.2c-.6,0-1.1-.2-1.6-.5-66.1-45.8-84.2-81.2-97.3-107.1-11.3-22.2-14.9-36.2-18.4-49.8-1.7-6.5-3.3-12.7-5.7-19.7-5.3-15.7-15.4-27.2-27.5-31.6-6.8-2.4-13.4-2.3-17.8.4-4.2,2.6-10.3,11.1-4.2,39.3,6,28.1,22.3,67.3,48.5,116.5.7,1.4.2,3.1-1.2,3.8-1.4.7-3,.2-3.8-1.2-48.2-90.7-63.6-150.2-42.2-163.2,5.8-3.6,14.3-3.9,22.7-.8,13.8,5,25.1,17.8,31,35.1,2.5,7.3,4.1,13.8,5.8,20.1,3.4,13.3,7,27.1,18,48.7,12.9,25.3,30.5,60,95.5,105,1.3.9,1.6,2.7.7,3.9-.5.8-1.4,1.2-2.3,1.2h0Z"/>
            <path class="cls-1" d="M1494.9,2369.9c-.5,0-1-.1-1.5-.4-.7-.4-67.8-42.8-100.5-96.5-22.7-37.2-35.3-69.4-42-89.8-7.2-22.2-9.1-35.5-9.1-36-.2-1.5.9-3,2.4-3.2,1.5-.2,3,.9,3.2,2.4,0,.5,7.6,53.5,50.3,123.6,32,52.5,98,94.2,98.6,94.6,1.3.8,1.7,2.6.9,3.9-.5.8-1.4,1.3-2.4,1.3h0ZM1487.5,2413c-.6,0-1.2-.2-1.8-.6-.2-.2-23-18.2-47.6-41.1-33.2-31-53.8-55.7-61.2-73.5-.6-1.4,0-3.1,1.5-3.7,1.4-.6,3.1,0,3.7,1.5,0,0,0,0,0,0,16.9,40.9,106.2,111.7,107.1,112.4,1.2,1,1.4,2.7.5,4-.5.7-1.4,1.1-2.2,1.1h0Z"/>
          </g>
        </g>
      </g>
    </g>
  </g>
</svg>