<?xml version="1.0" encoding="UTF-8"?>
<svg id="Layer_1" data-name="Layer 1" xmlns="http://www.w3.org/2000/svg" version="1.1" viewBox="0 0 528.7 88.4">
  <defs>
    <style>
      .cls-1 {
        fill: #1d88fe;
      }

      .cls-1, .cls-2 {
        stroke-width: 0px;
      }

      .cls-2 {
        fill: #000;
      }
    </style>
  </defs>
  <path class="cls-1" d="M42.9,42.9h37.5c0,20.7-16.8,37.5-37.5,37.5v-37.5Z"/>
  <path class="cls-1" d="M80.5,37.5h-37.5C42.9,16.8,59.7,0,80.5,0v37.5Z"/>
  <path class="cls-1" d="M37.5,42.9v37.5C16.8,80.5,0,63.6,0,42.9h37.5Z"/>
  <path class="cls-2" d="M0,37.5C0,16.8,0,0,0,0,20.7,0,37.5,16.8,37.5,37.5H0Z"/>
  <g>
    <path class="cls-2" d="M96,28c0-3.3.8-6.2,2.5-8.7,1.6-2.5,4-4.4,6.9-5.8,3-1.4,6.4-2.1,10.4-2.1s6.8.6,9.6,1.9c2.7,1.3,4.9,3.1,6.4,5.5,1.6,2.4,2.4,5.2,2.7,8.6h-7.9c-.2-2.9-1.3-5.1-3.2-6.7-1.9-1.6-4.5-2.4-7.7-2.4s-6.5.8-8.7,2.5c-2.2,1.7-3.3,3.9-3.3,6.8s.7,4.2,2,5.6c1.3,1.4,3.3,2.4,6,3.1l9.4,2.2c4.7,1.1,8.2,2.9,10.6,5.4,2.4,2.6,3.5,5.9,3.5,9.9s-.8,6.4-2.5,9c-1.7,2.5-4,4.5-7.1,5.9-3,1.4-6.6,2.1-10.7,2.1s-7.3-.6-10.2-1.9c-2.9-1.3-5.2-3.1-6.9-5.6-1.7-2.4-2.6-5.2-2.8-8.5h7.9c0,2.8,1.2,4.9,3.3,6.5,2.2,1.6,5.1,2.4,8.7,2.4s6.8-.8,9.1-2.5c2.2-1.7,3.4-3.9,3.4-6.7s-.6-4.1-1.9-5.6c-1.3-1.4-3.3-2.5-6-3.1l-9.4-2.1c-4.7-1.1-8.2-2.9-10.6-5.6-2.4-2.7-3.6-6.1-3.6-10.2Z"/>
    <path class="cls-2" d="M159,70.9c-3.8,0-7.1-.9-10-2.6-2.9-1.7-5.2-4.1-6.8-7.1-1.6-3-2.5-6.6-2.5-10.6s.8-7.6,2.4-10.7c1.6-3.1,3.8-5.5,6.7-7.2,2.8-1.7,6.1-2.6,9.9-2.6s6.9.8,9.6,2.4c2.7,1.6,4.8,3.8,6.4,6.7,1.5,2.9,2.3,6.2,2.3,10.1v2.8h-33.3c0,0,.2-4.9.2-4.9h25.6c0-3.2-1-5.8-2.9-7.8-2-2-4.6-2.9-7.9-2.9s-4.6.5-6.4,1.6c-1.8,1.1-3.1,2.7-4,4.8-.9,2.1-1.4,4.6-1.4,7.5,0,4.7,1.1,8.2,3.2,10.8,2.1,2.5,5.2,3.8,9.1,3.8s5.3-.6,7.1-1.7c1.9-1.2,3.1-2.9,3.7-5.1h7c-1,4.1-3,7.3-6.1,9.6-3.1,2.3-7.1,3.4-11.9,3.4Z"/>
    <path class="cls-2" d="M181.1,50.6c0-4.1.8-7.6,2.4-10.7,1.6-3.1,3.9-5.5,6.7-7.2,2.9-1.7,6.2-2.6,9.9-2.6s8.9,1.3,12.1,3.9c3.2,2.6,5.2,6,5.8,10.3h-7.5c-.6-2.5-1.9-4.4-3.7-5.6-1.9-1.3-4-1.9-6.5-1.9s-4.4.6-6.2,1.7c-1.8,1.1-3.2,2.7-4.2,4.8-1,2.1-1.5,4.5-1.5,7.3s.5,5.2,1.4,7.3c1,2,2.3,3.6,4,4.8,1.7,1.1,3.8,1.7,6.1,1.7s4.9-.7,6.8-2c1.9-1.3,3.2-3.1,3.8-5.4h7.5c-.5,2.8-1.5,5.3-3.2,7.3-1.7,2.1-3.8,3.7-6.4,4.9-2.6,1.2-5.4,1.8-8.5,1.8s-7.1-.8-10-2.5c-2.8-1.7-5-4.1-6.6-7.1-1.6-3-2.4-6.6-2.4-10.7Z"/>
    <path class="cls-2" d="M251.3,31.1h7.4v38.8h-6.7l-.8-5.9c-1.1,2-2.9,3.7-5.2,4.9-2.4,1.3-5,1.9-7.9,1.9-4.5,0-8-1.4-10.4-4.2-2.5-2.8-3.7-6.6-3.7-11.4v-24.1h7.5v21.7c0,4.1.8,7.1,2.5,8.9,1.7,1.8,3.9,2.7,6.8,2.7s6.1-1.1,7.9-3.2c1.8-2.1,2.7-5.3,2.7-9.5v-20.5Z"/>
    <path class="cls-2" d="M290.2,30.8v6.8h-3.3c-3.5,0-6.3,1-8.4,3.1s-3.1,4.9-3.1,8.7v20.6h-7.5V31.2h7l.6,7.8h-.7c.5-2.5,1.8-4.6,3.8-6.2,2-1.6,4.5-2.4,7.5-2.4s1.3,0,1.9.1c.6,0,1.3.2,2,.4Z"/>
    <path class="cls-2" d="M310.9,70.9c-3.8,0-7.1-.9-10-2.6-2.9-1.7-5.2-4.1-6.8-7.1-1.6-3-2.5-6.6-2.5-10.6s.8-7.6,2.4-10.7c1.6-3.1,3.8-5.5,6.7-7.2,2.8-1.7,6.1-2.6,9.9-2.6s6.9.8,9.6,2.4c2.7,1.6,4.8,3.8,6.4,6.7,1.5,2.9,2.3,6.2,2.3,10.1v2.8h-33.3c0,0,.2-4.9.2-4.9h25.6c0-3.2-1-5.8-2.9-7.8-2-2-4.6-2.9-7.9-2.9s-4.6.5-6.4,1.6c-1.8,1.1-3.1,2.7-4,4.8-.9,2.1-1.4,4.6-1.4,7.5,0,4.7,1.1,8.2,3.2,10.8,2.1,2.5,5.2,3.8,9.1,3.8s5.3-.6,7.1-1.7c1.9-1.2,3.1-2.9,3.7-5.1h7c-1,4.1-3,7.3-6.1,9.6-3.1,2.3-7.1,3.4-11.9,3.4Z"/>
    <path class="cls-2" d="M333.1,49.5c0-3.7.7-6.9,2.2-9.9,1.5-2.9,3.6-5.3,6.4-7,2.8-1.7,6-2.6,9.8-2.6s6.5.8,9,2.5c2.5,1.7,4.3,4,5.3,6.9l-1,1,.8-9.4h6.7v37.2c0,4.1-.8,7.6-2.4,10.6s-3.8,5.3-6.7,6.9c-2.9,1.6-6.4,2.5-10.3,2.5s-9.6-1.4-13-4.2c-3.4-2.8-5.5-6.7-6.2-11.6h7.5c.5,2.9,1.7,5.1,3.8,6.7s4.7,2.4,7.9,2.4,6.6-1.1,8.8-3.3c2.2-2.2,3.3-5.1,3.3-8.9v-11l1,1c-1,2.9-2.8,5.2-5.5,6.9-2.6,1.7-5.7,2.5-9.2,2.5s-6.9-.9-9.6-2.6c-2.7-1.7-4.8-4-6.2-6.9-1.5-2.9-2.2-6.2-2.2-9.8ZM340.6,49.4c0,2.4.5,4.6,1.5,6.6,1,2,2.4,3.5,4.1,4.7,1.8,1.2,3.8,1.7,6.2,1.7s4.7-.6,6.5-1.7c1.8-1.1,3.2-2.6,4.2-4.6,1-2,1.5-4.2,1.5-6.7s-.5-4.8-1.4-6.7c-1-1.9-2.3-3.4-4.1-4.5-1.8-1.1-4-1.7-6.5-1.7s-4.6.6-6.4,1.7c-1.8,1.2-3.1,2.7-4.1,4.6-1,1.9-1.4,4.1-1.4,6.5Z"/>
    <path class="cls-2" d="M408.3,31.1h7.4v38.8h-6.7l-.8-5.9c-1.1,2-2.9,3.7-5.2,4.9-2.4,1.3-5,1.9-7.9,1.9-4.5,0-8-1.4-10.4-4.2-2.5-2.8-3.7-6.6-3.7-11.4v-24.1h7.5v21.7c0,4.1.8,7.1,2.5,8.9,1.7,1.8,3.9,2.7,6.8,2.7s6.1-1.1,7.9-3.2c1.8-2.1,2.7-5.3,2.7-9.5v-20.5Z"/>
    <path class="cls-2" d="M436.2,70.9c-4.1,0-7.4-1.1-9.7-3.3-2.4-2.2-3.5-5-3.5-8.5s1.3-6.4,3.8-8.5c2.5-2.1,6.1-3.4,10.6-3.8l12.2-1v-1.1c0-2.2-.4-3.9-1.2-5.2-.8-1.3-1.9-2.2-3.3-2.8-1.4-.6-2.9-.8-4.7-.8-3.1,0-5.5.6-7.3,1.9-1.7,1.3-2.6,3.1-2.6,5.5h-6.5c0-2.7.7-5.1,2.1-7.1,1.4-2,3.3-3.6,5.8-4.7,2.5-1.1,5.4-1.7,8.8-1.7s6,.6,8.5,1.7c2.4,1.1,4.3,2.9,5.6,5.2,1.4,2.3,2,5.2,2,8.7v24.4h-6.4l-.8-6.3c-1,2.2-2.7,4-5.2,5.3-2.5,1.3-5.3,1.9-8.4,1.9ZM438.4,65.1c3.5,0,6.3-1.1,8.3-3.2,2-2.1,3-5,3-8.7v-2.1l-9.9.8c-3.3.3-5.7,1.1-7.1,2.3-1.5,1.2-2.2,2.8-2.2,4.7s.7,3.6,2.1,4.6c1.4,1,3.3,1.5,5.8,1.5Z"/>
    <path class="cls-2" d="M487.9,30.8v6.8h-3.3c-3.5,0-6.3,1-8.4,3.1s-3.1,4.9-3.1,8.7v20.6h-7.5V31.2h7l.6,7.8h-.7c.5-2.5,1.8-4.6,3.8-6.2,2-1.6,4.5-2.4,7.5-2.4s1.3,0,1.9.1c.6,0,1.3.2,2,.4Z"/>
    <path class="cls-2" d="M507.4,70.9c-3.8,0-7-.9-9.7-2.6-2.7-1.7-4.8-4.1-6.2-7.2-1.5-3.1-2.2-6.6-2.2-10.5s.7-7.5,2.2-10.6c1.5-3.1,3.6-5.5,6.4-7.3,2.8-1.8,6-2.7,9.8-2.7s5.7.6,8.1,1.9c2.4,1.2,4.2,3.1,5.5,5.5V11.5h7.4v58.4h-6.7l-.6-7.1c-1.3,2.6-3.1,4.6-5.6,6-2.5,1.4-5.3,2.1-8.4,2.1ZM509,64.2c2.5,0,4.7-.6,6.5-1.7,1.8-1.2,3.2-2.8,4.2-4.8,1-2.1,1.5-4.4,1.5-7.1s-.5-5.1-1.5-7.1c-1-2-2.4-3.6-4.2-4.8-1.8-1.2-4-1.7-6.5-1.7s-4.7.6-6.5,1.8c-1.8,1.2-3.2,2.8-4.1,4.8-1,2-1.4,4.4-1.4,7s.5,5.1,1.4,7.1c1,2.1,2.3,3.7,4.1,4.8,1.8,1.2,4,1.7,6.5,1.7Z"/>
  </g>
</svg>