<?xml version="1.0" encoding="UTF-8"?>
<svg xmlns="http://www.w3.org/2000/svg" version="1.1" viewBox="0 0 915.4 919.1">
  <defs>
    <style>
      .cls-1 {
        fill: #88c7ff;
      }

      .cls-1, .cls-2, .cls-3, .cls-4 {
        stroke-width: 0px;
      }

      .cls-2 {
        fill: #000;
      }

      .cls-3 {
        fill: #1d88fe;
        mix-blend-mode: multiply;
        opacity: .6;
      }

      .cls-5 {
        isolation: isolate;
      }

      .cls-4 {
        fill: #fff;
      }
    </style>
  </defs>
  <g class="cls-5">
    <g id="Layer_1" data-name="Layer 1">
      <g>
        <g>
          <path class="cls-4" d="M801.9,787.8l-387.6-309.6c-39.3-22.7-63.4-64.6-63.4-110l-74.2-294.4s84.7-51.7,97.8-57.1c10-4.1,24.3-4.5,35,1.6l437.6,253c41.5,24,67,68.4,67,116.3l-2.3,309.3c0,10.8-4.3,22.2-10.7,29.3-12.3,13.6-99.3,61.5-99.3,61.5h0Z"/>
          <path class="cls-2" d="M801.9,789c-.3,0-.5,0-.8-.3l-387.5-309.5c-39.4-22.9-63.9-65.3-63.9-110.9l-74.1-294.3c-.1-.5,0-1.1.5-1.3,3.5-2.1,84.9-51.8,98-57.1,9.7-3.9,24.6-4.9,36,1.7l437.6,253c41.7,24.2,67.7,69.1,67.7,117.4l-2.3,309.3c0,10.9-4.3,22.7-11,30.1-12.3,13.6-96,59.8-99.6,61.8-.2,0-.4.2-.6.2h0ZM278.2,74.4l73.9,293.6c0,0,0,.2,0,.3,0,44.8,24.1,86.5,62.8,108.9,0,0,.1,0,.2.1l387,309.1c8.4-4.6,86.8-48.3,98.2-60.9,6.3-7,10.4-18.2,10.4-28.5l2.3-309.3c0-47.3-25.5-91.5-66.4-115.2L408.9,19.4c-10.7-6.2-24.8-5.3-33.9-1.6-12.2,5-88.3,51.3-96.9,56.5Z"/>
          <path class="cls-2" d="M902.2,332c7.9,17.5,12.1,36.4,12,55.6l-2.3,309.3c0,10.8-4.3,22.2-10.7,29.3-12,13.3-96.2,59.9-99.2,61.5,10.6-7.2,18-19.3,18-34l2.3-309.3c0-19.3-4.1-38-11.8-55.1l91.6-57.4Z"/>
          <path class="cls-2" d="M802,789c-.7,0-1.2-.5-1.2-1.2,0-.4.2-.8.5-1,11.1-7.5,17.5-19.5,17.5-33l2.3-309.3c0-18.9-3.9-37.3-11.7-54.5-.2-.6,0-1.2.5-1.5l91.6-57.4c.6-.4,1.3-.2,1.7.4,0,0,0,0,0,.1,8.1,17.7,12.2,36.6,12.2,56.1l-2.3,309.3c0,10.9-4.3,22.7-11,30.1-12.3,13.6-98.6,61.3-99.5,61.8-.2,0-.4.2-.6.2h0ZM812.1,389.9c7.6,17.3,11.5,35.7,11.5,54.6l-2.3,309.3c0,10.4-3.6,19.9-10.1,27.5,23-12.9,79.5-45.2,89.1-55.8,6.3-7,10.4-18.2,10.4-28.5l2.3-309.3c0-18.7-3.8-36.8-11.4-53.8l-89.5,56.1Z"/>
          <path class="cls-4" d="M758.4,789.3l-435.9-254.2c-39.3-22.7-63.4-64.6-63.4-110V105.3c0-28.4,30.8-46.2,55.4-31.9l440.8,254.8c41.5,24,67,68.4,67,116.3l-2.3,309.3c0,31.6-34.3,51.4-61.6,35.5h0Z"/>
          <path class="cls-2" d="M779,796.1c-7.3,0-14.6-1.9-21.2-5.8h0s-435.9-254.2-435.9-254.2c-39.5-22.9-64-65.4-64-111.1V105.3c0-13.8,7.1-26.1,19.1-33,12-6.9,26.2-6.9,38.2,0l440.8,254.8c41.7,24.2,67.7,69.1,67.7,117.4l-2.3,309.3c0,15.3-7.9,29-21.2,36.6-6.6,3.8-13.9,5.7-21.1,5.7ZM759,788.2c12.5,7.2,27.4,7.2,39.9,0,12.5-7.2,19.9-20.1,19.9-34.5l2.3-309.3c0-47.3-25.5-91.5-66.4-115.2L313.9,74.4c-11.2-6.5-24.5-6.5-35.7,0-11.2,6.4-17.9,18-17.9,30.9v319.8c0,44.8,24.1,86.5,62.8,108.9l435.9,254.2Z"/>
          <path class="cls-3" d="M506,349.3l.4,37-34.7-19.4.3,53.6,34.9,19.9v38.1c0,0,48.5,28.7,48.5,28.7l-.2-38.6,35.3,20.3v-54.1l-34.7-19.4v-38.1l-49.6-28.1Z"/>
          <path class="cls-2" d="M555.2,508.5c-.2,0-.4,0-.6-.2l-48.5-28.7c-.4-.2-.6-.6-.6-1.1v-37.4c0,0-34.2-19.6-34.2-19.6-.4-.2-.6-.6-.6-1.1l-.3-53.6c0-.7.5-1.2,1.2-1.2.2,0,.4,0,.6.2l32.9,18.4-.3-34.9c0-.7.5-1.2,1.2-1.2.2,0,.4,0,.6.2l49.6,28.1c.4.2.6.6.6,1.1v37.4l34.1,19.1c.4.2.6.6.6,1.1v54.1c0,.7-.5,1.2-1.2,1.2-.2,0-.4,0-.6-.2l-33.4-19.2v36.5c.1.7-.4,1.2-1.1,1.2h0ZM507.9,477.8l46.1,27.3v-36.4c-.2-.7.4-1.2,1.1-1.2.2,0,.4,0,.6.2l33.4,19.2v-51.3l-34.1-19.1c-.4-.2-.6-.6-.6-1.1v-37.4l-47.2-26.7.3,34.9c0,.7-.5,1.2-1.2,1.2-.2,0-.4,0-.6-.2l-32.9-18.4.3,50.8,34.3,19.6c.4.2.6.6.6,1.1v37.4Z"/>
          <path class="cls-4" d="M821.6,778c-.7,0-1.2-.5-1.2-1.2,0-.4.2-.8.5-1,9.6-6.8,15.1-19,15.1-33.5l2.3-309.3c0-18.7-3.8-36.9-11.4-54-.3-.6,0-1.3.6-1.6s1.3,0,1.6.6c7.7,17.4,11.6,35.9,11.6,55l-2.3,309.3c0,15.2-5.9,28.2-16.1,35.5-.2.1-.5.2-.7.2h0Z"/>
          <path class="cls-2" d="M828,379.7c-.5,0-.9-.3-1.1-.7-11.5-25.9-30.5-47.1-55-61.3L331,62.9c-9-5.2-19.3-6.3-29.1-3-.6.2-1.3-.1-1.5-.8-.2-.6.1-1.3.8-1.5,10.4-3.5,21.5-2.3,31.1,3.2l440.8,254.8c24.9,14.5,44.3,36,56,62.4.3.6,0,1.3-.6,1.6-.2,0-.3.1-.5.1h0Z"/>
          <path class="cls-2" d="M508.8,36.7l-3.2,66.1-51.6,29.8-9.7-5.6.2-45.8s-1.5-29.8,25.6-27.6l38.8-16.9Z"/>
          <path class="cls-2" d="M453.9,133.8c-.2,0-.4,0-.6-.2l-9.7-5.6c-.4-.2-.6-.6-.6-1.1l.2-45.8c0-.5-.6-14.7,8-23.1,4.6-4.4,10.8-6.4,18.6-5.8l38.5-16.8c.6-.3,1.3,0,1.6.6,0,.2.1.4.1.5l-3.2,66.1c0,.4-.2.8-.6,1l-51.6,29.8c-.2.1-.4.2-.6.2h0ZM445.4,126.2l8.5,4.9,50.5-29.1,3.1-63.5-37,16.1c-.2,0-.4.1-.6,0-7.2-.6-12.9,1.1-17,5.1-7.9,7.6-7.3,21.1-7.3,21.2l-.2,45.1Z"/>
          <path class="cls-4" d="M657,167.9c-17.1-24-29.9-30.4-29.9-30.4l-137.4-78.5s-10.7-5.8-21.9-5.4c-23.5.9-23.5,21.7-23.5,26.1l-.2,47.2,9.7,5.6,1.2-53.9c.2-16.3,10.6-17.1,17.9-15.6,3.2.7,6.3,1.9,9.1,3.5l135.2,77.2s12.8,6.4,29.9,30.4c14.2,20,13,43,13,43l-1.1,33.9,9.5,5.5,1.4-45.7s1.2-23-13-43h0Z"/>
          <path class="cls-2" d="M668.6,257.9c-.2,0-.4,0-.6-.2l-9.5-5.5c-.4-.2-.6-.6-.6-1.1l1.1-33.9c0-.3,1-22.9-12.8-42.3-16.6-23.4-29.3-30-29.4-30l-135.2-77.2c-2.9-1.6-5.8-2.8-8.8-3.4-3.5-.7-8.4-1-11.9,1.8-2.9,2.4-4.4,6.6-4.5,12.6l-1.2,53.9c0,.7-.6,1.2-1.2,1.2-.2,0-.4,0-.6-.2l-9.7-5.6c-.4-.2-.6-.6-.6-1.1l.2-47.2c0-17.1,8.8-26.8,24.7-27.4,11.4-.4,22,5.3,22.5,5.6l137.4,78.5c.5.2,13.2,6.8,30.3,30.8,14.3,20.1,13.3,42.9,13.2,43.8l-1.4,45.7c0,.7-.6,1.2-1.2,1.2ZM660.4,250.5l7.1,4.1,1.3-43.7c0-.3,1-22.9-12.8-42.3-16.6-23.4-29.3-30-29.4-30l-137.5-78.5c0,0-10.5-5.6-21.2-5.3-18.4.7-22.3,13.9-22.3,24.9l-.2,46.5,7.3,4.2,1.2-51.8c0-6.8,1.9-11.6,5.4-14.5,3.3-2.7,8.1-3.5,13.9-2.3,3.2.6,6.4,1.9,9.5,3.6l135.2,77.2c.5.2,13.2,6.8,30.3,30.8,14.3,20.1,13.3,42.9,13.2,43.8l-1,33.2Z"/>
          <path class="cls-3" d="M515.9,7.3s9.8-5.6,18.2-7c11-1.9,21.9,6.4,21.9,6.4l137.4,78.5s11.5,4.5,28.6,28.6c14.2,20,14.4,44.9,14.4,44.9l-1.4,45-58.4,33.5,1.4-44.8s1.2-23-13-43c-17.1-24-29.9-30.4-29.9-30.4l-134.9-77.1s-1.8-1.1-2.5-1.4c-20.3-10.1-31.9-4.7-31.9-4.7l50.1-28.5Z"/>
          <path class="cls-2" d="M668.6,257.9c-.7,0-1.2-.5-1.2-1.2,0,0,0,0,0,0l1.4-44.8c0-.3,1-22.9-12.8-42.3-16.6-23.4-29.3-30-29.4-30l-135-77.1c-.5-.3-1.9-1.1-2.4-1.4-19.5-9.7-30.7-4.8-30.8-4.7-.6.3-1.3,0-1.6-.6s0-1.3.5-1.6l50.1-28.5c.4-.2,10.1-5.7,18.6-7.1,11.1-1.9,21.8,5.9,22.8,6.6l137.3,78.4c1.2.5,12.5,5.7,29,29,14.3,20.1,14.6,44.6,14.6,45.6l-1.4,45.1c0,.4-.2.8-.6,1l-58.4,33.5c-.2.1-.4.2-.6.2h0ZM466.7,52.5c5.6,0,13.5,1.3,23.6,6.3.7.3,2.4,1.3,2.5,1.5l134.9,77.1c.5.2,13.2,6.8,30.3,30.8,14.3,20.1,13.3,42.9,13.2,43.8l-1.3,42.6,55.9-32.1,1.4-44.4c0-.2-.3-24.7-14.1-44.2-16.6-23.3-27.9-28.1-28-28.1,0,0-.1,0-.2,0l-137.4-78.5s0,0-.1,0c-.1,0-10.6-8-21-6.2-8.1,1.4-17.7,6.8-17.8,6.9h0l-43.6,24.8c.5,0,1.1,0,1.7,0ZM508,26.7h0,0Z"/>
          <path class="cls-2" d="M723.4,151.7c4.9,14.2,5,26.5,5,26.5l-1.4,45.1-58.4,33.5,1.4-44.8s0-.7,0-1.9c0-4.2-.7-14.7-5.1-26.3l58.5-32Z"/>
          <path class="cls-2" d="M668.6,257.9c-.7,0-1.2-.6-1.2-1.2,0,0,0,0,0,0l1.4-44.8s0-.7,0-1.8c0-3.9-.6-14.4-5.1-25.9-.2-.6,0-1.2.6-1.5l58.5-32c.6-.3,1.3-.1,1.7.5,0,0,0,.1,0,.2,5,14.2,5.1,26.3,5.1,26.9l-1.4,45.1c0,.4-.2.8-.6,1l-58.4,33.5c-.2.1-.4.2-.6.2h0ZM666.4,184.2c4.2,11.5,4.8,21.8,4.8,25.8,0,.7,0,1.3,0,2l-1.3,42.6,55.9-32.1,1.4-44.4c0,0-.1-11.4-4.5-24.7l-56.3,30.8Z"/>
        </g>
        <g>
          <path class="cls-2" d="M267.2,744.3l294.2,169.9c8.6,5,19.3,4.9,27.9-.2l140.2-83.6c2.6-1.6,3.9-4.2,3.8-6.9,0-2.6,0-6,0-6l-296.8-168.3c-8.2-4.7-18.2-4.6-26.3.2l-146,83.2s-.1,4.7,0,6.8c.1,2.1,1.3,3.9,3,4.9Z"/>
          <path class="cls-2" d="M575.1,919.1c-5.1,0-10-1.3-14.4-3.9l-294.2-169.9c-2.1-1.2-3.5-3.5-3.7-5.9-.1-2.2,0-6.7,0-6.9,0-.4.2-.8.6-1l146-83.2c8.4-5,19-5,27.5-.2l296.8,168.3c.4.2.6.6.6,1.1,0,0,0,3.4,0,6,0,3.3-1.6,6.3-4.4,8l-140.2,83.6c-4.5,2.7-9.5,4.1-14.7,4.1h0ZM267.8,743.3l294.2,169.9c8.3,4.8,18.5,4.7,26.7-.2l140.2-83.6c2.1-1.2,3.3-3.4,3.2-5.8,0-1.8,0-3.6,0-5.3l-296.2-167.9c-7.8-4.4-17.3-4.4-25.1.2l-145.4,82.8c0,1.4,0,4.4,0,6,0,1.6,1,3.1,2.4,4Z"/>
          <path class="cls-1" d="M267.2,738.1l294.2,169.9c8.6,5,19.3,4.9,27.9-.2l140.2-83.6c5.2-3.1,5.1-10.6-.1-13.6l-292.9-167.6c-8.2-4.7-18.2-4.6-26.3.2l-143,84.4c-4,2.4-4,8.2,0,10.6Z"/>
          <path class="cls-2" d="M575.1,912.8c-5.1,0-10-1.3-14.4-3.9l-294.2-169.9c-2.3-1.3-3.7-3.7-3.7-6.3,0-2.6,1.4-5,3.6-6.4l143-84.4c8.5-5,19-5.1,27.5-.2l292.9,167.6c2.8,1.6,4.5,4.5,4.6,7.8s-1.6,6.2-4.4,7.9l-140.2,83.6c-4.5,2.7-9.5,4.1-14.7,4.1h0ZM267.8,737l294.2,169.9c8.3,4.8,18.5,4.7,26.7-.2l140.2-83.6c2-1.2,3.3-3.4,3.2-5.8,0-2.4-1.3-4.5-3.3-5.7l-292.9-167.6c-7.8-4.4-17.3-4.4-25.1.2l-143,84.4c-1.5.9-2.4,2.5-2.4,4.2s.9,3.3,2.4,4.2Z"/>
          <path class="cls-2" d="M397.9,681.2c0,7.8,11,14.1,24.5,14.1s24.5-6.3,24.5-14.1v-6.2s-12.8-7.8-24.5-7.8-24.5,8.3-24.5,8.3c0,0,0,5.8,0,5.8Z"/>
          <path class="cls-2" d="M422.4,696.5c-14.4,0-25.7-6.7-25.7-15.3v-5.8c0-.4.2-.8.6-1,.5-.3,13.3-8.5,25.2-8.5s24.6,7.7,25.1,8c.4.2.6.6.6,1v6.2c0,8.6-11.3,15.3-25.7,15.3ZM399.2,676.1v5.1c0,7.1,10.4,12.9,23.3,12.9s23.3-5.8,23.3-12.9v-5.5c-2.6-1.5-13.5-7.3-23.3-7.3-9.8,0-20.7,6.2-23.3,7.7Z"/>
          <ellipse class="cls-4" cx="422.4" cy="675" rx="24.5" ry="14.1"/>
          <path class="cls-2" d="M422.4,690.3c-14.4,0-25.7-6.7-25.7-15.3s11.3-15.3,25.7-15.3,25.7,6.7,25.7,15.3-11.3,15.3-25.7,15.3ZM422.4,662.1c-12.8,0-23.3,5.8-23.3,12.9s10.4,12.9,23.3,12.9,23.3-5.8,23.3-12.9-10.4-12.9-23.3-12.9ZM311,730.5c0,7.8,11,14.1,24.5,14.1s24.5-6.3,24.5-14.1v-6.2s-12.8-7.8-24.5-7.8-24.5,8.3-24.5,8.3c0,0,0,5.8,0,5.8Z"/>
          <path class="cls-2" d="M335.5,745.8c-14.4,0-25.7-6.7-25.7-15.3v-5.8c0-.4.2-.8.6-1,.5-.3,13.3-8.5,25.2-8.5s24.6,7.7,25.1,8c.4.2.6.6.6,1v6.2c0,8.6-11.3,15.3-25.7,15.3ZM312.2,725.3v5.1c0,7.1,10.4,12.9,23.3,12.9s23.3-5.8,23.3-12.9v-5.5c-2.6-1.5-13.5-7.3-23.3-7.3s-20.7,6.2-23.3,7.7Z"/>
          <ellipse class="cls-4" cx="335.5" cy="724.2" rx="24.5" ry="14.1"/>
          <path class="cls-2" d="M335.5,739.5c-14.4,0-25.7-6.7-25.7-15.3s11.3-15.3,25.7-15.3,25.7,6.7,25.7,15.3-11.3,15.3-25.7,15.3ZM335.5,711.3c-12.8,0-23.3,5.8-23.3,12.9s10.4,12.9,23.3,12.9,23.3-5.8,23.3-12.9-10.4-12.9-23.3-12.9ZM478.5,728.8c0,7.8,11,14.1,24.5,14.1s24.5-6.3,24.5-14.1v-6.2s-12.8-7.8-24.5-7.8-24.5,8.3-24.5,8.3v5.8h0Z"/>
          <path class="cls-2" d="M503,744.1c-14.4,0-25.7-6.7-25.7-15.3v-5.8c0-.4.2-.8.6-1,.5-.3,13.3-8.5,25.2-8.5s24.6,7.7,25.1,8c.4.2.6.6.6,1v6.2c0,8.6-11.3,15.3-25.7,15.3h0ZM479.7,723.7v5.1c0,7.1,10.4,12.9,23.3,12.9s23.3-5.8,23.3-12.9v-5.5c-2.6-1.5-13.5-7.3-23.3-7.3s-20.7,6.2-23.3,7.7Z"/>
          <ellipse class="cls-4" cx="503" cy="722.5" rx="24.5" ry="14.1"/>
          <path class="cls-2" d="M503,737.8c-14.4,0-25.7-6.7-25.7-15.3s11.3-15.3,25.7-15.3,25.7,6.7,25.7,15.3-11.3,15.3-25.7,15.3ZM503,709.7c-12.8,0-23.3,5.8-23.3,12.9s10.4,12.9,23.3,12.9,23.3-5.8,23.3-12.9-10.4-12.9-23.3-12.9ZM391.5,778c0,7.8,11,14.1,24.5,14.1s24.5-6.3,24.5-14.1v-6.2s-12.8-7.8-24.5-7.8-24.5,8.3-24.5,8.3c0,0,0,5.8,0,5.8Z"/>
          <path class="cls-2" d="M416,793.3c-14.4,0-25.7-6.7-25.7-15.3v-5.8c0-.4.2-.8.6-1,.5-.3,13.3-8.5,25.2-8.5s24.6,7.7,25.1,8c.4.2.6.6.6,1v6.2c0,8.6-11.3,15.3-25.7,15.3ZM392.7,772.9v5.1c0,7.1,10.4,12.9,23.3,12.9s23.3-5.8,23.3-12.9v-5.5c-2.6-1.5-13.5-7.3-23.3-7.3s-20.7,6.2-23.3,7.7Z"/>
          <ellipse class="cls-4" cx="416" cy="771.8" rx="24.5" ry="14.1"/>
          <path class="cls-2" d="M416,787.1c-14.4,0-25.7-6.7-25.7-15.3s11.3-15.3,25.7-15.3,25.7,6.7,25.7,15.3-11.3,15.3-25.7,15.3ZM416,758.9c-12.8,0-23.3,5.8-23.3,12.9s10.4,12.9,23.3,12.9,23.3-5.8,23.3-12.9-10.4-12.9-23.3-12.9ZM559.7,773.9c0,7.8,11,14.1,24.5,14.1s24.5-6.3,24.5-14.1v-6.2s-12.8-7.8-24.5-7.8-24.5,8.3-24.5,8.3v5.8h0Z"/>
          <path class="cls-2" d="M584.2,789.2c-14.4,0-25.7-6.7-25.7-15.3v-5.8c0-.4.2-.8.6-1,.5-.3,13.3-8.5,25.2-8.5s24.6,7.7,25.1,8c.4.2.6.6.6,1v6.2c0,8.6-11.3,15.3-25.7,15.3ZM560.9,768.8v5.1c0,7.1,10.4,12.9,23.3,12.9s23.3-5.8,23.3-12.9v-5.5c-2.6-1.5-13.5-7.3-23.3-7.3s-20.7,6.2-23.3,7.7Z"/>
          <ellipse class="cls-4" cx="584.2" cy="767.6" rx="24.5" ry="14.1"/>
          <path class="cls-2" d="M584.2,782.9c-14.4,0-25.7-6.7-25.7-15.3s11.3-15.3,25.7-15.3,25.7,6.7,25.7,15.3-11.3,15.3-25.7,15.3ZM584.2,754.8c-12.8,0-23.3,5.8-23.3,12.9s10.4,12.9,23.3,12.9,23.3-5.8,23.3-12.9-10.4-12.9-23.3-12.9ZM472.7,824.1c0,7.8,11,14.1,24.5,14.1s24.5-6.3,24.5-14.1v-6.2s-12.8-7.8-24.5-7.8-24.5,8.3-24.5,8.3v5.8Z"/>
          <path class="cls-2" d="M497.2,839.4c-14.4,0-25.7-6.7-25.7-15.3v-5.8c0-.4.2-.8.6-1,.5-.3,13.3-8.5,25.2-8.5s24.6,7.7,25.1,8c.4.2.6.6.6,1v6.2c0,8.6-11.3,15.3-25.7,15.3h0ZM474,819v5.1c0,7.1,10.4,12.9,23.3,12.9s23.3-5.8,23.3-12.9v-5.5c-2.6-1.5-13.5-7.3-23.3-7.3-9.8,0-20.7,6.2-23.3,7.7h0Z"/>
          <ellipse class="cls-4" cx="497.2" cy="817.9" rx="24.5" ry="14.1"/>
          <path class="cls-2" d="M497.2,833.2c-14.4,0-25.7-6.7-25.7-15.3s11.3-15.3,25.7-15.3,25.7,6.7,25.7,15.3-11.3,15.3-25.7,15.3ZM497.2,805c-12.8,0-23.3,5.8-23.3,12.9s10.4,12.9,23.3,12.9,23.3-5.8,23.3-12.9-10.4-12.9-23.3-12.9ZM640.3,820.4c0,7.8,11,14.1,24.5,14.1s24.5-6.3,24.5-14.1v-6.2s-12.8-7.8-24.5-7.8-24.5,8.3-24.5,8.3v5.8h0Z"/>
          <path class="cls-2" d="M664.8,835.7c-14.4,0-25.7-6.7-25.7-15.3v-5.8c0-.4.2-.8.6-1,.5-.3,13.3-8.5,25.2-8.5s24.6,7.7,25.1,8c.4.2.6.6.6,1v6.2c0,8.6-11.3,15.3-25.7,15.3h0ZM641.5,815.3v5.1c0,7.1,10.4,12.9,23.3,12.9s23.3-5.8,23.3-12.9v-5.5c-2.6-1.5-13.5-7.3-23.3-7.3s-20.7,6.2-23.3,7.7h0Z"/>
          <ellipse class="cls-4" cx="664.8" cy="814.1" rx="24.5" ry="14.1"/>
          <path class="cls-2" d="M664.8,829.4c-14.4,0-25.7-6.7-25.7-15.3s11.3-15.3,25.7-15.3,25.7,6.7,25.7,15.3-11.3,15.3-25.7,15.3ZM664.8,801.3c-12.8,0-23.3,5.8-23.3,12.9s10.4,12.9,23.3,12.9,23.3-5.8,23.3-12.9-10.4-12.9-23.3-12.9ZM553.3,870.6c0,7.8,11,14.1,24.5,14.1s24.5-6.3,24.5-14.1v-6.2s-12.8-7.8-24.5-7.8-24.5,8.3-24.5,8.3v5.8h0Z"/>
          <path class="cls-2" d="M577.8,885.9c-14.4,0-25.7-6.7-25.7-15.3v-5.8c0-.4.2-.8.6-1,.5-.3,13.3-8.5,25.2-8.5s24.6,7.7,25.1,8c.4.2.6.6.6,1v6.2c0,8.6-11.3,15.3-25.7,15.3h0ZM554.5,865.5v5.1c0,7.1,10.4,12.9,23.3,12.9s23.3-5.8,23.3-12.9v-5.5c-2.6-1.5-13.5-7.3-23.3-7.3s-20.7,6.2-23.3,7.7h0Z"/>
          <ellipse class="cls-4" cx="577.8" cy="864.4" rx="24.5" ry="14.1"/>
          <path class="cls-2" d="M577.8,879.7c-14.4,0-25.7-6.7-25.7-15.3s11.3-15.3,25.7-15.3,25.7,6.7,25.7,15.3-11.3,15.3-25.7,15.3ZM577.8,851.5c-12.8,0-23.3,5.8-23.3,12.9s10.4,12.9,23.3,12.9,23.3-5.8,23.3-12.9-10.4-12.9-23.3-12.9Z"/>
          <path class="cls-4" d="M648.5,860.6c-2.5,1.6-5.6,1.6-8.2.2l-289.5-166.5c-1-.6-1.3-1.8-.7-2.8.2-.3.4-.5.7-.7h.2c2.6-1.7,5.9-1.8,8.6-.2l288.7,164.8c2,1.1,2,4,.1,5.2h0Z"/>
          <path class="cls-2" d="M644.2,863.1c-1.6,0-3.2-.4-4.6-1.2l-289.5-166.5c-1-.6-1.6-1.6-1.6-2.8s.6-2.2,1.6-2.8h.2c3-2,6.8-2,9.9-.3l288.7,164.8c1.3.7,2.1,2.1,2.1,3.6s-.7,2.9-2,3.7c-1.5.9-3.2,1.4-4.9,1.4ZM355.4,690.7c-1.3,0-2.6.3-3.8,1h-.2c-.4.4-.4.7-.4.8s0,.5.4.7l289.5,166.5c2.2,1.2,4.8,1.2,7-.1.6-.3.9-.9.8-1.6s-.3-1.2-.9-1.5l-288.7-164.8c-1.1-.6-2.4-1-3.6-1Z"/>
        </g>
        <g>
          <path class="cls-3" d="M1.5,92.8l36.8-21.5,176.9,9.7,177.8,195.1-.6,157.4s-2.8,98.7-65.2,135c-7.8,4.5-41.4,24.6-48.8,27.4,90.7-73.3,69-297.1,69-297.1L175.6,109.6,1.5,92.8Z"/>
          <path class="cls-2" d="M278.5,596.7c-.4,0-.8-.4-.8-.8,0-.2.1-.5.3-.6,46.7-37.7,62.8-116.2,68.2-175.5,5.6-62,.9-116.4.5-120.7L175.3,110.4,1.4,93.6c-.4,0-.8-.4-.7-.9,0-.3.2-.5.4-.6l36.8-21.5c.1,0,.3-.1.5-.1l176.9,9.7c.2,0,.4.1.6.3l177.8,195.1c.1.1.2.3.2.5l-.6,157.4c0,.3-.8,25.1-9.2,54.1-7.8,26.8-23.9,62.7-56.4,81.6-1.2.7-3,1.8-5.2,3.1-12.1,7.1-37.3,22-43.7,24.4,0,0-.2,0-.3,0h0ZM4,92.3l171.7,16.5c.2,0,.4.1.5.3l171.8,189.2c.1.1.2.3.2.5,0,.6,5.4,56.8-.5,121.2-3.4,37.9-10,71.1-19.5,98.9-11,32.1-26,56.9-44.7,73.8,9.9-5.1,28.2-16,38-21.7,2.2-1.3,4-2.4,5.2-3.1,32-18.6,47.9-54.1,55.6-80.6,8.4-28.8,9.2-53.5,9.2-53.7l.6-157L214.9,81.8l-176.4-9.7L4,92.3Z"/>
          <path class="cls-2" d="M393,276.1l-.6,157.4s-2.8,98.7-65.2,135c-7.8,4.5-41.4,24.6-48.8,27.4,90.7-73.3,69.2-294.4,69.2-294.4l45.3-25.4Z"/>
          <path class="cls-2" d="M278.5,596.7c-.4,0-.8-.4-.8-.8,0-.2.1-.5.3-.6,46.7-37.7,62.9-115.5,68.3-174.1,5.9-63.6.6-119,.6-119.6,0-.3.1-.6.4-.8l45.3-25.4c.4-.2.9,0,1.1.3,0,.1.1.3.1.4l-.6,157.4c0,.3-.8,25.1-9.2,54.1-7.8,26.8-23.9,62.7-56.4,81.6-1.2.7-3,1.8-5.2,3.1-12.1,7.1-37.3,22-43.7,24.4,0,0-.2,0-.3,0h0ZM348.6,302c.5,5.8,5,58.9-.6,119.3-3.5,37.5-10.1,70.4-19.6,98-11,31.9-26.1,56.5-44.7,73.3,9.9-5.2,28.2-16,38-21.7,2.2-1.3,4-2.4,5.2-3.1,32-18.6,47.9-54.2,55.6-80.7,8.4-28.8,9.2-53.4,9.2-53.7l.6-156-43.7,24.5h0Z"/>
          <path class="cls-4" d="M177.7,102.5L.8,92.8l.6,153.1s2.2,90.7,52.6,190.1c58.3,114.9,121.5,166,121.5,166,0,0,53,23.7,114.2-12,62.4-36.4,65.2-135,65.2-135l.5-157.4L177.7,102.5Z"/>
          <path class="cls-2" d="M218.8,610.5c-3.3,0-6.3-.1-9.2-.3-20.8-1.5-34.3-7.4-34.4-7.5,0,0-.1,0-.2-.1-.6-.5-64-52.5-121.7-166.2C3.4,337.9.6,246.8.6,245.9L0,92.8c0-.4.4-.8.8-.8,0,0,0,0,0,0l176.9,9.7c.2,0,.4.1.6.3l177.8,195.1c.1.1.2.3.2.5l-.6,157.4c0,.3-.8,25.1-9.2,54.1-7.8,26.8-23.9,62.7-56.4,81.6-27.1,15.8-52.6,19.8-71.4,19.8h0ZM175.9,601.2c1.2.5,14.2,5.9,33.9,7.3,18.9,1.3,48.1-.9,79.6-19.3,32-18.6,47.9-54.1,55.6-80.6,8.4-28.8,9.2-53.5,9.2-53.7l.5-157L177.4,103.3,1.6,93.6l.6,152.2c0,.9,2.8,91.6,52.5,189.7,56.6,111.5,118.5,163.5,121.2,165.6Z"/>
          <path class="cls-3" d="M142.7,573.7s48.5,18,102.3-13.4c54.8-31.9,55.4-128.7,55.4-128.7v-131.2L141.1,121.3l1.6,452.4h0Z"/>
          <path class="cls-2" d="M213,588c-1.3,0-2.6,0-3.9,0-18.8-.6-31.1-5.1-31.2-5.1-.3-.1-.5-.4-.5-.8l-1.6-452.4c0-.4.4-.8.8-.8.2,0,.5,0,.6.3l159.3,179.1c.1.1.2.3.2.5v131.2c0,.2-.2,24.6-7.2,52.6-6.4,25.9-20.1,60.2-48.6,76.8-25.9,15.1-50.6,18.6-67.9,18.6ZM179,581.5c5.4,1.8,51.2,15.6,101.1-13.5,28-16.3,41.5-50.2,47.9-75.8,6.9-27.8,7.2-52,7.2-52.2v-130.9l-157.7-177.3,1.6,449.7Z"/>
          <path class="cls-2" d="M178.2,582.8c-.2,0-.4,0-.6-.3-.6-.6-57.4-65.2-105.5-160.1C30.4,340.3,23.4,252.1,23.3,251.3l-.5-131.8c0-.2,0-.4.3-.6.2-.2.4-.2.6-.2l153,10.2c.4,0,.8.4.8.8l1.6,452.4c0,.4-.4.8-.8.8h0ZM24.4,120.3l.5,130.9c0,.8,7,88.7,48.6,170.5,43.8,86.3,94.8,147.5,103.9,158.1l-1.6-449.4-151.4-10.1Z"/>
        </g>
      </g>
    </g>
  </g>
</svg>