<?xml version="1.0" encoding="utf-8"?>
<!-- Generator: Adobe Illustrator 27.9.4, SVG Export Plug-In . SVG Version: 9.03 Build 54784)  -->
<svg version="1.1" xmlns="http://www.w3.org/2000/svg" xmlns:xlink="http://www.w3.org/1999/xlink" x="0px" y="0px"
	 viewBox="0 0 1334.9 835" style="enable-background:new 0 0 1334.9 835;" xml:space="preserve">
<style type="text/css">
	.st0{fill:#1FBD12;}
</style>
<g id="Icon_12">
	<g id="Background_00000181085473120924766440000008359310022367639446_">
	</g>
	<g id="Graphic_Element_00000139987615491972995670000000205171336384789910_">
	</g>
</g>
<g id="Icon_11">
	<g id="Background_00000124160698490752462370000015074061245128657540_">
	</g>
	<g id="Graphic_Element_00000103223053937165422050000015099975048898885790_">
	</g>
</g>
<g id="Icon_10">
	<g id="Background_00000126289237529052521510000013135386653803963031_">
	</g>
	<g id="Graphic_Element_00000162324243943510990180000014652320727710292877_">
	</g>
</g>
<g id="Icon_9">
	<g id="Background_00000101089532740682894710000008886692251885777538_">
	</g>
	<g id="Graphic_Element_00000134208698837610012090000004646528903334146733_">
	</g>
</g>
<g id="Icon_8">
	<g id="Background_00000041266290278271468360000008890708275022718134_">
	</g>
	<g id="Graphic_Element_00000152973077768261679460000007666503768301419436_">
	</g>
</g>
<g id="Icon_7">
	<g id="Background_00000010294989580253080930000006052270401907515564_">
	</g>
	<g id="Graphic_Element_00000116915578523808765230000008709582457729109409_">
	</g>
</g>
<g id="Icon_6">
	<g id="Background_00000104703663348800237720000007845569850798432176_">
	</g>
	<g id="Graphic_Element_00000148626337414861463970000007793628698386561203_">
	</g>
</g>
<g id="Icon_5">
	<g id="Background_00000138559168453423076640000003101449311676301732_">
	</g>
	<g id="Graphic_Element_00000046332346543036041780000015465011498935417773_">
	</g>
</g>
<g id="Icon_4">
	<g id="Background_00000081618632636912795430000000200520918716352656_">
	</g>
	<g id="Graphic_Element_00000158004319951344377280000013235652517248117438_">
	</g>
</g>
<g id="Icon_3">
	<g id="Background_00000096043393755961678900000006441498547065581191_">
	</g>
	<g id="Graphic_Element_00000119825194373934416630000011173998598770546828_">
	</g>
</g>
<g id="Icon_2">
	<g id="Background_00000171694364179606017780000016078152132726503572_">
	</g>
	<g id="Graphic_Element_00000135655202585488692350000009155127823867040442_">
	</g>
</g>
<g id="Icon_1">
	<g id="Background">
	</g>
	<g id="Graphic_Element">
	</g>
	<path class="st0" d="M2072.4,649.6c0-357.4-290.8-648.2-648.2-648.2l-776.1,0C475,1.4,312.3,68.9,189.8,191.3
		C67.4,313.7,0,476.5,0,649.6c0,173.1,67.4,335.9,189.8,458.3c122.4,122.4,285.2,189.8,458.3,189.8h776.1
		C1781.7,1297.8,2072.4,1007,2072.4,649.6z M214.9,1082.9C99.1,967.2,35.4,813.3,35.4,649.6c0-163.7,63.7-317.5,179.5-433.3
		C330.6,100.6,484.5,36.9,648.2,36.9l564.2,0c-45.2,15.6-88.4,36.2-129.2,61.5l-435,0c-303.9,0-551.2,247.3-551.2,551.2
		c0,152,61.8,289.8,161.6,389.6c99.8,99.8,237.6,161.6,389.6,161.6c303.9,0,551.2-247.3,551.2-551.2c0-60.1,23.4-116.6,65.9-159
		c42.5-42.5,99-65.9,159-65.9c60.1,0,116.6,23.4,159,65.9c42.5,42.5,65.9,99,65.9,159c0,60.1-23.4,116.6-65.9,159
		c-42.5,42.5-99,65.9-159,65.9l-168.3,0c7.5-20.1,14-40.6,19.4-61.6l148.9,0c90.1,0,163.4-73.3,163.4-163.4
		c0-90.1-73.3-163.4-163.4-163.4c-90.1,0-163.4,73.3-163.4,163.4c0,337.9-274.9,612.7-612.7,612.7
		C484.5,1262.4,330.6,1198.6,214.9,1082.9z M1188.6,1006.9h235.7c197,0,357.3-160.3,357.3-357.3c0-197-160.3-357.3-357.3-357.3
		c-197,0-357.3,160.3-357.3,357.3c0,111.9-43.6,217.1-122.7,296.2c-79.1,79.1-184.3,122.7-296.2,122.7
		c-111.9,0-217.1-43.6-296.2-122.7c-79.1-79.1-122.7-184.3-122.7-296.2c0-111.9,43.6-217.1,122.7-296.2
		c79.1-79.1,184.3-122.7,296.2-122.7l281.6,0c-16.8,19.7-32.3,40.2-46.5,61.5l-235.2,0c-95.4,0-185.2,37.2-252.7,104.6
		C328,464.4,290.8,554.2,290.9,649.6c0,98.5,40.1,187.8,104.8,252.5c64.7,64.7,154,104.8,252.5,104.8c197,0,357.3-160.3,357.3-357.3
		c0-111.9,43.6-217.1,122.7-296.2s184.3-122.7,296.2-122.7c111.9,0,217.1,43.6,296.2,122.7c79.1,79.1,122.7,184.3,122.7,296.2
		c0,230.9-187.9,418.8-418.8,418.8l-282.1,0C1158.8,1048.9,1174.3,1028.4,1188.6,1006.9z M1109.9,1103.9l314.4,0
		c250.5,0,454.2-203.8,454.2-454.2c0-121.3-47.2-235.4-133-321.2c-85.8-85.8-199.9-133.1-321.2-133c-121.3,0-235.4,47.2-321.2,133
		c-85.8,85.8-133.1,199.9-133,321.2c0,177.5-144.4,321.9-321.9,321.9c-177.5,0-321.9-144.4-321.9-321.9c0-86,33.5-166.8,94.3-227.6
		c60.8-60.8,141.6-94.3,227.6-94.3l213.4,0c-11.5,20-21.8,40.5-31.1,61.5l-182.4,0c-69.5,0-134.9,27.1-184.1,76.2
		c-49.2,49.2-76.3,114.6-76.2,184.1c0,69.5,27.1,134.9,76.2,184.1c49.2,49.2,114.6,76.3,184.1,76.2c69.5,0,134.9-27.1,184.1-76.2
		c49.2-49.2,76.3-114.6,76.2-184.1c0-284.4,231.4-515.8,515.8-515.8c284.4,0,515.8,231.4,515.8,515.8
		c0,284.4-231.4,515.8-515.8,515.8l-384.2,0C1064.8,1146.6,1088.1,1126,1109.9,1103.9z M966,191.3c-1.3,1.3-2.6,2.7-3.9,4.1
		l-313.9,0c-121.3,0-235.4,47.2-321.2,133c-85.8,85.8-133.1,199.9-133,321.2c0,121.3,47.2,235.4,133,321.2
		c85.8,85.8,199.9,133.1,321.2,133c250.5,0,454.2-203.8,454.2-454.2c0-177.5,144.4-321.9,321.9-321.9
		c177.5,0,321.9,144.4,321.9,321.9c0,177.5-144.4,321.9-321.9,321.9l-213.9,0c11.4-19.9,21.9-40.4,31.2-61.5l182.7,0
		c69.5,0,134.9-27.1,184.1-76.2c49.2-49.2,76.3-114.6,76.2-184.1c0-69.5-27.1-134.9-76.2-184.1c-49.2-49.2-114.6-76.3-184.1-76.2
		c-69.5,0-134.9,27.1-184.1,76.2c-49.2,49.2-76.3,114.6-76.2,184.1c0,284.4-231.4,515.8-515.8,515.8
		c-284.4,0-515.8-231.4-515.8-515.8c0-284.4,231.4-515.8,515.8-515.8l383.7,0C1008.9,151.4,986.8,170.5,966,191.3z M1296.3,649.6
		c0-70.6,57.4-128,128-128c70.6,0,128,57.4,128,128c0,70.6-57.4,128-128,128l-140.7,0C1291.9,736.2,1296.3,693.4,1296.3,649.6z
		 M1424.3,1262.3H859c45.7-15.8,89.1-36.5,129.6-61.5l435.6,0c303.9,0,551.2-247.3,551.2-551.2c0-303.9-247.3-551.2-551.2-551.2
		c-303.9,0-551.2,247.3-551.2,551.2c0,60.1-23.4,116.6-65.9,159c-42.5,42.5-99,65.9-159,65.9s-116.6-23.4-159-65.9
		c-42.5-42.5-65.9-99-65.9-159c0-60.1,23.4-116.6,65.9-159c42.5-42.5,99-65.9,159-65.9l168,0c-7.4,20.1-13.9,40.7-19.3,61.5
		l-148.7,0c-90.1,0-163.4,73.3-163.4,163.4c0,45,18.3,85.9,47.9,115.5c29.6,29.6,70.4,47.9,115.5,47.9
		c90.1,0,163.4-73.3,163.4-163.4c0-163.7,63.7-317.5,179.5-433.3c115.7-115.7,269.6-179.5,433.3-179.5
		c337.9,0,612.7,274.9,612.7,612.7C2037,987.5,1762.1,1262.3,1424.3,1262.3z M776.1,649.6c0,70.6-57.4,128-128,128
		c-70.6,0-128-57.4-128-128c0-70.6,57.4-128,128-128h140.5C780.4,563.3,776.1,606.1,776.1,649.6z"/>
</g>
</svg>
