<?xml version="1.0" encoding="UTF-8"?>
<svg id="Layer_1" data-name="Layer 1" xmlns="http://www.w3.org/2000/svg" version="1.1" viewBox="0 0 141.1 267.1">
  <defs>
    <style>
      .cls-1 {
        fill: #fff;
        stroke-width: 0px;
      }
    </style>
  </defs>
  <g>
    <path class="cls-1" d="M157.5,189.8h-63.9c-.2-35.2,28.4-63.9,63.9-63.9v63.9Z"/>
    <g>
      <path class="cls-1" d="M93.4,199h63.9c0,35.2-28.6,63.9-63.9,63.9v-63.9Z"/>
      <path class="cls-1" d="M84.2,199v63.9c-35.2.2-63.9-28.6-63.9-63.9h63.9Z"/>
      <path class="cls-1" d="M20.4,189.8v-63.9c35.2,0,63.9,28.6,63.9,63.9H20.4Z"/>
    </g>
  </g>
  <g>
    <path class="cls-1" d="M72.4,73.4h63.9c.2,35.2-28.4,63.9-63.9,63.9v-63.9Z"/>
    <g>
      <path class="cls-1" d="M136.4,64.2h-63.9C72.6,29,101.2.3,136.4.3v63.9Z"/>
      <path class="cls-1" d="M145.6,64.2V.3c35.2-.2,63.9,28.6,63.9,63.9h-63.9Z"/>
      <path class="cls-1" d="M209.5,73.4v63.9c-35.2,0-63.9-28.6-63.9-63.9h63.9Z"/>
    </g>
  </g>
</svg>