<?xml version="1.0" encoding="UTF-8"?>
<svg id="Layer_1" data-name="Layer 1" xmlns="http://www.w3.org/2000/svg" version="1.1" viewBox="0 0 189.1 262.6">
  <defs>
    <style>
      .cls-1 {
        fill: #fff;
        stroke-width: 0px;
      }
    </style>
  </defs>
  <path class="cls-1" d="M137.1,189.5h-63.9c-.2-35.2,28.4-63.9,63.9-63.9v63.9Z"/>
  <path class="cls-1" d="M0,198.7h63.9c0,35.2-28.6,63.9-63.9,63.9v-63.9Z"/>
  <path class="cls-1" d="M136.9,198.7v63.9c-35.2.2-63.9-28.6-63.9-63.9h63.9Z"/>
  <path class="cls-1" d="M0,189.5v-63.9c35.2,0,63.9,28.6,63.9,63.9H0Z"/>
  <path class="cls-1" d="M52,73.1h63.9c.2,35.2-28.4,63.9-63.9,63.9v-63.9Z"/>
  <path class="cls-1" d="M116,63.9h-63.9C52.2,28.6,80.8,0,116,0v63.9Z"/>
  <path class="cls-1" d="M125.2,63.9V0c35.2-.2,63.9,28.6,63.9,63.9h-63.9Z"/>
  <path class="cls-1" d="M189.1,73.1v63.9c-35.2,0-63.9-28.6-63.9-63.9h63.9Z"/>
</svg>