<?xml version="1.0" encoding="UTF-8"?>
<svg xmlns="http://www.w3.org/2000/svg" version="1.1" viewBox="0 0 782.4 1360.8">
  <defs>
    <style>
      .cls-1 {
        fill: #adc4cb;
      }

      .cls-1, .cls-2, .cls-3, .cls-4 {
        stroke-width: 0px;
      }

      .cls-2 {
        fill: #000;
      }

      .cls-3 {
        fill: #1d88fe;
        mix-blend-mode: multiply;
        opacity: .6;
      }

      .cls-5 {
        isolation: isolate;
      }

      .cls-4 {
        fill: #fff;
      }
    </style>
  </defs>
  <g class="cls-5">
    <g id="Layer_1" data-name="Layer 1">
      <g>
        <path class="cls-2" d="M626.8,1270.6c15.7,24.3,12.6,57.5,3.3,64.8-4.1,3.2-36.2,20.7-36.2,20.7l-57-87.7s31.3-17.7,36.4-21c13.5-8.7,37.8-1.1,53.5,23.2Z"/>
        <path class="cls-2" d="M593.9,1357.1c-.3,0-.6-.2-.8-.5l-57-87.7c-.1-.2-.2-.5-.1-.8,0-.3.2-.5.5-.6.3-.2,31.3-17.7,36.3-21,13.5-8.7,38.3-2.2,54.9,23.5,15.7,24.3,13,58.4,3,66.1-4.1,3.2-35,20.1-36.3,20.8-.2,0-.3.1-.5.1h0ZM538.3,1268.8l55.9,86c5-2.7,31.5-17.3,35.2-20.2,8.3-6.5,12.6-38.4-3.5-63.5-15.4-23.9-39.4-31.1-52.1-22.9-4.7,3-30.2,17.5-35.5,20.5h0Z"/>
        <path class="cls-4" d="M567.9,1274.9l-30.2-46,36.9-15.7,30,8.8v30.7l-36.7,22.2Z"/>
        <path class="cls-2" d="M568,1275.9c-.3,0-.6-.2-.8-.5l-30.2-46c-.2-.2-.2-.6-.1-.8,0-.3.3-.5.6-.6l36.9-15.7c.2,0,.5-.1.7,0l30,8.8c.4.1.7.5.7,1v30.7c0,.3-.2.7-.5.9l-36.7,22.2c-.2,0-.3.1-.5.1h0ZM539.3,1229.4l29,44.2,35.4-21.4v-29.4l-28.9-8.5-35.5,15.1h0Z"/>
        <path class="cls-4" d="M567.9,1282.5h-30.2v-53.6l30.2,10.6v43Z"/>
        <path class="cls-2" d="M567.9,1283.5h-30.2c-.6,0-1-.4-1-1v-53.6c0-.3.2-.6.4-.8.3-.2.6-.2.9-.1l30.2,10.6c.4.1.7.5.7.9v43c0,.6-.4,1-1,1h0ZM538.8,1281.5h28.2v-41.3l-28.2-9.9v51.2Z"/>
        <ellipse class="cls-4" cx="564.2" cy="1313" rx="29.1" ry="52.4" transform="translate(-621.8 515.7) rotate(-32.8)"/>
        <path class="cls-2" d="M582.7,1360.8c-4.9,0-10.4-1.5-16.1-4.6-10.1-5.4-19.9-14.9-27.6-26.8-16-24.7-17.6-52.1-3.7-61.1,6.8-4.4,16.3-3.8,26.6,1.7,10.1,5.4,19.9,14.9,27.6,26.8,16,24.7,17.6,52.1,3.7,61.1-3,2-6.6,2.9-10.4,2.9h0ZM545.7,1267.3c-3.5,0-6.7.9-9.4,2.6-13,8.4-11.1,34.6,4.3,58.4,7.5,11.6,17,20.9,26.9,26.2,9.6,5.2,18.4,5.8,24.6,1.8,13-8.4,11.1-34.6-4.3-58.4-7.5-11.6-17-20.9-26.9-26.2-5.5-2.9-10.6-4.4-15.2-4.4h0Z"/>
        <ellipse class="cls-4" cx="563.8" cy="1313" rx="14.6" ry="26.4" transform="translate(-621.8 515.4) rotate(-32.8)"/>
        <path class="cls-2" d="M573.1,1337.5c-2.6,0-5.4-.8-8.4-2.4-5.2-2.8-10.2-7.6-14.1-13.7-3.9-6.1-6.3-12.6-6.7-18.5-.4-6.1,1.4-10.7,5-13,3.6-2.3,8.5-2,13.9.8,5.2,2.8,10.2,7.6,14.1,13.7,3.9,6.1,6.3,12.6,6.7,18.5.4,6.1-1.4,10.7-5,13-1.6,1-3.5,1.6-5.5,1.6h0ZM554.5,1290.4c-1.7,0-3.2.4-4.5,1.2-3,1.9-4.4,5.9-4.1,11.2.4,5.5,2.6,11.7,6.4,17.5s8.5,10.4,13.4,13c4.7,2.5,8.9,2.8,11.9.9,3-1.9,4.4-5.9,4.1-11.2-.4-5.5-2.6-11.7-6.4-17.5-3.7-5.8-8.5-10.4-13.4-13-2.7-1.4-5.2-2.2-7.4-2.2h0Z"/>
        <path class="cls-2" d="M764.7,1191c15.7,24.3,12.6,57.5,3.3,64.8-4.1,3.2-36.2,20.7-36.2,20.7l-57-87.7s31.3-17.7,36.4-21c13.5-8.7,37.8-1.1,53.5,23.2Z"/>
        <path class="cls-2" d="M731.8,1277.5c-.3,0-.6-.2-.8-.5l-57-87.7c-.2-.2-.2-.5-.1-.8s.2-.5.5-.6c.3-.2,31.3-17.7,36.3-21,7-4.5,16.8-4.8,26.8-.9,10.7,4.2,20.6,12.9,28,24.4,15.7,24.3,13,58.4,3,66.1-4.1,3.2-35,20.1-36.3,20.8-.2,0-.3.1-.5.1h0ZM676.3,1189.2l55.9,86c5-2.7,31.5-17.3,35.2-20.2,8.3-6.5,12.7-38.4-3.5-63.5-7.2-11.1-16.8-19.5-27.1-23.6-9.4-3.7-18.6-3.5-25,.7-4.7,3-30.2,17.5-35.5,20.5h0Z"/>
        <path class="cls-4" d="M705.9,1195.3l-30.2-46,36.9-15.7,30,8.8v30.7l-36.7,22.2Z"/>
        <path class="cls-2" d="M705.9,1196.3c-.3,0-.6-.2-.8-.5l-30.2-46c-.2-.2-.2-.6-.1-.8s.3-.5.6-.6l36.9-15.7c.2,0,.5-.1.7,0l30,8.8c.4.1.7.5.7,1v30.7c0,.3-.2.7-.5.9l-36.7,22.2c-.2,0-.3.1-.5.1h0ZM677.2,1149.8l29,44.2,35.4-21.4v-29.4l-28.9-8.5-35.5,15.1h0Z"/>
        <path class="cls-4" d="M705.9,1202.9h-30.2v-53.6l30.2,10.6v43Z"/>
        <path class="cls-2" d="M705.9,1203.9h-30.2c-.6,0-1-.4-1-1v-53.6c0-.3.2-.6.4-.8s.6-.2.9-.1l30.2,10.6c.4.1.7.5.7.9v43c0,.6-.4,1-1,1h0ZM676.7,1201.9h28.2v-41.3l-28.2-9.9v51.2Z"/>
        <ellipse class="cls-4" cx="702.2" cy="1233.4" rx="29.1" ry="52.4" transform="translate(-556.6 577.7) rotate(-32.8)"/>
        <path class="cls-2" d="M720.8,1281.1c-13.7,0-31.4-12-43.9-31.4-7.7-11.9-12.3-24.7-13.1-36.2-.8-11.7,2.6-20.5,9.4-24.9,6.8-4.4,16.3-3.8,26.6,1.7,10.1,5.4,19.9,14.9,27.6,26.8,16,24.7,17.6,52.1,3.7,61.1-3,1.9-6.5,2.9-10.3,2.9h0ZM683.7,1187.7c-3.5,0-6.7.9-9.4,2.6-6.2,4-9.2,12.2-8.5,23.1.7,11.1,5.3,23.6,12.8,35.2,12.1,18.8,29,30.5,42,30.5,3.5,0,6.7-.8,9.4-2.6,13-8.4,11.1-34.6-4.3-58.4-7.5-11.6-17-20.9-26.9-26.2-5.5-2.9-10.6-4.4-15.2-4.4h0Z"/>
        <ellipse class="cls-4" cx="701.7" cy="1233.4" rx="14.6" ry="26.4" transform="translate(-556.6 577.5) rotate(-32.8)"/>
        <path class="cls-2" d="M711.2,1257.9c-7.1,0-16.2-6.1-22.6-16-8.2-12.7-9-26.8-1.7-31.5s19.8,1.8,28,14.5c8.2,12.7,9,26.8,1.7,31.5-1.6,1-3.4,1.5-5.4,1.5h0ZM692.5,1210.8c-1.7,0-3.2.4-4.5,1.2-6.3,4.1-5.3,17,2.3,28.7,7.6,11.8,18.9,18,25.2,13.9,6.3-4.1,5.3-17-2.3-28.7-6-9.3-14.4-15.2-20.7-15.2h0Z"/>
        <path class="cls-2" d="M191.8,1014.9c15.7,24.3,12.6,57.5,3.3,64.8-4.1,3.2-36.2,20.7-36.2,20.7l-57-87.7s31.3-17.7,36.4-21c13.5-8.7,37.8-1.1,53.5,23.2Z"/>
        <path class="cls-2" d="M158.9,1101.4c-.3,0-.6-.2-.8-.5l-57-87.7c-.2-.2-.2-.5-.1-.8,0-.3.2-.5.5-.6.3-.2,31.3-17.7,36.3-21,13.5-8.7,38.3-2.2,54.9,23.5,15.7,24.3,13,58.4,3,66.1-4.1,3.2-35,20.1-36.3,20.8-.2,0-.3.1-.5.1h0ZM103.3,1013.1l55.9,86c5-2.8,31.5-17.3,35.2-20.2,8.3-6.5,12.7-38.4-3.5-63.5-15.4-23.9-39.4-31.1-52.1-22.9-4.7,3-30.2,17.5-35.5,20.5h0Z"/>
        <path class="cls-4" d="M132.9,1019.2l-30.2-46,36.9-15.7,30,8.8v30.7l-36.7,22.2Z"/>
        <path class="cls-2" d="M132.9,1020.2c-.3,0-.6-.2-.8-.5l-30.2-46c-.2-.2-.2-.6-.1-.8s.3-.5.6-.6l36.9-15.7c.2,0,.4-.1.7,0l30,8.8c.4.1.7.5.7,1v30.7c0,.3-.2.7-.5.9l-36.7,22.2c-.2,0-.3.1-.5.1h0ZM104.3,973.7l29,44.2,35.4-21.4v-29.4l-28.9-8.5-35.5,15.1h0Z"/>
        <path class="cls-4" d="M132.9,1026.8h-30.2v-53.6l30.2,10.6v43Z"/>
        <path class="cls-2" d="M132.9,1027.8h-30.2c-.6,0-1-.4-1-1v-53.6c0-.3.2-.6.4-.8s.6-.2.9-.1l30.2,10.6c.4.1.7.5.7.9v43c0,.6-.4,1-1,1ZM103.8,1025.8h28.2v-41.3l-28.2-9.9v51.2Z"/>
        <ellipse class="cls-4" cx="129.2" cy="1057.4" rx="29.1" ry="52.4" transform="translate(-552.7 239) rotate(-32.8)"/>
        <path class="cls-2" d="M147.7,1105.1c-4.9,0-10.4-1.5-16.1-4.6-10.1-5.4-19.9-14.9-27.6-26.8-7.7-11.9-12.3-24.7-13.1-36.2-.8-11.7,2.6-20.5,9.4-24.9,13.9-9,38.2,3.8,54.2,28.5,7.7,11.9,12.3,24.7,13.1,36.2.8,11.7-2.6,20.5-9.4,24.9-3,2-6.6,2.9-10.4,2.9h0ZM110.7,1011.6c-3.5,0-6.7.8-9.4,2.6-6.2,4-9.2,12.2-8.5,23.1.7,11.1,5.3,23.6,12.8,35.2s17,20.9,26.9,26.2c9.6,5.2,18.4,5.8,24.6,1.8,6.2-4,9.2-12.2,8.5-23.1-.7-11.1-5.3-23.6-12.8-35.2-12.1-18.8-29-30.5-42-30.5h0Z"/>
        <path class="cls-2" d="M329.7,935.3c15.7,24.3,12.6,57.5,3.3,64.8-4.1,3.2-36.2,20.7-36.2,20.7l-57-87.7s31.3-17.7,36.4-21c13.5-8.7,37.8-1.1,53.5,23.2Z"/>
        <path class="cls-2" d="M296.8,1021.8c-.3,0-.6-.2-.8-.5l-57-87.7c-.1-.2-.2-.5-.1-.8s.2-.5.5-.6c.3-.2,31.3-17.7,36.3-21,13.5-8.7,38.3-2.2,54.9,23.5,15.7,24.3,13,58.4,3,66.1-4.1,3.2-35,20.1-36.3,20.8-.2,0-.3.1-.5.1h0ZM241.2,933.5l55.9,86c5-2.8,31.5-17.3,35.2-20.2,8.3-6.5,12.7-38.4-3.5-63.5-15.4-23.9-39.4-31.1-52.1-22.9-4.7,3-30.2,17.5-35.5,20.5h0Z"/>
        <path class="cls-4" d="M270.9,939.6l-30.2-46,36.9-15.7,30,8.8v30.7l-36.7,22.2Z"/>
        <path class="cls-2" d="M270.9,940.6c-.3,0-.6-.2-.8-.5l-30.2-46c-.2-.2-.2-.6-.1-.8s.3-.5.6-.6l36.9-15.7c.2,0,.4-.1.7,0l30,8.8c.4.1.7.5.7,1v30.7c0,.3-.2.7-.5.9l-36.7,22.2c-.2,0-.3.1-.5.1h0ZM242.2,894.1l29,44.2,35.4-21.4v-29.4l-28.9-8.5-35.5,15.1h0Z"/>
        <path class="cls-4" d="M270.9,947.2h-30.2v-53.6l30.2,10.6v43Z"/>
        <path class="cls-2" d="M270.9,948.2h-30.2c-.6,0-1-.4-1-1v-53.6c0-.3.2-.6.4-.8s.6-.2.9-.1l30.2,10.6c.4.1.7.5.7.9v43c0,.6-.4,1-1,1ZM241.7,946.2h28.2v-41.3l-28.2-9.9v51.2Z"/>
        <ellipse class="cls-1" cx="267.1" cy="977.8" rx="29.1" ry="52.4" transform="translate(-487.5 301) rotate(-32.8)"/>
        <path class="cls-2" d="M285.7,1025.5c-13.7,0-31.4-12-43.8-31.4-7.7-11.9-12.3-24.7-13.1-36.2-.8-11.7,2.6-20.5,9.4-24.9,13.9-9,38.2,3.8,54.2,28.5s17.6,52.1,3.7,61.1c-3,1.9-6.5,2.9-10.3,2.9h0ZM248.7,932c-3.5,0-6.7.8-9.4,2.6-6.2,4-9.2,12.2-8.5,23.1.7,11.1,5.3,23.6,12.8,35.2,12.1,18.8,29,30.5,42,30.5,3.5,0,6.7-.8,9.4-2.6,13-8.4,11.1-34.6-4.3-58.4-12.1-18.8-29-30.5-42-30.5h0Z"/>
        <ellipse class="cls-1" cx="266.7" cy="977.7" rx="14.6" ry="26.4" transform="translate(-487.5 300.8) rotate(-32.8)"/>
        <path class="cls-2" d="M276.1,1002.2c-2.6,0-5.4-.8-8.4-2.4-5.2-2.8-10.2-7.6-14.1-13.7-8.2-12.7-9-26.8-1.7-31.5,3.6-2.3,8.5-2,13.9.8,5.2,2.8,10.2,7.6,14.1,13.7,8.2,12.7,9,26.8,1.7,31.5-1.6,1-3.5,1.6-5.5,1.6ZM257.4,955.1c-1.7,0-3.2.4-4.5,1.2-6.3,4.1-5.3,17,2.3,28.7,3.7,5.8,8.5,10.4,13.4,13,4.7,2.5,8.9,2.8,11.9.9,6.3-4.1,5.3-17-2.3-28.7-3.7-5.8-8.5-10.4-13.4-13-2.7-1.4-5.2-2.2-7.4-2.2h0Z"/>
        <path class="cls-2" d="M553.1,1318.6c-3.5,0-6.9-.9-10.1-2.7l-444.7-258.4c-23.9-13.9-38.7-39.7-38.7-67.3V340.5c0-7.3,3.8-13.9,10.1-17.5,6.3-3.7,13.9-3.7,20.2,0l446.1,257.5c22.9,13.2,37.2,37.9,37.2,64.4v653.7c0,7.3-3.8,13.8-10.1,17.4-3.1,1.8-6.6,2.7-10,2.7h0ZM544,1314.1c5.7,3.3,12.4,3.3,18.1,0,5.7-3.3,9-9.1,9-15.7v-653.7c0-25.8-13.9-49.8-36.2-62.7L88.9,324.7c-5.7-3.3-12.5-3.3-18.2,0-5.7,3.3-9.1,9.2-9.1,15.8v649.7c0,26.9,14.5,52.1,37.8,65.6l444.7,258.4h0Z"/>
        <path class="cls-2" d="M780,513.4c.9,4.1,1.4,8.1,1.4,12.1l-2.3,652.8c0,6.6-2.7,11.4-6.7,14.5-7,5.5-200.4,116.9-209.5,122.1,5.4-3.2,9.2-9.1,9.2-16.3v-653.7c0-6.5-.8-12.8-2.5-18.9l210.4-112.6h0Z"/>
        <path class="cls-2" d="M562.9,1315.9c-.3,0-.7-.2-.9-.5-.3-.5-.1-1.1.3-1.4,5.5-3.3,8.7-9.1,8.7-15.5v-653.7c0-6.3-.8-12.5-2.4-18.6-.1-.4,0-.9.5-1.1l210.4-112.6c.3-.1.6-.2.9,0,.3.1.5.4.6.7.9,4.2,1.4,8.3,1.4,12.3l-2.3,652.8c0,6.4-2.5,11.7-7.1,15.3-7.3,5.7-207.6,121-209.6,122.2-.2,0-.3.1-.5.1h0ZM570.8,626.5c1.5,6,2.3,12.2,2.3,18.4v653.7c0,4.1-1.2,8-3.4,11.3,39.8-22.9,195.9-113,202-117.8,4.1-3.2,6.3-8,6.3-13.7l2.3-652.8c0-3.4-.4-6.9-1.1-10.5l-208.5,111.6h0Z"/>
        <path class="cls-4" d="M569.7,626c-5-18.6-17.1-34.8-34.2-44.7L89.4,323.8c-6.4-3.7-13.6-3.2-19.2,0,6.1-3.5,202.1-116.7,209.6-118.4,6.1-1.4,13.2-.6,18.9,2.7l444.8,255.3c18.7,10.8,32.4,30.7,36.6,50l-210.4,112.6h0Z"/>
        <path class="cls-2" d="M569.7,627c-.1,0-.3,0-.4,0-.3-.1-.5-.4-.6-.7-4.9-18.5-17.2-34.5-33.8-44.1L88.9,324.7c-5.7-3.3-12.5-3.3-18.2,0-.5.3-1.1.1-1.4-.4-.3-.5-.1-1.1.4-1.4h.1c20.7-12,202.3-116.8,209.7-118.5,6.6-1.5,13.9-.4,19.6,2.8l444.8,255.3c18.1,10.4,32.7,30.3,37.1,50.6,0,.4-.1.9-.5,1.1l-210.4,112.6c-.1,0-.3.1-.5.1h0ZM79.8,320.2c3.5,0,7,.9,10.1,2.7l446.1,257.5c16.6,9.6,29.1,25.6,34.4,44.1l208.6-111.7c-4.5-19.5-18.6-38.5-36-48.6l-444.8-255.3c-5.3-3-12-4-18.1-2.6-5.6,1.3-126,70.2-201.7,113.9.5,0,1,0,1.5,0h0Z"/>
        <path class="cls-4" d="M499.1,1214.7l-356-205.6c-19-10.9-30.6-31.1-30.6-52.9V439.4c0-11.8,12.8-19.1,23.1-13.2l357.1,204.9c13.3,7.7,29.4,29.7,29.4,50.6v520.1c0,11.7-12.7,19-22.9,13.1h0Z"/>
        <path class="cls-2" d="M506.8,1217.8c-2.8,0-5.6-.7-8.2-2.2l-356-205.6c-19.2-11.1-31.1-31.7-31.1-53.8V439.4c0-5.9,3-11.1,8.1-14.1,5.1-3,11.3-3,16.4,0l357.1,204.9c14.4,8.3,29.9,30.9,29.9,51.4v520.1c0,5.8-3,11.1-8.1,14-2.6,1.5-5.4,2.2-8.2,2.2h0ZM499.6,1213.9c4.5,2.6,9.8,2.6,14.3,0,4.4-2.6,7.1-7.1,7.1-12.2v-520.1c0-19.8-14.9-41.7-28.9-49.7l-357.1-204.9c-4.5-2.6-9.9-2.6-14.4,0-4.5,2.6-7.1,7.2-7.1,12.4v516.9c0,21.4,11.5,41.3,30.1,52l356,205.6h0Z"/>
        <path class="cls-4" d="M112.5,593.2l409.5,235.3v-16.2l-409.5-236.6v17.5Z"/>
        <path class="cls-2" d="M522,829.5c-.2,0-.3,0-.5-.1l-409.5-235.3c-.3-.2-.5-.5-.5-.9v-17.5c0-.4.2-.7.5-.9.3-.2.7-.2,1,0l409.5,236.6c.3.2.5.5.5.9v16.2c0,.4-.2.7-.5.9-.2,0-.3.1-.5.1h0ZM113.5,592.6l407.5,234.2v-13.9l-407.5-235.4v15.2Z"/>
        <path class="cls-4" d="M136.5,582.1l-21.8-13.4c-1.4-.9-3.2-1.2-4.5-.4-1.2.7-3.3,1.9-3.3,1.9l1.5,20.4c0,1.3.7,2.6,1.9,3.3l23.5,16.2s2.9-1.2,3.4-1.4c.6-.3,1.1-.9,1.1-1.7v-21.5c0-1.3-.7-2.5-1.8-3.1h0Z"/>
        <path class="cls-2" d="M133.8,611c-.2,0-.4,0-.6-.2l-23.5-16.2c-1.4-.8-2.3-2.4-2.3-4.1l-1.5-20.3c0-.4.2-.8.5-.9,0,0,2.1-1.2,3.3-1.9,1.5-.9,3.7-.7,5.5.4l21.8,13.4c1.4.8,2.2,2.4,2.2,4v21.5c0,1.1-.6,2.1-1.7,2.6-.6.3-3.2,1.3-3.5,1.5-.1,0-.2,0-.4,0h0ZM107.9,570.7l1.4,19.8c0,1.1.5,2,1.4,2.5l23.1,15.9c1-.4,2.5-1,2.9-1.2.3-.2.5-.5.5-.8v-21.5c0-.9-.5-1.8-1.3-2.3l-21.8-13.4c-1.2-.7-2.6-.9-3.4-.4-.8.5-2.1,1.2-2.8,1.6h0Z"/>
        <path class="cls-4" d="M133.1,583.6l-21.8-13.4c-2.8-1.7-6.3.3-6.3,3.5v18.3c0,1.3.7,2.6,1.9,3.3l25.2,14.6c1.3.7,2.9-.2,2.9-1.7v-21.5c0-1.3-.7-2.5-1.8-3.1h0Z"/>
        <path class="cls-2" d="M132.9,611.2c-.5,0-1-.1-1.5-.4l-25.2-14.6c-1.5-.9-2.4-2.4-2.4-4.1v-18.3c0-1.9,1-3.6,2.6-4.5,1.7-.9,3.6-.9,5.2.1l21.8,13.4c1.4.8,2.2,2.4,2.2,4v21.5c0,1.1-.5,2-1.5,2.5-.5.3-1,.4-1.5.4ZM109.1,570.6c-.5,0-1.1.1-1.5.4-1,.6-1.6,1.6-1.6,2.7v18.3c0,1,.5,1.9,1.4,2.4l25.2,14.6c.4.2.8,0,.9,0,.1,0,.5-.3.5-.8v-21.5c0-.9-.5-1.8-1.3-2.3l-21.8-13.4c-.5-.3-1.1-.5-1.6-.5h0Z"/>
        <path class="cls-4" d="M127.5,679.4l-3.8,2.6-18.8-11.2v-70.8c0-6.2,6.7-10.1,12-7l6.5,3.8c2.5,1.4,4,4.1,4,7v75.7h0Z"/>
        <path class="cls-2" d="M123.7,682.9c-.2,0-.4,0-.5-.1l-18.8-11.2c-.3-.2-.5-.5-.5-.9v-70.8c0-3.3,1.7-6.2,4.5-7.8,2.8-1.6,6.2-1.6,9,0l6.5,3.8c2.8,1.6,4.5,4.6,4.5,7.8v75.7c0,.3-.2.6-.4.8l-3.8,2.6c-.2.1-.4.2-.6.2h0ZM105.9,670.1l17.8,10.6,2.8-1.9v-75.2c0-2.5-1.4-4.8-3.5-6.1l-6.5-3.8c-2.2-1.3-4.8-1.3-7,0-2.2,1.3-3.5,3.5-3.5,6.1v70.2h0ZM127.5,679.4h0,0Z"/>
        <path class="cls-4" d="M111.1,595.3c3.2,1.5,7.7,3.9,10.4,5.7,1.7,1.1,2.3,3.3,2.3,5.3v75.4"/>
        <path class="cls-2" d="M123.7,682.7c-.6,0-1-.4-1-1v-75.4c0-1-.2-3.4-1.8-4.5-2.7-1.9-7.2-4.2-10.2-5.6-.5-.2-.7-.8-.5-1.3.2-.5.8-.7,1.3-.5,3.1,1.4,7.7,3.9,10.5,5.8,1.7,1.2,2.7,3.4,2.7,6.1v75.4c0,.6-.4,1-1,1h0Z"/>
        <path class="cls-4" d="M124.7,598.3l-3.3,2.7-9.1-7.6-1.1-9.8s2.9-2.2,3.5-2.6c.7-.4,1.6-.5,2.3,0l6.9,4c.5.3.8.8.8,1.4v11.8h0Z"/>
        <path class="cls-2" d="M121.4,602c-.2,0-.5,0-.6-.2l-9.1-7.6c-.2-.2-.3-.4-.4-.7l-1.1-9.8c0-.4.1-.7.4-.9.3-.2,2.9-2.2,3.5-2.6,1-.7,2.3-.7,3.4,0l6.9,4c.8.5,1.3,1.4,1.3,2.3v11.8c0,.3-.1.6-.4.8l-3.3,2.7c-.2.2-.4.2-.6.2h0ZM113.3,592.9l8.1,6.8,2.3-1.9v-11.4c0-.2-.1-.4-.3-.6l-6.9-4c-.4-.3-.9-.3-1.3,0-.4.2-1.8,1.3-2.9,2.2l1,8.9h0ZM124.7,598.3h0,0Z"/>
        <path class="cls-4" d="M121.4,601l-11.1-5.9v-9.8c.1-1.7,2-2.7,3.4-1.8l6.9,4.3c.5.3.8.8.8,1.4v11.8Z"/>
        <path class="cls-2" d="M121.4,602c-.2,0-.3,0-.5-.1l-11.1-5.9c-.3-.2-.5-.5-.5-.9v-9.8c.1-1.2.7-2.2,1.8-2.7,1-.6,2.2-.5,3.2,0l6.9,4.3c.8.5,1.3,1.3,1.3,2.3v11.8c0,.4-.2.7-.5.9-.2,0-.3.1-.5.1h0ZM111.3,594.5l9.1,4.9v-10.2c0-.2-.1-.4-.3-.6l-6.9-4.3c-.5-.3-1-.1-1.2,0s-.6.4-.6,1v9.2Z"/>
        <path class="cls-2" d="M606.8,393.1c0,7-10,12.6-22.4,12.6s-22.4-5.7-22.4-12.6v-232.6h44.7v232.6h0Z"/>
        <path class="cls-2" d="M584.4,406.7c-13.1,0-23.4-6-23.4-13.6v-232.6c0-.6.4-1,1-1h44.7c.6,0,1,.4,1,1v232.6c0,7.6-10.3,13.6-23.4,13.6h0ZM563.1,161.5v231.6c0,6.4,9.6,11.6,21.4,11.6s21.4-5.2,21.4-11.6v-231.6h-42.7Z"/>
        <ellipse class="cls-4" cx="584.4" cy="160.5" rx="22.4" ry="12.6"/>
        <path class="cls-2" d="M584.4,174.1c-13.1,0-23.4-6-23.4-13.6s10.3-13.6,23.4-13.6,23.4,6,23.4,13.6-10.3,13.6-23.4,13.6ZM584.4,148.9c-11.8,0-21.4,5.2-21.4,11.6s9.6,11.6,21.4,11.6,21.4-5.2,21.4-11.6-9.6-11.6-21.4-11.6Z"/>
        <path class="cls-2" d="M430.7,292.2c0,7-10,12.6-22.4,12.6s-22.4-5.7-22.4-12.6V59.6h44.7v232.6h0Z"/>
        <path class="cls-2" d="M408.4,305.8c-13.1,0-23.4-6-23.4-13.6V59.6c0-.6.4-1,1-1h44.7c.6,0,1,.4,1,1v232.6c0,7.6-10.3,13.6-23.4,13.6h0ZM387,60.6v231.6c0,6.4,9.6,11.6,21.4,11.6s21.4-5.2,21.4-11.6V60.6h-42.7Z"/>
        <ellipse class="cls-4" cx="408.4" cy="59.6" rx="22.4" ry="12.6"/>
        <path class="cls-2" d="M408.4,73.2c-13.1,0-23.4-6-23.4-13.6s10.3-13.6,23.4-13.6,23.4,6,23.4,13.6-10.3,13.6-23.4,13.6ZM408.4,47.9c-11.8,0-21.4,5.2-21.4,11.6s9.6,11.6,21.4,11.6,21.4-5.2,21.4-11.6-9.6-11.6-21.4-11.6Z"/>
        <path class="cls-4" d="M640.6,146.9l-28,52.6S363.5,57.3,358.7,54.7c-8.1-4.3-8.4-19.6-.7-34.1s20.6-22.8,28.7-18.5,253.9,144.8,253.9,144.8h0Z"/>
        <path class="cls-2" d="M612.6,200.6c-.2,0-.3,0-.5-.1-2.5-1.4-249.2-142.3-253.9-144.8-4.3-2.3-6.7-7.3-6.8-14.1-.1-6.6,1.9-14.2,5.7-21.4,8-15,21.5-23.5,30-18.9,8,4.3,251.5,143.4,253.9,144.8.5.3.6.9.4,1.3l-28,52.6c-.1.2-.3.4-.6.5,0,0-.2,0-.3,0h0ZM381.8,2c-7.4,0-16.8,7.5-23,19.1-3.7,6.9-5.6,14.1-5.5,20.4.1,6.1,2.2,10.5,5.8,12.4,4.7,2.5,234.2,133.6,253,144.3l27.1-50.9c-15.8-9.1-245.3-140.2-253-144.3-1.3-.7-2.8-1-4.4-1h0Z"/>
        <ellipse class="cls-2" cx="626.6" cy="173.3" rx="29.8" ry="16.6" transform="translate(179.3 645) rotate(-62)"/>
        <path class="cls-2" d="M617.3,201.7c-1.8,0-3.6-.4-5.2-1.2-8.6-4.6-9.1-20.5-1.1-35.5,8-15,21.5-23.5,30-18.9,8.6,4.6,9.1,20.5,1.1,35.5-6.5,12.2-16.7,20.1-24.9,20.1h0ZM635.8,146.8c-7.4,0-16.8,7.5-23,19.1-7.5,14-7.3,28.7.3,32.8,7.6,4,19.9-4.1,27.3-18.1,7.5-14,7.3-28.7-.3-32.8-1.3-.7-2.8-1-4.4-1h0ZM641.3,181.1h0,0Z"/>
        <path class="cls-4" d="M675,569.5s-.7-39.7-37-60.5L192.8,253.5l-15.8,9,446.1,256.1c3.2,1.9,22.3,13.1,29.2,27,7.2,14.5,7.4,31.5,7.4,31.5l.8,681.4,15.1-8.7-.5-680.3h0Z"/>
        <path class="cls-2" d="M660.5,1259.5c-.2,0-.3,0-.5-.1-.3-.2-.5-.5-.5-.9l-.8-681.4c0-.2-.3-17-7.3-31.1-6.4-13-23.7-23.7-28.8-26.6L176.5,263.3c-.3-.2-.5-.5-.5-.9s.2-.7.5-.9l15.8-9c.3-.2.7-.2,1,0l445.2,255.5c36.3,20.8,37.5,61,37.5,61.4h0s.5,680.3.5,680.3c0,.4-.2.7-.5.9l-15.1,8.7c-.2,0-.3.1-.5.1h0ZM179.1,262.5l444.6,255.2c5.2,3,22.9,14,29.6,27.5,7.2,14.5,7.5,31.2,7.5,32l.8,679.7,13.1-7.6-.5-679.7c0-.6-1.3-39.5-36.5-59.7L192.8,254.6l-13.7,7.8Z"/>
        <path class="cls-3" d="M482.9,1199.6L38.2,941.2C14.6,927.4,0,902.1,0,874.7V225C0,210.2,16,201,28.8,208.4l446.1,257.5c22.7,13.1,36.7,37.3,36.7,63.5v653.7c0,14.7-15.9,23.9-28.6,16.5h0Z"/>
      </g>
    </g>
  </g>
</svg>