<?xml version="1.0" encoding="UTF-8"?>
<svg xmlns="http://www.w3.org/2000/svg" version="1.1" viewBox="0 0 1048.9 1035.3">
  <defs>
    <style>
      .cls-1, .cls-2, .cls-3, .cls-4 {
        stroke-width: 0px;
      }

      .cls-1, .cls-3 {
        fill: #1d88fe;
      }

      .cls-2 {
        fill: #000;
      }

      .cls-3 {
        mix-blend-mode: multiply;
        opacity: .6;
      }

      .cls-5 {
        isolation: isolate;
      }

      .cls-4 {
        fill: #fff;
      }
    </style>
  </defs>
  <g class="cls-5">
    <g id="Layer_1" data-name="Layer 1">
      <g>
        <path class="cls-1" d="M217.8-1764.3h83.9c0,46.3-37.6,83.9-83.9,83.9v-83.9Z"/>
        <path class="cls-1" d="M301.6-1776.3h-83.9c0-46.3,37.6-83.9,83.9-83.9v83.9Z"/>
        <path class="cls-1" d="M205.8-1764.3v83.9c-46.3,0-83.9-37.6-83.9-83.9h83.9Z"/>
        <path class="cls-4" d="M121.9-1776.3c0-46.3,0-83.9,0-83.9,46.3,0,83.9,37.6,83.9,83.9h-83.9Z"/>
        <g>
          <path class="cls-4" d="M336.3-1797.5c0-7.3,1.8-13.8,5.5-19.3,3.7-5.6,8.8-9.9,15.5-12.9,6.7-3.1,14.4-4.6,23.1-4.6s15.3,1.4,21.4,4.3c6.1,2.9,10.9,7,14.4,12.3,3.5,5.3,5.5,11.7,5.9,19.2h-17.6c-.5-6.4-2.8-11.4-7.1-14.9-4.3-3.5-10-5.3-17.2-5.3s-14.5,1.9-19.3,5.6c-4.8,3.7-7.3,8.8-7.3,15.2s1.5,9.4,4.4,12.5c3,3.1,7.4,5.4,13.5,6.8l21.1,5c10.5,2.4,18.4,6.4,23.7,12.2,5.3,5.7,7.9,13.1,7.9,22.1s-1.9,14.4-5.6,20c-3.7,5.7-9,10.1-15.8,13.1-6.8,3.1-14.8,4.6-23.9,4.6s-16.2-1.5-22.8-4.3c-6.6-2.9-11.7-7-15.4-12.4-3.7-5.4-5.8-11.7-6.3-18.9h17.7c.1,6.1,2.6,11,7.4,14.6,4.8,3.6,11.3,5.4,19.3,5.4s15.3-1.9,20.3-5.7c5-3.8,7.5-8.8,7.5-15.1s-1.4-9.2-4.3-12.4c-2.8-3.2-7.3-5.5-13.5-6.9l-21.1-4.8c-10.4-2.4-18.3-6.5-23.7-12.5-5.4-6-8.1-13.6-8.1-22.8Z"/>
          <path class="cls-4" d="M477.1-1701.7c-8.4,0-15.8-1.9-22.3-5.8-6.5-3.8-11.6-9.2-15.3-16-3.7-6.8-5.5-14.7-5.5-23.7s1.8-17.1,5.4-23.9c3.6-6.9,8.6-12.2,14.9-16.1,6.3-3.9,13.7-5.9,22.1-5.9s15.5,1.8,21.5,5.3c6.1,3.5,10.8,8.5,14.2,14.9,3.4,6.4,5.1,13.9,5.1,22.5v6.2l-74.3.2.4-11.2h57.3c0-7.2-2.2-13-6.6-17.4-4.4-4.4-10.2-6.6-17.6-6.6s-10.3,1.2-14.3,3.6c-4,2.4-7,6-9,10.6-2.1,4.7-3.1,10.3-3.1,16.8,0,10.4,2.4,18.4,7.1,24,4.7,5.6,11.5,8.4,20.4,8.4s11.8-1.3,16-3.9c4.1-2.6,6.9-6.4,8.3-11.4h15.6c-2.1,9.2-6.7,16.4-13.7,21.5-7,5.1-15.8,7.6-26.6,7.6Z"/>
          <path class="cls-4" d="M526.6-1747.2c0-9.1,1.8-17.1,5.4-23.9,3.6-6.9,8.6-12.2,15-16.1,6.4-3.9,13.8-5.9,22.2-5.9s19.9,2.9,27.1,8.7c7.2,5.8,11.5,13.5,12.9,23.1h-16.7c-1.4-5.6-4.2-9.8-8.3-12.6-4.1-2.8-9-4.3-14.5-4.3s-9.8,1.3-13.8,3.8c-4,2.5-7.2,6.1-9.4,10.7-2.2,4.6-3.4,10.1-3.4,16.3s1.1,11.7,3.2,16.2c2.1,4.6,5.1,8.1,9,10.6,3.9,2.5,8.5,3.8,13.7,3.8s11-1.5,15.3-4.4c4.3-3,7.1-7,8.5-12.1h16.7c-1.1,6.3-3.5,11.7-7.2,16.4-3.7,4.7-8.5,8.3-14.2,11-5.7,2.7-12.1,4-19.1,4s-15.9-1.9-22.3-5.7c-6.3-3.8-11.3-9.1-14.8-15.9-3.5-6.8-5.3-14.8-5.3-23.9Z"/>
          <path class="cls-4" d="M683.4-1790.6h16.5v86.7h-14.9l-1.8-13.1c-2.5,4.5-6.4,8.2-11.7,11-5.3,2.8-11.2,4.3-17.6,4.3-10.1,0-17.8-3.2-23.3-9.5-5.5-6.3-8.2-14.8-8.2-25.5v-53.9h16.7v48.4c0,9.2,1.9,15.8,5.6,19.8,3.7,4,8.8,5.9,15.2,5.9s13.5-2.4,17.6-7.2c4-4.8,6-11.9,6-21.2v-45.8Z"/>
          <path class="cls-4" d="M770.1-1791.3v15.3h-7.5c-7.9,0-14.2,2.3-18.7,6.8s-6.8,11-6.8,19.4v45.9h-16.7v-86.6h15.6l1.4,17.4h-1.6c1.2-5.7,4-10.3,8.5-13.9,4.5-3.6,10.1-5.4,16.9-5.4s3,0,4.3.3c1.4.2,2.9.4,4.5.8Z"/>
          <path class="cls-4" d="M816.4-1701.7c-8.4,0-15.8-1.9-22.3-5.8-6.5-3.8-11.6-9.2-15.3-16-3.7-6.8-5.5-14.7-5.5-23.7s1.8-17.1,5.4-23.9c3.6-6.9,8.6-12.2,14.9-16.1,6.3-3.9,13.7-5.9,22.1-5.9s15.5,1.8,21.6,5.3c6.1,3.5,10.8,8.5,14.2,14.9,3.4,6.4,5.1,13.9,5.1,22.5v6.2l-74.3.2.4-11.2h57.3c0-7.2-2.2-13-6.6-17.4-4.4-4.4-10.2-6.6-17.6-6.6s-10.3,1.2-14.3,3.6c-4,2.4-7,6-9,10.6-2.1,4.7-3.1,10.3-3.1,16.8,0,10.4,2.4,18.4,7.1,24,4.7,5.6,11.5,8.4,20.4,8.4s11.8-1.3,16-3.9c4.1-2.6,6.9-6.4,8.3-11.4h15.6c-2.1,9.2-6.7,16.4-13.7,21.5-7,5.1-15.8,7.6-26.6,7.6Z"/>
          <path class="cls-4" d="M866.1-1749.5c0-8.2,1.7-15.5,5-22.1,3.3-6.6,8-11.8,14.2-15.7,6.1-3.9,13.4-5.9,21.8-5.9s14.5,1.9,20,5.6c5.6,3.7,9.5,8.9,11.9,15.5l-2.1,2.3,1.8-20.9h14.9v83.2c0,9.1-1.8,17-5.3,23.7-3.5,6.7-8.6,11.9-15.1,15.5-6.5,3.7-14.2,5.5-23.1,5.5s-21.5-3.1-29.1-9.4c-7.6-6.3-12.2-14.9-13.8-25.9h16.7c1.1,6.4,3.9,11.4,8.5,14.9s10.5,5.3,17.7,5.3,14.7-2.5,19.6-7.4c4.9-4.9,7.4-11.5,7.4-19.8v-24.5l2.1,2.3c-2.2,6.5-6.3,11.6-12.2,15.3-5.9,3.7-12.8,5.6-20.6,5.6s-15.4-1.9-21.5-5.8c-6-3.8-10.7-9-13.9-15.5-3.3-6.5-4.9-13.8-4.9-22ZM882.8-1749.8c0,5.4,1.1,10.3,3.3,14.7,2.2,4.4,5.3,7.9,9.2,10.5,4,2.6,8.6,3.9,13.9,3.9s10.5-1.2,14.5-3.7c4-2.5,7.1-5.9,9.3-10.3,2.2-4.4,3.3-9.4,3.3-15.1s-1.1-10.6-3.2-14.9c-2.1-4.3-5.2-7.6-9.2-10.1-4-2.5-8.9-3.7-14.5-3.7s-10.3,1.3-14.3,3.9c-4,2.6-7,6.1-9.1,10.4-2.1,4.3-3.2,9.1-3.2,14.5Z"/>
          <path class="cls-4" d="M1034.1-1790.6h16.5v86.7h-14.9l-1.8-13.1c-2.5,4.5-6.4,8.2-11.7,11-5.3,2.8-11.2,4.3-17.6,4.3-10.1,0-17.8-3.2-23.3-9.5-5.5-6.3-8.2-14.8-8.2-25.5v-53.9h16.7v48.4c0,9.2,1.9,15.8,5.6,19.8,3.7,4,8.8,5.9,15.2,5.9s13.5-2.4,17.6-7.2c4-4.8,6-11.9,6-21.2v-45.8Z"/>
          <path class="cls-4" d="M1096.5-1701.7c-9.2,0-16.5-2.4-21.7-7.3-5.3-4.8-7.9-11.2-7.9-19s2.8-14.3,8.5-19.1c5.7-4.8,13.6-7.6,23.8-8.4l27.3-2.1v-2.5c0-4.8-.9-8.7-2.7-11.6-1.8-2.9-4.2-5-7.3-6.2-3.1-1.2-6.6-1.9-10.5-1.9-7,0-12.4,1.4-16.2,4.3-3.8,2.9-5.8,7-5.8,12.3h-14.5c0-6,1.5-11.3,4.6-15.8,3.1-4.5,7.4-8,13-10.5,5.6-2.5,12.2-3.7,19.6-3.7s13.5,1.3,18.9,3.8c5.4,2.5,9.6,6.4,12.6,11.5,3,5.1,4.5,11.6,4.5,19.4v54.5h-14.2l-1.8-14c-2.2,5-6.1,8.9-11.6,11.8-5.5,2.9-11.7,4.3-18.7,4.3ZM1101.3-1714.7c7.9,0,14.1-2.4,18.6-7.2,4.5-4.8,6.7-11.3,6.7-19.4v-4.6l-22.2,1.8c-7.3.7-12.6,2.4-15.9,5.1-3.3,2.7-4.9,6.2-4.9,10.5s1.6,8.1,4.7,10.4c3.1,2.3,7.4,3.5,12.9,3.5Z"/>
          <path class="cls-4" d="M1212-1791.3v15.3h-7.5c-7.9,0-14.2,2.3-18.7,6.8-4.6,4.6-6.8,11-6.8,19.4v45.9h-16.7v-86.6h15.6l1.4,17.4h-1.6c1.2-5.7,4-10.3,8.5-13.9,4.5-3.6,10.1-5.4,16.9-5.4s3,0,4.3.3c1.4.2,2.9.4,4.5.8Z"/>
          <path class="cls-4" d="M1255.6-1701.7c-8.4,0-15.6-1.9-21.6-5.8-6-3.8-10.7-9.2-13.9-16.1-3.3-6.9-4.9-14.7-4.9-23.4s1.7-16.8,5-23.7c3.3-6.9,8-12.4,14.2-16.4,6.1-4,13.5-6,22-6s12.7,1.4,18,4.2c5.3,2.8,9.4,6.9,12.3,12.3v-57.8h16.5v130.5h-14.9l-1.4-15.8c-2.8,5.8-7,10.2-12.5,13.3-5.5,3.1-11.7,4.6-18.7,4.6ZM1259-1716.8c5.7,0,10.6-1.3,14.6-3.9,4.1-2.6,7.2-6.2,9.5-10.8,2.2-4.6,3.4-9.9,3.4-16s-1.1-11.3-3.4-15.9c-2.2-4.5-5.4-8.1-9.5-10.7-4.1-2.6-9-3.9-14.6-3.9s-10.5,1.3-14.5,4c-4,2.7-7.1,6.3-9.2,10.8-2.1,4.6-3.2,9.8-3.2,15.7s1.1,11.4,3.2,16c2.1,4.6,5.2,8.2,9.2,10.8,4,2.6,8.9,3.9,14.5,3.9Z"/>
        </g>
      </g>
      <g>
        <path class="cls-4" d="M649.8,925.5L77.1,594.9v-68.5l572.7,330.6v68.5Z"/>
        <path class="cls-2" d="M649.8,926.5c-.2,0-.3,0-.5-.1L76.6,595.7c-.3-.2-.5-.5-.5-.9v-68.5c0-.4.2-.7.5-.9.3-.2.7-.2,1,0l572.7,330.6c.3.2.5.5.5.9v68.5c0,.4-.2.7-.5.9-.2,0-.3.1-.5.1h0ZM78.1,594.3l570.7,329.5v-66.2L78.1,528.1v66.2Z"/>
        <ellipse class="cls-4" cx="88.1" cy="606" rx="45.6" ry="80.6" transform="translate(-346.6 174.6) rotate(-36.9)"/>
        <path class="cls-2" d="M118.4,677c-9.3,0-19.9-3.2-30.8-9.5-33.7-19.5-61.1-62.7-61.1-96.4s5.4-26.3,15.3-32c11.8-6.8,28.9-4.8,46.8,5.5,33.7,19.5,61.1,62.7,61.1,96.4s-5.4,26.3-15.3,32c-4.6,2.7-10.1,4-16,4h0ZM57.8,537c-5.6,0-10.7,1.2-15,3.7-9.2,5.3-14.3,16.1-14.3,30.3,0,33.1,27,75.6,60.1,94.7,17.3,10,33.6,12,44.8,5.5,9.2-5.3,14.3-16.1,14.3-30.3,0-33.1-27-75.6-60.1-94.7-10.6-6.1-20.9-9.2-29.8-9.2h0Z"/>
        <ellipse class="cls-2" cx="88.1" cy="606" rx="27.5" ry="48.6" transform="translate(-346.6 174.6) rotate(-36.9)"/>
        <path class="cls-2" d="M106.4,649.2c-5.7,0-12.1-2-18.8-5.8-20.5-11.8-37.1-38.1-37.1-58.6s3.3-16.1,9.4-19.7c7.3-4.2,17.7-3,28.7,3.3,20.5,11.8,37.1,38.1,37.1,58.6s-3.3,16.1-9.4,19.7c-2.9,1.6-6.2,2.5-9.9,2.5ZM69.8,564.7c-3.3,0-6.3.7-8.9,2.2-5.4,3.1-8.4,9.5-8.4,17.9,0,19.9,16.2,45.4,36.1,56.8,10.3,6,20,7.2,26.7,3.3,5.4-3.1,8.4-9.5,8.4-17.9,0-19.9-16.2-45.4-36.1-56.8-6.3-3.7-12.5-5.5-17.8-5.5Z"/>
        <path class="cls-2" d="M178.6,623.7c0,15.5-5.8,26.3-15.4,31.5-2.9,1.6-20.3,10.9-29.8,17.2,6.2-3.8,10.2-9.7,12-13.7,2.1-4.9,3.2-10.8,3.2-17.7,0-33.5-27.1-76.3-60.6-95.6-9.9-5.7-19.2-8.7-27.4-9.3-4.4,0-11.9-.4-19.3,4.3,2.3-2.2,30.7-17.9,33.7-19.2,11-4.7,26.2-2.8,43,6.9,33.5,19.3,60.6,62.1,60.6,95.6h0Z"/>
        <path class="cls-2" d="M133.4,673.4c-.3,0-.7-.2-.8-.5-.3-.5-.2-1.1.3-1.4.3-.2.6-.4.9-.6,6.7-4.5,9.9-10.8,10.7-12.7,2.1-4.9,3.1-10.7,3.1-17.3,0-33.1-27-75.6-60.1-94.7-9.5-5.5-18.6-8.6-27-9.2h-.5c-4.2,0-11.3-.2-18.2,4.2-.4.3-1,.2-1.3-.2-.3-.4-.3-1,0-1.3,2.5-2.4,31.3-18.2,34-19.4,11.8-5.1,27.4-2.6,43.9,7,33.7,19.5,61.1,62.7,61.1,96.4s-5.6,26.8-15.9,32.3l-.8.4c-12.7,6.9-22.1,12.3-28,16.1-.3.2-.6.4-.9.6-.2.1-.3.2-.5.2h0ZM58.2,535.1c.7,0,1.4,0,2,0h.5c8.7.6,18.1,3.8,27.9,9.4,33.7,19.5,61.1,62.7,61.1,96.4s-1.1,12.9-3.3,18.1c-.5,1.2-1.9,3.8-4.2,6.8,5.3-3.1,11.9-6.8,19.8-11.1l.8-.4c9.6-5.2,14.9-16.1,14.9-30.6,0-33.1-27-75.6-60.1-94.7-16-9.2-30.9-11.7-42.1-6.9-2.2.9-15.4,8.2-24.6,13.5,2.7-.5,5.2-.6,7.3-.6h0Z"/>
        <ellipse class="cls-4" cx="324.7" cy="755.1" rx="45.6" ry="80.6" transform="translate(-388.7 346.8) rotate(-36.9)"/>
        <path class="cls-2" d="M355,826.1c-9.3,0-19.9-3.2-30.8-9.5-33.7-19.5-61.1-62.7-61.1-96.4s5.4-26.3,15.3-32c11.8-6.8,28.9-4.8,46.8,5.5,33.7,19.5,61.1,62.7,61.1,96.4s-5.4,26.3-15.3,32c-4.6,2.7-10.1,4-16,4ZM294.4,686.1c-5.6,0-10.7,1.2-15,3.7-9.2,5.3-14.3,16.1-14.3,30.3,0,33.1,27,75.6,60.1,94.7,17.3,10,33.6,12,44.8,5.5,9.2-5.3,14.3-16.1,14.3-30.3,0-33.1-27-75.6-60.1-94.7-10.6-6.1-20.9-9.2-29.8-9.2Z"/>
        <ellipse class="cls-2" cx="324.7" cy="755.1" rx="27.5" ry="48.6" transform="translate(-388.7 346.8) rotate(-36.9)"/>
        <path class="cls-2" d="M343,798.4c-5.7,0-12.1-2-18.8-5.8-20.5-11.8-37.1-38.1-37.1-58.6s3.3-16.1,9.4-19.7c7.3-4.2,17.7-3,28.7,3.3,20.5,11.8,37.1,38.1,37.1,58.6s-3.3,16.2-9.4,19.7c-2.9,1.6-6.2,2.5-9.9,2.5ZM306.4,713.9c-3.3,0-6.3.7-8.9,2.2-5.4,3.1-8.4,9.5-8.4,17.9,0,19.9,16.2,45.4,36.1,56.8,10.3,6,20,7.2,26.7,3.3,5.4-3.1,8.4-9.5,8.4-17.9,0-19.9-16.2-45.4-36.1-56.8-6.3-3.7-12.5-5.5-17.8-5.5h0Z"/>
        <path class="cls-2" d="M415.2,772.9c0,15.5-5.8,26.3-15.4,31.5-2.9,1.6-20.3,10.9-29.8,17.2,6.2-3.8,10.2-9.7,12-13.7,2.1-4.9,3.2-10.8,3.2-17.7,0-33.5-27.1-76.3-60.6-95.6-9.9-5.7-19.2-8.7-27.4-9.3-4.4,0-11.9-.4-19.3,4.3,2.3-2.2,30.7-17.9,33.7-19.2,11-4.7,26.2-2.8,43,6.9,33.5,19.3,60.6,62.1,60.6,95.6h0Z"/>
        <path class="cls-2" d="M370,822.5c-.3,0-.7-.2-.8-.5-.3-.5-.2-1.1.3-1.4.3-.2.6-.4.9-.6,6.7-4.5,9.9-10.8,10.7-12.7,2.1-4.9,3.1-10.7,3.1-17.3,0-33.1-27-75.6-60.1-94.7-9.5-5.5-18.6-8.6-27-9.2h-.5c-4.2,0-11.3-.2-18.2,4.2-.4.3-1,.2-1.3-.2-.3-.4-.3-1,0-1.3,2.5-2.4,31.3-18.2,34-19.4,11.8-5.1,27.4-2.6,43.9,7,33.7,19.5,61.1,62.7,61.1,96.4s-5.6,26.8-15.9,32.3l-.8.4c-12.7,6.9-22.1,12.3-28,16.1-.3.2-.6.4-.9.6-.2.1-.3.2-.5.2h0ZM294.8,684.2c.7,0,1.4,0,2,0h.5c8.7.6,18.1,3.8,27.9,9.4,33.7,19.5,61.1,62.7,61.1,96.4s-1.1,12.9-3.3,18.1c-.5,1.2-1.9,3.8-4.2,6.8,5.3-3.1,12-6.8,19.8-11.1l.8-.4c9.6-5.2,14.9-16.1,14.9-30.6,0-33.1-27-75.6-60.1-94.7-16-9.2-30.9-11.7-42.1-6.9-2.2.9-15.4,8.2-24.6,13.5,2.7-.5,5.2-.6,7.3-.6h0Z"/>
        <path class="cls-2" d="M591.1,822.7c-.2,0-.3,0-.5-.1L16.4,491.1c-.3-.2-.5-.5-.5-.9V198.6c0-.4.2-.7.5-.9.3-.2.7-.2,1,0l574.2,331.5c.3.2.5.5.5.9v291.7c0,.4-.2.7-.5.9-.2,0-.3.1-.5.1ZM17.9,489.7l572.2,330.3v-289.4L17.9,200.3v289.4Z"/>
        <path class="cls-4" d="M263.2,56.5l574.2,331.5-246.1,142.1L17.1,198.6,263.2,56.5Z"/>
        <path class="cls-2" d="M591.3,531.1c-.2,0-.3,0-.5-.1L16.6,199.5c-.3-.2-.5-.5-.5-.9s.2-.7.5-.9L262.7,55.7c.3-.2.7-.2,1,0l574.2,331.5c.3.2.5.5.5.9s-.2.7-.5.9l-246.1,142.1c-.2,0-.3.1-.5.1ZM19.1,198.6l572.2,330.3,244.1-140.9L263.2,57.7,19.1,198.6Z"/>
        <path class="cls-2" d="M837.7,679.4l-246.6,142.4v-291.7l246.6-142.4v291.7Z"/>
        <path class="cls-2" d="M591.1,822.7c-.2,0-.3,0-.5-.1-.3-.2-.5-.5-.5-.9v-291.7c0-.4.2-.7.5-.9l246.6-142.4c.3-.2.7-.2,1,0,.3.2.5.5.5.9v291.7c0,.4-.2.7-.5.9l-246.6,142.4c-.2,0-.3.1-.5.1h0ZM592.1,530.7v289.4l244.6-141.2v-289.4l-244.6,141.2ZM837.7,679.4h0,0Z"/>
        <path class="cls-4" d="M1038.6,902.2l-216.2,125.2-200.8-420.8,216.2-125.2,118.2,68.2c51.2,29.5,82.7,84.1,82.7,143.2v209.4Z"/>
        <path class="cls-2" d="M822.4,1028.4c0,0-.2,0-.3,0-.3,0-.5-.3-.6-.5l-200.8-420.8c-.2-.5,0-1,.4-1.3l216.2-125.2c.3-.2.7-.2,1,0l118.2,68.2c51.3,29.6,83.2,84.8,83.2,144.1v209.4c0,.4-.2.7-.5.9l-216.2,125.2c-.2,0-.3.1-.5.1h0ZM622.9,607l200,419,214.7-124.3v-208.8c0-58.5-31.5-113.1-82.2-142.3l-117.7-67.9-214.9,124.4ZM1038.6,902.2h0,0Z"/>
        <path class="cls-4" d="M822.4,1027.4l-200.8-116v-304.8l118.2,68.2c51.2,29.5,82.7,84.1,82.7,143.2v133.5c0,9.7,3.2,19.2,9.2,26.9l-9.2,48.9Z"/>
        <path class="cls-2" d="M822.4,1028.4c-.2,0-.3,0-.5-.1l-200.8-116c-.3-.2-.5-.5-.5-.9v-304.8c0-.4.2-.7.5-.9.3-.2.7-.2,1,0l118.2,68.2c51.3,29.6,83.2,84.8,83.2,144.1v133.5c0,9.5,3.2,18.8,9,26.3.2.2.2.5.2.8l-9.2,48.9c0,.3-.3.6-.6.7-.1,0-.3,0-.4,0h0ZM622.6,910.8l199.1,115,8.8-47.1c-5.9-7.8-9.1-17.4-9.1-27.2v-133.5c0-58.5-31.5-113.1-82.2-142.4l-116.7-67.4v302.5Z"/>
        <path class="cls-2" d="M696.9,921.4l-70.3-9.6-7.4,5.8-2.6-80.2-25.5-15.6,30.4-17.5v6.2c.1,0,75.4,43.4,75.4,43.4v67.5Z"/>
        <path class="cls-2" d="M696.9,922.4s0,0-.1,0l-69.9-9.5-7.1,5.6c-.3.2-.7.3-1,.1-.3-.2-.6-.5-.6-.9l-2.6-79.7-25.1-15.3c-.3-.2-.5-.5-.5-.9s.2-.7.5-.9l30.4-17.5c.3-.2.7-.2,1,0,.3.2.5.5.5.9v5.7c.1,0,74.9,43.1,74.9,43.1.3.2.5.5.5.9v67.5c0,.3-.1.6-.3.8-.2.2-.4.2-.7.2h0ZM626.6,910.8s0,0,.1,0l69.1,9.4v-65.8l-74.8-43.1c-.3-.2-.5-.5-.5-.8v-4.5c0,0-27.5,15.8-27.5,15.8l24.1,14.7c.3.2.5.5.5.8l2.6,78.3,5.8-4.6c.2-.1.4-.2.6-.2h0Z"/>
        <ellipse class="cls-4" cx="685.7" cy="956.4" rx="45.6" ry="80.6" transform="translate(-437.2 604.2) rotate(-36.9)"/>
        <path class="cls-2" d="M716,1027.4c-9.3,0-19.9-3.2-30.8-9.5-33.7-19.5-61.1-62.7-61.1-96.4s5.4-26.3,15.3-32c11.8-6.8,28.9-4.8,46.8,5.5,33.7,19.5,61.1,62.7,61.1,96.4s-5.4,26.3-15.3,32c-4.6,2.7-10.1,4-16,4h0ZM655.4,887.4c-5.6,0-10.7,1.2-15,3.7-9.2,5.3-14.3,16.1-14.3,30.3,0,33.1,27,75.6,60.1,94.7,17.3,10,33.6,12,44.8,5.5,9.2-5.3,14.3-16.1,14.3-30.3,0-33.1-27-75.6-60.1-94.7-10.6-6.1-20.9-9.2-29.8-9.2h0Z"/>
        <ellipse class="cls-2" cx="685.7" cy="956.4" rx="27.5" ry="48.6" transform="translate(-437.2 604.2) rotate(-36.9)"/>
        <path class="cls-2" d="M704,999.6c-5.7,0-12.1-2-18.8-5.8-20.5-11.8-37.1-38.1-37.1-58.6s3.3-16.1,9.4-19.7c7.3-4.2,17.7-3,28.7,3.3,20.5,11.8,37.1,38.1,37.1,58.6s-3.3,16.1-9.4,19.7c-2.9,1.6-6.2,2.5-9.9,2.5h0ZM667.4,915.1c-3.3,0-6.3.7-8.9,2.2-5.4,3.1-8.4,9.5-8.4,17.9,0,19.9,16.2,45.4,36.1,56.8,10.3,6,20,7.2,26.7,3.3,5.4-3.1,8.4-9.5,8.4-17.9,0-19.9-16.2-45.4-36.1-56.8-6.3-3.7-12.5-5.5-17.8-5.5h0Z"/>
        <path class="cls-2" d="M776.3,974.1c0,15.5-5.3,24.8-15.4,31.5-3.4,2.2-20.6,13-29.8,17.2,6.2-3.8,10.2-9.7,12-13.7,2.1-4.9,3.2-10.8,3.2-17.7,0-33.5-27.1-76.3-60.6-95.6-9.9-5.7-19.2-8.7-27.4-9.3-4.4,0-11.9-.4-19.3,4.3,2.3-2.2,30.7-17.9,33.7-19.2,11-4.7,26.2-2.8,43,6.9,33.5,19.3,60.6,62.1,60.6,95.6h0Z"/>
        <path class="cls-2" d="M731,1023.8c-.4,0-.7-.2-.9-.5-.2-.5,0-1,.4-1.3,7.3-4.5,10.8-11.3,11.6-13.3,2.1-4.9,3.1-10.7,3.1-17.3,0-33.1-27-75.6-60.1-94.7-9.5-5.5-18.6-8.6-27-9.2h-.5c-4.2,0-11.3-.2-18.2,4.2-.4.3-1,.2-1.3-.2-.3-.4-.3-1,0-1.3,2.5-2.4,31.3-18.2,34-19.4,11.8-5.1,27.4-2.6,43.9,7,33.7,19.5,61.1,62.7,61.1,96.4s-4.9,25.1-15.8,32.3c-4,2.6-20.9,13.2-30,17.2-.1,0-.3,0-.4,0h0ZM655.8,885.5c.7,0,1.4,0,2,0h.5c8.7.6,18.1,3.8,27.9,9.4,33.7,19.5,61.1,62.7,61.1,96.4s-1.1,12.9-3.3,18.1c-.6,1.4-2.4,4.9-5.7,8.5,8.7-4.8,19-11.2,22-13.2,10.3-6.8,14.9-16.2,14.9-30.6,0-33.1-27-75.6-60.1-94.7-16-9.2-30.9-11.7-42.1-6.9-2.2.9-15.4,8.2-24.6,13.5,2.7-.5,5.2-.6,7.3-.6h0Z"/>
        <path class="cls-4" d="M768.8,696.1l216.4-124.9c-8.8-8.1-18.6-15.4-29.3-21.5l-118.2-68.2-216.2,125.2,118.2,68.2c10.6,6.1,20.3,13.3,29,21.3Z"/>
        <path class="cls-2" d="M768.8,697.1c-.2,0-.5,0-.7-.3-8.8-8.1-18.6-15.2-28.9-21.2l-118.2-68.2c-.3-.2-.5-.5-.5-.9s.2-.7.5-.9l216.2-125.2c.3-.2.7-.2,1,0l118.2,68.2c10.5,6.1,20.4,13.4,29.5,21.7.2.2.4.5.3.8,0,.3-.2.6-.5.8l-216.4,124.9c-.2,0-.3.1-.5.1h0ZM623.6,606.6l116.7,67.4c10.2,5.9,19.9,12.9,28.7,20.9l214.6-123.9c-8.6-7.8-18.1-14.7-28.1-20.5l-117.7-67.9-214.2,124Z"/>
        <path class="cls-4" d="M849.4,1029.2l189.2-108.9c5.8-3.4,9.4-9.5,9.4-16.2v-43.9c0-3.3-3.5-5.3-6.4-3.7l-199.6,114.6c-9.1,5.2-13.5,9.1-12,23.5,0,.5,0,1.1-.4,1.5l-22.3,30.6c12.3,9.2,28.8,10.1,42.1,2.4h0Z"/>
        <path class="cls-2" d="M830.2,1035.3c-8.3,0-16.5-2.6-23.5-7.8-.4-.3-.5-.9-.2-1.4l22.3-30.6c.2-.2.3-.5.2-.9-1.5-14.7,2.9-18.9,12.5-24.5l199.6-114.6c1.6-.9,3.6-.9,5.2,0,1.6.9,2.6,2.6,2.6,4.5v43.9c0,7-3.8,13.6-9.9,17.1l-189.2,108.9c-6.1,3.5-12.9,5.3-19.7,5.3h0ZM808.7,1026.5c11.9,8.4,27.5,9.1,40.2,1.8,0,0,0,0,0,0l189.2-108.9c5.5-3.2,8.9-9,8.9-15.4v-43.9c0-1.2-.6-2.2-1.6-2.8-1-.6-2.2-.6-3.2,0l-199.6,114.6c-9.1,5.2-12.9,9-11.5,22.5,0,.8-.1,1.6-.6,2.2l-21.7,29.8Z"/>
        <path class="cls-3" d="M1013.4,605.3s0,0,0,0c0,0,0,0,0,0-2.4-3.8-4.9-7.5-7.6-11.1-6.1-8.2-13-15.9-20.7-22.9l-216.4,124.9c7.6,7,14.6,14.7,20.7,22.9l7.3,10.6c16.5,26,25.6,56.5,25.6,88.4v50.2l216.2-124.8v-50.6c0-31.5-9-61.7-25.1-87.6Z"/>
        <path class="cls-2" d="M822.4,869.2c-.2,0-.3,0-.5-.1-.3-.2-.5-.5-.5-.9v-50.2c0-31.1-8.8-61.5-25.5-87.8l-7.3-10.6c-6.1-8.2-13.1-15.9-20.6-22.7-.2-.2-.4-.5-.3-.8s.2-.6.5-.8l216.4-124.9c.4-.2.9-.2,1.2.1,7.6,7,14.6,14.8,20.8,23.1,2.7,3.6,5.2,7.4,7.6,11.2,0,0,0,0,0,0,16.5,26.5,25.3,56.9,25.3,88.1v50.6c0,.4-.2.7-.5.9l-216.2,124.8c-.2,0-.3.1-.5.1h0ZM770.4,696.3c7.2,6.7,13.9,14.2,19.8,22.1l7.3,10.7c16.9,26.7,25.8,57.4,25.8,88.9v48.5l214.2-123.6v-50c0-30.8-8.6-60.9-25-87,0,0,0,0,0,0,0,0,0,0,0,0-2.4-3.8-4.9-7.5-7.6-11.1-6-8-12.7-15.5-20-22.3l-214.6,123.9ZM1038.6,743.4h0,0Z"/>
        <path class="cls-4" d="M994.4,605.3l-188.2,108.6c-4.8,2.8-6.2,9-3.2,13.7,16.3,25,25.4,54.6,25.4,85.5v30.2c0,6.7,7.3,11,13.1,7.6l180-103.9c7.4-4.2,11.9-12.1,11.9-20.6v-32c0-31.1-9.2-60.8-25.6-85.9-2.9-4.4-8.8-5.8-13.4-3.1h0Z"/>
        <path class="cls-2" d="M837.1,853c-1.7,0-3.4-.4-4.9-1.3-3.1-1.8-4.9-4.9-4.9-8.5v-30.2c0-30.2-8.7-59.6-25.2-84.9-1.6-2.5-2.1-5.5-1.5-8.4.7-2.9,2.5-5.2,5-6.7l188.2-108.6c5.1-2.9,11.5-1.4,14.7,3.5,16.9,25.8,25.8,55.7,25.8,86.5v32c0,8.8-4.7,17.1-12.4,21.5l-180,103.9c-1.5.9-3.2,1.3-4.9,1.3h0ZM999.4,604.9c-1.5,0-3.1.4-4.5,1.2l-188.2,108.6c-2.1,1.2-3.5,3.1-4.1,5.4-.6,2.4-.1,4.8,1.2,6.8,16.7,25.7,25.5,55.4,25.5,86v30.2c0,2.8,1.5,5.3,3.9,6.7,2.4,1.4,5.3,1.4,7.8,0l180-103.9c7-4.1,11.4-11.6,11.4-19.7v-32c0-30.4-8.8-59.9-25.5-85.4-1.7-2.6-4.6-4-7.5-4h0ZM994.4,605.3h0,0Z"/>
        <path class="cls-4" d="M736.4,880l24.7,33.6c11,14.9,24.6,29.2,40.1,39.2v-135c-.1-38-16.2-73.7-43.6-98.8h-.2c0,.1.2,0,.2,0-7.1-6.5-15-12.3-23.5-17.3l-95.7-55.3v118.1c0,10.7,0,45.7,28.3,59.9l.3.2c26,13,52.3,31.9,69.5,55.3Z"/>
        <path class="cls-2" d="M801.1,953.8c-.2,0-.4,0-.5-.2-14.1-9.1-28-22.7-40.3-39.5l-24.7-33.6c-15.3-20.9-39.9-40.4-69.1-55l-.4-.2c-12.3-6.1-20.8-16.8-25.2-31.8-3.6-12-3.6-23.4-3.6-29v-118.1c0-.4.2-.7.5-.9.3-.2.7-.2,1,0l95.7,55.3c8.5,4.9,16.4,10.7,23.7,17.4,27.8,25.5,43.8,61.8,43.8,99.5v135c.1.4,0,.7-.4.9-.1,0-.3.1-.5.1h0ZM639.3,648.2v116.4c0,45.1,20.9,55.6,27.7,59l.4.2c29.5,14.7,54.3,34.5,69.8,55.6l24.7,33.6c11.7,15.9,24.9,29,38.3,38v-133.1c-.1-37-15.7-72.5-42.8-97.7-.3,0-.7-.2-.8-.5,0-.1-.1-.3-.1-.4-7-6.4-14.7-12-22.8-16.6l-94.2-54.4Z"/>
        <path class="cls-4" d="M807.4,965.5c-2.2-1.2-4.3-2.5-6.4-3.9-15.5-10-29.1-22.8-40.1-37.7l-24.7-33.6c-17.2-23.4-39.7-42.4-65.7-55.4l-15.2-8.2-40.1-21.5c-4.5-2.4-10,.8-10,6v96.9l14,9.5s4.2-70.9,66.4-43.4c12,5.3,22.7,13.5,32.1,23.4,1.4,1.5,2.8,3,4.2,4.6,37,41.7,54.2,106.7,54.2,106.7l40.7,23.5c5.8,3.4,13.1-.8,13.1-7.6v-46.2l-22.7-13.1Z"/>
        <path class="cls-2" d="M821.3,1034.5c-1.7,0-3.3-.4-4.9-1.3l-40.7-23.5c-.2-.1-.4-.4-.5-.6-.2-.6-17.6-65.2-54-106.3-1.3-1.5-2.8-3-4.2-4.5-10.1-10.5-20.8-18.3-31.8-23.1-17.6-7.8-32.1-8.3-43.1-1.6-19.8,12.1-21.9,43.8-22,44.1,0,.4-.2.7-.6.8-.3.2-.7.1-1,0l-14-9.5c-.3-.2-.4-.5-.4-.8v-96.9c0-2.8,1.4-5.3,3.8-6.7,2.4-1.4,5.3-1.5,7.7-.2l55.3,29.7c26,13,48.8,32.2,66,55.6l24.7,33.6c10.9,14.9,24.3,27.5,39.8,37.5,2.1,1.4,4.3,2.7,6.3,3.9l22.7,13.1c.3.2.5.5.5.9v46.2c0,3.5-1.8,6.7-4.9,8.4-1.5.9-3.2,1.3-4.9,1.3h0ZM777.1,1008.2l40.3,23.3c2.4,1.4,5.3,1.4,7.7,0,2.4-1.4,3.9-3.9,3.9-6.7v-45.6l-22.2-12.8c-2.1-1.2-4.3-2.5-6.4-3.9-15.7-10.1-29.3-22.9-40.3-37.9l-24.7-33.6c-17-23.2-39.6-42.2-65.3-55.1l-55.3-29.7c-1.8-1-4-.9-5.7.1-1.8,1.1-2.8,2.9-2.8,5v96.3l12.1,8.2c.7-7,4.6-32.9,22.8-44,11.6-7.1,26.7-6.6,44.9,1.4,11.2,5,22.2,12.9,32.5,23.6,1.5,1.5,2.9,3.1,4.3,4.6,35.2,39.7,52.8,101.1,54.3,106.7h0Z"/>
        <path class="cls-2" d="M1002.9,893.6l-21.1,43.7-83.3,49.2-21.1-19.3,125.5-73.6Z"/>
        <path class="cls-2" d="M898.5,987.5c-.2,0-.5,0-.7-.3l-21.1-19.3c-.2-.2-.4-.5-.3-.8,0-.3.2-.6.5-.8l125.5-73.6c.4-.2.9-.2,1.2.1.3.3.4.8.2,1.2l-21.1,43.7c0,.2-.2.3-.4.4l-83.3,49.2c-.2,0-.3.1-.5.1h0ZM879.1,967.4l19.6,17.9,82.4-48.7,19.5-40.4-121.5,71.2Z"/>
        <path class="cls-4" d="M1011.7,801.4l-151.2,87.3-7-8.7,165.1-95.3-6.9,16.8Z"/>
        <path class="cls-2" d="M860.5,889.7c-.3,0-.6-.1-.8-.4l-6.9-8.7c-.2-.2-.3-.5-.2-.8s.2-.5.5-.7l165.1-95.3c.4-.2.8-.2,1.2.1.3.3.4.7.3,1.1l-6.9,16.8c0,.2-.2.4-.4.5l-151.2,87.3c-.2,0-.3.1-.5.1h0ZM855,880.3l5.7,7.2,150.2-86.7,5.7-13.7-161.6,93.3ZM1011.7,801.4h0,0Z"/>
        <path class="cls-4" d="M872.2,903.5l-7.3-9.2,142.4-82.2-7.3,17.7-127.8,73.8Z"/>
        <path class="cls-2" d="M872.2,904.5c-.3,0-.6-.1-.8-.4l-7.3-9.2c-.2-.2-.3-.5-.2-.8s.2-.5.5-.7l142.4-82.2c.4-.2.8-.2,1.2.1.3.3.4.7.3,1.1l-7.3,17.7c0,.2-.2.4-.4.5l-127.8,73.8c-.2,0-.3.1-.5.1h0ZM866.4,894.6l6.1,7.6,126.7-73.2,6.1-14.6-138.8,80.2Z"/>
        <path class="cls-4" d="M883.5,918.5l-7.3-8.7,119.8-69.2-7.4,17.2-105.1,60.6Z"/>
        <path class="cls-2" d="M883.5,919.5c-.3,0-.6-.1-.8-.4l-7.3-8.7c-.2-.2-.3-.5-.2-.8,0-.3.2-.5.5-.7l119.8-69.2c.4-.2.8-.2,1.2.1.3.3.4.7.3,1.1l-7.4,17.2c0,.2-.2.4-.4.5l-105.1,60.6c-.2,0-.3.1-.5.1h0ZM877.7,910.1l6,7.1,104.1-60,6.1-14.2-116.1,67.1Z"/>
        <path class="cls-4" d="M781.3,845.2l-59.5-34.4-67.7-71.9v-55.1l110.3,63.7c10.5,6.1,17,17.3,17,29.4v68.2Z"/>
        <path class="cls-2" d="M781.3,846.2c-.2,0-.3,0-.5-.1l-59.5-34.4c0,0-.2-.1-.2-.2l-67.7-71.9c-.2-.2-.3-.4-.3-.7v-55.1c0-.4.2-.7.5-.9.3-.2.7-.2,1,0l110.3,63.7c10.8,6.2,17.5,17.8,17.5,30.3v68.2c0,.4-.2.7-.5.9-.2,0-.3.1-.5.1h0ZM722.4,810l57.9,33.4v-66.5c0-11.8-6.3-22.7-16.5-28.6l-108.8-62.8v52.9l67.4,71.5Z"/>
        <path class="cls-2" d="M680.6,787l-26.5-15.3v-9.3l26.5,15.3v9.3Z"/>
        <path class="cls-2" d="M680.6,788c-.2,0-.3,0-.5-.1l-26.5-15.3c-.3-.2-.5-.5-.5-.9v-9.3c0-.4.2-.7.5-.9.3-.2.7-.2,1,0l26.5,15.3c.3.2.5.5.5.9v9.3c0,.4-.2.7-.5.9-.2,0-.3.1-.5.1ZM655,771.1l24.5,14.2v-7l-24.5-14.2v7Z"/>
        <path class="cls-4" d="M878.2,1000.8l-39.7,22.9v-33.5c0-2,1-3.8,2.8-4.8l17.1-9.9c6.2-3.6,14.2-.6,16.5,6.2l5,14.7c.5,1.6-.1,3.4-1.6,4.2h0Z"/>
        <path class="cls-2" d="M838.5,1024.7c-.2,0-.3,0-.5-.1-.3-.2-.5-.5-.5-.9v-33.5c0-2.3,1.2-4.5,3.3-5.6l17.1-9.9c3.2-1.9,7.1-2.2,10.6-.9,3.5,1.3,6.2,4.1,7.4,7.6l5,14.7c.7,2-.2,4.3-2,5.4l-39.7,22.9c-.2,0-.3.1-.5.1h0ZM864,975.1c-1.8,0-3.6.5-5.2,1.4l-17.1,9.9c-1.4.8-2.3,2.3-2.3,3.9v31.7l38.2-22.1c1-.6,1.5-1.9,1.1-3l-5-14.7c-1-3-3.2-5.3-6.2-6.4-1.2-.5-2.4-.7-3.7-.7h0Z"/>
        <path class="cls-4" d="M1006.5,924.4l34.3-19.5v-34.4c0-1-1.1-1.6-1.9-1.1l-18.8,10.6c-5.1,2.9-8.7,7.7-10.1,13.4l-6.9,28.5c-.5,2,1.6,3.6,3.4,2.6h0Z"/>
        <path class="cls-2" d="M1005.4,925.7c-.7,0-1.4-.2-2-.7-1.1-.8-1.6-2.1-1.2-3.4l6.9-28.5c1.4-5.9,5.3-11,10.6-14l18.8-10.6c.7-.4,1.6-.4,2.3,0,.7.4,1.1,1.2,1.1,2v34.4c0,.4-.2.7-.5.9l-34.3,19.5c-.5.3-1.1.4-1.7.4h0ZM1006.5,924.4h0,0ZM1039.6,870.2s0,0-.1,0l-18.8,10.6c-4.8,2.7-8.3,7.4-9.6,12.8l-6.9,28.5c-.1.5,0,1,.5,1.4.4.3,1,.4,1.5,0l33.8-19.2v-33.8c0-.1,0-.2-.1-.2,0,0,0,0-.1,0h0Z"/>
        <ellipse class="cls-4" cx="846.3" cy="945.1" rx="13.6" ry="7.7" transform="translate(-417.7 1053.4) rotate(-53.1)"/>
        <path class="cls-2" d="M841.2,957.9c-1.1,0-2.2-.3-3.1-.8-1.9-1.1-3-3.3-3-6.1,0-5.9,4.8-13.6,10.7-17,3.3-1.9,6.5-2.2,8.7-.9,1.9,1.1,3,3.3,3,6.1,0,5.9-4.8,13.6-10.7,17-2,1.1-3.9,1.7-5.6,1.7h0ZM851.4,934.3c-1.4,0-2.9.5-4.6,1.4-5.4,3.1-9.7,9.9-9.7,15.2s.7,3.6,2,4.4c1.6.9,4.1.6,6.7-.9,5.4-3.1,9.7-9.9,9.7-15.2s-.7-3.6-2-4.4c-.6-.3-1.3-.5-2.1-.5Z"/>
        <ellipse class="cls-4" cx="1018.2" cy="848.1" rx="13.6" ry="7.7" transform="translate(-271.6 1152.1) rotate(-53.1)"/>
        <path class="cls-2" d="M1013.1,860.9c-1.1,0-2.2-.3-3.1-.8-1.9-1.1-3-3.3-3-6.1,0-5.9,4.8-13.6,10.7-17,3.3-1.9,6.5-2.2,8.7-.9,1.9,1.1,3,3.3,3,6.1,0,5.9-4.8,13.6-10.7,17-2,1.1-3.9,1.7-5.6,1.7h0ZM1023.3,837.4c-1.4,0-2.9.5-4.6,1.4-5.4,3.1-9.7,9.9-9.7,15.2s.7,3.6,2,4.4c1.6.9,4.1.6,6.7-.9,5.4-3.1,9.7-9.9,9.7-15.2s-.7-3.6-2-4.4c-.6-.3-1.3-.5-2.1-.5Z"/>
        <path class="cls-3" d="M274.6,0l574.2,331.5-246.1,142.1L28.5,142.1,274.6,0Z"/>
        <path class="cls-3" d="M574.2,785.2L0,453.7V162l574.2,331.5v291.7Z"/>
      </g>
    </g>
  </g>
</svg>